<svg width="1174" height="1175" xmlns="http://www.w3.org/2000/svg" xmlns:xlink="http://www.w3.org/1999/xlink" overflow="hidden"><defs><clipPath id="clip0"><rect x="1613" y="650" width="1174" height="1175"/></clipPath><clipPath id="clip1"><rect x="1778" y="917" width="644" height="641"/></clipPath><clipPath id="clip2"><rect x="1778" y="917" width="644" height="641"/></clipPath><clipPath id="clip3"><rect x="1778" y="917" width="644" height="641"/></clipPath></defs><g clip-path="url(#clip0)" transform="translate(-1613 -650)"><path d="M0 0 96.1601 96.1601" stroke="#564EA0" stroke-width="13.75" stroke-miterlimit="8" fill="none" fill-rule="evenodd" transform="matrix(1 0 0 -1 2458 1107.16)"/><path d="M0 0 96.1601 96.1601" stroke="#564EA0" stroke-width="13.75" stroke-miterlimit="8" fill="none" fill-rule="evenodd" transform="matrix(1 0 0 -1 2524 1107.16)"/><path d="M0 0 96.1601 96.1601" stroke="#564EA0" stroke-width="13.75" stroke-miterlimit="8" fill="none" fill-rule="evenodd" transform="matrix(1 0 0 -1 2459 1034.16)"/><g clip-path="url(#clip1)"><g clip-path="url(#clip2)"><g clip-path="url(#clip3)"><path d="M641 152.729C639.376 165.292 637.966 177.899 636.128 190.42 630.304 232.78 617.296 273.837 597.668 311.825 585.489 334.986 570.362 356.567 556.815 379.002 555.255 381.559 554.704 384.608 555.277 387.548 571.387 443.102 558.695 491.732 518.697 533.098 494.467 558.14 469.511 582.455 444.854 607.069 435.794 616.129 429.897 616.129 420.923 607.069 390.497 576.729 360.128 546.316 329.816 515.834 327.182 512.885 323.174 511.565 319.303 512.372 296.655 515.663 274.006 519.082 251.229 521.646 246.367 521.458 241.663 519.872 237.683 517.073 234.742 514.612 232.179 511.731 230.076 508.526 223.581 515.321 218.068 521.346 212.342 527.03 184.423 554.58 156.489 582.314 128.542 610.232 126.672 612.129 124.625 613.847 122.431 615.36 117.553 618.501 111.174 617.975 106.876 614.078 102.65 610.069 101.828 603.638 104.91 598.694 106.408 596.438 108.157 594.361 110.124 592.497 142.288 560.362 174.509 528.269 206.787 496.219 208.48 494.775 210.28 493.459 212.171 492.288L149.31 429.684C147.985 430.965 146.319 432.461 144.78 433.957L77.1764 501.86C73.2022 505.877 68.9716 508.911 62.8607 507.159 56.2576 505.548 52.212 498.886 53.8243 492.284 54.1662 490.882 54.7516 489.553 55.5533 488.356 57.0951 486.121 58.8716 484.057 60.8522 482.203L131.918 412.248C131.353 411.264 130.679 410.347 129.909 409.513 119.098 401.992 118.158 391.865 120.294 379.6 123.798 359.943 126.234 340.072 128.585 320.243 128.616 316.884 127.327 313.646 124.995 311.227 95.0816 280.801 64.6128 250.631 34.4003 220.376 24.7853 210.803 24.7853 205.205 34.4003 195.548 60.6813 169.352 86.535 142.644 113.457 117.089 140.841 90.6677 178.03 76.908 216.017 79.1421 228.101 80.0959 240.065 82.2138 251.742 85.4666 255.813 86.8328 260.301 86.0093 263.622 83.2872 317.169 43.1175 379.591 16.4133 445.623 5.42713 457.674 3.3332 470.024 2.564 482.203 1.1538 484.254 0.940133 486.476 0.427333 488.271 0.0427333L540.833 0.0427333C542.234 0.502993 543.662 0.874089 545.106 1.1538 568.836 4.9998 592.57 8.80306 616.3 12.5636 622.278 13.1758 627.124 17.6744 628.18 23.5888 631.342 39.4428 634.462 55.2969 637.196 71.2364 638.82 80.8087 639.718 90.5092 640.957 100.124ZM514.381 25.64C485.066 25.4299 455.832 28.8023 427.333 35.6823 290.202 70.8946 194.949 153.541 143.926 286.313 142.037 289.584 142.756 293.739 145.635 296.185 212.27 362.45 278.792 428.957 345.2 495.706 347.296 498.198 350.812 498.954 353.746 497.544 401.429 481.224 445.2 455.174 482.288 421.051 592.925 317.124 634.803 190.291 605.83 40.7248 605.523 37.5859 602.993 35.128 599.848 34.9131 571.772 28.7815 543.119 25.6727 514.381 25.64ZM122.431 270.929C146.09 208.146 184.454 151.949 234.307 107.047L230.033 106.406 226.914 105.979C193.625 101.406 162.814 108.414 137.559 130.508 110.209 154.609 85.4666 181.403 59.3138 207.043 59.0574 207.299 58.972 207.769 59.0574 207.598ZM433.529 581.942C434.683 580.874 436.222 579.507 437.803 578.054 458.144 557.712 478.699 537.542 498.741 516.902 506.232 509.377 512.945 501.117 518.782 492.245 535.235 466.605 539.636 438.102 533.996 406.778 511.437 431.824 485.955 454.076 458.101 473.058 430.658 491.63 401.108 506.877 370.071 518.483ZM299.902 489.211 151.661 341.055C149.78 354.473 147.387 369.301 145.806 384.13 145.539 386.672 146.309 389.214 147.943 391.181 181.702 425.367 215.59 459.285 249.605 492.929 250.945 494.42 252.818 495.326 254.819 495.45 270.416 493.484 285.971 491.177 299.902 489.211Z" fill="#564EA0" transform="matrix(1.00156 0 0 1 1779 917.043)"/><path d="M14.9994 641C2.9486 641-3.205 630.487 1.70933 622.24 3.18222 619.979 4.91788 617.898 6.88006 616.044 37.5341 585.331 68.2024 554.649 98.8849 523.996 100.223 522.633 101.651 521.364 103.158 520.193 108.47 515.693 116.425 516.351 120.925 521.663 124.954 526.419 124.903 533.402 120.807 538.098 120.024 539.072 119.182 540.004 118.286 540.876 86.9482 572.212 55.5106 603.553 23.9734 634.889 21.2423 637.282 18.2286 639.337 14.9994 641Z" fill="#564EA0" transform="matrix(1.00156 0 0 1 1779 917.043)"/><path d="M43.9726 529.893C43.8371 536.688 38.2179 542.089 31.4222 541.952 31.3323 541.952 31.2424 541.948 31.1526 541.944 24.456 541.542 19.2016 536.047 19.1018 529.338 19.2871 522.389 24.9729 516.855 31.9218 516.859 38.8457 517.137 44.2375 522.97 43.9726 529.893Z" fill="#564EA0" transform="matrix(1.00156 0 0 1 1779 917.043)"/><path d="M342.978 227.598C334.816 219.436 327.551 212.299 320.5 205.12 310.287 194.821 313.022 184.266 326.91 180.548 379.557 166.304 432.26 152.216 485.023 138.285 499.04 134.524 506.817 142.259 503.057 156.19 488.814 208.752 474.626 261.371 460.494 314.047 456.734 328.021 446.264 330.841 436.008 320.671 428.743 313.492 421.692 306.141 413.274 297.595 412.016 299.784 410.587 301.87 409.001 303.834 381.309 331.482 353.789 358.96 326.012 386.48 323.006 389.819 318.922 391.997 314.474 392.634 310.04 392.342 305.974 390.065 303.407 386.437 301.569 383.446 302.637 378.275 303.407 374.258 303.834 372.122 306.312 370.284 308.064 368.489 339.402 337.152 370.655 305.814 401.821 274.476 410.71 265.588 416.821 265.588 425.752 274.476L440.41 289.219C451.435 248.281 462.161 208.368 473.101 167.515L350.883 200.248C356.823 205.932 361.908 210.675 366.823 215.59 374.686 223.495 374.814 229.948 367.122 237.683 349.145 256.029 331.055 274.248 312.851 292.339 309.614 296.485 304.225 298.314 299.133 296.997 294.345 295.776 290.756 291.8 290.031 286.911 289.414 281.849 291.528 276.839 295.586 273.75 309.346 259.904 323.149 246.058 336.995 232.213 338.893 230.553 340.891 229.012 342.978 227.598Z" fill="#564EA0" transform="matrix(1.00156 0 0 1 1779 917.043)"/><path d="M272.98 326.397C273.169 333.286 267.738 339.023 260.849 339.213 260.762 339.215 260.675 339.217 260.588 339.217 253.649 339.347 247.919 333.827 247.789 326.889 247.659 319.95 253.179 314.22 260.118 314.09 266.833 313.712 272.584 318.85 272.962 325.565 272.978 325.842 272.984 326.12 272.98 326.397Z" fill="#564EA0" transform="matrix(1.00156 0 0 1 1779 917.043)"/></g></g></g></g></svg>