<svg width="500" height="500" xmlns="http://www.w3.org/2000/svg" xmlns:xlink="http://www.w3.org/1999/xlink" overflow="hidden"><defs><clipPath id="clip0"><rect x="390" y="110" width="500" height="500"/></clipPath></defs><g clip-path="url(#clip0)" transform="translate(-390 -110)"><path d="M466.953 158.908 803.781 158.908C812.757 158.908 820.897 162.563 826.795 168.458 832.687 174.356 836.361 182.486 836.361 191.463L836.361 525.807C836.361 534.771 832.687 542.913 826.795 548.809 820.897 554.714 812.757 558.355 803.781 558.355L466.953 558.355C457.973 558.355 449.834 554.714 443.938 548.809 438.043 542.913 434.37 534.774 434.37 525.807L434.37 191.463C434.37 182.482 438.043 174.356 443.938 168.458 449.834 162.563 457.973 158.908 466.953 158.908ZM803.781 175.204 466.953 175.204C462.474 175.204 458.411 177.036 455.47 179.99 452.516 182.934 450.684 187.007 450.684 191.463L450.684 525.807C450.684 530.259 452.516 534.336 455.47 537.277 458.411 540.241 462.478 542.056 466.953 542.056L803.781 542.056C808.259 542.056 812.322 540.241 815.263 537.277 818.214 534.339 820.049 530.259 820.049 525.807L820.049 191.463C820.049 187.004 818.214 182.934 815.263 179.99 812.322 177.036 808.259 175.204 803.781 175.204Z" fill="#FBD848"/><path d="M698.142 295.432 722.237 295.432 722.237 217.14C722.237 213.767 723.598 210.728 725.796 208.523 728.014 206.318 731.047 204.964 734.41 204.964 737.776 204.964 740.825 206.318 743.017 208.523 745.222 210.728 746.589 213.767 746.589 217.14L746.589 295.432 770.664 295.432C777.877 295.432 783.782 301.334 783.782 308.547 783.782 315.764 777.877 321.663 770.664 321.663L746.589 321.663 746.589 441.031C746.589 444.391 745.222 447.44 743.017 449.632 740.825 451.83 737.776 453.204 734.41 453.204 731.05 453.204 728.014 451.83 725.796 449.632 723.598 447.44 722.237 444.391 722.237 441.031L722.237 321.663 698.142 321.663C690.929 321.663 685.031 315.761 685.031 308.547 685.031 301.334 690.929 295.432 698.142 295.432ZM598.481 351.78 622.566 351.78 622.566 217.14C622.566 213.767 623.93 210.728 626.135 208.523 628.33 206.318 631.379 204.964 634.748 204.964 638.092 204.964 641.147 206.318 643.346 208.523 645.551 210.728 646.905 213.767 646.905 217.14L646.905 351.776 670.999 351.776C678.213 351.776 684.118 357.678 684.118 364.891 684.118 372.105 678.213 378.01 670.999 378.01L646.905 378.01 646.905 441.031C646.905 444.391 645.551 447.44 643.346 449.632 641.147 451.83 638.095 453.204 634.748 453.204 631.376 453.204 628.33 451.83 626.135 449.632 623.93 447.44 622.566 444.391 622.566 441.031L622.566 378.013 598.481 378.013C591.268 378.013 585.366 372.108 585.366 364.895 585.363 357.678 591.265 351.78 598.481 351.78ZM499.703 294.183 523.238 294.183 523.238 217.14C523.238 213.767 524.609 210.728 526.817 208.523 529.012 206.318 532.061 204.964 535.421 204.964 538.778 204.964 541.823 206.318 544.028 208.523 546.233 210.728 547.588 213.767 547.588 217.14L547.588 294.183 572.221 294.183C579.435 294.183 585.337 300.084 585.337 307.298 585.337 314.511 579.435 320.413 572.221 320.413L547.588 320.413 547.588 441.034C547.588 444.394 546.23 447.443 544.028 449.635 541.823 451.833 538.778 453.207 535.421 453.207 532.058 453.207 529.012 451.833 526.817 449.635 524.612 447.443 523.238 444.394 523.238 441.034L523.238 320.413 499.703 320.413C492.49 320.413 486.588 314.511 486.588 307.298 486.588 300.081 492.49 294.183 499.703 294.183ZM734.41 470.284C741.623 470.284 748.159 473.212 752.919 477.959L752.939 477.946C757.679 482.693 760.614 489.242 760.614 496.488 760.614 503.682 757.683 510.232 752.939 514.979L752.9 515.037C748.14 519.765 741.59 522.686 734.41 522.686 727.183 522.686 720.627 519.755 715.887 515.018L715.484 514.563C710.98 509.855 708.199 503.483 708.199 496.488 708.199 489.242 711.143 482.693 715.887 477.946 720.627 473.209 727.183 470.284 734.41 470.284ZM743.354 487.515C741.093 485.248 737.923 483.841 734.41 483.841 730.929 483.841 727.759 485.254 725.472 487.541 723.192 489.821 721.759 492.978 721.759 496.485 721.759 499.838 723.068 502.881 725.171 505.141L725.472 505.416C727.759 507.703 730.929 509.116 734.41 509.116 737.923 509.116 741.093 507.723 743.354 505.442L743.38 505.416C745.641 503.143 747.067 499.979 747.067 496.485 747.067 492.978 745.641 489.821 743.354 487.541L743.373 487.534 743.354 487.515ZM634.742 470.284C641.955 470.284 648.505 473.212 653.252 477.959L653.265 477.946C658.012 482.693 660.953 489.242 660.953 496.488 660.953 503.702 658.015 510.238 653.252 514.998L653.265 515.018C648.538 519.752 641.975 522.686 634.742 522.686 627.538 522.686 621.005 519.755 616.242 515.018L616.196 514.959C611.459 510.212 608.544 503.682 608.544 496.488 608.544 489.242 611.479 482.693 616.226 477.946L616.657 477.543C621.362 473.049 627.741 470.284 634.742 470.284ZM643.683 487.515C641.403 485.248 638.246 483.841 634.739 483.841 631.376 483.841 628.33 485.12 626.076 487.233L625.804 487.541C623.514 489.821 622.095 492.978 622.095 496.485 622.095 499.979 623.495 503.143 625.775 505.416L625.804 505.442C628.065 507.723 631.232 509.116 634.735 509.116 638.229 509.116 641.38 507.703 643.68 505.416L643.699 505.423 643.706 505.416C645.979 503.143 647.38 499.979 647.38 496.485 647.38 492.978 645.966 489.821 643.68 487.541L643.699 487.534 643.683 487.515ZM535.424 470.284C542.657 470.284 549.217 473.212 553.944 477.946 558.691 482.693 561.635 489.242 561.635 496.488 561.635 503.702 558.691 510.238 553.934 514.998L553.944 515.018C549.217 519.752 542.657 522.686 535.424 522.686 528.221 522.686 521.681 519.755 516.914 515.018L516.875 514.959C512.138 510.212 509.214 503.682 509.214 496.488 509.214 489.242 512.145 482.693 516.895 477.946L517.323 477.543C522.034 473.049 528.417 470.284 535.424 470.284ZM544.359 487.541C542.078 485.254 538.912 483.841 535.424 483.841 532.061 483.841 529.016 485.12 526.765 487.233L526.487 487.541C524.197 489.821 522.787 492.978 522.787 496.485 522.787 499.979 524.19 503.143 526.461 505.416L526.49 505.442C528.751 507.723 531.927 509.116 535.431 509.116 538.918 509.116 542.085 507.703 544.365 505.416L544.385 505.423 544.395 505.416C546.672 503.143 548.075 499.979 548.075 496.485 548.065 492.978 546.655 489.821 544.359 487.541Z" fill="#FC9E60"/></g></svg>