<svg width="1174" height="1175" xmlns="http://www.w3.org/2000/svg" xmlns:xlink="http://www.w3.org/1999/xlink" overflow="hidden"><defs><clipPath id="clip0"><rect x="1613" y="650" width="1174" height="1175"/></clipPath></defs><g clip-path="url(#clip0)" transform="translate(-1613 -650)"><path d="M1981 1517.04 1990.04 1505.44C2131.97 1615.95 2335.28 1597.3 2454.74 1462.82 2565.39 1337.1 2561.23 1161.89 2482.3 1049.05 2474.98 1049.81 2467.58 1049.71 2460.28 1048.77 2443.2 1044.25 2433 1026.74 2437.51 1009.65 2437.76 1008.67 2438.06 1007.71 2438.41 1006.76 2444.7 989.571 2463.74 980.736 2480.93 987.028 2480.96 987.04 2480.99 987.052 2481.02 987.064L2482.06 987.443C2498.51 994.332 2506.26 1013.25 2499.37 1029.71 2499.36 1029.73 2499.35 1029.75 2499.34 1029.78 2499.06 1030.49 2498.73 1031.2 2498.4 1031.86 2495.51 1036.38 2495.9 1042.25 2499.34 1046.35 2604.77 1211.96 2556 1431.69 2390.42 1537.13 2350.66 1562.45 2306.27 1579.6 2259.82 1587.6 2160.39 1604.31 2069.68 1582.11 1988.05 1522.82 1985.88 1521.26 1983.84 1519.46 1981 1517.04ZM2469.28 1034.94C2478.8 1035.63 2487.08 1028.47 2487.77 1018.95 2488.46 1009.43 2481.3 1001.15 2471.78 1000.46 2471.45 1000.44 2471.13 1000.42 2470.79 1000.42L2469 1000.42C2459.47 1000.99 2452.21 1009.18 2452.78 1018.71 2453.31 1027.54 2460.44 1034.55 2469.28 1034.94Z" stroke="#564EA0" stroke-width="5.72917" stroke-miterlimit="8" fill="#564EA0" fill-rule="evenodd"/><path d="M1902.93 1432.46C1799.74 1272.49 1840.2 1069.15 1978.4 959.691 2118.25 849.097 2303.45 863.915 2419 957.892 2416.16 961.632 2413.27 965.372 2411.66 967.36 2386.03 953.157 2362.29 937.155 2336.42 926.124 2230.96 881.101 2127.16 887.208 2028.47 944.635 1937.23 997.423 1882.84 1077.81 1865.17 1181.35 1850.95 1265.9 1867.25 1345.3 1912.54 1418.3 1914.53 1420.82 1917.58 1422.27 1920.79 1422.23 1938.17 1420.05 1952.91 1427.87 1958.36 1442.92 1964.61 1459.9 1955.91 1478.73 1938.92 1484.98 1927.07 1489.34 1913.77 1486.51 1904.73 1477.72 1893.21 1466.5 1891.84 1449.78 1901.22 1435.11ZM1945.04 1454.09C1944.94 1444.63 1937.18 1437.04 1927.71 1437.14 1927.71 1437.14 1927.7 1437.14 1927.7 1437.14L1927.7 1437.14C1918.25 1437.24 1910.57 1444.79 1910.32 1454.23 1910.55 1463.99 1918.51 1471.78 1928.27 1471.8 1937.71 1471.34 1945.11 1463.53 1945.04 1454.09Z" stroke="#564EA0" stroke-width="5.72917" stroke-miterlimit="8" fill="#564EA0" fill-rule="evenodd"/><path d="M2008.08 1380 1996 1370.56C2003.17 1359.98 2013.33 1351.76 2025.19 1346.94 2053.19 1336.7 2081.62 1326.68 2109.67 1316.39 2114.78 1314.6 2119.52 1312.85 2124.26 1311.1 2139.23 1305.2 2142.36 1290.13 2132.13 1277.67 2097.16 1235.16 2083.23 1187.28 2098.34 1133.59 2112.18 1084.24 2151.69 1057.03 2204.05 1058.03 2251.68 1057.84 2292.94 1090.88 2303.03 1137.27 2315.82 1190.21 2301.99 1237.43 2267.02 1278.94 2259.64 1286.85 2260.09 1299.22 2268.02 1306.57 2268.03 1306.59 2268.05 1306.6 2268.06 1306.61 2269.81 1308.26 2271.85 1309.56 2274.08 1310.44 2304.31 1321.3 2334.78 1331.74 2364.96 1342.88 2380.65 1347.8 2394.34 1357.62 2404 1370.89L2392.91 1379.39C2367.42 1353.6 2332.64 1348.31 2301.14 1336.18L2261.95 1322.01C2254.66 1319.81 2249.45 1313.38 2248.83 1305.81 2247.69 1297.74 2247.07 1289.6 2246.98 1281.44 2247.59 1278.1 2249.25 1275.04 2251.72 1272.71 2284.88 1235.4 2299.86 1192.43 2288.15 1143.03 2280.15 1109.31 2259.72 1084.38 2224.38 1076.4 2153.78 1060.53 2109.29 1108.56 2107.91 1168.34 2106.52 1207.81 2121.72 1246.07 2149.85 1273.89 2150.88 1274.79 2151.79 1275.82 2152.55 1276.96 2159.28 1290.65 2149.75 1317.52 2135.44 1322.91 2109.67 1332.35 2083.32 1341.13 2057.6 1350.63 2039.45 1357.29 2020.59 1362.95 2008.08 1380Z" stroke="#564EA0" stroke-width="5.72917" stroke-miterlimit="8" fill="#564EA0" fill-rule="evenodd"/><path d="M2058.27 1013.89C2058.27 1021.27 2059.74 1028.89 2057.99 1035.7 2053.22 1052.72 2035.55 1062.65 2018.53 1057.88 2018.5 1057.87 2018.47 1057.86 2018.45 1057.85 2017.41 1057.57 2016.36 1057.19 2015.37 1056.81 1998.48 1050.62 1989.8 1031.91 1996 1015.02 2002.2 998.135 2020.92 989.469 2037.81 995.664 2039.13 996.134 2040.42 996.704 2041.65 997.367 2045.59 1000.12 2050.83 1000.12 2054.77 997.367 2187.57 917.315 2360.15 960.024 2440.24 1092.76 2458.21 1122.54 2470.49 1155.4 2476.44 1189.67 2489.37 1262.65 2474.64 1330.71 2434.16 1393.19 2432.69 1395.46 2430.94 1397.44 2428.95 1400L2417.06 1391.48C2462.29 1323.94 2476.82 1251.1 2457.03 1172.58 2442.89 1114.33 2408.96 1062.8 2361.04 1026.76 2264.54 952.593 2137.26 960.308 2058.27 1013.89ZM2027.21 1008.87C2017.66 1008.79 2009.86 1016.46 2009.78 1026 2009.71 1035.54 2017.38 1043.34 2026.93 1043.42 2036.47 1043.5 2044.27 1035.83 2044.35 1026.29L2044.35 1026.29C2044.48 1016.8 2036.89 1009 2027.4 1008.87 2027.34 1008.87 2027.27 1008.87 2027.21 1008.87Z" stroke="#564EA0" stroke-width="5.72917" stroke-miterlimit="8" fill="#564EA0" fill-rule="evenodd"/><path d="M2348.8 1476.14C2223.01 1552.3 2066.09 1520.61 1980.4 1412.94 1896.04 1307.03 1904.19 1165.12 1970.92 1076L1982.63 1084.09C1981.06 1086.74 1979.83 1089.06 1978.41 1091.23 1897.38 1213.14 1930.71 1377.54 2052.85 1458.42 2079.6 1476.13 2109.34 1488.85 2140.64 1495.96 2208.75 1511.66 2273.58 1501.16 2334.48 1466.77 2338.18 1464.74 2340.17 1462.85 2339.22 1457.93 2335.72 1442.38 2344.29 1426.64 2359.27 1421.13 2376.07 1414.5 2395.06 1422.73 2401.7 1439.49 2408.34 1456.25 2400.1 1475.22 2383.3 1481.84 2372.9 1485.94 2361.12 1484.45 2352.07 1477.89 2350.94 1477.37 2349.85 1476.79 2348.8 1476.14ZM2371.22 1434.28C2361.61 1434.17 2353.74 1441.86 2353.63 1451.45 2353.53 1461.04 2361.23 1468.89 2370.84 1469 2380.44 1469.1 2388.32 1461.41 2388.42 1451.83L2388.42 1451.83C2388.4 1442.29 2380.77 1434.51 2371.22 1434.28Z" stroke="#564EA0" stroke-width="5.72917" stroke-miterlimit="8" fill="#564EA0" fill-rule="evenodd"/></g></svg>