<svg width="30" height="30" xmlns="http://www.w3.org/2000/svg" xmlns:xlink="http://www.w3.org/1999/xlink" overflow="hidden"><defs><clipPath id="clip0"><rect x="625" y="345" width="30" height="30"/></clipPath></defs><g clip-path="url(#clip0)" transform="translate(-625 -345)"><path d="M655 373.72C654.976 374.192 654.701 374.616 654.28 374.83 653.843 375.08 653.3 375.053 652.89 374.76 652.757 374.673 652.636 374.569 652.53 374.45L625.53 347.45C624.956 346.971 624.859 346.126 625.31 345.53 625.786 344.947 626.644 344.858 627.23 345.33L627.5 345.59 654.41 372.5C654.772 372.803 654.987 373.248 655 373.72Z" fill="#3184CB"/><path d="M653.61 351.85C653.61 352.31 653.61 352.77 653.61 353.22 653.632 354.597 652.591 355.76 651.22 355.89 650.095 355.98 648.965 355.98 647.84 355.89 646.548 355.791 645.532 354.745 645.47 353.45 645.4 352.378 645.4 351.302 645.47 350.23 645.511 348.956 646.5 347.916 647.77 347.81 648.967 347.7 650.173 347.7 651.37 347.81 652.644 347.98 653.596 349.065 653.6 350.35 653.6 350.85 653.6 351.35 653.6 351.85Z" fill="#FFE44B"/><path d="M638.64 353.19 637.14 353.19C635.737 353.139 634.611 352.013 634.56 350.61 634.56 349.61 634.56 348.71 634.56 347.77 634.52 346.325 635.646 345.115 637.09 345.05 638.119 344.98 639.151 344.98 640.18 345.05 641.537 345.091 642.633 346.173 642.69 347.53 642.765 348.632 642.765 349.738 642.69 350.84 642.559 352.147 641.473 353.151 640.16 353.18 639.66 353.18 639.16 353.18 638.66 353.18Z" fill="#FFE44B"/><path d="M650.9 365.45C650.4 365.45 649.9 365.45 649.4 365.45 647.993 365.398 646.866 364.267 646.82 362.86 646.82 361.92 646.82 360.97 646.82 360.02 646.78 358.584 647.895 357.38 649.33 357.31 650.382 357.24 651.438 357.24 652.49 357.31 653.823 357.361 654.894 358.427 654.95 359.76 655.03 360.872 655.03 361.988 654.95 363.1 654.815 364.405 653.732 365.407 652.42 365.44 651.9 365.46 651.4 365.45 650.9 365.45Z" fill="#FFE44B"/><path d="M640 366.83C642.259 366.836 644.085 368.671 644.08 370.93 644.074 373.189 642.239 375.016 639.98 375.01 637.721 375.004 635.894 373.169 635.9 370.91 635.9 370.903 635.9 370.897 635.9 370.89 635.917 368.639 637.749 366.824 640 366.83ZM641.34 370.92C641.345 370.169 640.741 369.556 639.99 369.55 639.239 369.545 638.625 370.149 638.62 370.9 638.615 371.651 639.219 372.265 639.97 372.27 639.98 372.27 639.99 372.27 640 372.27 640.746 372.27 641.35 371.666 641.35 370.92Z" fill="#FFA463"/><path d="M629.11 354.57C631.369 354.581 633.191 356.421 633.18 358.68 633.169 360.939 631.329 362.761 629.07 362.75 626.815 362.739 624.995 360.905 625 358.65 624.989 356.408 626.797 354.581 629.04 354.57 629.063 354.57 629.087 354.57 629.11 354.57ZM629.1 360C629.851 359.994 630.456 359.381 630.45 358.63 630.444 357.879 629.831 357.275 629.08 357.28 628.333 357.286 627.73 357.893 627.73 358.64 627.735 359.393 628.347 360 629.1 360Z" fill="#FFA463"/><path d="M630.43 373.62C628.177 373.601 626.366 371.758 626.385 369.505 626.404 367.252 628.247 365.441 630.5 365.46 632.753 365.479 634.564 367.322 634.545 369.575 634.526 371.828 632.683 373.639 630.43 373.62ZM631.82 369.54C631.755 368.786 631.092 368.227 630.338 368.292 629.674 368.349 629.147 368.876 629.09 369.54 629.106 370.29 629.719 370.89 630.47 370.89 631.211 370.879 631.809 370.281 631.82 369.54Z" fill="#FFA463"/></g></svg>