<svg width="500" height="500" xmlns="http://www.w3.org/2000/svg" xmlns:xlink="http://www.w3.org/1999/xlink" overflow="hidden"><defs><clipPath id="clip0"><rect x="390" y="110" width="500" height="500"/></clipPath></defs><g clip-path="url(#clip0)" transform="translate(-390 -110)"><path d="M529.031 404.079C545.12 437.627 593.913 438.821 609.3 404.255 605.084 400.004 601.958 395.437 598.866 390.906 598.375 390.168 597.848 389.43 597.356 388.658 589.909 394.559 580.881 398.318 569.148 398.283 556.466 398.248 546.911 393.4 539.078 386.234 538.586 385.812 538.164 385.391 537.708 384.934 536.583 388.06 535.178 391.784 533.633 395.262 532.157 398.669 530.576 401.831 529.031 404.079ZM704.709 414.723C717.636 441.737 756.91 442.685 769.31 414.863 765.903 411.421 763.409 407.768 760.915 404.114 760.528 403.517 760.107 402.92 759.685 402.323 753.678 407.065 746.442 410.086 736.992 410.086 726.77 410.051 719.076 406.152 712.788 400.391 712.402 400.039 712.051 399.688 711.664 399.337 710.751 401.831 709.627 404.852 708.397 407.662 707.203 410.367 705.938 412.931 704.709 414.723ZM772.964 411.878C786.804 421.643 820.422 423.997 833.315 431.198 837.6 433.587 841.464 436.643 844.591 440.753 851.09 449.325 864.368 480.484 842.835 482.1L802.296 482.1 807.284 426.351C796.43 424.208 784.907 422.592 772.893 415.636 765.481 448.271 715.107 452.943 700.599 416.515L699.229 413.002C701.899 411.561 702.917 408.365 704.041 405.765 705.622 402.112 707.098 398.142 708.011 395.437 704.112 390.871 700.81 385.707 697.578 380.613L687.039 363.892C683.175 358.131 681.173 352.897 681.067 348.576 680.997 346.538 681.348 344.712 682.086 343.096 682.859 341.41 684.088 340.004 685.704 338.88 686.477 338.353 687.32 337.932 688.269 337.581 687.566 328.517 687.32 317.065 687.777 307.475 688.023 305.192 688.444 302.944 689.077 300.66 691.782 291.035 698.526 283.307 706.852 278.002 711.454 275.087 716.512 272.839 721.781 271.363 725.119 270.415 721.29 262.897 724.767 262.546 741.453 260.825 766.149 272.944 777.812 285.555 783.643 291.878 787.331 300.274 788.104 311.375L787.437 338.705C790.352 339.583 792.214 341.445 792.987 344.466 793.83 347.768 792.917 352.475 790.107 358.833 790.036 358.939 790.001 359.079 789.931 359.185L777.917 378.962C773.526 386.234 769.029 393.505 763.198 399.266 763.725 400.004 764.252 400.812 764.779 401.55 767.168 405.027 769.556 408.505 772.612 411.632 772.788 411.667 772.893 411.772 772.964 411.878ZM694.381 342.463C692.063 342.569 690.271 343.026 689.077 343.833 688.374 344.29 687.882 344.887 687.566 345.59 687.215 346.363 687.039 347.311 687.074 348.4 687.18 351.597 688.831 355.777 692.098 360.625L692.133 360.695 702.671 377.416C706.887 384.126 711.313 390.976 716.828 395.999 722.098 400.847 728.526 404.114 737.027 404.149 746.231 404.184 752.94 400.777 758.385 395.648 764.041 390.344 768.538 383.037 772.929 375.801L784.767 356.269C786.98 351.246 787.788 347.838 787.261 345.871 786.945 344.677 785.645 344.115 783.467 344.009 782.975 343.974 782.519 343.974 782.027 343.974 781.5 344.009 780.938 344.044 780.376 344.079 780.06 344.115 779.744 344.079 779.463 344.009 778.409 344.079 777.32 343.974 776.196 343.833L780.271 325.848C750.13 330.59 727.578 308.213 695.716 321.351L697.999 342.534C696.7 342.674 695.505 342.639 694.381 342.463ZM613.866 400.531C631.044 412.65 672.812 415.601 688.866 424.524 694.205 427.51 698.983 431.269 702.882 436.397 710.962 447.041 727.472 485.753 700.704 487.79L650.295 487.79 656.477 418.517C642.988 415.882 628.691 413.845 613.761 405.203 604.557 445.742 541.958 451.538 523.937 406.292 510.553 413.037 497.52 416.901 481.923 419.29L491.619 487.755 437.626 487.755C410.858 485.718 427.369 447.041 435.448 436.362 439.312 431.233 444.125 427.475 449.464 424.489 465.448 415.566 507.075 412.65 524.324 400.566 525.588 398.669 526.958 395.894 528.258 392.873 530.225 388.341 532.052 383.388 533.211 380.016 528.398 374.325 524.253 367.897 520.284 361.609L507.181 340.812C502.403 333.681 499.909 327.147 499.769 321.808 499.698 319.279 500.12 316.995 501.068 314.993 502.052 312.885 503.527 311.129 505.565 309.759 506.513 309.126 507.567 308.599 508.726 308.143 507.883 296.867 507.567 282.639 508.094 270.731 508.375 267.885 508.937 265.11 509.71 262.265 513.047 250.321 521.443 240.696 531.806 234.092 537.532 230.438 543.785 227.698 550.354 225.837 554.499 224.677 549.757 215.298 554.042 214.876 574.803 212.769 605.471 227.804 619.979 243.471 627.25 251.34 631.817 261.738 632.766 275.543L631.958 309.478C635.611 310.567 637.894 312.885 638.843 316.609 639.897 320.719 638.737 326.55 635.26 334.489 635.189 334.63 635.119 334.77 635.049 334.911L620.119 359.466C614.639 368.494 609.089 377.522 601.817 384.688 602.45 385.601 603.117 386.585 603.784 387.533 606.735 391.854 609.721 396.175 613.55 400.074 613.656 400.285 613.761 400.391 613.866 400.531ZM516.209 314.29C513.293 314.396 511.115 314.993 509.605 316.012 508.762 316.574 508.094 317.311 507.743 318.19 507.286 319.173 507.075 320.332 507.111 321.702 507.216 325.672 509.288 330.871 513.328 336.878L513.363 336.983 526.431 357.78C531.665 366.14 537.181 374.641 543.996 380.894 550.565 386.901 558.539 390.941 569.077 391.011 580.494 391.046 588.855 386.831 595.635 380.473 602.66 373.868 608.246 364.805 613.726 355.812L628.445 331.538C631.185 325.286 632.203 321.07 631.571 318.611 631.185 317.136 629.569 316.433 626.829 316.293 626.232 316.258 625.634 316.258 625.037 316.258 624.37 316.293 623.702 316.328 622.965 316.363 622.578 316.398 622.192 316.363 621.841 316.293 620.541 316.363 619.171 316.258 617.801 316.082L622.859 293.74C585.412 299.642 557.415 271.82 517.825 288.19L520.67 314.536C519.125 314.536 517.614 314.501 516.209 314.29Z" fill="#FBD848" fill-rule="evenodd"/></g></svg>