<svg width="838" height="720" xmlns="http://www.w3.org/2000/svg" xmlns:xlink="http://www.w3.org/1999/xlink" xml:space="preserve" overflow="hidden"><defs><clipPath id="clip0"><rect x="221" y="0" width="838" height="720"/></clipPath><linearGradient x1="-84.4139" y1="300.682" x2="920.686" y2="300.682" gradientUnits="userSpaceOnUse" spreadMethod="pad" id="fill1"><stop offset="0" stop-color="#F5F0F7"/><stop offset="1" stop-color="#EFF7FF"/></linearGradient><linearGradient x1="204.448" y1="222.337" x2="-3.74095" y2="233.553" gradientUnits="userSpaceOnUse" spreadMethod="pad" id="fill2"><stop offset="0" stop-color="#3FD4E6"/><stop offset="1" stop-color="#5477FF"/></linearGradient><linearGradient x1="210.753" y1="315.483" x2="113.707" y2="205.61" gradientUnits="userSpaceOnUse" spreadMethod="pad" id="fill3"><stop offset="0" stop-color="#3FD4E6"/><stop offset="1" stop-color="#5477FF"/></linearGradient><linearGradient x1="187.909" y1="158.421" x2="89.3607" y2="163.731" gradientUnits="userSpaceOnUse" spreadMethod="pad" id="fill4"><stop offset="0" stop-color="#3FD4E6"/><stop offset="1" stop-color="#5477FF"/></linearGradient><linearGradient x1="183.504" y1="235.578" x2="112.726" y2="110.244" gradientUnits="userSpaceOnUse" spreadMethod="pad" id="fill5"><stop offset="0" stop-color="#3FD4E6"/><stop offset="1" stop-color="#5477FF"/></linearGradient><linearGradient x1="-84.4139" y1="300.682" x2="920.686" y2="300.682" gradientUnits="userSpaceOnUse" spreadMethod="pad" id="fill6"><stop offset="0" stop-color="#F5F0F7"/><stop offset="1" stop-color="#EFF7FF"/></linearGradient><linearGradient x1="-59.8933" y1="242.555" x2="89.6221" y2="-148.486" gradientUnits="userSpaceOnUse" spreadMethod="pad" id="fill7"><stop offset="0" stop-color="#F5F0F7"/><stop offset="1" stop-color="#EFF7FF"/></linearGradient><linearGradient x1="204.448" y1="222.337" x2="-3.74095" y2="233.553" gradientUnits="userSpaceOnUse" spreadMethod="pad" id="fill8"><stop offset="0" stop-color="#F1FCFE"/><stop offset="1" stop-color="#F2F5FF"/></linearGradient><linearGradient x1="187.909" y1="158.421" x2="89.3607" y2="163.731" gradientUnits="userSpaceOnUse" spreadMethod="pad" id="fill9"><stop offset="0" stop-color="#F1FCFE"/><stop offset="1" stop-color="#F2F5FF"/></linearGradient><linearGradient x1="204.448" y1="222.337" x2="-3.74095" y2="233.553" gradientUnits="userSpaceOnUse" spreadMethod="pad" id="fill10"><stop offset="0" stop-color="#F1FCFE"/><stop offset="1" stop-color="#F2F5FF"/></linearGradient><linearGradient x1="187.909" y1="158.421" x2="89.3607" y2="163.731" gradientUnits="userSpaceOnUse" spreadMethod="pad" id="fill11"><stop offset="0" stop-color="#F1FCFE"/><stop offset="1" stop-color="#F2F5FF"/></linearGradient><linearGradient x1="183.504" y1="235.578" x2="112.726" y2="110.244" gradientUnits="userSpaceOnUse" spreadMethod="pad" id="fill12"><stop offset="0" stop-color="#F1FCFE"/><stop offset="1" stop-color="#F2F5FF"/></linearGradient><linearGradient x1="264.736" y1="33.0702" x2="264.736" y2="214.058" gradientUnits="userSpaceOnUse" spreadMethod="pad" id="fill13"><stop offset="0" stop-color="#3FD4E6"/><stop offset="1" stop-color="#5477FF"/></linearGradient><linearGradient x1="264.588" y1="33.0622" x2="264.588" y2="214.066" gradientUnits="userSpaceOnUse" spreadMethod="pad" id="fill14"><stop offset="0" stop-color="#3FD4E6"/><stop offset="1" stop-color="#5477FF"/></linearGradient><linearGradient x1="264.588" y1="44.7726" x2="264.588" y2="203.271" gradientUnits="userSpaceOnUse" spreadMethod="pad" id="fill15"><stop offset="0" stop-color="#D3DADF"/><stop offset="1" stop-color="#FFFFFF"/></linearGradient><linearGradient x1="-84.4139" y1="300.682" x2="920.686" y2="300.682" gradientUnits="userSpaceOnUse" spreadMethod="pad" id="fill16"><stop offset="0" stop-color="#F5F0F7"/><stop offset="1" stop-color="#EFF7FF"/></linearGradient><linearGradient x1="204.448" y1="222.337" x2="-3.74095" y2="233.553" gradientUnits="userSpaceOnUse" spreadMethod="pad" id="fill17"><stop offset="0" stop-color="#F1FCFE"/><stop offset="1" stop-color="#F2F5FF"/></linearGradient><linearGradient x1="210.753" y1="315.483" x2="113.707" y2="205.61" gradientUnits="userSpaceOnUse" spreadMethod="pad" id="fill18"><stop offset="0" stop-color="#F1FCFE"/><stop offset="1" stop-color="#F2F5FF"/></linearGradient><linearGradient x1="187.909" y1="158.421" x2="89.3607" y2="163.731" gradientUnits="userSpaceOnUse" spreadMethod="pad" id="fill19"><stop offset="0" stop-color="#F1FCFE"/><stop offset="1" stop-color="#F2F5FF"/></linearGradient><linearGradient x1="183.504" y1="235.578" x2="112.726" y2="110.244" gradientUnits="userSpaceOnUse" spreadMethod="pad" id="fill20"><stop offset="0" stop-color="#F1FCFE"/><stop offset="1" stop-color="#F2F5FF"/></linearGradient><linearGradient x1="434.547" y1="452.719" x2="112.743" y2="452.719" gradientUnits="userSpaceOnUse" spreadMethod="pad" id="fill21"><stop offset="0" stop-color="#FFFBF3"/><stop offset="1" stop-color="#FFF0F2"/></linearGradient><linearGradient x1="434.547" y1="470.31" x2="112.741" y2="470.31" gradientUnits="userSpaceOnUse" spreadMethod="pad" id="fill22"><stop offset="0" stop-color="#FFFBF3"/><stop offset="1" stop-color="#FFF0F2"/></linearGradient><linearGradient x1="434.546" y1="487.904" x2="112.741" y2="487.904" gradientUnits="userSpaceOnUse" spreadMethod="pad" id="fill23"><stop offset="0" stop-color="#FFFBF3"/><stop offset="1" stop-color="#FFF0F2"/></linearGradient><linearGradient x1="731.208" y1="582.694" x2="836.932" y2="582.694" gradientUnits="userSpaceOnUse" spreadMethod="pad" id="fill24"><stop offset="0" stop-color="#3FD4E6"/><stop offset="1" stop-color="#5477FF"/></linearGradient><linearGradient x1="740.243" y1="598.068" x2="819.596" y2="598.068" gradientUnits="userSpaceOnUse" spreadMethod="pad" id="fill25"><stop offset="0" stop-color="#3FD4E6"/><stop offset="1" stop-color="#5477FF"/></linearGradient></defs><g clip-path="url(#clip0)" transform="translate(-221 0)"><path d="M656.662 507.497 455.789 507.497C446.542 507.497 439.046 500.001 439.046 490.752L439.046 252.05C439.046 242.799 446.542 235.299 455.789 235.299L656.662 235.299C665.909 235.299 673.405 242.799 673.405 252.05L673.405 490.752C673.405 500.001 665.909 507.497 656.662 507.497Z" fill="url(#fill1)" fill-rule="evenodd" transform="matrix(1.00113 0 0 1 221 0)"/><path d="M540.048 410.652C521.958 417.121 502.463 411.285 490.713 397.472 487.911 394.179 485.549 390.432 483.753 386.29 483.358 385.377 482.986 384.444 482.645 383.494 479.227 373.933 479.247 363.981 482.063 354.988 486.126 342.008 496.014 331.019 509.805 326.09 514.358 324.464 519 323.616 523.585 323.478 542.515 322.904 560.484 334.448 567.208 353.248 575.559 376.601 563.4 402.3 540.048 410.652ZM581.32 348.205C572.353 323.134 548.389 307.732 523.136 308.489 517.021 308.674 510.835 309.807 504.758 311.976 486.365 318.557 473.172 333.21 467.754 350.52 463.999 362.517 463.973 375.791 468.534 388.539 468.986 389.807 469.479 391.055 470.008 392.272 472.405 397.794 475.554 402.793 479.293 407.181 494.964 425.607 520.971 433.396 545.097 424.768 576.242 413.628 592.459 379.351 581.32 348.205Z" fill="#4AAFFF" transform="matrix(1.00113 0 0 1 221 0)"/><path d="M482.061 354.988 467.753 350.52C473.17 333.21 486.363 318.557 504.756 311.976 510.833 309.807 517.019 308.674 523.134 308.489L523.583 323.478C518.998 323.616 514.356 324.464 509.803 326.09 496.012 331.019 486.124 342.008 482.061 354.988Z" fill="#1A598C" transform="matrix(1.00113 0 0 1 221 0)"/><path d="M483.752 386.29 470.007 392.272C469.478 391.055 468.985 389.807 468.533 388.539 463.972 375.791 463.998 362.517 467.753 350.52L482.062 354.988C479.246 363.981 479.226 373.933 482.644 383.494 482.985 384.444 483.357 385.377 483.752 386.29Z" fill="#2273B5" transform="matrix(1.00113 0 0 1 221 0)"/><path d="M479.29 407.181C475.551 402.793 472.402 397.794 470.005 392.272L483.75 386.29C485.547 390.432 487.908 394.179 490.71 397.472L479.29 407.181Z" fill="#3788CC" transform="matrix(1.00113 0 0 1 221 0)"/><path d="M639.438 415.127C636.039 422.31 628.629 426.304 621.153 425.701 619.372 425.557 617.584 425.153 615.848 424.467 615.465 424.317 615.082 424.151 614.706 423.975 610.908 422.174 608.004 419.258 606.198 415.804 603.588 410.822 603.268 404.716 605.859 399.238 606.714 397.43 607.824 395.826 609.124 394.442 614.493 388.74 623.127 386.857 630.59 390.394 639.865 394.78 643.826 405.854 639.438 415.127ZM633.245 384.788C623.288 380.077 611.775 382.581 604.609 390.19 602.877 392.03 601.395 394.175 600.255 396.584 596.797 403.893 597.225 412.036 600.706 418.685 603.115 423.292 606.991 427.181 612.054 429.575 612.559 429.813 613.065 430.034 613.574 430.238 615.895 431.151 618.275 431.694 620.654 431.884 630.626 432.685 640.512 427.359 645.044 417.778 650.896 405.411 645.611 390.64 633.245 384.788Z" fill="#4AAFFF" transform="matrix(1.00113 0 0 1 221 0)"/><path d="M606.2 415.804 600.708 418.685C597.227 412.036 596.799 403.893 600.257 396.584 601.397 394.175 602.879 392.03 604.611 390.19L609.126 394.442C607.826 395.826 606.716 397.43 605.861 399.238 603.27 404.716 603.59 410.822 606.2 415.804Z" fill="#1A598C" transform="matrix(1.00113 0 0 1 221 0)"/><path d="M615.851 424.467 613.578 430.238C613.069 430.034 612.562 429.813 612.057 429.575 606.994 427.181 603.119 423.292 600.709 418.685L606.201 415.804C608.008 419.258 610.912 422.174 614.709 423.975 615.085 424.151 615.468 424.317 615.851 424.467Z" fill="#2273B5" transform="matrix(1.00113 0 0 1 221 0)"/><path d="M614.709 348.531C607.527 345.131 603.531 337.72 604.135 330.244 604.276 328.461 604.683 326.677 605.368 324.936 605.52 324.554 605.684 324.172 605.865 323.793 607.659 320.002 610.573 317.091 614.028 315.285 619.015 312.679 625.12 312.357 630.595 314.951 632.406 315.803 634.01 316.913 635.392 318.213 641.098 323.586 642.974 332.217 639.442 339.683 635.055 348.956 623.982 352.918 614.709 348.531ZM645.045 342.335C649.758 332.379 647.255 320.865 639.644 313.699 637.803 311.966 635.66 310.486 633.251 309.342 625.943 305.89 617.799 306.314 611.15 309.793 606.546 312.204 602.654 316.08 600.259 321.141 600.02 321.648 599.798 322.156 599.598 322.667 598.685 324.982 598.142 327.366 597.952 329.743 597.147 339.715 602.476 349.599 612.057 354.135 624.424 359.983 639.193 354.706 645.045 342.335Z" fill="#4AAFFF" transform="matrix(1.00113 0 0 1 221 0)"/><path d="M614.026 315.285 611.148 309.793C617.797 306.314 625.94 305.89 633.248 309.342 635.658 310.486 637.801 311.966 639.641 313.699L635.39 318.213C634.008 316.913 632.403 315.803 630.593 314.951 625.117 312.357 619.013 312.679 614.026 315.285Z" fill="#4AAFFF" transform="matrix(1.00113 0 0 1 221 0)"/><path d="M605.369 324.936 599.599 322.667C599.799 322.156 600.021 321.648 600.259 321.141 602.655 316.08 606.546 312.204 611.151 309.793L614.029 315.285C610.574 317.091 607.659 320.002 605.865 323.793 605.685 324.172 605.52 324.554 605.369 324.936Z" fill="#2273B5" transform="matrix(1.00113 0 0 1 221 0)"/><path d="M597.949 329.743C598.139 327.366 598.682 324.982 599.595 322.667L605.365 324.936C604.68 326.677 604.273 328.461 604.132 330.244L597.949 329.743Z" fill="#3788CC" transform="matrix(1.00113 0 0 1 221 0)"/><path d="M615.039 448.213 568.776 448.213 568.776 447.292 614.119 447.292 614.119 429.813 615.039 429.813 615.039 448.213Z" fill="#E2F3FE" transform="matrix(1.00113 0 0 1 221 0)"/><path d="M527.922 448.213 467.754 448.213 467.754 447.292 527.003 447.292 527.003 418.682 527.922 418.682 527.922 448.213Z" fill="#E2F3FE" transform="matrix(1.00113 0 0 1 221 0)"/><path d="M467.752 437.724 509.154 437.724 509.154 443.24 467.752 443.24Z" fill="#4AAFFF" transform="matrix(1.00113 0 0 1 221 0)"/><path d="M568.776 437.724 593.128 437.724 593.128 443.24 568.776 443.24Z" fill="#4AAFFF" transform="matrix(1.00113 0 0 1 221 0)"/><path d="M458.371 258.666 478.189 258.666 478.189 262.902 458.371 262.902Z" fill="#4AAFFF" transform="matrix(1.00113 0 0 1 221 0)"/><path d="M540.975 274.608 571.718 274.608 571.718 278.846 540.975 278.846Z" fill="#4AAFFF" transform="matrix(1.00113 0 0 1 221 0)"/><path d="M501.224 274.608 519.992 274.608 519.992 278.846 501.224 278.846Z" fill="#4AAFFF" transform="matrix(1.00113 0 0 1 221 0)"/><path d="M458.371 274.608 495.555 274.608 495.555 278.846 458.371 278.846Z" fill="#4AAFFF" transform="matrix(1.00113 0 0 1 221 0)"/><path d="M484.216 258.666 513.576 258.666 513.576 262.902 484.216 262.902Z" fill="#4AAFFF" transform="matrix(1.00113 0 0 1 221 0)"/><path d="M525.868 274.608 533.931 274.608 533.931 278.846 525.868 278.846Z" fill="#4AAFFF" transform="matrix(1.00113 0 0 1 221 0)"/><path d="M549.785 258.904 571.717 258.904 571.717 263.14 549.785 263.14Z" fill="#4AAFFF" transform="matrix(1.00113 0 0 1 221 0)"/><path d="M579.54 274.608 598.243 274.608 598.243 278.846 579.54 278.846Z" fill="#4AAFFF" transform="matrix(1.00113 0 0 1 221 0)"/><path d="M520.798 258.904 544.047 258.904 544.047 263.14 520.798 263.14Z" fill="#4AAFFF" transform="matrix(1.00113 0 0 1 221 0)"/><path d="M188.822 235.299 175.477 235.299C176.693 232.018 178.141 227.795 179.587 222.834 180.815 223.026 182.064 223.146 183.334 223.188 184.082 224.736 184.798 226.264 185.49 227.772 186.647 230.296 187.759 232.807 188.822 235.299ZM170.815 235.299 137.328 235.299C136.153 232.844 134.975 230.342 133.781 227.807 124.55 208.199 115.005 187.933 98.1532 172.205L96.3166 174.187C112.792 189.551 122.235 209.581 131.348 228.952 132.359 231.093 133.357 233.212 134.354 235.299L79.5674 235.299C71.6804 217.228 67.7407 197.753 61.8827 178.474 51.8844 145.509 23.4308 141.071 8.84019 141.071 3.72326 141.071 0.312462 141.618 0 141.668 8.30556 138.776 16.281 136.527 23.9454 134.863 32.4072 133.022 40.4968 131.894 48.2075 131.4 51.2915 131.203 54.3158 131.107 57.2842 131.107 77.3219 131.107 94.7166 135.489 109.79 142.689 111.21 144.512 112.742 146.349 114.386 148.185 132.598 168.544 144.706 179.892 153.396 192.023L153.396 192.189C153.396 202.443 158.371 211.534 166.04 217.182 167.782 222.449 169.347 228.385 170.815 235.299Z" fill="url(#fill2)" fill-rule="evenodd" transform="matrix(1.00113 0 0 1 221 0)"/><path d="M137.328 235.299 134.354 235.299C133.357 233.212 132.359 231.093 131.348 228.952 122.235 209.581 112.792 189.551 96.3166 174.187L98.1532 172.205C115.005 187.933 124.55 208.199 133.781 227.807 134.975 230.342 136.153 232.844 137.328 235.299Z" fill="url(#fill3)" fill-rule="evenodd" transform="matrix(1.00113 0 0 1 221 0)"/><path d="M175.477 235.299 174.034 235.299C174.238 230.702 174.108 226.016 173.711 221.309 175.59 222.002 177.556 222.517 179.587 222.834 178.141 227.795 176.693 232.018 175.477 235.299ZM172.07 235.299 170.815 235.299C169.347 228.385 167.782 222.449 166.04 217.182 167.797 218.475 169.695 219.589 171.708 220.492 172.161 225.451 172.309 230.414 172.07 235.299ZM153.396 192.023C144.706 179.892 132.598 168.544 114.386 148.185 112.742 146.349 111.21 144.512 109.79 142.689 102.914 133.867 98.5659 125.253 95.9564 117.192 86.9437 89.3651 98.6419 68.1755 98.6419 68.1755 118.023 73.7754 133.393 81.3098 145.49 90.1118 148.299 92.1547 150.929 94.266 153.396 96.4389L153.396 155.119C150.426 149.617 147.661 145.429 145.519 143.052 137.905 134.594 133.156 122.834 131.372 118.403 130.925 117.306 130.725 116.803 130.568 116.533L128.818 117.522C128.914 117.693 129.201 118.403 129.509 119.155 131.336 123.675 136.175 135.676 144.023 144.406 146.164 146.784 149.623 152.229 153.396 159.722L153.396 192.023Z" fill="url(#fill4)" fill-rule="evenodd" transform="matrix(1.00113 0 0 1 221 0)"/><path d="M174.034 235.299 172.07 235.299C172.309 230.414 172.161 225.451 171.708 220.492 172.363 220.789 173.032 221.061 173.711 221.309 174.108 226.016 174.238 230.702 174.034 235.299ZM153.396 159.722C149.623 152.229 146.164 146.784 144.023 144.406 136.175 135.676 131.336 123.675 129.509 119.155 129.201 118.403 128.914 117.693 128.818 117.522L130.568 116.533C130.725 116.803 130.925 117.306 131.372 118.403 133.156 122.834 137.905 134.594 145.519 143.052 147.661 145.429 150.426 149.617 153.396 155.119L153.396 159.722Z" fill="url(#fill5)" fill-rule="evenodd" transform="matrix(1.00113 0 0 1 221 0)"/><path d="M723.569 223.206 184.415 223.206C184.054 223.206 183.694 223.2 183.335 223.188 182.546 221.55 181.727 219.891 180.874 218.217 189.139 187.028 195.064 133.14 153.397 96.4389L153.397 84.3341C182.917 61.8746 207.365 33.0842 224.717-1.35791e-14L723.567-1.35791e-14C740.699-1.35791e-14 754.584 13.8835 754.584 31.0154L754.584 192.189C754.584 209.321 740.699 223.206 723.567 223.206Z" fill="url(#fill6)" fill-rule="evenodd" transform="matrix(1.00113 0 0 1 221 0)"/><path d="M153.396 84.3341 153.396 31.0154C153.396 13.8835 167.284-6.78953e-15 184.414-6.78953e-15L224.716-6.78953e-15C207.364 33.0842 182.916 61.8746 153.396 84.3341Z" fill="url(#fill7)" fill-rule="evenodd" transform="matrix(1.00113 0 0 1 221 0)"/><path d="M183.334 223.188C182.064 223.146 180.815 223.026 179.587 222.834 180.018 221.358 180.448 219.817 180.873 218.217 181.726 219.891 182.545 221.55 183.334 223.188Z" fill="url(#fill8)" fill-rule="evenodd" transform="matrix(1.00113 0 0 1 221 0)"/><path d="M179.587 222.834C177.556 222.517 175.59 222.002 173.711 221.309 171.576 196.17 161.698 170.504 153.396 155.119L153.396 96.4389C195.063 133.14 189.138 187.028 180.873 218.217 180.448 219.817 180.018 221.358 179.587 222.834Z" fill="url(#fill9)" fill-rule="evenodd" transform="matrix(1.00113 0 0 1 221 0)"/><path d="M166.04 217.182C158.371 211.534 153.396 202.443 153.396 192.189L153.396 192.023C158.672 199.389 162.688 207.044 166.04 217.182Z" fill="url(#fill10)" fill-rule="evenodd" transform="matrix(1.00113 0 0 1 221 0)"/><path d="M171.708 220.492C169.695 219.589 167.797 218.475 166.04 217.182 162.688 207.044 158.672 199.389 153.396 192.023L153.396 159.722C160.879 174.584 169.597 197.498 171.708 220.492Z" fill="url(#fill11)" fill-rule="evenodd" transform="matrix(1.00113 0 0 1 221 0)"/><path d="M173.711 221.309C173.032 221.061 172.363 220.789 171.708 220.492 169.597 197.498 160.879 174.584 153.396 159.722L153.396 155.119C161.698 170.504 171.576 196.17 173.711 221.309Z" fill="url(#fill12)" fill-rule="evenodd" transform="matrix(1.00113 0 0 1 221 0)"/><path d="M629.84 64.0714 703.317 64.0714 703.317 71.4439 629.84 71.4439Z" fill="#B8D6FF" transform="matrix(1.00113 0 0 1 221 0)"/><path d="M629.84 86.8954 714.288 86.8954 714.288 94.2679 629.84 94.2679Z" fill="#B8D6FF" transform="matrix(1.00113 0 0 1 221 0)"/><path d="M629.716 109.587 673.403 109.587 673.403 116.962 629.716 116.962Z" fill="#B8D6FF" transform="matrix(1.00113 0 0 1 221 0)"/><path d="M629.716 132.281 697.03 132.281 697.03 139.653 629.716 139.653Z" fill="#B8D6FF" transform="matrix(1.00113 0 0 1 221 0)"/><path d="M184.877 484.134 410.282 484.134 410.282 491.673 184.877 491.673Z" fill="#FFFFFF" transform="matrix(1.00113 0 0 1 221 0)"/><path d="M231.844 202.699 297.332 202.699 297.332 210.767 231.844 210.767Z" fill="#D6D6D6" transform="matrix(1.00113 0 0 1 221 0)"/><path d="M215.958 188.331 313.22 188.331 313.22 196.399 215.958 196.399Z" fill="#D6D6D6" transform="matrix(1.00113 0 0 1 221 0)"/><path d="M281.644 77.5847C281.644 86.9256 274.075 94.4963 264.738 94.4963 255.397 94.4963 247.827 86.9256 247.827 77.5847 247.827 68.2476 255.397 60.6788 264.738 60.6788 274.075 60.6788 281.644 68.2476 281.644 77.5847Z" fill="url(#fill13)" fill-rule="evenodd" transform="matrix(1.00113 0 0 1 221 0)"/><path d="M295.237 132.709 295.237 164.865C285.9 169.113 275.515 171.476 264.588 171.476 253.659 171.476 243.278 169.113 233.941 164.865L233.941 132.709C233.941 115.786 247.654 102.057 264.588 102.057 281.52 102.057 295.237 115.786 295.237 132.709Z" fill="url(#fill14)" fill-rule="evenodd" transform="matrix(1.00113 0 0 1 221 0)"/><path d="M370.404 52.5815 527.906 52.5815 527.906 62.7317 370.404 62.7317Z" fill="#FFFFFF" transform="matrix(1.00113 0 0 1 221 0)"/><path d="M544.83 52.5815 606.038 52.5815 606.038 62.7317 544.83 62.7317Z" fill="#FFFFFF" transform="matrix(1.00113 0 0 1 221 0)"/><path d="M370.404 29.4569 444.363 29.4569 444.363 39.6091 370.404 39.6091Z" fill="#FFFFFF" transform="matrix(1.00113 0 0 1 221 0)"/><path d="M264.588 25.1632C224.804 25.1632 192.437 57.5302 192.437 97.3142 192.437 125.551 209.054 151.35 234.77 163.034 244.149 167.3 254.182 169.463 264.588 169.463 274.997 169.463 285.026 167.3 294.404 163.034 320.124 151.35 336.741 125.551 336.741 97.3142 336.741 57.5302 304.374 25.1632 264.588 25.1632ZM264.588 173.487C253.602 173.487 243.012 171.201 233.108 166.699 205.96 154.356 188.415 127.126 188.415 97.3142 188.415 55.3096 222.589 21.1394 264.588 21.1394 306.591 21.1394 340.763 55.3096 340.763 97.3142 340.763 127.126 323.218 154.356 296.07 166.699 286.166 171.201 275.573 173.487 264.588 173.487Z" fill="url(#fill15)" fill-rule="evenodd" transform="matrix(1.00113 0 0 1 221 0)"/><path d="M574.657 533.068 537.79 533.068C531.617 533.068 526.612 528.058 526.612 521.89L526.612 485.02C526.612 478.85 531.617 473.843 537.79 473.843L574.657 473.843C580.832 473.843 585.835 478.85 585.835 485.02L585.835 521.89C585.835 528.058 580.832 533.068 574.657 533.068Z" fill="#FFFFFF" transform="matrix(1.00113 0 0 1 221 0)"/><path d="M553.421 491.674 559.024 491.674 559.024 515.237 553.421 515.237Z" fill="#C5CCD1" transform="matrix(1.00113 0 0 1 221 0)"/><path d="M544.443 500.651 568.004 500.651 568.004 506.253 544.443 506.253Z" fill="#C5CCD1" transform="matrix(1.00113 0 0 1 221 0)"/><path d="M381.596 81.9725 385.617 81.9725 385.617 179.487 381.596 179.487Z" fill="#C9E0FF" transform="matrix(1.00113 0 0 1 221 0)"/><path d="M400.075 81.9725 404.097 81.9725 404.097 179.487 400.075 179.487Z" fill="#C9E0FF" transform="matrix(1.00113 0 0 1 221 0)"/><path d="M418.553 81.9725 422.575 81.9725 422.575 179.487 418.553 179.487Z" fill="#C9E0FF" transform="matrix(1.00113 0 0 1 221 0)"/><path d="M437.033 81.9725 441.055 81.9725 441.055 179.487 437.033 179.487Z" fill="#C9E0FF" transform="matrix(1.00113 0 0 1 221 0)"/><path d="M455.509 81.9725 459.531 81.9725 459.531 179.487 455.509 179.487Z" fill="#C9E0FF" transform="matrix(1.00113 0 0 1 221 0)"/><path d="M473.987 81.9725 478.011 81.9725 478.011 179.487 473.987 179.487Z" fill="#C9E0FF" transform="matrix(1.00113 0 0 1 221 0)"/><path d="M492.467 81.9725 496.486 81.9725 496.486 179.487 492.467 179.487Z" fill="#C9E0FF" transform="matrix(1.00113 0 0 1 221 0)"/><path d="M510.942 81.9725 514.963 81.9725 514.963 179.487 510.942 179.487Z" fill="#C9E0FF" transform="matrix(1.00113 0 0 1 221 0)"/><path d="M529.427 81.9725 533.448 81.9725 533.448 179.487 529.427 179.487Z" fill="#C9E0FF" transform="matrix(1.00113 0 0 1 221 0)"/><path d="M547.902 81.9725 551.926 81.9725 551.926 179.487 547.902 179.487Z" fill="#C9E0FF" transform="matrix(1.00113 0 0 1 221 0)"/><path d="M566.378 81.9725 570.4 81.9725 570.4 179.487 566.378 179.487Z" fill="#C9E0FF" transform="matrix(1.00113 0 0 1 221 0)"/><path d="M584.858 81.9725 588.879 81.9725 588.879 179.487 584.858 179.487Z" fill="#C9E0FF" transform="matrix(1.00113 0 0 1 221 0)"/><path d="M381.596 111.126 385.617 111.126 385.617 179.487 381.596 179.487Z" fill="#243DB2" transform="matrix(1.00113 0 0 1 221 0)"/><path d="M400.075 134.75 404.097 134.75 404.097 179.487 400.075 179.487Z" fill="#243DB2" transform="matrix(1.00113 0 0 1 221 0)"/><path d="M418.553 96.0443 422.575 96.0443 422.575 179.487 418.553 179.487Z" fill="#243DB2" transform="matrix(1.00113 0 0 1 221 0)"/><path d="M437.033 155.191 441.055 155.191 441.055 179.487 437.033 179.487Z" fill="#243DB2" transform="matrix(1.00113 0 0 1 221 0)"/><path d="M455.509 130.729 459.531 130.729 459.531 179.487 455.509 179.487Z" fill="#243DB2" transform="matrix(1.00113 0 0 1 221 0)"/><path d="M473.987 112.467 478.011 112.467 478.011 179.487 473.987 179.487Z" fill="#243DB2" transform="matrix(1.00113 0 0 1 221 0)"/><path d="M492.467 136.256 496.486 136.256 496.486 179.487 492.467 179.487Z" fill="#243DB2" transform="matrix(1.00113 0 0 1 221 0)"/><path d="M510.942 106.269 514.963 106.269 514.963 179.487 510.942 179.487Z" fill="#243DB2" transform="matrix(1.00113 0 0 1 221 0)"/><path d="M529.427 139.275 533.448 139.275 533.448 179.487 529.427 179.487Z" fill="#243DB2" transform="matrix(1.00113 0 0 1 221 0)"/><path d="M547.902 115.145 551.926 115.145 551.926 179.487 547.902 179.487Z" fill="#243DB2" transform="matrix(1.00113 0 0 1 221 0)"/><path d="M566.378 147.316 570.4 147.316 570.4 179.487 566.378 179.487Z" fill="#243DB2" transform="matrix(1.00113 0 0 1 221 0)"/><path d="M584.858 115.145 588.879 115.145 588.879 179.487 584.858 179.487Z" fill="#243DB2" transform="matrix(1.00113 0 0 1 221 0)"/><path d="M401.744 581.251 69.9757 581.251C57.266 581.251 46.9615 570.946 46.9615 558.237L46.9615 258.317C46.9615 245.606 57.266 235.301 69.9757 235.301L79.5674 235.301C90.1261 259.499 107.757 281.179 146.533 296.497 160.402 301.976 171.189 304.423 179.377 304.421 186.212 304.421 191.235 302.715 194.723 299.645 195.417 299.03 196.058 298.355 196.647 297.622 205.748 286.24 200.176 261.93 188.822 235.301L401.744 235.301C414.451 235.301 424.756 245.606 424.756 258.317L424.756 558.237C424.756 570.946 414.451 581.251 401.744 581.251ZM184.877 491.674 410.282 491.674 410.282 484.135 184.877 484.135 184.877 491.674ZM184.877 466.542 184.877 474.081 365.758 474.081 365.758 466.542 184.877 466.542ZM184.877 448.95 184.877 456.49 352.279 456.49 352.279 448.95 184.877 448.95Z" fill="url(#fill16)" fill-rule="evenodd" transform="matrix(1.00113 0 0 1 221 0)"/><path d="M179.377 304.42C171.189 304.421 160.402 301.974 146.533 296.495 107.757 281.177 90.1261 259.497 79.5674 235.299L134.354 235.299C138.121 243.196 141.864 250.677 146.15 257.486 157.637 275.729 181.999 291.978 194.723 299.643 191.235 302.713 186.212 304.42 179.377 304.42ZM196.647 297.62C184.245 290.154 159.629 273.843 148.429 256.044 144.42 249.691 140.873 242.695 137.328 235.299L170.815 235.299C171.127 236.763 171.434 238.269 171.736 239.824 171.944 240.865 172.145 241.938 172.355 243.02 172.407 242.896 172.926 241.786 173.719 239.824 174.212 238.621 174.807 237.104 175.477 235.299L188.822 235.299C200.176 261.928 205.748 286.238 196.647 297.62Z" fill="url(#fill17)" fill-rule="evenodd" transform="matrix(1.00113 0 0 1 221 0)"/><path d="M194.723 299.643C181.999 291.978 157.637 275.729 146.15 257.486 141.864 250.677 138.121 243.196 134.354 235.299L137.328 235.299C140.873 242.695 144.42 249.691 148.429 256.044 159.629 273.843 184.245 290.154 196.647 297.62 196.058 298.353 195.417 299.028 194.723 299.643Z" fill="url(#fill18)" fill-rule="evenodd" transform="matrix(1.00113 0 0 1 221 0)"/><path d="M173.719 239.824C173.861 238.329 173.965 236.817 174.034 235.299L175.477 235.299C174.807 237.104 174.212 238.621 173.719 239.824ZM171.736 239.824C171.434 238.269 171.127 236.763 170.815 235.299L172.07 235.299C171.996 236.817 171.887 238.323 171.736 239.824Z" fill="url(#fill19)" fill-rule="evenodd" transform="matrix(1.00113 0 0 1 221 0)"/><path d="M172.355 243.02C172.145 241.938 171.944 240.865 171.736 239.824 171.887 238.323 171.996 236.817 172.07 235.299L174.034 235.299C173.965 236.817 173.861 238.329 173.719 239.824 172.926 241.786 172.407 242.896 172.355 243.02Z" fill="url(#fill20)" fill-rule="evenodd" transform="matrix(1.00113 0 0 1 221 0)"/><path d="M410.282 491.674 302.243 491.674 302.243 484.135 184.877 484.135 184.877 491.674 184.877 484.135 410.282 484.135 410.282 491.674Z" fill="#FFFFFF" transform="matrix(1.00113 0 0 1 221 0)"/><path d="M184.877 448.948 352.279 448.948 352.279 456.489 184.877 456.489Z" fill="url(#fill21)" fill-rule="evenodd" transform="matrix(1.00113 0 0 1 221 0)"/><path d="M184.877 466.54 365.758 466.54 365.758 474.079 184.877 474.079Z" fill="url(#fill22)" fill-rule="evenodd" transform="matrix(1.00113 0 0 1 221 0)"/><path d="M184.877 484.134 302.243 484.134 302.243 491.673 184.877 491.673Z" fill="url(#fill23)" fill-rule="evenodd" transform="matrix(1.00113 0 0 1 221 0)"/><path d="M123.517 359.713C106.838 353.745 96.5932 337.802 97.0978 321.005 97.222 316.935 97.973 312.819 99.4192 308.78 103.795 296.541 113.543 287.764 125.061 284.161 133.042 281.662 141.871 281.646 150.352 284.68 151.195 284.98 152.025 285.311 152.834 285.663 156.511 287.256 159.836 289.353 162.756 291.838 175.011 302.265 180.194 319.563 174.45 335.611 167.041 356.334 144.24 367.121 123.517 359.713ZM186.975 340.094C194.632 318.684 187.723 295.611 171.371 281.704 167.478 278.385 163.044 275.595 158.145 273.462 157.064 272.998 155.956 272.559 154.832 272.157 143.519 268.111 131.74 268.133 121.097 271.466 105.736 276.275 92.7338 287.977 86.8954 304.3 84.9686 309.687 83.9653 315.183 83.8033 320.606 83.1282 343.018 96.7934 364.277 119.04 372.237 146.677 382.118 177.092 367.728 186.975 340.094Z" fill="#78C3FF" transform="matrix(1.00113 0 0 1 221 0)"/><path d="M125.061 284.161 121.097 271.466C105.736 276.275 92.7338 287.977 86.8954 304.3 84.9686 309.687 83.9653 315.183 83.8033 320.606L97.0978 321.005C97.222 316.935 97.973 312.819 99.4192 308.78 103.795 296.541 113.543 287.764 125.061 284.161Z" fill="#1173C2" transform="matrix(1.00113 0 0 1 221 0)"/><path d="M152.834 285.663 158.145 273.462C157.064 272.998 155.956 272.559 154.832 272.157 143.519 268.111 131.74 268.133 121.097 271.466L125.061 284.161C133.042 281.662 141.871 281.646 150.352 284.68 151.195 284.98 152.025 285.311 152.834 285.663Z" fill="#1487E3" transform="matrix(1.00113 0 0 1 221 0)"/><path d="M171.371 281.704C167.478 278.385 163.044 275.595 158.145 273.462L152.834 285.663C156.511 287.256 159.836 289.353 162.756 291.838L171.371 281.704Z" fill="#4AAFFF" transform="matrix(1.00113 0 0 1 221 0)"/><path d="M337.678 447.977 356.12 447.977 356.12 511.147 337.678 511.147Z" fill="#4AAFFF" transform="matrix(1.00113 0 0 1 221 0)"/><path d="M310.26 465.693 328.702 465.693 328.702 511.147 310.26 511.147Z" fill="#4AAFFF" transform="matrix(1.00113 0 0 1 221 0)"/><path d="M364.277 418.699 382.719 418.699 382.719 511.147 364.277 511.147Z" fill="#4AAFFF" transform="matrix(1.00113 0 0 1 221 0)"/><path d="M379.745 372.515 379.418 370.52 330.749 378.491 314.971 412.122 262.495 415.681 245.495 440.756 205.377 439.759 205.327 441.78 246.549 442.803 263.615 417.634 316.295 414.055 332.125 380.312 379.745 372.515Z" fill="#4AAFFF" transform="matrix(1.00113 0 0 1 221 0)"/><path d="M320.266 288.337 372.715 288.337C376.026 288.337 378.709 285.651 378.709 282.343 378.709 279.028 376.026 276.346 372.715 276.346L320.266 276.346C316.955 276.346 314.272 279.028 314.272 282.343 314.272 285.651 316.955 288.337 320.266 288.337Z" fill="#1487E3" transform="matrix(1.00113 0 0 1 221 0)"/><path d="M320.266 309.255 372.715 309.255C376.026 309.255 378.709 306.567 378.709 303.258 378.709 299.95 376.026 297.262 372.715 297.262L320.266 297.262C316.955 297.262 314.272 299.95 314.272 303.258 314.272 306.567 316.955 309.255 320.266 309.255Z" fill="#4AAFFF" transform="matrix(1.00113 0 0 1 221 0)"/><path d="M320.266 330.172 372.715 330.172C376.026 330.172 378.709 327.486 378.709 324.177 378.709 320.865 376.026 318.179 372.715 318.179L320.266 318.179C316.955 318.179 314.272 320.865 314.272 324.177 314.272 327.486 316.955 330.172 320.266 330.172Z" fill="#4AAFFF" transform="matrix(1.00113 0 0 1 221 0)"/><path d="M225.327 298.706 195.327 298.706 195.327 297.554 224.85 297.554 240.644 281.76 259.987 281.76 259.987 282.909 241.123 282.909 225.327 298.706Z" fill="#4AAFFF" transform="matrix(1.00113 0 0 1 221 0)"/><path d="M253.757 351.107 215.153 351.107 202.643 338.595 203.457 337.78 215.63 349.957 253.757 349.957 253.757 351.107Z" fill="#4AAFFF" transform="matrix(1.00113 0 0 1 221 0)"/><path d="M243.499 289.381 283.515 289.381 283.515 294.292 243.499 294.292Z" fill="#1487E3" transform="matrix(1.00113 0 0 1 221 0)"/><path d="M231.292 339.447 263.505 339.447 263.505 344.36 231.292 344.36Z" fill="#1487E3" transform="matrix(1.00113 0 0 1 221 0)"/><path d="M655.659 362.972C665.741 358.149 675.773 390.242 675.773 390.242 692.907 412.883 716.854 382.763 714.511 416.611 710.415 475.832 782.68 435.233 749.341 497.067 716.001 558.898 778.779 532.026 758.06 581.884 737.343 631.74 764.196 691.205 733.021 666.766 733.021 666.766 705.572 606.574 677.263 587.95 648.955 569.328 694.222 547.227 685.366 521.936 672.5 485.193 641.505 486.636 663.854 447.153 686.201 407.67 621.391 379.361 655.659 362.972Z" fill="#243DB2" fill-rule="evenodd" transform="matrix(1.00113 0 0 1 221 0)"/><path d="M742.89 644.116C729.377 634.612 713.563 568.386 712.62 528.939 712.137 508.734 706.163 500.315 700.893 492.888 695.856 485.788 691.506 479.656 694.04 465.58 698.883 438.674 686.151 427.06 686.021 426.946L687.494 425.27C688.062 425.764 701.322 437.741 696.239 465.975 693.872 479.131 697.775 484.631 702.716 491.592 707.901 498.901 714.352 507.999 714.853 528.887 715.866 571.218 732.035 633.747 744.176 642.287L742.89 644.116Z" fill="#FFFFFF" transform="matrix(1.00113 0 0 1 221 0)"/><path d="M813.227 522.542C810.746 523.896 808.671 526.069 806.268 528.587 800.262 534.875 792.789 542.704 773.854 542.794 764.425 542.835 759.146 544.066 756.732 546.774 754.093 549.74 754.669 554.879 755.467 561.993 755.767 564.675 756.107 567.715 756.318 571.026 757.598 591.367 745.94 605.578 745.443 606.171 738.663 614.248 730.981 630.319 734.191 639.498 735.441 643.071 738.295 645.328 742.675 646.215 757.958 649.3 762.178 639.74 769.17 623.898 770.452 620.992 771.776 617.987 773.284 614.809 781.383 597.711 788.938 594.743 800.373 590.259 803.117 589.181 806.228 587.96 809.625 586.435 824.081 579.938 821.471 571.02 818.709 561.577 818.315 560.227 817.92 558.877 817.58 557.545 815.841 550.749 819.272 547.249 823.614 542.818 826.741 539.628 830.279 536.017 833.081 530.165 834.547 527.096 835.757 522.929 833.19 520.493 829.815 517.293 821.233 518.176 813.227 522.542ZM747.946 649.025C746.202 649.025 744.307 648.825 742.232 648.404 737.025 647.353 733.61 644.603 732.082 640.237 728.439 629.822 736.879 612.899 743.73 604.737 743.845 604.603 755.309 590.589 754.085 571.166 753.881 567.911 753.544 564.899 753.246 562.238 752.384 554.553 751.762 548.997 755.064 545.29 757.972 542.021 763.59 540.603 773.844 540.558 791.828 540.473 798.938 533.029 804.651 527.044 807.079 524.503 809.37 522.101 812.156 520.581 821.119 515.691 830.61 514.972 834.727 518.871 836.685 520.726 838.335 524.361 835.096 531.128 832.134 537.315 828.297 541.23 825.21 544.381 821.06 548.617 818.318 551.416 819.745 556.994 820.079 558.3 820.468 559.624 820.854 560.948 823.628 570.433 826.768 581.178 810.542 588.472 807.095 590.023 803.959 591.252 801.188 592.338 789.861 596.786 783.023 599.468 775.304 615.762 773.808 618.917 772.488 621.909 771.215 624.797 765.128 638.59 760.524 649.025 747.946 649.025Z" fill="url(#fill24)" fill-rule="evenodd" transform="matrix(1.00113 0 0 1 221 0)"/><path d="M742.474 661.922 740.243 661.81C740.354 659.709 743.169 610.286 763.013 595.82 784.784 579.952 791.649 562.898 794.918 551.452 798.769 537.963 818.377 534.36 819.208 534.212L819.598 536.412C819.408 536.447 800.534 539.922 797.067 552.065 793.706 563.831 786.658 581.353 764.331 597.628 745.337 611.47 742.503 661.422 742.474 661.922Z" fill="url(#fill25)" fill-rule="evenodd" transform="matrix(1.00113 0 0 1 221 0)"/><path d="M787.848 412.847C773.742 408.014 776.673 435.199 770.714 455.313 764.754 475.423 704.412 464.085 729.741 514.451 755.071 564.822 697.706 531.297 714.842 575.252 731.976 619.204 716.33 666.212 734.957 654.251 753.579 642.296 745.419 586.949 764.788 580.37 784.157 573.797 787.318 566.124 768.139 548.244 748.962 530.368 818.393 512.615 801.257 476.514 784.123 440.414 804.143 418.435 787.848 412.847Z" fill="#243DB2" fill-rule="evenodd" transform="matrix(1.00113 0 0 1 221 0)"/><path d="M743.597 652.147C741.823 644.622 726.675 578.406 740.809 570.402 753.269 563.349 752.96 535.908 751.017 509.998 749.297 487.062 778.752 476.345 780.008 475.9L780.755 478.005C780.465 478.108 751.654 488.6 753.245 509.834 755.241 536.441 755.456 564.679 741.911 572.347 731.177 578.428 741.06 631.642 745.772 651.634L743.597 652.147Z" fill="#FFFFFF" transform="matrix(1.00113 0 0 1 221 0)"/><path d="M775.66 628.569 755.522 704.968 710.521 704.968 690.383 628.569 775.66 628.569Z" fill="#4AAFFF" fill-rule="evenodd" transform="matrix(1.00113 0 0 1 221 0)"/><path d="M775.66 628.569C775.66 628.569 731.328 636.89 731.328 704.968L710.521 704.968 690.383 628.569 775.66 628.569Z" fill="#4A86FF" fill-rule="evenodd" transform="matrix(1.00113 0 0 1 221 0)"/><path d="M144.875 529.322 208.317 529.322 208.317 533.087 144.875 533.087Z" fill="#E2D2CA" transform="matrix(1.00113 0 0 1 221 0)"/><path d="M153.379 542.891 158.937 542.891 158.937 714.162 153.379 714.162Z" fill="#706865" transform="matrix(1.00113 0 0 1 221 0)"/><path d="M198.387 528.252 242.487 528.252 242.487 533.633 198.387 533.633Z" fill="#CCBDB7" transform="matrix(1.00113 0 0 1 221 0)"/><path d="M212.089 482.367 228.786 482.367 228.786 533.088 212.089 533.088Z" fill="#998E89" transform="matrix(1.00113 0 0 1 221 0)"/><path d="M122.117 533.149 366.452 533.149 366.452 542.891 122.117 542.891Z" fill="#B59074" transform="matrix(1.00113 0 0 1 221 0)"/><path d="M184.64 496.513 184.614 496.51 184.64 496.513Z" fill="#323657" transform="matrix(1.00113 0 0 1 221 0)"/><path d="M51.6221 708.476 53.0741 712.562 114.448 693.547 111.506 685.272 51.6221 708.476Z" fill="#918783" transform="matrix(1.00113 0 0 1 221 0)"/><path d="M109.575 623.916 116.553 623.916 116.553 690.639 109.575 690.639Z" fill="#918783" transform="matrix(1.00113 0 0 1 221 0)"/><path d="M92.4935 620.366 133.637 620.366 133.637 624.299 92.4935 624.299Z" fill="#5E5854" transform="matrix(1.00113 0 0 1 221 0)"/><path d="M175.045 708.476 173.595 712.562 112.221 693.547 114.919 684.755 175.045 708.476Z" fill="#918783" transform="matrix(1.00113 0 0 1 221 0)"/><path d="M131.804 712.126 131.804 716.879 112.221 693.546 114.919 684.754 131.804 712.126Z" fill="#918783" transform="matrix(1.00113 0 0 1 221 0)"/><path d="M180.785 714.162C180.785 717.328 178.213 719.896 175.045 719.896 171.88 719.896 169.311 717.328 169.311 714.162 169.311 710.993 171.88 708.426 175.045 708.426 178.213 708.426 180.785 710.993 180.785 714.162Z" fill="#BFB2AC" transform="matrix(1.00113 0 0 1 221 0)"/><path d="M132.295 714.162C132.295 717.328 129.723 719.896 126.557 719.896 123.39 719.896 120.823 717.328 120.823 714.162 120.823 710.993 123.39 708.426 126.557 708.426 129.723 708.426 132.295 710.993 132.295 714.162Z" fill="#BFB2AC" transform="matrix(1.00113 0 0 1 221 0)"/><path d="M57.3582 714.162C57.3582 717.328 54.7888 719.896 51.6221 719.896 48.4536 719.896 45.886 717.328 45.886 714.162 45.886 710.993 48.4536 708.426 51.6221 708.426 54.7888 708.426 57.3582 710.993 57.3582 714.162Z" fill="#BFB2AC" transform="matrix(1.00113 0 0 1 221 0)"/><path d="M154.718 620.366 71.9508 620.366C67.8888 620.366 64.5984 617.079 64.5984 613.016L64.5984 612.828C64.5984 608.764 67.8888 605.477 71.9508 605.477L154.718 605.477C158.778 605.477 162.071 608.764 162.071 612.828L162.071 613.016C162.071 617.079 158.778 620.366 154.718 620.366Z" fill="#E2D2CA" transform="matrix(1.00113 0 0 1 221 0)"/><path d="M329.633 542.891 335.191 542.891 335.191 714.162 329.633 714.162Z" fill="#706865" transform="matrix(1.00113 0 0 1 221 0)"/><path d="M285.203 506.8 155.671 506.8C151.622 506.8 148.34 503.515 148.34 499.464L148.34 412.408C148.34 408.356 151.622 405.075 155.671 405.075L285.203 405.075C289.253 405.075 292.537 408.356 292.537 412.408L292.537 499.464C292.537 503.515 289.253 506.8 285.203 506.8Z" fill="#B8ABA5" transform="matrix(1.00113 0 0 1 221 0)"/><path d="M153.985 410.572 286.889 410.572 286.889 490.858 153.985 490.858Z" fill="#F5F7FF" transform="matrix(1.00113 0 0 1 221 0)"/><path d="M280.983 498.434C280.983 500.717 278.586 502.568 275.628 502.568 272.669 502.568 270.27 500.717 270.27 498.434 270.27 496.151 272.669 494.3 275.628 494.3 278.586 494.3 280.983 496.151 280.983 498.434Z" fill="#918681" transform="matrix(1.00113 0 0 1 221 0)"/><path d="M250.29 533.283 250.29 531.47C250.29 531.47 247.745 520.212 229.743 520.212 211.742 520.212 212.105 533.283 212.105 533.283L250.29 533.283Z" fill="#998E89" transform="matrix(1.00113 0 0 1 221 0)"/><path d="M94.9287 595.044 55.9464 595.044C48.1492 595.044 41.8283 588.721 41.8283 580.926L41.8283 516.066C41.8283 508.265 48.1492 501.946 55.9464 501.946L94.9287 501.946C102.726 501.946 109.046 508.265 109.046 516.066L109.046 580.926C109.046 588.721 102.726 595.044 94.9287 595.044Z" fill="#E2D2CA" transform="matrix(1.00113 0 0 1 221 0)"/><path d="M97.1341 616.663C87.228 616.663 79.1885 613.331 73.2422 606.769 59.8078 591.935 62.221 565.857 62.329 564.755 62.5354 562.696 64.3681 561.194 66.4211 561.402 68.476 561.604 69.9757 563.433 69.7736 565.488 69.7435 565.784 67.6026 589.423 78.802 601.762 83.3303 606.754 89.3287 609.181 97.1341 609.181 99.2009 609.181 100.875 610.857 100.875 612.922 100.875 614.987 99.2009 616.663 97.1341 616.663Z" fill="#E2D2CA" transform="matrix(1.00113 0 0 1 221 0)"/><path d="M201.289 421.211 164.46 421.211C163.879 421.211 163.408 420.74 163.408 420.158L163.408 418.02C163.408 417.438 163.879 416.969 164.46 416.969L201.289 416.969C201.869 416.969 202.339 417.438 202.339 418.02L202.339 420.158C202.339 420.74 201.869 421.211 201.289 421.211Z" fill="#DFE1E8" transform="matrix(1.00113 0 0 1 221 0)"/><path d="M201.289 430.31 164.46 430.31C163.879 430.31 163.408 429.837 163.408 429.256L163.408 427.119C163.408 426.536 163.879 426.066 164.46 426.066L201.289 426.066C201.869 426.066 202.339 426.536 202.339 427.119L202.339 429.256C202.339 429.837 201.869 430.31 201.289 430.31Z" fill="#DFE1E8" transform="matrix(1.00113 0 0 1 221 0)"/><path d="M198.804 484.464 166.943 484.464C164.993 484.464 163.408 482.882 163.408 480.929L163.408 440.036C163.408 438.083 164.993 436.501 166.943 436.501L198.804 436.501C200.757 436.501 202.339 438.083 202.339 440.036L202.339 480.929C202.339 482.882 200.757 484.464 198.804 484.464Z" fill="#DFE1E8" transform="matrix(1.00113 0 0 1 221 0)"/><path d="M273.929 484.464 215.794 484.464C212.703 484.464 210.2 481.96 210.2 478.866L210.2 422.564C210.2 419.475 212.703 416.969 215.794 416.969L273.929 416.969C277.021 416.969 279.527 419.475 279.527 422.564L279.527 478.866C279.527 481.96 277.021 484.464 273.929 484.464Z" fill="#DFE1E8" transform="matrix(1.00113 0 0 1 221 0)"/></g></svg>