<svg width="231" height="228" xmlns="http://www.w3.org/2000/svg" xmlns:xlink="http://www.w3.org/1999/xlink" xml:space="preserve" overflow="hidden"><defs><clipPath id="clip0"><rect x="524" y="246" width="231" height="228"/></clipPath></defs><g clip-path="url(#clip0)" transform="translate(-524 -246)"><path d="M747.411 362.376C775.561 430.588 718.236 473.625 649.116 473.625 579.996 473.625 524 423.818 524 362.376 524 300.935 579.728 246 648.83 246 717.932 246 742.972 274.74 747.411 362.376" fill="#EBF2FC"/><path d="M605.592 339.836 605.592 403.802 673.142 403.802 673.142 339.836 644.118 317.413C641.364 315.287 637.37 315.287 634.616 317.413L605.592 339.836ZM648.869 311.927 679.266 335.413C680.138 336.085 680.646 337.093 680.647 338.156L680.647 407.346C680.647 409.29 678.953 410.889 676.894 410.889L601.84 410.889C599.781 410.889 598.087 409.29 598.087 407.346L598.087 338.156C598.086 337.094 598.591 336.087 599.461 335.413L629.858 311.927C635.366 307.672 643.36 307.672 648.869 311.927Z" fill="#1930AB"/><path d="M639.367 354.194C643.484 354.194 646.873 350.995 646.873 347.107 646.873 343.219 643.484 340.02 639.367 340.02 635.25 340.02 631.862 343.219 631.862 347.107 631.862 350.995 635.25 354.194 639.367 354.194ZM639.367 361.281C631.132 361.281 624.356 354.882 624.356 347.107 624.356 339.331 631.132 332.933 639.367 332.933 647.602 332.933 654.378 339.331 654.378 347.107 654.378 354.882 647.602 361.281 639.367 361.281Z" fill="#1930AB"/></g></svg>