<svg width="537" height="358" xmlns="http://www.w3.org/2000/svg" xmlns:xlink="http://www.w3.org/1999/xlink" overflow="hidden"><defs><clipPath id="clip0"><rect x="371" y="181" width="537" height="358"/></clipPath></defs><g clip-path="url(#clip0)" transform="translate(-371 -181)"><path d="M435.842 524.874C435.81 524.433 435.671 522.701 435.346 519.881 435.446 519.88 435.545 519.879 435.645 519.878 435.973 522.735 436.112 524.472 436.141 524.874L435.842 524.874Z" fill="#8DBDDB"/><path d="M427.324 524.984C427.324 524.977 427.322 524.943 427.317 524.885L427.489 524.885C427.493 524.935 427.495 524.965 427.495 524.971L427.324 524.984ZM426.773 519.936C426.695 519.344 426.607 518.705 426.508 518.022L426.68 518.022C426.779 518.705 426.867 519.344 426.944 519.935 426.888 519.935 426.83 519.936 426.773 519.936Z" fill="#9BC7E2"/><path d="M427.317 524.885C427.285 524.463 427.14 522.717 426.773 519.936 426.83 519.936 426.888 519.935 426.944 519.935 427.314 522.738 427.458 524.485 427.489 524.885L427.317 524.885Z" fill="#8DBDDB"/><path d="M424.122 519.942C423.915 519.607 423.501 518.947 422.886 518.022L423.044 518.022C423.678 518.978 424.09 519.639 424.276 519.942L424.122 519.942ZM397.951 489.991C396.996 489.174 396.01 488.353 394.993 487.532 394.967 487.512 394.939 487.49 394.913 487.469 394.907 487.464 394.9 487.458 394.894 487.452 394.868 487.432 394.84 487.41 394.814 487.389 394.784 487.365 394.755 487.34 394.725 487.316 393.979 486.718 393.217 486.121 392.438 485.526 391.5 484.808 390.542 484.095 389.557 483.386 389.553 483.383 389.55 483.381 389.547 483.379 389.177 483.113 388.804 482.847 388.427 482.582 388.401 482.563 388.372 482.544 388.346 482.525 388.339 482.52 388.331 482.516 388.324 482.511 388.293 482.488 388.263 482.468 388.231 482.445 386.457 481.204 384.611 479.984 382.695 478.8 382.686 478.794 382.677 478.788 382.668 478.782 382.275 478.54 381.878 478.298 381.482 478.059 381.459 478.046 381.44 478.034 381.417 478.021 381.414 478.019 381.408 478.015 381.404 478.013 381.383 478.001 381.365 477.989 381.343 477.977 378.098 476.034 374.663 474.202 371.044 472.547L370.999 472.366C372.383 472.994 373.761 473.658 375.132 474.357 375.156 474.369 375.18 474.382 375.204 474.394 375.211 474.397 375.217 474.401 375.224 474.404 375.253 474.419 375.28 474.433 375.309 474.447 377.722 475.684 380.112 477.027 382.476 478.478 382.513 478.501 382.55 478.523 382.585 478.546 382.595 478.552 382.604 478.557 382.614 478.562 382.647 478.584 382.682 478.605 382.715 478.626 382.979 478.788 383.24 478.951 383.502 479.116 385.523 480.386 387.524 481.735 389.506 483.159 389.519 483.17 389.534 483.181 389.549 483.19 389.552 483.194 389.557 483.196 389.562 483.2 389.584 483.217 389.607 483.233 389.63 483.25 390.555 483.916 391.475 484.599 392.391 485.299 393.27 485.973 394.147 486.662 395.017 487.365 395.667 487.89 396.313 488.421 396.956 488.963 396.97 488.973 396.983 488.984 396.995 488.995 396.998 488.997 397.003 489.002 397.007 489.004 397.027 489.022 397.047 489.038 397.067 489.056 397.362 489.304 397.656 489.554 397.951 489.807L397.951 489.991Z" fill="#9BC7E2"/><path d="M424.277 520.196C424.271 520.187 424.22 520.101 424.122 519.942L424.276 519.942C424.348 520.058 424.385 520.121 424.389 520.128L424.277 520.196Z" fill="#8DBDDB"/><path d="M410.747 516.646 418.556 516.646 418.556 522.385 410.747 522.385Z" fill="#00233F"/><path d="M497.556 516.646 505.365 516.646 505.365 522.385 497.556 522.385Z" fill="#00233F"/><path d="M522.323 518.022 402.181 518.022C399.845 518.022 397.951 516.127 397.951 513.791L397.951 289.312C397.951 286.976 399.845 285.081 402.181 285.081L522.323 285.081C524.66 285.081 526.554 286.976 526.554 289.312L526.554 513.791C526.554 516.127 524.66 518.022 522.323 518.022Z" fill="#26354D"/><path d="M523.62 517.796C523.69 517.492 523.734 517.18 523.734 516.855L523.734 480.06 526.554 480.06 526.553 513.791C526.553 515.671 525.317 517.247 523.62 517.796ZM526.554 476.404 523.734 476.404 523.734 476.19 526.554 476.19 526.553 476.404M526.554 472.534 523.734 472.534 523.734 434.074 526.554 434.074 526.553 472.534M526.554 430.416 523.734 430.416 523.734 430.312 526.554 430.312 526.553 430.416M526.554 426.655 523.734 426.655 523.734 388.141 526.554 388.141 526.553 426.655M526.554 384.485 523.734 384.485 523.734 384.379 526.554 384.379 526.553 384.485M526.554 380.723 523.734 380.723 523.734 337.882 526.554 337.882 526.553 380.723M526.554 334.225 523.734 334.225 523.734 292.377C523.734 290.039 521.839 288.145 519.504 288.145L399.362 288.145C398.907 288.145 398.475 288.236 398.064 288.369 398.487 286.519 400.118 285.126 402.086 285.083L402.089 285.083C402.096 285.083 402.102 285.083 402.109 285.081L522.323 285.081C524.66 285.081 526.553 286.976 526.553 289.313L526.553 334.225" fill="#3B4B63"/><path d="M526.554 337.882 526.553 334.225 526.554 334.225 526.554 337.882ZM523.734 337.882 397.951 337.882 397.951 334.225 523.734 334.225 523.734 337.882Z" fill="#314058"/><path d="M526.554 337.882 523.734 337.882 523.734 334.225 526.554 334.225 526.553 337.882" fill="#41516A"/><path d="M397.951 330.569 526.554 330.569 526.554 334.225 397.951 334.225Z" fill="#1C283A"/><path d="M397.951 426.655 526.554 426.655 526.554 430.311 397.951 430.311Z" fill="#1C283A"/><path d="M397.951 472.534 526.554 472.534 526.554 476.19 397.951 476.19Z" fill="#1C283A"/><path d="M526.554 434.074 526.553 430.416 526.554 430.416 526.554 434.074ZM523.734 434.074 397.951 434.074 397.951 430.416 523.734 430.416 523.734 434.074Z" fill="#314058"/><path d="M526.554 434.074 523.734 434.074 523.734 430.416 526.554 430.416 526.553 434.074" fill="#41516A"/><path d="M397.951 380.723 526.554 380.723 526.554 384.379 397.951 384.379Z" fill="#1C283A"/><path d="M526.554 388.141 526.553 384.485 526.554 384.485 526.554 388.141ZM523.734 388.141 397.951 388.141 397.951 384.485 523.734 384.485 523.734 388.141Z" fill="#314058"/><path d="M526.554 388.141 523.734 388.141 523.734 384.485 526.554 384.485 526.553 388.141" fill="#41516A"/><path d="M526.554 480.06 526.553 476.404 526.554 476.404 526.554 480.06ZM523.734 480.06 397.951 480.06 397.951 476.404 523.734 476.404 523.734 480.06Z" fill="#314058"/><path d="M526.554 480.06 523.734 480.06 523.734 476.404 526.554 476.404 526.553 480.06" fill="#41516A"/><path d="M484.447 305.915 489.66 305.915 489.66 312.06 484.447 312.06Z" fill="#FECE71"/><path d="M495.571 305.915 500.785 305.915 500.785 312.06 495.571 312.06Z" fill="#85D2DA"/><path d="M507.104 305.915 512.318 305.915 512.318 312.06 507.104 312.06Z" fill="#F47954"/><path d="M484.447 356.23 489.66 356.23 489.66 362.375 484.447 362.375Z" fill="#FECE71"/><path d="M495.571 356.23 500.785 356.23 500.785 362.375 495.571 362.375Z" fill="#85D2DA"/><path d="M507.104 356.23 512.318 356.23 512.318 362.375 507.104 362.375Z" fill="#F47954"/><path d="M484.447 404.998 489.66 404.998 489.66 411.145 484.447 411.145Z" fill="#FECE71"/><path d="M495.571 404.998 500.785 404.998 500.785 411.145 495.571 411.145Z" fill="#85D2DA"/><path d="M507.104 404.998 512.318 404.998 512.318 411.145 507.104 411.145Z" fill="#F47954"/><path d="M484.447 450.392 489.66 450.392 489.66 456.538 484.447 456.538Z" fill="#FECE71"/><path d="M495.571 450.392 500.785 450.392 500.785 456.538 495.571 456.538Z" fill="#85D2DA"/><path d="M507.104 450.392 512.318 450.392 512.318 456.538 507.104 456.538Z" fill="#F47954"/><path d="M484.447 495.19 489.66 495.19 489.66 501.334 484.447 501.334Z" fill="#FECE71"/><path d="M495.571 495.19 500.785 495.19 500.785 501.334 495.571 501.334Z" fill="#85D2DA"/><path d="M507.104 495.19 512.318 495.19 512.318 501.334 507.104 501.334Z" fill="#F47954"/><path d="M410.747 301.751 472.462 301.751 472.462 316.494 410.747 316.494Z" fill="#36455E"/><path d="M410.747 401.296 472.462 401.296 472.462 416.038 410.747 416.038Z" fill="#36455E"/><path d="M410.747 351.932 472.462 351.932 472.462 366.674 410.747 366.674Z" fill="#36455E"/><path d="M410.747 446.094 472.462 446.094 472.462 460.836 410.747 460.836Z" fill="#36455E"/><path d="M410.747 490.89 472.462 490.89 472.462 505.633 410.747 505.633Z" fill="#36455E"/><path d="M540.452 516.646 548.263 516.646 548.263 522.385 540.452 522.385Z" fill="#00233F"/><path d="M627.261 516.646 635.072 516.646 635.072 522.385 627.261 522.385Z" fill="#00233F"/><path d="M652.03 518.022 531.886 518.022C529.55 518.022 527.656 516.127 527.656 513.791L527.656 289.312C527.656 286.976 529.55 285.081 531.886 285.081L652.03 285.081C654.365 285.081 656.259 286.976 656.259 289.312L656.259 513.791C656.259 516.127 654.365 518.022 652.03 518.022Z" fill="#26354D"/><path d="M531.768 285.083 531.771 285.083 531.768 285.083ZM531.79 285.083 531.796 285.083 531.79 285.083ZM531.813 285.081 531.822 285.081 531.813 285.081ZM531.838 285.081 531.85 285.081 531.838 285.081ZM531.861 285.081 531.884 285.081 531.861 285.081Z" fill="#99AFC3"/><path d="M656.259 384.485 653.44 384.485 653.44 384.379 656.259 384.379 656.258 384.485M656.259 380.723 653.44 380.723 653.44 337.882 656.259 337.882 656.258 380.723M656.259 334.225 653.44 334.225 653.44 292.377C653.44 290.039 651.546 288.145 649.209 288.145L529.068 288.145C528.612 288.145 528.181 288.236 527.77 288.369 528.191 286.526 529.81 285.138 531.768 285.083L531.796 285.083C531.802 285.083 531.807 285.083 531.813 285.081L652.03 285.081C654.365 285.081 656.258 286.976 656.258 289.313L656.258 334.225" fill="#3B4B63"/><path d="M656.259 337.882 656.258 334.225 656.259 334.225 656.259 337.882ZM653.44 337.882 527.656 337.882 527.656 334.225 653.44 334.225 653.44 337.882Z" fill="#314058"/><path d="M656.259 337.882 653.44 337.882 653.44 334.225 656.259 334.225 656.258 337.882" fill="#41516A"/><path d="M527.656 330.569 656.259 330.569 656.259 334.225 527.656 334.225Z" fill="#1C283A"/><path d="M527.656 426.655 656.259 426.655 656.259 430.311 527.656 430.311Z" fill="#1C283A"/><path d="M527.656 472.534 656.259 472.534 656.259 476.19 527.656 476.19Z" fill="#1C283A"/><path d="M527.656 430.416 585.023 430.416 585.023 434.074 527.656 434.074Z" fill="#314058"/><path d="M527.656 380.723 656.259 380.723 656.259 384.379 527.656 384.379Z" fill="#1C283A"/><path d="M585.162 388.141 527.656 388.141 527.656 384.485 653.44 384.485 653.44 384.689 589.601 384.689C587.461 384.689 585.664 386.158 585.162 388.141ZM656.259 384.689 656.258 384.689 656.258 384.485 656.259 384.485 656.259 384.689Z" fill="#314058"/><path d="M656.258 384.689 653.44 384.689 653.44 384.485 656.259 384.485 656.258 384.689Z" fill="#41516A"/><path d="M585.023 480.06 553.984 480.06 554 479.911 550.879 479.509 550.823 480.06 527.656 480.06 527.656 476.404 585.023 476.404 585.023 480.06Z" fill="#314058"/><path d="M614.152 305.915 619.365 305.915 619.365 312.06 614.152 312.06Z" fill="#FECE71"/><path d="M625.276 305.915 630.49 305.915 630.49 312.06 625.276 312.06Z" fill="#85D2DA"/><path d="M636.81 305.915 642.023 305.915 642.023 312.06 636.81 312.06Z" fill="#F47954"/><path d="M614.152 356.23 619.365 356.23 619.365 362.375 614.152 362.375Z" fill="#FECE71"/><path d="M625.276 356.23 630.49 356.23 630.49 362.375 625.276 362.375Z" fill="#85D2DA"/><path d="M636.81 356.23 642.023 356.23 642.023 362.375 636.81 362.375Z" fill="#F47954"/><path d="M614.152 404.998 619.365 404.998 619.365 411.145 614.152 411.145Z" fill="#FECE71"/><path d="M625.276 404.998 630.49 404.998 630.49 411.145 625.276 411.145Z" fill="#85D2DA"/><path d="M636.81 404.998 642.023 404.998 642.023 411.145 636.81 411.145Z" fill="#F47954"/><path d="M614.152 450.392 619.365 450.392 619.365 456.538 614.152 456.538Z" fill="#FECE71"/><path d="M625.276 450.392 630.49 450.392 630.49 456.538 625.276 456.538Z" fill="#85D2DA"/><path d="M636.81 450.392 642.023 450.392 642.023 456.538 636.81 456.538Z" fill="#F47954"/><path d="M614.152 495.19 619.365 495.19 619.365 501.334 614.152 501.334Z" fill="#FECE71"/><path d="M625.276 495.19 630.49 495.19 630.49 501.334 625.276 501.334Z" fill="#85D2DA"/><path d="M636.81 495.19 642.023 495.19 642.023 501.334 636.81 501.334Z" fill="#F47954"/><path d="M540.452 301.751 602.167 301.751 602.167 316.494 540.452 316.494Z" fill="#36455E"/><path d="M540.452 401.296 585.023 401.296 585.023 416.038 540.452 416.038Z" fill="#36455E"/><path d="M540.452 351.932 602.167 351.932 602.167 366.674 540.452 366.674Z" fill="#36455E"/><path d="M540.452 446.094 585.023 446.094 585.023 460.836 540.452 460.836Z" fill="#36455E"/><path d="M585.023 505.633 540.452 505.633 540.452 490.89 552.36 490.89 552.321 492.749 552.315 492.852C552.306 493.022 552.436 493.167 552.608 493.177L552.625 493.177C552.787 493.177 552.924 493.05 552.932 492.886L552.944 492.672 553.066 490.89 585.023 490.89 585.023 505.633Z" fill="#36455E"/><path d="M824.731 538.612 574.526 538.612C571.999 538.612 569.95 536.564 569.95 534.035L569.95 527.112C569.95 525.83 570.989 524.792 572.271 524.792L826.986 524.792C828.268 524.792 829.307 525.83 829.307 527.112L829.307 534.035C829.307 536.564 827.258 538.612 824.731 538.612Z" fill="#324666"/><path d="M814.234 524.792 585.023 524.792 585.023 389.266C585.023 386.738 587.072 384.689 589.601 384.689L809.658 384.689C812.185 384.689 814.234 386.738 814.234 389.266L814.234 524.792Z" fill="#435D88"/><path d="M814.234 524.792 585.023 524.792 585.023 389.266C585.023 386.738 587.072 384.689 589.601 384.689L797.319 384.689C796.281 384.855 795.242 385.065 794.207 385.32 793.192 385.571 792.182 385.864 791.176 386.201 785.392 388.139 780.377 391.334 776.331 395.38L596.777 395.38 596.777 507.824 802.48 507.824 802.48 460.701C802.776 460.708 803.071 460.711 803.367 460.711 806.969 460.712 810.623 460.198 814.234 459.124L814.234 524.792ZM811.645 385.142C810.865 384.967 810.076 384.817 809.283 384.689L809.658 384.689C810.37 384.689 811.044 384.852 811.645 385.142Z" fill="#47608A"/><path d="M596.777 395.38 802.48 395.38 802.48 507.824 596.777 507.824Z" fill="#FFFFFF"/><path d="M738.84 531.788 660.419 531.788C658.477 531.788 656.901 530.214 656.901 528.272L656.901 524.792 742.357 524.792 742.357 528.272C742.357 530.214 740.782 531.788 738.84 531.788Z" fill="#26354D"/><path d="M596.777 395.38 802.48 395.38 802.48 404.721 596.777 404.721Z" fill="#85D2DA"/><path d="M601.988 398.261 621.665 398.261 621.665 401.84 601.988 401.84Z" fill="#CEEDF0"/><path d="M783.536 398.261 787.115 398.261 787.115 401.84 783.536 401.84Z" fill="#CEEDF0"/><path d="M788.488 398.261 792.067 398.261 792.067 401.84 788.488 401.84Z" fill="#CEEDF0"/><path d="M793.44 398.261 797.018 398.261 797.018 401.84 793.44 401.84Z" fill="#CEEDF0"/><path d="M739.494 411.298 796.38 411.298 796.38 453.504 739.494 453.504Z" fill="#E7F6F8"/><path d="M776.287 420.981 780.334 420.981 780.334 425.028 776.287 425.028Z" fill="#4195C9"/><path d="M782.138 420.981 791.41 420.981 791.41 421.9 782.138 421.9Z" fill="#B3D5E9"/><path d="M782.138 422.544 787.628 422.544 787.628 423.465 782.138 423.465Z" fill="#B3D5E9"/><path d="M776.287 427.399 780.334 427.399 780.334 431.448 776.287 431.448Z" fill="#85D2DA"/><path d="M782.138 427.399 791.41 427.399 791.41 428.321 782.138 428.321Z" fill="#B3D5E9"/><path d="M782.138 428.964 787.628 428.964 787.628 429.883 782.138 429.883Z" fill="#B3D5E9"/><path d="M776.287 433.82 780.334 433.82 780.334 437.868 776.287 437.868Z" fill="#F47954"/><path d="M782.138 433.82 791.41 433.82 791.41 434.74 782.138 434.74Z" fill="#B3D5E9"/><path d="M782.138 435.384 787.628 435.384 787.628 436.304 782.138 436.304Z" fill="#B3D5E9"/><path d="M776.287 440.239 780.334 440.239 780.334 444.287 776.287 444.287Z" fill="#FECE71"/><path d="M782.138 440.239 791.41 440.239 791.41 441.16 782.138 441.16Z" fill="#B3D5E9"/><path d="M782.138 441.804 787.628 441.804 787.628 442.724 782.138 442.724Z" fill="#B3D5E9"/><path d="M757.346 421.331 757.346 432.385 761.026 421.974C759.82 421.571 758.584 421.355 757.346 421.331Z" fill="#85D2DA"/><path d="M761.441 422.122 757.492 433.292 768.566 429.079C767.273 425.854 764.694 423.336 761.441 422.122Z" fill="#F47954"/><path d="M758.454 433.397 769.43 432.987C769.364 431.785 769.127 430.611 768.723 429.49L758.454 433.397Z" fill="#FECE71"/><path d="M756.818 421.331C750.143 421.498 744.785 426.947 744.785 433.66 744.785 440.479 750.313 446.007 757.13 446.007 763.948 446.007 769.476 440.479 769.476 433.66L769.47 433.544 756.818 433.938 756.818 421.331Z" fill="#4195C9"/><path d="M764.808 433.643C764.808 437.893 761.362 441.339 757.113 441.339 752.862 441.339 749.417 437.893 749.417 433.643 749.417 429.394 752.862 425.947 757.113 425.947 761.362 425.947 764.808 429.394 764.808 433.643Z" fill="#FFFFFF"/><path d="M602.665 459.894 659.605 459.894 659.605 502.139 602.665 502.139Z" fill="#E7F6F8"/><path d="M640.529 469.803 643.568 469.803 643.568 472.84 640.529 472.84Z" fill="#4195C9"/><path d="M644.921 469.803 651.882 469.803 651.882 470.493 644.921 470.493Z" fill="#B3D5E9"/><path d="M644.921 470.976 649.045 470.976 649.045 471.666 644.921 471.666Z" fill="#B3D5E9"/><path d="M640.529 474.863 643.568 474.863 643.568 477.902 640.529 477.902Z" fill="#85D2DA"/><path d="M644.921 474.863 651.882 474.863 651.882 475.554 644.921 475.554Z" fill="#B3D5E9"/><path d="M644.921 476.036 649.045 476.036 649.045 476.728 644.921 476.728Z" fill="#B3D5E9"/><path d="M640.529 479.924 643.568 479.924 643.568 482.964 640.529 482.964Z" fill="#435D88"/><path d="M644.921 479.924 651.882 479.924 651.882 480.615 644.921 480.615Z" fill="#B3D5E9"/><path d="M644.921 481.098 649.045 481.098 649.045 481.788 644.921 481.788Z" fill="#B3D5E9"/><path d="M640.529 484.986 643.568 484.986 643.568 488.024 640.529 488.024Z" fill="#FECE71"/><path d="M644.921 484.986 651.882 484.986 651.882 485.676 644.921 485.676Z" fill="#B3D5E9"/><path d="M644.921 486.159 649.045 486.159 649.045 486.849 644.921 486.849Z" fill="#B3D5E9"/><path d="M640.529 490.046 643.568 490.046 643.568 493.085 640.529 493.085Z" fill="#F47954"/><path d="M644.921 490.046 651.882 490.046 651.882 490.738 644.921 490.738Z" fill="#B3D5E9"/><path d="M644.921 491.22 649.045 491.22 649.045 491.912 644.921 491.912Z" fill="#B3D5E9"/><path d="M632.851 487.489C633.617 485.861 634.058 484.051 634.058 482.132 634.058 480.934 633.881 479.777 633.567 478.678L621.476 482.132 632.851 487.489Z" fill="#85D2DA"/><path d="M609.004 483.74C609.795 489.928 615.07 494.717 621.476 494.717 626.506 494.717 630.836 491.757 632.851 487.489L621.476 482.132 609.004 483.74Z" fill="#4195C9"/><path d="M619.736 469.681C613.611 470.53 608.889 475.773 608.889 482.132 608.889 482.678 608.936 483.213 609.004 483.74L621.476 482.132 619.736 469.681Z" fill="#F47954"/><path d="M628.581 471.748C626.557 470.362 624.111 469.548 621.476 469.548 620.883 469.548 620.306 469.603 619.736 469.681L621.476 482.132 628.581 471.748Z" fill="#FECE71"/><path d="M628.581 471.748 621.476 482.132 633.567 478.678C632.754 475.825 630.967 473.385 628.581 471.748Z" fill="#435D88"/><path d="M739.494 459.894 796.38 459.894 796.38 502.139 739.494 502.139Z" fill="#E7F6F8"/><path d="M742.573 492.644 792.176 492.644 792.176 497.292 742.573 497.292Z" fill="#CEEDF0"/><path d="M742.573 483.87 792.176 483.87 792.176 488.519 742.573 488.519Z" fill="#CEEDF0"/><path d="M742.573 474.429 792.176 474.429 792.176 479.079 742.573 479.079Z" fill="#CEEDF0"/><path d="M742.573 465.179 792.176 465.179 792.176 469.827 742.573 469.827Z" fill="#CEEDF0"/><path d="M745.148 497.172 747.235 492.153 750.593 489.23 754.155 481.461 757.308 478.034 760.666 480.984 764.024 488.609 767.435 484.819 770.741 474.815 774.296 471.297 777.299 475.102 780.815 480.984 784.172 487.443 787.531 486 789.763 497.292 745.148 497.172Z" fill="#FECE71"/><path d="M745.148 497.217 747.235 494.074 750.593 492.245 754.155 487.379 757.308 485.235 760.666 487.083 764.024 491.856 767.435 489.482 770.741 483.219 774.296 481.016 777.299 483.399 780.815 487.083 784.172 491.125 787.531 490.223 789.763 497.292 745.148 497.217Z" fill="#4195C9"/><path d="M666.885 459.894 733.989 459.894 733.989 502.139 666.885 502.139Z" fill="#E7F6F8"/><path d="M671.917 494.006 729.319 494.006 729.319 497.778 671.917 497.778Z" fill="#CEEDF0"/><path d="M671.917 486.461 729.319 486.461 729.319 490.233 671.917 490.233Z" fill="#CEEDF0"/><path d="M671.917 478.917 729.319 478.917 729.319 482.69 671.917 482.69Z" fill="#CEEDF0"/><path d="M671.917 471.373 729.319 471.373 729.319 475.145 671.917 475.145Z" fill="#CEEDF0"/><path d="M671.917 463.828 729.319 463.828 729.319 467.6 671.917 467.6Z" fill="#CEEDF0"/><path d="M673.018 489.467 676.046 489.467 676.046 495.218 673.018 495.218Z" fill="#F47954"/><path d="M699.161 482.694 702.189 482.694 702.189 495.218 699.161 495.218Z" fill="#F47954"/><path d="M707.876 464.748 710.904 464.748 710.904 495.218 707.876 495.218Z" fill="#F47954"/><path d="M716.59 478.012 719.618 478.012 719.618 495.218 716.59 495.218Z" fill="#F47954"/><path d="M725.303 484.138 728.331 484.138 728.331 495.218 725.303 495.218Z" fill="#F47954"/><path d="M681.732 478.594 684.76 478.594 684.76 495.218 681.732 495.218Z" fill="#F47954"/><path d="M690.447 478.012 693.475 478.012 693.475 495.218 690.447 495.218Z" fill="#F47954"/><path d="M673.018 492.038 676.046 492.038 676.046 497.778 673.018 497.778Z" fill="#4195C9"/><path d="M699.161 485.279 702.189 485.279 702.189 497.778 699.161 497.778Z" fill="#4195C9"/><path d="M707.876 468.795 710.904 468.795 710.904 497.778 707.876 497.778Z" fill="#4195C9"/><path d="M716.59 480.603 719.618 480.603 719.618 497.778 716.59 497.778Z" fill="#4195C9"/><path d="M725.303 486.719 728.331 486.719 728.331 497.778 725.303 497.778Z" fill="#4195C9"/><path d="M681.732 481.184 684.76 481.184 684.76 497.778 681.732 497.778Z" fill="#4195C9"/><path d="M690.447 480.603 693.475 480.603 693.475 497.778 690.447 497.778Z" fill="#4195C9"/><path d="M709.39 462.555 706.843 465.1 711.935 465.1 709.39 462.555Z" fill="#F47954"/><path d="M602.665 411.298 733.989 411.298 733.989 454.771 602.665 454.771Z" fill="#E7F6F8"/><path d="M655.115 428.083C653.634 421.087 647.424 415.836 639.986 415.836 633.275 415.836 627.564 420.109 625.423 426.084 624.849 425.895 624.238 425.787 623.601 425.787 620.4 425.787 617.806 428.383 617.806 431.581 617.806 431.915 617.842 432.24 617.896 432.559 617.391 432.455 616.868 432.4 616.334 432.4 612.085 432.4 608.64 435.844 608.64 440.093 608.64 444.342 612.085 447.787 616.334 447.787 616.487 447.787 616.637 447.781 616.788 447.771L617.073 447.787 654.668 447.787 654.713 447.782 654.897 447.787C660.339 447.787 664.75 443.375 664.75 437.932 664.75 432.563 660.457 428.201 655.115 428.083Z" fill="#4195C9"/><path d="M614.099 440.728C614.099 437.228 616.272 434.589 619.635 434.589L619.864 434.6C619.503 434.536 619.134 434.496 618.754 434.496 615.288 434.496 612.48 437.304 612.48 440.77 612.48 443.903 614.778 446.492 617.781 446.961 615.325 446.145 614.099 443.555 614.099 440.728Z" fill="#64AADA"/><path d="M660.018 437.135C660.018 432.757 658.183 429.156 651.139 429.21 650.448 422.596 645.544 417.65 639.478 417.65 635.333 417.65 631.557 420.783 629.258 423.87 631.556 421.354 634.862 419.774 638.538 419.774 644.584 419.774 649.632 424.042 650.835 429.729 655.176 429.824 658.666 433.369 658.666 437.732 658.666 439.699 657.957 441.498 656.781 442.892 658.491 441.42 660.018 439.569 660.018 437.135Z" fill="#64AADA"/><path d="M620.535 433.814 620.363 433.592C620.121 432.53 619.945 430.81 621.008 429.062 621.822 427.721 623.434 427.005 624.904 427.005L624.914 427.005C625.153 427.005 625.386 427.025 625.615 427.055 622.727 427.12 620.406 429.572 620.406 432.593 620.406 432.911 620.485 433.509 620.535 433.814Z" fill="#53A0D2"/><path d="M634.615 442.975C634.615 442.975 631.022 438.467 633.446 433.655 635.867 428.844 641.197 427.173 646.928 430.794 646.928 430.794 638.422 427.518 635.273 433.534 632.124 439.549 634.615 442.975 634.615 442.975Z" fill="#64AADA"/><path d="M638.262 433.851 630.761 441.352 645.763 441.352 638.262 433.851Z" fill="#C8E5F7"/><path d="M634.917 442.186 641.606 442.186 641.606 443.229 634.917 443.229Z" fill="#C8E5F7"/><path d="M634.917 443.766 641.606 443.766 641.606 444.81 634.917 444.81Z" fill="#C8E5F7"/><path d="M634.917 445.482 641.606 445.482 641.606 446.253 634.917 446.253Z" fill="#C8E5F7"/><path d="M634.917 447.131 641.606 447.131 641.606 447.763 634.917 447.763Z" fill="#C8E5F7"/><path d="M634.917 448.793 641.606 448.793 641.606 449.263 634.917 449.263Z" fill="#C8E5F7"/><path d="M634.917 450.446 641.606 450.446 641.606 450.769 634.917 450.769Z" fill="#C8E5F7"/><path d="M634.917 452.064 641.606 452.064 641.606 452.312 634.917 452.312Z" fill="#C8E5F7"/><path d="M691.246 426.674 726.818 426.674 726.818 431.443 691.246 431.443Z" fill="#CEEDF0"/><path d="M711.448 431.443 691.246 431.443 691.246 426.674 711.448 426.674 713.406 429.059 711.448 431.443Z" fill="#F47954"/><path d="M676.664 425.754C676.543 425.747 676.383 425.747 676.168 425.771 675.426 425.834 674.803 426.09 674.325 426.537 673.781 427.056 673.422 427.87 673.422 428.868 673.422 430.146 674.116 431.103 675.377 431.103 676.48 431.103 677.206 430.241 677.206 429.252 677.206 428.198 676.511 427.559 675.617 427.559 675.098 427.559 674.707 427.766 674.452 428.062L674.428 428.062C674.556 427.343 675.083 426.673 676.168 426.544 676.368 426.521 676.528 426.521 676.671 426.521L676.664 425.754ZM675.37 430.369C674.739 430.369 674.412 429.81 674.396 429.123 674.396 428.988 674.42 428.892 674.459 428.812 674.612 428.501 674.939 428.278 675.306 428.278 675.88 428.278 676.208 428.708 676.208 429.307 676.208 429.93 675.88 430.369 675.37 430.369Z" fill="#3D95D1"/><path d="M679.609 425.738C678.396 425.738 677.709 426.825 677.709 428.437 677.716 430.017 678.355 431.103 679.553 431.103 680.791 431.103 681.445 430.058 681.445 428.389 681.445 426.857 680.862 425.738 679.609 425.738ZM679.584 426.49C680.176 426.49 680.463 427.2 680.463 428.405 680.463 429.65 680.16 430.353 679.584 430.353 679.042 430.353 678.69 429.699 678.698 428.437 678.69 427.136 679.057 426.49 679.584 426.49Z" fill="#3D95D1"/><path d="M683.298 425.738C682.499 425.738 681.933 426.386 681.933 427.367 681.94 428.365 682.531 428.924 683.257 428.924 683.968 428.924 684.607 428.373 684.607 427.28 684.607 426.345 684.119 425.738 683.298 425.738ZM683.281 426.289C683.704 426.289 683.864 426.753 683.864 427.328 683.864 427.958 683.672 428.373 683.281 428.373 682.89 428.373 682.674 427.934 682.683 427.335 682.683 426.753 682.882 426.289 683.281 426.289ZM683.832 431.103 686.842 425.738 686.283 425.738 683.274 431.103 683.832 431.103ZM686.874 427.885C686.084 427.885 685.516 428.541 685.516 429.515 685.516 430.52 686.116 431.079 686.833 431.079 687.552 431.079 688.183 430.52 688.183 429.435 688.183 428.501 687.695 427.885 686.874 427.885ZM686.857 428.445C687.281 428.445 687.44 428.9 687.44 429.483 687.44 430.114 687.257 430.528 686.857 430.528 686.466 430.528 686.251 430.081 686.259 429.49 686.259 428.908 686.459 428.445 686.857 428.445Z" fill="#3D95D1"/><path d="M691.246 437.521 726.818 437.521 726.818 442.29 691.246 442.29Z" fill="#CEEDF0"/><path d="M718.476 442.29 691.246 442.29 691.246 437.521 718.476 437.521 720.432 439.906 718.476 442.29Z" fill="#4195C9"/><path d="M675.282 442.795C676.392 442.795 677.174 442.173 677.174 441.247 677.174 440.601 676.751 440.154 676.184 439.938L676.184 439.914C676.751 439.634 676.982 439.18 676.982 438.74 676.982 438.102 676.472 437.431 675.353 437.431 674.372 437.431 673.621 438.005 673.621 438.852 673.621 439.307 673.869 439.738 674.412 440.001L674.412 440.025C673.813 440.288 673.438 440.728 673.438 441.374 673.438 442.102 674.068 442.795 675.282 442.795ZM675.314 442.102C674.763 442.102 674.428 441.702 674.444 441.262 674.444 440.832 674.723 440.497 675.21 440.353 675.785 440.512 676.176 440.8 676.176 441.327 676.176 441.774 675.833 442.102 675.314 442.102ZM675.306 438.109C675.833 438.109 676.048 438.485 676.048 438.844 676.048 439.234 675.753 439.523 675.402 439.627 674.906 439.491 674.556 439.234 674.556 438.812 674.556 438.437 674.811 438.109 675.306 438.109Z" fill="#3D95D1"/><path d="M679.609 437.431C678.396 437.431 677.709 438.517 677.709 440.13 677.716 441.709 678.355 442.795 679.553 442.795 680.791 442.795 681.445 441.75 681.445 440.081 681.445 438.549 680.862 437.431 679.609 437.431ZM679.584 438.182C680.176 438.182 680.463 438.892 680.463 440.098 680.463 441.342 680.16 442.046 679.584 442.046 679.042 442.046 678.69 441.391 678.698 440.13 678.69 438.828 679.057 438.182 679.584 438.182Z" fill="#3D95D1"/><path d="M573.531 211.43C569.85 194.046 554.422 181 535.943 181 519.271 181 505.085 191.618 499.765 206.46 498.34 205.988 496.823 205.723 495.24 205.723 487.289 205.723 480.845 212.168 480.845 220.117 480.845 220.947 480.931 221.754 481.065 222.545 479.812 222.287 478.515 222.149 477.185 222.149 466.63 222.149 458.074 230.706 458.074 241.262 458.074 251.817 466.63 260.374 477.185 260.374 477.564 260.374 477.94 260.359 478.313 260.338 478.548 260.355 478.782 260.374 479.022 260.374L572.419 260.374 572.532 260.362C572.684 260.365 572.835 260.374 572.987 260.374 586.507 260.374 597.466 249.414 597.466 235.895 597.466 222.557 586.798 211.72 573.531 211.43Z" fill="#EFEFEF"/><path d="M471.633 242.84C471.633 234.146 477.035 227.587 485.385 227.587 485.577 227.587 485.765 227.608 485.954 227.617 485.058 227.456 484.141 227.358 483.198 227.358 474.591 227.358 467.612 234.335 467.612 242.944 467.612 250.728 473.324 257.161 480.782 258.324 474.683 256.295 471.633 249.864 471.633 242.84Z" fill="#FFFFFF"/><path d="M585.71 233.913C585.71 223.036 581.15 214.092 563.653 214.224 561.935 197.794 549.754 185.506 534.682 185.506 524.383 185.506 515.004 193.292 509.292 200.962 515.001 194.71 523.214 190.784 532.349 190.784 547.369 190.784 559.907 201.387 562.898 215.515 573.681 215.751 582.351 224.559 582.351 235.399 582.351 240.284 580.588 244.754 577.667 248.218 581.917 244.557 585.71 239.963 585.71 233.913Z" fill="#FFFFFF"/><path d="M487.624 225.663 487.195 225.111C486.594 222.474 486.158 218.199 488.799 213.858 490.824 210.527 494.828 208.746 498.483 208.746L498.502 208.746C499.094 208.748 499.672 208.797 500.242 208.87 493.071 209.033 487.302 215.124 487.302 222.629 487.302 223.423 487.501 224.904 487.624 225.663Z" fill="#FFFFFF"/><path d="M522.602 248.421C522.602 248.421 513.677 237.223 519.693 225.27 525.711 213.318 538.95 209.165 553.191 218.162 553.191 218.162 532.059 210.022 524.237 224.965 516.414 239.908 522.602 248.421 522.602 248.421Z" fill="#FFFFFF"/><path d="M527.77 231.781 506.2 253.351 549.34 253.351 527.77 231.781Z" fill="#4195C9"/><path d="M518.152 255.749 537.387 255.749 537.387 258.75 518.152 258.75Z" fill="#4195C9"/><path d="M518.152 260.293 537.387 260.293 537.387 263.294 518.152 263.294Z" fill="#4195C9"/><path d="M518.152 265.231 537.387 265.231 537.387 267.443 518.152 267.443Z" fill="#4195C9"/><path d="M518.152 269.971 537.387 269.971 537.387 271.791 518.152 271.791Z" fill="#4195C9"/><path d="M518.152 274.748 537.387 274.748 537.387 276.101 518.152 276.101Z" fill="#4195C9"/><path d="M518.152 279.506 537.387 279.506 537.387 280.431 518.152 280.431Z" fill="#4195C9"/><path d="M518.152 284.158 537.387 284.158 537.387 284.868 518.152 284.868Z" fill="#4195C9"/><path d="M888.481 470.805 829.379 441.057 833.384 433.015 892.489 462.765C892.622 462.833 892.677 462.996 892.61 463.129L888.847 470.685C888.78 470.818 888.615 470.873 888.481 470.805Z" fill="#26354D"/><path d="M899.956 478.56 844.683 450.878C843.411 450.245 842.895 448.701 843.528 447.43L846.995 440.466C847.629 439.195 849.173 438.677 850.444 439.31L905.716 466.993C907.161 467.824 908.029 468.196 907.395 469.467L902.908 478.541C902.273 479.812 901.228 479.194 899.956 478.56Z" fill="#F47954"/><path d="M813.267 452.12C796.923 457.592 779.155 448.755 773.675 432.404 768.193 416.052 777.039 398.29 793.391 392.81 794.214 392.533 795.039 392.295 795.87 392.09 811.498 388.239 827.78 396.998 832.984 412.526 838.464 428.879 829.618 446.639 813.267 452.12ZM794.207 385.32C793.192 385.571 792.182 385.864 791.176 386.201 771.18 392.903 760.362 414.622 767.064 434.619 773.768 454.615 795.495 465.422 815.484 458.728 835.479 452.026 846.295 430.308 839.593 410.311 833.229 391.322 813.319 380.611 794.207 385.32Z" fill="#26354D"/><path d="M814.234 451.778 814.234 451.695C815.007 451.407 815.762 451.093 816.5 450.749 816.536 450.76 816.573 450.772 816.61 450.783 815.839 451.144 815.045 451.476 814.234 451.778ZM820.056 448.805C831.061 441.819 836.908 428.355 833.619 415.001 833.119 412.972 832.431 411.04 831.578 409.217 831.613 409.232 831.649 409.248 831.686 409.263 832.173 410.314 832.608 411.403 832.984 412.526 837.621 426.363 831.999 441.209 820.254 448.769 820.189 448.78 820.123 448.792 820.056 448.805ZM831.214 408.462C831.164 408.365 831.115 408.266 831.065 408.169 831.085 408.158 831.112 408.145 831.133 408.134 831.185 408.237 831.237 408.34 831.289 408.443 831.264 408.449 831.239 408.456 831.214 408.462ZM830.892 407.838C830.638 407.358 830.372 406.888 830.095 406.426 830.111 406.401 830.125 406.377 830.141 406.353 830.426 406.828 830.699 407.311 830.96 407.803 830.937 407.815 830.913 407.826 830.892 407.838ZM827.47 402.695C823.961 398.416 819.376 395.157 814.234 393.233L814.234 393.165C819.344 395.072 823.934 398.298 827.466 402.572 827.467 402.614 827.469 402.654 827.47 402.695Z" fill="#D4E7F2"/><path d="M816.61 450.783C816.573 450.772 816.536 450.76 816.5 450.749 816.815 450.603 817.129 450.451 817.437 450.295 817.496 450.293 817.557 450.291 817.617 450.289 817.285 450.459 816.95 450.624 816.61 450.783ZM817.813 450.102C818.582 449.699 819.33 449.266 820.056 448.805 820.123 448.792 820.189 448.78 820.254 448.769 819.527 449.238 818.779 449.676 818.006 450.086 817.943 450.091 817.877 450.096 817.813 450.102Z" fill="#B0D3E9"/><path d="M817.437 450.295C817.563 450.232 817.688 450.167 817.813 450.102 817.877 450.096 817.943 450.091 818.006 450.086 817.877 450.154 817.747 450.222 817.617 450.289 817.557 450.291 817.496 450.293 817.437 450.295Z" fill="#B0D3E9"/><path d="M803.361 453.74C803.068 453.74 802.773 453.737 802.48 453.728L802.48 453.656C802.755 453.664 803.029 453.667 803.305 453.667 805.775 453.667 808.286 453.372 810.791 452.754 811.972 452.463 813.121 452.108 814.234 451.695L814.234 451.778C813.915 451.897 813.593 452.01 813.267 452.12 809.987 453.218 806.646 453.74 803.361 453.74ZM787.833 395.38 787.682 395.38C789.462 394.352 791.368 393.487 793.391 392.81 794.214 392.533 795.039 392.295 795.87 392.09 798.347 391.479 800.841 391.186 803.304 391.186 807.074 391.186 810.773 391.873 814.234 393.165L814.234 393.233C810.802 391.95 807.124 391.261 803.354 391.261 800.884 391.261 798.371 391.557 795.866 392.174 792.981 392.885 790.292 393.976 787.833 395.38Z" fill="#7F90AD"/><path d="M802.48 453.728C800.412 453.67 798.371 453.404 796.38 452.947L796.38 452.883C798.365 453.338 800.407 453.601 802.48 453.656L802.48 453.728ZM774.197 411.298 774.128 411.298C775.017 408.98 776.179 406.769 777.587 404.721L777.669 404.721C776.257 406.766 775.091 408.973 774.197 411.298Z" fill="#FFFFFF"/><path d="M777.669 404.721 777.587 404.721C780.173 400.961 783.59 397.743 787.682 395.38L787.833 395.38C786.346 396.23 784.944 397.196 783.635 398.261L783.536 398.261 783.536 398.342C781.282 400.195 779.311 402.347 777.669 404.721Z" fill="#AAE0E5"/><path d="M783.536 398.342 783.536 398.261 783.635 398.261C783.603 398.288 783.568 398.316 783.536 398.342Z" fill="#DDF2F5"/><path d="M796.38 452.947C790.255 451.541 784.634 448.309 780.334 443.661L780.334 443.554C784.605 448.203 790.214 451.469 796.38 452.883L796.38 452.947ZM777.683 440.239 777.592 440.239C775.961 437.88 774.631 435.255 773.675 432.404 771.279 425.257 771.62 417.841 774.128 411.298L774.197 411.298C771.99 417.043 771.455 423.498 773.039 429.926 773.976 433.732 775.576 437.201 777.683 440.239Z" fill="#EEF9FA"/><path d="M780.334 443.661C779.347 442.593 778.43 441.452 777.592 440.239L777.683 440.239C778.494 441.41 779.38 442.516 780.334 443.554L780.334 443.661Z" fill="#FEDD9C"/><path d="M803.301 455.704C788.366 455.704 774.795 445.566 771.062 430.414 766.671 412.593 777.557 394.588 795.377 390.197 798.048 389.54 800.721 389.225 803.353 389.225 818.289 389.225 831.862 399.363 835.596 414.515 839.985 432.335 829.1 450.339 811.278 454.731 808.609 455.389 805.932 455.704 803.301 455.704ZM802.48 453.728C802.773 453.737 803.068 453.74 803.361 453.74 806.646 453.74 809.987 453.218 813.267 452.12 813.593 452.01 813.915 451.897 814.234 451.778 815.045 451.476 815.839 451.144 816.61 450.783 816.95 450.624 817.285 450.459 817.617 450.289 817.747 450.222 817.877 450.154 818.006 450.086 818.779 449.676 819.527 449.238 820.254 448.769 831.999 441.209 837.621 426.363 832.984 412.526 832.608 411.403 832.173 410.314 831.686 409.263 831.6 409.08 831.513 408.897 831.423 408.715 831.41 408.686 831.396 408.658 831.382 408.629 831.351 408.567 831.32 408.505 831.289 408.443 831.237 408.34 831.185 408.237 831.133 408.134 831.075 408.024 831.018 407.913 830.96 407.803 830.699 407.311 830.426 406.828 830.141 406.353 829.93 406.003 829.714 405.658 829.491 405.319 829.405 405.189 829.319 405.059 829.232 404.93 828.678 404.112 828.088 403.325 827.466 402.572 823.934 398.298 819.344 395.072 814.234 393.165 810.773 391.873 807.074 391.186 803.304 391.186 800.841 391.186 798.347 391.479 795.87 392.09 795.039 392.295 794.214 392.533 793.391 392.81 791.368 393.487 789.462 394.352 787.682 395.38 783.59 397.743 780.173 400.961 777.587 404.721 776.179 406.769 775.017 408.98 774.128 411.298 771.62 417.841 771.279 425.257 773.675 432.404 774.631 435.255 775.961 437.88 777.592 440.239 778.43 441.452 779.347 442.593 780.334 443.661 784.634 448.309 790.255 451.541 796.38 452.947 798.371 453.404 800.412 453.67 802.48 453.728Z" fill="#687283"/><path d="M816.5 450.749C816.102 450.626 815.779 450.521 815.576 450.454 815.621 450.444 815.664 450.433 815.708 450.424L815.69 450.344C816.04 450.336 816.68 450.319 817.437 450.295 817.129 450.451 816.815 450.603 816.5 450.749ZM815.684 450.318 815.668 450.252C817.83 449.45 819.068 448.999 820.056 448.805 819.33 449.266 818.582 449.699 817.813 450.102 817.166 450.156 816.455 450.226 815.684 450.318Z" fill="#8EC0DF"/><path d="M815.69 450.344 815.684 450.318C816.455 450.226 817.166 450.156 817.813 450.102 817.688 450.167 817.563 450.232 817.437 450.295 816.68 450.319 816.04 450.336 815.69 450.344Z" fill="#8EC0DF"/><path d="M814.234 450.771 814.234 450.582C814.711 450.467 815.189 450.355 815.667 450.245L815.668 450.252 815.684 450.318 815.69 450.344 815.708 450.424C815.664 450.433 815.621 450.444 815.576 450.454 815.128 450.557 814.679 450.662 814.234 450.771Z" fill="#8EC0DF"/><path d="M803.305 453.667C803.029 453.667 802.755 453.664 802.48 453.656L802.48 450.337C802.755 450.345 803.031 450.349 803.306 450.349 805.514 450.349 807.759 450.084 809.997 449.533 811.468 449.171 812.882 448.698 814.234 448.125L814.234 451.695C813.121 452.108 811.972 452.463 810.791 452.754 808.286 453.372 805.775 453.667 803.305 453.667ZM814.234 396.671C810.841 395.233 807.148 394.455 803.35 394.455 801.133 394.455 798.88 394.721 796.629 395.275 796.492 395.31 796.355 395.344 796.218 395.38L787.833 395.38C790.292 393.976 792.981 392.885 795.866 392.174 798.371 391.557 800.884 391.261 803.354 391.261 807.124 391.261 810.802 391.95 814.234 393.233L814.234 396.671Z" fill="#6C92B5"/><path d="M802.48 453.656C800.407 453.601 798.365 453.338 796.38 452.883L796.38 449.469C798.355 449.978 800.4 450.275 802.48 450.337L802.48 453.656ZM777.655 411.298 774.197 411.298C775.091 408.973 776.257 406.766 777.669 404.721L781.669 404.721C780.037 406.718 778.685 408.934 777.655 411.298Z" fill="#C6DFEF"/><path d="M781.669 404.721 777.669 404.721C779.311 402.347 781.282 400.195 783.536 398.342L783.536 401.84 784.385 401.84C783.408 402.738 782.502 403.701 781.669 404.721ZM787.115 399.626 787.115 398.261 783.635 398.261C784.944 397.196 786.346 396.23 787.833 395.38L796.218 395.38C793.711 396.037 791.372 397.016 789.233 398.261L788.488 398.261 788.488 398.711C788.019 399.003 787.562 399.309 787.115 399.626Z" fill="#8AC9DD"/><path d="M784.385 401.84 783.536 401.84 783.536 398.342C783.568 398.316 783.603 398.288 783.635 398.261L787.115 398.261 787.115 399.626C786.154 400.309 785.243 401.049 784.385 401.84Z" fill="#AED6E8"/><path d="M788.488 398.711 788.488 398.261 789.233 398.261C788.983 398.407 788.734 398.557 788.488 398.711Z" fill="#AED6E8"/><path d="M796.38 452.883C790.214 451.469 784.605 448.203 780.334 443.554L780.334 440.239 777.683 440.239C775.576 437.201 773.976 433.732 773.039 429.926 771.455 423.498 771.99 417.043 774.197 411.298L777.655 411.298C776.439 414.091 775.673 417.092 775.42 420.192 775.463 420.137 775.507 420.082 775.55 420.026 775.29 423.001 775.506 426.071 776.26 429.132 776.269 429.167 776.278 429.202 776.287 429.236L776.287 431.448 776.936 431.448C777.212 432.258 777.522 433.05 777.864 433.82L776.287 433.82 776.287 437.868 780.083 437.868C780.715 438.821 781.402 439.728 782.138 440.588L782.138 441.16 782.642 441.16C782.84 441.378 783.039 441.593 783.243 441.804L782.138 441.804 782.138 442.724 784.172 442.724C787.597 445.956 791.802 448.286 796.38 449.469L796.38 452.883Z" fill="#BADBEB"/><path d="M776.936 431.448 776.287 431.448 776.287 429.236C776.475 429.99 776.692 430.725 776.936 431.448Z" fill="#8AC9DD"/><path d="M780.083 437.868 776.287 437.868 776.287 433.82 777.864 433.82C778.497 435.243 779.242 436.596 780.083 437.868Z" fill="#C09D9C"/><path d="M780.334 443.554C779.38 442.516 778.494 441.41 777.683 440.239L780.334 440.239 780.334 443.554Z" fill="#C5C7AA"/><path d="M782.642 441.16 782.138 441.16 782.138 440.588C782.303 440.781 782.471 440.971 782.642 441.16Z" fill="#A1CBE4"/><path d="M784.172 442.724 782.138 442.724 782.138 441.804 783.243 441.804C783.545 442.117 783.857 442.425 784.172 442.724Z" fill="#A1CBE4"/><path d="M803.306 450.349C803.031 450.349 802.755 450.345 802.48 450.337L802.48 408.504C803.214 408.472 803.954 408.455 804.701 408.455 805.031 408.455 805.361 408.459 805.694 408.465 808.65 408.522 811.514 408.829 814.234 409.354L814.234 448.125C812.882 448.698 811.468 449.171 809.997 449.533 807.759 450.084 805.514 450.349 803.306 450.349Z" fill="#89A8C4"/><path d="M802.48 450.337C800.4 450.275 798.355 449.978 796.38 449.469L796.38 411.298 788.326 411.298C792.542 409.714 797.349 408.726 802.48 408.504L802.48 450.337Z" fill="#D1E5F2"/><path d="M796.38 449.469C791.802 448.286 787.597 445.956 784.172 442.724L787.628 442.724 787.628 441.804 783.243 441.804C783.039 441.593 782.84 441.378 782.642 441.16L791.41 441.16 791.41 440.239 782.138 440.239 782.138 440.588C781.402 439.728 780.715 438.821 780.083 437.868L780.334 437.868 780.334 433.82 777.864 433.82C777.522 433.05 777.212 432.258 776.936 431.448L780.334 431.448 780.334 427.399 776.287 427.399 776.287 429.236C776.278 429.202 776.269 429.167 776.26 429.132 775.506 426.071 775.29 423.001 775.55 420.026 778.449 416.368 782.899 413.338 788.326 411.298L796.38 411.298 796.38 449.469ZM782.138 435.384 782.138 436.304 787.628 436.304 787.628 435.384 782.138 435.384ZM782.138 433.82 782.138 434.74 791.41 434.74 791.41 433.82 782.138 433.82ZM782.138 428.964 782.138 429.883 787.628 429.883 787.628 428.964 782.138 428.964ZM782.138 427.399 782.138 428.321 791.41 428.321 791.41 427.399 782.138 427.399ZM776.287 420.981 776.287 425.028 780.334 425.028 780.334 420.981 776.287 420.981ZM782.138 422.544 782.138 423.465 787.628 423.465 787.628 422.544 782.138 422.544ZM782.138 420.981 782.138 421.9 791.41 421.9 791.41 420.981 782.138 420.981Z" fill="#C8E2EF"/><path d="M776.287 420.981 780.334 420.981 780.334 425.028 776.287 425.028Z" fill="#87BCDD"/><path d="M782.138 420.981 791.41 420.981 791.41 421.9 782.138 421.9Z" fill="#B4D5E9"/><path d="M782.138 422.544 787.628 422.544 787.628 423.465 782.138 423.465Z" fill="#B4D5E9"/><path d="M780.334 431.448 776.936 431.448C776.692 430.725 776.475 429.99 776.287 429.236L776.287 427.399 780.334 427.399 780.334 431.448Z" fill="#A1D4E4"/><path d="M782.138 427.399 791.41 427.399 791.41 428.321 782.138 428.321Z" fill="#B4D5E9"/><path d="M782.138 428.964 787.628 428.964 787.628 429.883 782.138 429.883Z" fill="#B4D5E9"/><path d="M780.334 437.868 780.083 437.868C779.242 436.596 778.497 435.243 777.864 433.82L780.334 433.82 780.334 437.868Z" fill="#CDB1B0"/><path d="M782.138 433.82 791.41 433.82 791.41 434.74 782.138 434.74Z" fill="#B4D5E9"/><path d="M782.138 435.384 787.628 435.384 787.628 436.304 782.138 436.304Z" fill="#B4D5E9"/><path d="M791.41 441.16 782.642 441.16C782.471 440.971 782.303 440.781 782.138 440.588L782.138 440.239 791.41 440.239 791.41 441.16Z" fill="#B4D5E9"/><path d="M787.628 442.724 784.172 442.724C783.857 442.425 783.545 442.117 783.243 441.804L787.628 441.804 787.628 442.724Z" fill="#B4D5E9"/><path d="M814.234 396.806C810.843 395.362 807.151 394.58 803.351 394.58 801.166 394.58 798.943 394.84 796.727 395.38L796.218 395.38C796.355 395.344 796.492 395.31 796.629 395.275 798.88 394.721 801.133 394.455 803.35 394.455 807.148 394.455 810.841 395.233 814.234 396.671L814.234 396.806Z" fill="#B6C9DA"/><path d="M777.783 411.298 777.655 411.298C778.685 408.934 780.037 406.718 781.669 404.721L781.824 404.721C780.181 406.716 778.82 408.932 777.783 411.298Z" fill="#E3EFF7"/><path d="M781.824 404.721 781.669 404.721C782.502 403.701 783.408 402.738 784.385 401.84L784.565 401.84C783.581 402.737 782.666 403.7 781.824 404.721ZM787.115 399.778 787.115 399.626C787.562 399.309 788.019 399.003 788.488 398.711L788.488 398.856C788.019 399.151 787.562 399.458 787.115 399.778ZM789.481 398.261 789.233 398.261C791.372 397.016 793.711 396.037 796.218 395.38L796.727 395.38C796.704 395.385 796.683 395.391 796.66 395.397 794.081 396.031 791.677 397.006 789.481 398.261Z" fill="#C5E4EE"/><path d="M784.565 401.84 784.385 401.84C785.243 401.049 786.154 400.309 787.115 399.626L787.115 399.778C786.221 400.418 785.371 401.106 784.565 401.84Z" fill="#D7EBF4"/><path d="M788.488 398.856 788.488 398.711C788.734 398.557 788.983 398.407 789.233 398.261L789.481 398.261C789.145 398.453 788.815 398.651 788.488 398.856Z" fill="#D7EBF4"/><path d="M775.42 420.192C775.673 417.092 776.439 414.091 777.655 411.298L777.783 411.298C776.582 414.04 775.817 416.984 775.55 420.026 775.507 420.082 775.463 420.137 775.42 420.192Z" fill="#DDEDF5"/><path d="M814.234 409.354C811.514 408.829 808.65 408.522 805.694 408.465 805.361 408.459 805.031 408.455 804.701 408.455 803.954 408.455 803.214 408.472 802.48 408.504L802.48 395.38 796.727 395.38C798.943 394.84 801.166 394.58 803.351 394.58 807.151 394.58 810.843 395.362 814.234 396.806L814.234 409.354Z" fill="#C4D4E2"/></g></svg>