<svg width="300" height="300" xmlns="http://www.w3.org/2000/svg" xmlns:xlink="http://www.w3.org/1999/xlink" overflow="hidden"><defs><clipPath id="clip0"><rect x="490" y="210" width="300" height="300"/></clipPath></defs><g clip-path="url(#clip0)" transform="translate(-490 -210)"><path d="M790.001 360C790.001 442.843 722.844 510 640.001 510 557.158 510 490.001 442.843 490.001 360 490.001 277.157 557.158 210 640.001 210 722.844 210 790.001 277.157 790.001 360Z" fill="#EBECF0" fill-rule="evenodd"/><path d="M81.6647 139.677C81.2823 139.622 79.8894 139.431 78.5237 139.267 77.1854 139.103 74.5907 138.584 72.7881 138.147 52.1671 132.985 36.4623 115.887 32.9117 94.7747 32.2835 91.0602 32.065 83.9316 32.4747 80.381 32.939 76.5299 33.9769 71.8321 35.1513 68.4181 37.1178 62.6551 40.9962 55.827 44.7654 51.4842 45.6667 50.4464 46.4041 49.4904 46.4314 49.4085 46.4314 49.2992 45.5028 48.3979 44.3557 47.3874L42.3072 45.5301 40.7504 47.0596C38.3469 49.4358 36.2984 49.9821 34.0042 48.9169 33.2667 48.5618 27.8315 43.2905 17.0431 32.4747-0.573565 14.7761 0.10925 15.6228 0.163876 12.0175 0.191188 9.23166 0.874003 8.08453 4.5612 4.37002 7.26515 1.69338 8.0299 1.0925 9.36822 0.600877 11.2528-0.10925 12.8096-0.163876 14.6396 0.437002 15.8413 0.846691 17.5074 2.40351 32.1742 17.0431 41.0781 25.9197 48.5345 33.4852 48.7257 33.8676 49.9274 36.1619 49.3539 38.4288 46.9777 40.8323L45.3389 42.4984 47.36 44.4922 49.4085 46.5134 51.4023 44.82C59.1318 38.2376 68.8278 34.0315 79.5616 32.6386 82.1563 32.2835 82.6206 32.2835 83.3034 32.6386 84.5598 33.2941 84.8056 34.7689 83.7951 35.7249 83.3034 36.1619 82.4567 36.3804 80.0259 36.7081 74.1537 37.4729 69.811 38.7566 64.567 41.242 58.7494 44.0006 54.3248 47.2508 49.7089 52.0851 42.635 59.5415 38.1011 69.1555 36.7354 79.5616 34.2773 98.4346 42.5803 116.734 58.449 127.386 61.508 129.462 67.189 132.193 70.6031 133.285 79.2885 136.044 87.4823 136.454 96.3588 134.624L99.1447 134.023 99.1447 128.67 97.7518 129.079C93.6003 130.308 87.5369 130.909 82.6752 130.527 64.8674 129.189 49.3266 117.089 43.5636 100.128 39.4394 87.9466 41.0508 73.7167 47.8244 62.7644 50.6649 58.1758 55.0895 53.2596 59.1318 50.2279 69.9476 42.0887 84.2594 39.3028 97.5333 42.7442 109.879 45.9398 120.64 54.9256 126.321 66.752 129.352 73.1158 130.582 78.7149 130.582 86.1712 130.582 96.4408 127.086 106.301 120.694 114.085L119.083 116.024 119.083 122.961 120.831 121.35C124.327 118.182 127.932 113.183 130.663 107.748 137.328 94.5289 137.328 77.9228 130.691 64.3212 123.426 49.4631 109.933 39.5213 93.4091 36.872 92.2893 36.6808 91.1421 36.435 90.8963 36.2984 89.6673 35.6429 89.64 33.6491 90.8417 32.8571 91.4153 32.4747 91.7703 32.4747 93.6276 32.7478 105.072 34.5231 114.877 39.2755 123.016 47.005 140.168 63.2287 144.675 88.9298 134.105 110.07 130.773 116.707 126.13 122.634 120.94 126.922L119.083 128.424 119.083 132.575C119.083 137.328 118.81 138.174 117.007 139.212 115.997 139.813 115.669 139.841 109.305 139.841 103.296 139.841 102.586 139.786 101.63 139.322 101.084 139.021 100.483 138.611 100.292 138.42 100.046 138.092 99.4998 138.147 96.9051 138.666 95.2117 138.994 92.617 139.404 91.1148 139.567 88.6021 139.813 83.1669 139.895 81.6647 139.677ZM115.041 112.938 115.123 90.1589 115.723 89.558C116.434 88.8206 117.827 88.7659 118.482 89.4214 118.892 89.8311 118.974 90.9236 119.083 99.6364L119.219 109.387 120.257 107.748C126.785 97.506 128.342 84.314 124.409 72.7608 123.535 70.1934 121.377 65.7961 120.121 63.9661L119.219 62.6824 119.083 72.5969C118.946 82.0197 118.919 82.5387 118.427 82.9211 117.663 83.4673 116.543 83.3854 115.778 82.7845L115.123 82.2655 115.041 69.8383 114.959 57.3838 113.538 56.1001C110.643 53.5054 104.607 49.4358 103.597 49.4358 103.296 49.4358 103.242 56.5098 103.242 92.3985 103.242 116.051 103.324 135.47 103.433 135.552 103.515 135.662 106.164 135.744 109.278 135.744L114.986 135.744 115.041 112.938ZM94.5016 125.665C99.9914 124.382 99.9368 124.327 92.9994 124.3 86.0893 124.272 85.4884 124.136 84.2594 122.524 83.7677 121.842 83.7131 121.268 83.5766 115.314L83.44 108.841 76.885 108.704C67.4894 108.513 67.9264 108.923 67.7352 99.691L67.5987 93.2725 60.989 93.136C54.871 92.9994 54.3248 92.9721 53.6146 92.4258 51.8666 91.1421 51.8939 91.306 51.8939 77.0215 51.8666 62.1908 52.0851 62.9555 49.4358 68.4181 46.4041 74.6726 45.4755 78.7969 45.5028 85.8981 45.5028 89.9131 45.6394 91.3333 46.131 93.6822 49.7089 110.507 62.2727 122.907 78.7969 125.938 82.566 126.649 91.0602 126.485 94.5016 125.665ZM99.0901 83.7951 99.0082 47.4147 96.6866 46.7865C94.6655 46.2129 89.558 45.3662 88.1651 45.3389 87.7008 45.3389 87.6734 47.3054 87.6734 82.7572L87.6734 120.175 99.1447 120.175 99.0901 83.7951ZM83.5219 75.055 83.44 45.4755 82.0744 45.5574C80.0259 45.694 76.6118 46.3495 74.0991 47.1415L71.8321 47.8244 71.8321 104.607 83.5766 104.607 83.5219 75.055ZM67.7352 89.0391 67.7352 49.6543 66.1784 50.5283C63.4199 52.0851 60.7432 54.0516 58.3397 56.3186L55.9908 58.5036 55.9908 89.0391 67.7352 89.0391ZM41.0508 41.0235C43.3997 38.6473 45.3389 36.5443 45.3389 36.3258 45.3389 36.1346 44.0006 34.6051 42.3345 32.939L39.3301 29.9073 29.7707 39.4667 32.6932 42.3892C34.5231 44.2464 35.8341 45.3389 36.1892 45.3389 36.5716 45.3389 38.2923 43.8094 41.0508 41.0235ZM31.628 31.6007 36.3258 26.9029 33.4579 24.0351 23.8985 33.5945 25.2642 34.9601C26.0016 35.6976 26.6844 36.3258 26.7663 36.3258 26.8483 36.3258 29.0333 34.1954 31.628 31.6007ZM25.8923 25.865 30.5901 21.1673 22.3144 12.9189C17.6713 8.2484 13.7109 4.53389 13.2466 4.37002 11.5259 3.71451 10.6792 4.17883 7.45634 7.45634 4.28808 10.6792 3.87839 11.4167 4.23345 13.192 4.39733 13.8748 6.25459 15.8959 12.6457 22.3417 17.1796 26.8756 20.9488 30.5901 21.0307 30.5901 21.1126 30.5901 23.2976 28.4597 25.8923 25.865Z" fill="#2D5AE7" transform="matrix(1 0 0 -1 570.04 424.84)"/><path d="M359.07 231.856C359.07 299.621 304.136 354.555 236.371 354.555 168.606 354.555 113.672 299.621 113.672 231.856 113.672 164.091 168.606 109.157 236.371 109.157 304.136 109.157 359.07 164.091 359.07 231.856Z" stroke="#0E42E5" stroke-width="2.07918" stroke-linecap="round" stroke-linejoin="round" stroke-miterlimit="1.5" fill="none" fill-rule="evenodd" transform="matrix(1.00646 0 0 1 402.101 128.143)"/></g></svg>