<svg width="300" height="300" xmlns="http://www.w3.org/2000/svg" xmlns:xlink="http://www.w3.org/1999/xlink" overflow="hidden"><defs><clipPath id="clip0"><rect x="490" y="210" width="300" height="300"/></clipPath></defs><g clip-path="url(#clip0)" transform="translate(-490 -210)"><path d="M790.001 360C790.001 442.843 722.844 510 640.001 510 557.158 510 490.001 442.843 490.001 360 490.001 277.157 557.158 210 640.001 210 722.844 210 790.001 277.157 790.001 360Z" fill="#EBECF0" fill-rule="evenodd"/><path d="M359.07 231.856C359.07 299.621 304.136 354.555 236.371 354.555 168.606 354.555 113.672 299.621 113.672 231.856 113.672 164.091 168.606 109.157 236.371 109.157 304.136 109.157 359.07 164.091 359.07 231.856Z" stroke="#0E42E5" stroke-width="2.07918" stroke-linecap="round" stroke-linejoin="round" stroke-miterlimit="1.5" fill="none" fill-rule="evenodd" transform="matrix(1.00646 0 0 1 402.101 128.143)"/><path d="M573.259 354.273C573.789 352.049 574.117 349.755 574.88 347.616 578.691 336.925 588.468 329.978 599.819 329.757 600.292 329.748 600.765 329.757 601.074 329.757 602.182 326.527 603.024 323.328 604.349 320.343 609.661 308.39 618.507 300.1 630.886 295.834 634.417 294.62 638.224 294.206 641.903 293.421 642.152 293.367 642.398 293.295 642.647 293.232L648.91 293.232C650.831 293.547 652.774 293.771 654.673 294.197 670.072 297.658 680.965 306.617 687.277 321.091 687.744 322.164 688.401 322.779 689.416 323.325 699.373 328.675 705.332 336.928 706.55 348.203 708.294 364.403 697.963 378.848 682.239 382.637 680.015 383.173 678.457 382.303 678.353 380.46 678.268 378.962 679.097 378.16 680.936 377.539 683.309 376.734 685.801 376.066 687.934 374.813 697.3 369.321 702.064 360.992 701.486 350.168 700.919 339.565 695.451 331.906 685.785 327.388 684.325 326.703 683.511 325.7 682.943 324.236 676.277 307.087 659.784 296.935 641.518 298.696 624.157 300.368 609.377 314.066 606.415 331.227 606.349 331.612 606.276 331.997 606.198 332.379 605.727 334.657 604.781 335.392 602.453 335.127 599.737 334.817 597.087 335.06 594.449 335.745 584.894 338.221 578.215 347.301 578.511 357.443 578.799 367.292 586.029 375.867 595.639 377.769 596.15 377.87 596.661 377.981 597.15 378.154 598.522 378.64 599.181 379.87 598.847 381.249 598.535 382.536 597.241 383.347 595.837 383.135 584.319 381.4 574.947 371.712 573.521 360.074 573.486 359.787 573.357 359.513 573.268 359.232 573.259 357.579 573.259 355.926 573.259 354.273Z" fill="#2D5AE7"/><path d="M611.236 380.896C604.049 374.7 604.951 365.198 611.214 360.062 610.384 359.137 609.463 358.282 608.747 357.282 605.828 353.206 605.279 348.774 607.384 344.228 609.62 339.398 613.57 336.644 618.886 336.59 632.969 336.448 647.055 336.512 661.14 336.553 666.305 336.568 671.195 340.007 673.005 344.698 674.996 349.85 673.791 355.33 669.854 359.062 669.545 359.355 669.232 359.642 668.832 360.021 672.103 362.772 673.958 366.182 673.952 370.447 673.942 374.668 672.154 378.069 668.819 380.848 669.198 381.202 669.532 381.514 669.863 381.829 673.813 385.587 675.002 391.038 673.002 396.193 671.179 400.887 666.308 404.282 661.131 404.338 655.481 404.398 649.828 404.354 644.177 404.357L642.654 404.357C642.654 406.686 642.616 408.891 642.695 411.093 642.704 411.405 643.218 411.793 643.581 411.989 646.588 413.61 648.256 416.774 647.774 420.005 647.256 423.453 644.758 426.034 641.341 426.652 637.704 427.308 633.953 425.128 632.732 421.645 631.41 417.875 632.89 413.907 636.414 412.096 637.262 411.661 637.48 411.184 637.455 410.31 637.395 408.367 637.436 406.424 637.436 404.354L633.824 404.354C629.214 404.354 624.609 404.357 620 404.354 614.034 404.351 609.147 401.263 607.169 396.259 605.018 390.814 606.346 385.501 610.914 381.268 611.027 381.154 611.128 381.019 611.236 380.896ZM639.966 378.268C646.827 378.268 653.692 378.29 660.554 378.261 665.308 378.239 668.803 374.81 668.737 370.318 668.674 366.087 665.327 362.661 660.957 362.642 647.014 362.585 633.07 362.623 619.129 362.626 618.87 362.626 618.608 362.652 618.35 362.683 613.731 363.245 610.658 367.497 611.579 372.05 612.33 375.763 615.52 378.249 619.64 378.261 626.413 378.283 633.189 378.268 639.966 378.268ZM640.174 341.752 625.971 341.752C623.668 341.752 621.365 341.692 619.066 341.774 614.091 341.957 610.636 346.298 611.567 351.118 612.27 354.755 615.39 357.371 619.315 357.38 633.171 357.418 647.026 357.399 660.882 357.383 661.484 357.383 662.099 357.292 662.686 357.159 667.144 356.137 669.75 351.556 668.362 347.209 667.298 343.872 664.377 341.774 660.629 341.758 653.812 341.733 646.995 341.752 640.174 341.752ZM640.051 383.486 624.937 383.486C622.94 383.486 620.936 383.423 618.943 383.514 613.996 383.747 610.573 388.186 611.586 392.972 612.362 396.641 615.513 399.12 619.564 399.127 633.246 399.149 646.928 399.139 660.61 399.124 661.298 399.124 662.002 399.042 662.677 398.89 666.98 397.919 669.627 393.53 668.475 389.325 667.494 385.748 664.538 383.508 660.639 383.492 653.777 383.467 646.916 383.486 640.051 383.486ZM642.628 418.992C642.644 417.633 641.43 416.396 640.064 416.38 638.704 416.364 637.47 417.579 637.452 418.945 637.433 420.305 638.647 421.541 640.016 421.557 641.376 421.57 642.613 420.355 642.628 418.992Z" fill="#2D5AE7"/><path d="M631.028 367.475C634.202 367.475 637.373 367.478 640.546 367.475 641.855 367.475 642.957 367.825 643.464 369.182 644.007 370.627 643.209 372.176 641.704 372.529 641.161 372.655 640.584 372.687 640.026 372.69 633.984 372.7 627.943 372.696 621.902 372.693 621.511 372.693 621.116 372.687 620.731 372.633 619.148 372.409 618.239 371.387 618.309 369.942 618.375 368.548 619.312 367.56 620.861 367.523 623.814 367.447 626.77 367.488 629.726 367.478 630.161 367.475 630.593 367.475 631.028 367.475Z" fill="#2D5AE7"/><path d="M653.014 370.046C653.026 371.425 651.843 372.605 650.436 372.618 649.007 372.63 647.859 371.507 647.846 370.084 647.834 368.665 648.966 367.523 650.395 367.516 651.809 367.51 653.001 368.665 653.014 370.046Z" fill="#00BF60"/><path d="M662.118 370.021C662.147 371.4 660.98 372.592 659.576 372.618 658.147 372.643 656.992 371.535 656.97 370.109 656.948 368.68 658.061 367.529 659.487 367.51 660.891 367.494 662.09 368.639 662.118 370.021Z" fill="#FF1643"/><path d="M631.041 346.613C634.3 346.613 637.562 346.566 640.821 346.629 642.947 346.67 644.237 348.361 643.414 350.077 643.089 350.755 642.253 351.254 641.549 351.661 641.143 351.894 640.534 351.818 640.016 351.818 633.975 351.828 627.934 351.825 621.889 351.821 621.457 351.821 621.018 351.803 620.593 351.733 619.1 351.493 618.239 350.468 618.309 349.061 618.378 347.711 619.277 346.701 620.741 346.67 624.173 346.597 627.606 346.648 631.041 346.648L631.041 346.613Z" fill="#2D5AE7"/><path d="M650.351 346.648C651.758 346.616 652.96 347.742 653.008 349.134 653.055 350.5 651.881 351.721 650.484 351.758 649.064 351.796 647.884 350.683 647.849 349.269 647.815 347.84 648.925 346.679 650.351 346.648Z" fill="#00BF60"/><path d="M659.487 346.645C660.891 346.626 662.09 347.771 662.118 349.156 662.147 350.528 660.967 351.736 659.573 351.762 658.159 351.79 656.989 350.657 656.967 349.241 656.948 347.812 658.061 346.663 659.487 346.645Z" fill="#FF1643"/><path d="M631.041 388.334C634.256 388.334 637.474 388.297 640.688 388.347 642.865 388.382 644.199 389.956 643.446 391.685 643.133 392.401 642.272 392.947 641.549 393.391 641.155 393.634 640.534 393.543 640.016 393.543 633.975 393.552 627.934 393.549 621.892 393.546 621.589 393.546 621.283 393.552 620.981 393.524 619.293 393.366 618.29 392.388 618.293 390.921 618.299 389.458 619.324 388.423 621 388.357 622.779 388.284 624.561 388.331 626.344 388.328 627.908 388.325 629.473 388.328 631.038 388.328 631.041 388.331 631.041 388.331 631.041 388.334Z" fill="#2D5AE7"/><path d="M650.417 393.489C648.998 393.492 647.846 392.35 647.846 390.934 647.846 389.521 648.995 388.375 650.414 388.379 651.815 388.382 653.011 389.558 653.014 390.931 653.017 392.309 651.821 393.486 650.417 393.489Z" fill="#00BF60"/><path d="M659.487 393.496C658.071 393.477 656.948 392.316 656.967 390.893 656.989 389.47 658.137 388.36 659.573 388.382 660.97 388.404 662.147 389.603 662.118 390.978 662.09 392.36 660.885 393.515 659.487 393.496Z" fill="#FF1643"/></g></svg>