<svg width="300" height="300" xmlns="http://www.w3.org/2000/svg" xmlns:xlink="http://www.w3.org/1999/xlink" overflow="hidden"><defs><clipPath id="clip0"><rect x="490" y="210" width="300" height="300"/></clipPath></defs><g clip-path="url(#clip0)" transform="translate(-490 -210)"><path d="M790.001 360C790.001 442.843 722.844 510 640.001 510 557.158 510 490.001 442.843 490.001 360 490.001 277.157 557.158 210 640.001 210 722.844 210 790.001 277.157 790.001 360Z" fill="#EBECF0" fill-rule="evenodd"/><path d="M359.07 231.856C359.07 299.621 304.136 354.555 236.371 354.555 168.606 354.555 113.672 299.621 113.672 231.856 113.672 164.091 168.606 109.157 236.371 109.157 304.136 109.157 359.07 164.091 359.07 231.856Z" stroke="#0E42E5" stroke-width="2.07918" stroke-linecap="round" stroke-linejoin="round" stroke-miterlimit="1.5" fill="none" fill-rule="evenodd" transform="matrix(1.00646 0 0 1 402.101 128.143)"/><path d="M613.404 422.062 599.618 422.062C599.283 421.129 598.945 420.225 598.633 419.315 598.324 418.414 597.773 418.227 596.927 418.628 596.06 419.038 595.076 419.826 594.313 419.659 593.473 419.477 592.815 418.411 592.104 417.704 589.823 415.437 587.574 413.139 585.263 410.898 584.695 410.346 584.542 409.901 584.963 409.208 585.324 408.616 585.578 407.961 585.873 407.329 586.208 406.618 585.933 406.15 585.266 405.85 585.125 405.787 584.975 405.743 584.83 405.688 582.33 404.764 582.33 404.764 582.33 402.044 582.33 398.671 582.35 395.301 582.312 391.929 582.304 391.233 582.511 390.88 583.184 390.704 583.892 390.517 584.585 390.257 585.266 389.982 585.945 389.708 586.202 389.217 585.873 388.507 585.841 388.437 585.815 388.362 585.783 388.293 585.414 387.412 584.634 386.451 584.784 385.674 584.94 384.877 585.925 384.149 586.69 383.58 588.821 381.995 589.361 380.15 588.925 377.427 587.504 368.561 586.439 359.636 585.237 350.736 584.285 343.675 583.225 336.627 582.408 329.552 581.466 321.4 588.119 314.23 596.497 314.221 614.903 314.201 633.312 314.207 651.718 314.238 652.754 314.241 653.346 313.941 653.953 313.072 657.796 307.545 664.825 305.379 671.152 307.681 677.369 309.942 681.391 316.188 680.883 322.786 680.363 329.517 675.31 335.079 668.611 336.286 668.423 336.321 668.235 336.355 667.9 336.416L667.9 351.452C678.38 352.39 686.661 357.077 692.512 365.801 696.731 372.093 698.111 379.13 697.58 386.754L693.884 386.754C694.562 377.028 691.793 368.668 684.47 362.139 679.812 357.987 674.308 355.726 667.941 355.241L667.941 358.781 664.201 358.781 664.201 355.226C656.139 355.908 649.592 359.254 644.49 365.373 639.353 371.533 637.637 378.764 638.198 386.687L634.501 386.687C633.849 377.773 635.98 369.676 641.833 362.757 647.649 355.882 655.157 352.214 664.132 351.472L664.132 336.748C662.099 335.893 660.092 335.2 658.241 334.221 657.071 333.6 656.075 332.607 655.111 331.668 654.605 331.175 654.195 331.027 653.505 331.14 641.206 333.161 628.902 335.151 616.601 337.149 616.072 337.236 615.541 337.323 614.908 337.424 615.246 340.057 615.567 342.619 615.902 345.18 617.034 353.857 618.171 362.532 619.306 371.209 619.546 373.052 619.751 374.9 620.046 376.734 620.112 377.147 620.409 377.58 620.716 377.889 623.026 380.236 625.347 382.575 627.704 384.874 628.278 385.434 628.46 385.867 628.053 386.653 626.456 389.745 626.436 389.532 629.644 390.646 629.971 390.759 630.294 390.892 630.692 391.042 630.692 395.452 630.701 399.867 630.669 404.279 630.666 404.522 630.372 404.874 630.126 404.987 629.425 405.307 628.685 405.55 627.949 405.787 627.06 406.075 626.806 406.589 627.201 407.461 627.611 408.365 628.391 409.379 628.229 410.187 628.062 411.019 626.959 411.666 626.251 412.379 623.981 414.658 621.686 416.913 619.442 419.217 618.916 419.757 618.483 419.855 617.845 419.477 617.282 419.142 616.664 418.897 616.075 418.611 615.229 418.201 614.686 418.449 614.386 419.336 614.077 420.254 613.733 421.152 613.404 422.062ZM613.407 373.777C613.713 374.631 614.042 375.454 614.305 376.3 614.521 376.996 614.856 377.562 615.665 377.395 616.58 377.204 616.248 376.468 616.173 375.888 615.287 369.093 614.389 362.301 613.502 355.506 612.249 345.911 611.03 336.309 609.734 326.719 609.147 322.373 605.72 318.839 601.394 318.163 599.612 317.886 597.764 317.912 595.951 317.964 590.028 318.131 585.385 323.554 586.115 329.439 586.635 333.626 587.25 337.802 587.816 341.983 589.015 350.846 590.207 359.708 591.403 368.57 591.798 371.501 592.203 374.432 592.659 377.799 593.883 375.313 595.272 376.378 596.635 377.066 596.739 377.118 596.843 377.17 596.947 377.222 597.793 377.649 598.336 377.395 598.636 376.508 598.948 375.599 599.286 374.698 599.621 373.782 604.235 373.777 608.801 373.777 613.407 373.777ZM617.906 415.492C619.624 413.765 621.177 412.087 622.864 410.554 623.779 409.722 624.111 408.998 623.312 407.952 622.783 407.259 622.841 406.543 623.306 405.824 623.473 405.567 623.629 405.278 623.69 404.984 623.979 403.551 624.781 402.703 626.251 402.408 626.543 402.35 626.933 401.799 626.941 401.467 627.002 399.104 626.996 396.742 626.947 394.38 626.941 394.065 626.615 393.543 626.355 393.485 624.836 393.147 624.155 392.203 623.589 390.779 623.06 389.448 622.812 388.374 623.646 387.141 623.808 386.904 623.756 386.283 623.557 386.075 621.738 384.178 619.867 382.33 617.926 380.384 616.459 381.591 615.044 381.524 613.349 380.742 612.093 380.161 611.348 379.512 611.001 378.218 610.918 377.906 610.406 377.505 610.083 377.496 607.683 377.435 605.281 377.444 602.881 377.49 602.601 377.496 602.122 377.819 602.081 378.056 601.804 379.688 600.672 380.268 599.283 380.875 597.989 381.441 596.944 381.585 595.754 380.802 595.506 380.638 594.888 380.667 594.683 380.863 592.783 382.682 590.935 384.556 589.118 386.367 589.118 386.503 589.107 386.546 589.121 386.578 589.173 386.722 589.205 386.884 589.292 387.002 590.201 388.261 590.051 389.431 589.404 390.84 588.804 392.148 588.255 393.19 586.725 393.479 586.45 393.531 586.089 394.103 586.081 394.441 586.023 396.725 586.084 399.012 586.032 401.296 586.017 402.012 586.271 402.321 586.927 402.521 587.536 402.705 588.451 402.899 588.625 403.332 589.352 405.154 590.932 406.976 589.182 409.061 589.118 409.139 589.127 409.278 589.087 409.46 590.632 410.996 592.197 412.549 593.759 414.109 595.05 415.397 595.09 415.48 596.704 414.591 597.963 413.898 598.703 415.007 599.696 415.198 600.946 415.437 601.738 416.159 601.922 417.479 602.026 418.224 602.483 418.426 603.228 418.406 605.318 418.351 607.412 418.334 609.5 418.409 610.464 418.443 611.019 418.198 611.192 417.202 611.362 416.217 611.963 415.726 612.927 415.301 614.674 414.528 616.277 413.921 617.906 415.492ZM651.617 318.024 609.087 318.024C612.237 320.97 613.395 324.571 613.742 328.544 613.892 330.265 614.198 331.972 614.438 333.719 627.149 331.657 639.719 329.618 652.37 327.565 651.082 324.345 650.814 321.235 651.617 318.024ZM666.038 310.493C659.901 310.493 654.883 315.515 654.883 321.651 654.883 327.787 659.904 332.809 666.041 332.809 672.177 332.809 677.198 327.785 677.196 321.648 677.196 315.509 672.177 310.493 666.038 310.493Z" fill="#2D5AE7"/><path d="M666.017 362.575C679.344 362.567 690.21 373.413 690.222 386.734 690.234 400.057 679.379 410.93 666.061 410.938 652.737 410.947 641.868 400.095 641.859 386.777 641.848 373.453 652.697 362.587 666.017 362.575ZM672.679 377.508 659.39 377.508C659.113 379.959 658.842 382.382 658.564 384.828L673.528 384.828C673.24 382.336 672.962 379.936 672.679 377.508ZM659.399 396.012 672.688 396.012C672.965 393.563 673.237 391.14 673.514 388.689L658.55 388.689C658.839 391.178 659.116 393.577 659.399 396.012ZM645.362 384.831 654.836 384.831C655.085 382.356 655.327 379.953 655.576 377.458 653.124 377.458 650.768 377.438 648.408 377.484 648.117 377.49 647.663 377.796 647.571 378.059 646.82 380.236 646.133 382.434 645.362 384.831ZM676.503 377.458C676.76 380.014 677.002 382.422 677.242 384.819L686.711 384.819C685.945 382.443 685.261 380.242 684.507 378.065 684.415 377.799 683.964 377.49 683.673 377.484 681.316 377.438 678.957 377.458 676.503 377.458ZM645.711 388.663C645.885 391.114 646.546 393.326 647.548 395.44 647.672 395.7 648.018 396.026 648.267 396.032 650.698 396.075 653.13 396.058 655.576 396.058 655.319 393.52 655.076 391.108 654.831 388.663L645.711 388.663ZM676.5 396.055C678.963 396.055 681.397 396.061 683.829 396.041 684.019 396.038 684.302 395.89 684.38 395.729 685.463 393.502 686.223 391.189 686.338 388.703L677.239 388.703C676.991 391.175 676.751 393.557 676.5 396.055ZM671.472 373.693C671.582 373.6 671.692 373.508 671.804 373.416 670.75 371.547 669.87 369.552 668.596 367.848 667.002 365.711 665.215 365.784 663.47 367.788 661.995 369.48 661.178 371.516 660.482 373.696 664.213 373.693 667.842 373.693 671.472 373.693ZM660.47 399.818C661.264 402.154 662.102 404.389 663.855 406.127 665.327 407.591 666.739 407.597 668.212 406.136 669.965 404.398 670.82 402.168 671.608 399.818L660.47 399.818ZM658.856 367.643C655.506 368.92 652.737 370.854 650.285 373.736 652.364 373.736 654.166 373.762 655.963 373.707 656.228 373.699 656.606 373.355 656.719 373.078 657.444 371.339 658.108 369.572 658.856 367.643ZM673.234 367.643C673.984 369.604 674.672 371.435 675.397 373.251 675.477 373.45 675.752 373.707 675.942 373.71 677.808 373.745 679.676 373.73 681.776 373.73 679.344 370.843 676.572 368.931 673.234 367.643ZM650.282 399.78C652.763 402.668 655.521 404.623 658.844 405.856 658.108 403.944 657.438 402.145 656.705 400.375 656.595 400.112 656.182 399.815 655.899 399.806 654.135 399.754 652.364 399.78 650.282 399.78ZM681.796 399.78C679.699 399.78 677.894 399.763 676.093 399.8 675.856 399.806 675.495 400.023 675.411 400.234 674.672 402.067 673.982 403.918 673.234 405.87 676.563 404.6 679.327 402.671 681.796 399.78Z" fill="#00BF60"/><path d="M604.648 329.145C604.625 333.239 601.238 336.566 597.126 336.528 593.037 336.491 589.725 333.092 589.774 328.977 589.82 324.934 593.176 321.642 597.236 321.654 601.339 321.666 604.672 325.033 604.648 329.145ZM600.926 329.046C600.903 327.028 599.214 325.368 597.195 325.376 595.174 325.385 593.502 327.057 593.496 329.078 593.488 331.143 595.22 332.85 597.285 332.809 599.298 332.769 600.949 331.062 600.926 329.046Z" fill="#2D5AE7"/><path d="M606.485 383.04C614.669 383.032 621.374 389.699 621.391 397.863 621.409 406.098 614.706 412.812 606.479 412.801 598.313 412.789 591.628 406.09 591.631 397.918 591.631 389.743 598.316 383.049 606.485 383.04ZM606.465 386.763C600.334 386.783 595.336 391.825 595.353 397.967 595.373 404.094 600.421 409.102 606.557 409.078 612.691 409.055 617.689 404.016 617.666 397.871 617.649 391.738 612.61 386.742 606.465 386.763Z" fill="#2D5AE7"/><path d="M665.991 329.087C661.897 329.067 658.57 325.682 658.602 321.573 658.634 317.478 662.03 314.166 666.144 314.212 670.19 314.259 673.485 317.605 673.476 321.666 673.468 325.766 670.098 329.11 665.991 329.087ZM666.029 317.935C664.008 317.938 662.333 319.61 662.321 321.631 662.31 323.652 663.97 325.342 665.989 325.368 668.05 325.394 669.774 323.675 669.754 321.614 669.737 319.595 668.047 317.929 666.029 317.935Z" fill="#2D5AE7"/><path d="M613.95 397.909C613.955 402.012 610.597 405.365 606.494 405.356 602.396 405.348 599.055 401.975 599.075 397.869 599.095 393.817 602.422 390.496 606.473 390.479 610.583 390.465 613.944 393.803 613.95 397.909ZM610.227 397.869C610.201 395.853 608.509 394.193 606.491 394.201 604.469 394.21 602.8 395.888 602.795 397.909 602.789 399.974 604.524 401.677 606.589 401.634 608.602 401.597 610.253 399.887 610.227 397.869Z" fill="#2D5AE7"/></g></svg>