<svg width="300" height="300" xmlns="http://www.w3.org/2000/svg" xmlns:xlink="http://www.w3.org/1999/xlink" overflow="hidden"><defs><clipPath id="clip0"><rect x="490" y="210" width="300" height="300"/></clipPath></defs><g clip-path="url(#clip0)" transform="translate(-490 -210)"><path d="M790.001 360C790.001 442.843 722.844 510 640.001 510 557.158 510 490.001 442.843 490.001 360 490.001 277.157 557.158 210 640.001 210 722.844 210 790.001 277.157 790.001 360Z" fill="#EBECF0" fill-rule="evenodd"/><path d="M359.07 231.856C359.07 299.621 304.136 354.555 236.371 354.555 168.606 354.555 113.672 299.621 113.672 231.856 113.672 164.091 168.606 109.157 236.371 109.157 304.136 109.157 359.07 164.091 359.07 231.856Z" stroke="#0E42E5" stroke-width="2.07918" stroke-linecap="round" stroke-linejoin="round" stroke-miterlimit="1.5" fill="none" fill-rule="evenodd" transform="matrix(1.00646 0 0 1 402.101 128.143)"/><path d="M64.7555 138.454C64.2034 137.93 64.0654 137.433 63.9274 135.363 63.6238 131.195 63.6514 131.305 62.216 130.753 61.1671 130.367 60.8359 130.339 60.4771 130.615 60.2287 130.808 59.1246 131.747 57.9929 132.713 54.9014 135.307 54.8738 135.307 50.3194 130.753 45.7097 126.116 45.7373 126.254 48.7184 122.693 49.8777 121.341 50.761 120.098 50.7058 119.933 50.6506 119.795 50.4298 119.188 50.2365 118.636 49.8225 117.504 49.7673 117.476 45.5717 117.145 43.6396 117.007 43.1427 116.869 42.5907 116.317 41.9834 115.682 41.9558 115.572 41.9558 110.41 41.9558 105.248 41.9834 105.138 42.5907 104.503 43.1427 103.951 43.6396 103.813 45.5717 103.675 49.7673 103.344 49.8225 103.316 50.2365 102.184 50.4298 101.632 50.6506 101.025 50.7058 100.887 50.761 100.722 49.8777 99.4794 48.7184 98.1269 45.7373 94.5662 45.7097 94.7042 50.3194 90.067 54.8738 85.5125 54.9014 85.5125 57.9929 88.1348 59.1246 89.0733 60.2287 90.0117 60.4771 90.205 60.8359 90.481 61.1671 90.4534 62.216 90.067 63.6514 89.5149 63.6238 89.6253 63.9274 85.4573 64.0654 83.3872 64.2034 82.8903 64.7555 82.3659 65.3903 81.7034 65.5007 81.7034 70.6624 81.7034 75.8241 81.7034 75.9345 81.731 76.5693 82.3383 77.1214 82.8903 77.2594 83.3872 77.3974 85.3193 77.7286 89.5149 77.7562 89.5701 78.8879 89.9841 79.44 90.1774 80.0472 90.3982 80.1853 90.4534 80.3509 90.5086 81.593 89.6253 82.9455 88.466 86.5062 85.4849 86.3682 85.4573 91.0054 90.067 95.6151 94.7042 95.5875 94.5662 92.6064 98.1269 91.4471 99.4794 90.5638 100.722 90.619 100.887 90.6742 101.025 90.895 101.632 91.1159 102.184 91.5299 103.371 91.5575 103.371 95.6151 103.675 97.6852 103.813 98.1821 103.951 98.7065 104.503 99.369 105.138 99.369 105.248 99.369 110.41 99.369 115.572 99.3414 115.682 98.7341 116.317 98.1821 116.869 97.6852 117.007 95.7531 117.145 91.5575 117.476 91.5023 117.504 91.0882 118.636 90.895 119.188 90.6742 119.795 90.619 119.933 90.5638 120.098 91.4471 121.341 92.6064 122.693 95.5875 126.254 95.6151 126.116 91.0054 130.753 86.3682 135.363 86.5062 135.335 82.9455 132.354 81.593 131.195 80.3509 130.311 80.1853 130.367 80.0472 130.422 79.44 130.643 78.8879 130.836 77.7562 131.25 77.7286 131.305 77.3974 135.501 77.2594 137.433 77.1214 137.93 76.5693 138.482 75.9345 139.089 75.8241 139.117 70.6624 139.117 65.5007 139.117 65.3903 139.117 64.7555 138.454ZM73.2846 132.023C73.5331 128.71 73.7263 128.158 74.858 127.689 75.3548 127.496 76.7073 126.916 77.8391 126.419 81.0961 125.012 80.9857 124.984 83.746 127.275L86.175 129.262 87.8312 127.579 89.5149 125.923 87.5275 123.494C85.2365 120.733 85.2641 120.844 86.6718 117.587 87.1687 116.455 87.7483 115.102 87.9416 114.606 88.4108 113.474 88.9629 113.281 92.2752 113.032L94.9526 112.839 94.9526 107.981 92.2752 107.788C88.9629 107.539 88.4108 107.346 87.9416 106.214 87.7483 105.718 87.1687 104.365 86.6718 103.233 85.2641 99.9762 85.2365 100.087 87.5275 97.3264L89.5149 94.8974 87.8312 93.2412 86.175 91.5575 83.746 93.5449C80.9857 95.8359 81.0961 95.8083 77.8391 94.4006 76.7073 93.9037 75.3548 93.3241 74.858 93.1308 73.7263 92.6616 73.5331 92.1095 73.2846 88.7972L73.0914 86.1198 68.261 86.1198 67.985 89.2113C67.6813 92.5236 67.4053 93.0756 65.7215 93.4621 65.3351 93.5725 64.0378 94.0693 62.8785 94.6214 61.4708 95.2286 60.5323 95.5046 60.1182 95.3942 59.7594 95.3114 58.5173 94.4006 57.3304 93.3793L55.1774 91.5575 53.4936 93.2136 51.8099 94.8974 53.7973 97.2988C54.8738 98.5961 55.757 99.9211 55.757 100.225 55.757 100.528 55.481 101.301 55.1774 101.936 54.8462 102.571 54.2941 103.896 53.9353 104.889 53.0244 107.374 52.7484 107.567 49.2705 107.788L46.3722 107.981 46.3722 112.811 49.022 113.005C52.3067 113.253 52.8864 113.474 53.3832 114.606 53.5765 115.102 54.1561 116.455 54.653 117.587 56.0607 120.844 56.0883 120.733 53.7973 123.494L51.8099 125.923 53.4936 127.579 55.1498 129.262 57.5788 127.275C60.3391 124.984 60.2287 125.012 63.4857 126.419 64.6175 126.916 65.97 127.496 66.4668 127.689 67.5985 128.158 67.7917 128.71 68.0402 132.023L68.2334 134.7 73.0914 134.7 73.2846 132.023Z" fill="#00BF60" transform="matrix(1 0 0 -1 569.33 430.662)"/><path d="M67.3777 123.218C60.3943 121.341 56.0607 114.081 57.8272 107.236 59.2074 101.991 63.541 98.1269 68.8958 97.354 77.9771 96.0291 85.7886 104.696 83.4976 113.529 81.6482 120.678 74.3059 125.095 67.3777 123.218ZM74.3887 118.387C76.1277 117.559 77.7838 115.903 78.6671 114.136 79.6332 112.177 79.6332 108.699 78.6671 106.684 77.8114 104.917 76.1553 103.261 74.3887 102.405 72.3738 101.439 68.8958 101.439 66.9361 102.405 65.1695 103.261 63.5134 104.917 62.6577 106.684 61.6916 108.643 61.6916 112.121 62.6577 114.136 63.817 116.51 66.0528 118.332 68.5922 118.994 70.0827 119.381 72.8982 119.077 74.3887 118.387Z" fill="#00BF60" transform="matrix(1 0 0 -1 569.33 430.662)"/><path d="M10.6546 121.147C8.94321 120.733 6.43138 119.27 5.21687 117.945 4.60962 117.283 3.69873 115.903 3.22949 114.882L2.34621 113.032 2.34621 37.0978 3.3675 35C4.60962 32.4881 6.21056 30.9424 8.77759 29.7279L10.627 28.8446 32.9298 28.7618 55.205 28.679 55.205 19.929 51.8375 19.8186C48.9944 19.7082 48.2216 19.5978 47.0623 19.0181 45.3233 18.19 43.6396 16.5339 42.7839 14.7673 42.149 13.4976 42.0938 13.0284 42.011 8.50157L41.9006 3.61593 43.3083 2.2082 98.0165 2.2082 98.7065 2.92586 99.4242 3.61593 99.3138 8.50157 99.231 13.3872 98.2925 15.1262C97.2436 17.0307 96.0843 18.1624 94.1245 19.1009 93.1308 19.5702 92.2476 19.7082 89.5149 19.8186L86.1198 19.929 86.1198 28.679 130.725 28.8446 132.823 29.8659C135.335 31.108 136.881 32.709 138.095 35.276L138.979 37.1254 138.979 113.032 138.095 114.882C136.881 117.449 135.335 119.05 132.823 120.292L130.725 121.313 99.369 121.479 99.369 117.035 114.164 117.035C124.984 117.035 129.29 116.952 130.118 116.703 131.636 116.262 133.927 113.971 134.369 112.453 134.617 111.597 134.7 104.006 134.7 81.0409L134.7 50.7886 6.6246 50.7886 6.6246 81.0409C6.6246 104.006 6.70741 111.597 6.95583 112.453 7.39747 113.971 9.68848 116.262 11.2066 116.703 12.0347 116.952 16.3407 117.035 27.1609 117.035L41.9558 117.035 41.9558 121.451 26.8572 121.423C18.5213 121.396 11.2618 121.285 10.6546 121.147ZM134.7 42.6183C134.7 40.4653 134.562 38.3675 134.369 37.705 133.927 36.1869 131.636 33.8959 130.118 33.4542 128.462 32.9574 12.8628 32.9574 11.2066 33.4542 9.68848 33.8959 7.39747 36.1869 6.95583 37.705 6.76261 38.3675 6.6246 40.4653 6.6246 42.6183L6.6246 46.3722 134.7 46.3722 134.7 42.6183ZM81.7034 28.7066 81.7034 19.8738 59.6214 19.8738 59.6214 28.7066 81.7034 28.7066ZM92.91 14.7397C94.5662 13.5252 94.8146 12.8904 94.8974 9.63327L95.0078 6.6246 46.3722 6.6246 46.3722 9.21923C46.3722 12.0347 46.6206 13.0008 47.5591 14.0497 48.884 15.485 48.2492 15.4574 70.9936 15.3746 91.8887 15.3194 92.1647 15.3194 92.91 14.7397Z" fill="#2D5AE7" transform="matrix(1 0 0 -1 569.33 430.662)"/><path d="M59.6214 41.9558 59.6214 37.5394 81.7034 37.5394 81.7034 41.9558 59.6214 41.9558Z" fill="#2D5AE7" transform="matrix(1 0 0 -1 569.33 430.662)"/><path d="M55.9227 76.8454C54.9842 76.5417 54.1561 75.9897 53.1072 74.9684 50.899 72.7602 50.7886 72.1253 50.7886 62.8785L50.7886 55.205 55.205 55.205 55.205 61.8296 61.8296 61.8296 61.8296 55.205 66.246 55.205 66.246 62.8785C66.246 72.1253 66.1356 72.7602 63.9274 74.9684 61.7192 77.149 59.0141 77.7838 55.9227 76.8454ZM60.8359 71.7941C61.6364 70.9936 61.6916 70.7728 61.802 68.5922L61.8848 66.246 55.1498 66.246 55.2326 68.5646C55.343 70.5796 55.4258 70.9936 56.0331 71.6285 56.944 72.6222 57.6064 72.8982 58.9037 72.7602 59.649 72.6774 60.2563 72.3738 60.8359 71.7941Z" fill="#2D5AE7" transform="matrix(1 0 0 -1 569.33 430.662)"/><path d="M69.1443 76.5969 68.4542 75.9345 68.4542 55.205 72.8706 55.205 72.8706 64.0378 75.5756 64.0378C79.1364 64.0378 80.4889 64.507 82.0622 66.246 84.6293 69.0891 84.5465 72.5394 81.8414 75.2168 80.0196 77.0662 79.1364 77.287 74.0023 77.287 69.9171 77.287 69.7791 77.2594 69.1443 76.5969ZM78.8051 72.1805C79.2468 71.7665 79.4952 71.1868 79.4952 70.6624 79.4952 70.1379 79.2468 69.5583 78.8051 69.1443 78.1979 68.5094 77.9219 68.4542 75.4928 68.4542L72.8706 68.4542 72.8706 72.8706 75.4928 72.8706C77.9219 72.8706 78.1979 72.8154 78.8051 72.1805Z" fill="#2D5AE7" transform="matrix(1 0 0 -1 569.33 430.662)"/><path d="M86.1198 77.287 86.1198 55.205 90.5362 55.205 90.5362 77.287 86.1198 77.287Z" fill="#2D5AE7" transform="matrix(1 0 0 -1 569.33 430.662)"/></g></svg>