<svg width="300" height="300" xmlns="http://www.w3.org/2000/svg" xmlns:xlink="http://www.w3.org/1999/xlink" overflow="hidden"><defs><clipPath id="clip0"><rect x="490" y="210" width="300" height="300"/></clipPath></defs><g clip-path="url(#clip0)" transform="translate(-490 -210)"><path d="M790.001 360C790.001 442.843 722.844 510 640.001 510 557.158 510 490.001 442.843 490.001 360 490.001 277.157 557.158 210 640.001 210 722.844 210 790.001 277.157 790.001 360Z" fill="#EBECF0" fill-rule="evenodd"/><path d="M359.07 231.856C359.07 299.621 304.136 354.555 236.371 354.555 168.606 354.555 113.672 299.621 113.672 231.856 113.672 164.091 168.606 109.157 236.371 109.157 304.136 109.157 359.07 164.091 359.07 231.856Z" stroke="#0E42E5" stroke-width="2.07918" stroke-linecap="round" stroke-linejoin="round" stroke-miterlimit="1.5" fill="none" fill-rule="evenodd" transform="matrix(1.00646 0 0 1 402.101 128.143)"/><path d="M228.243 15.3501C229.617 15.6569 230.89 16.1628 231.882 17.2166 233.094 18.5047 233.583 20.0576 233.583 21.7976 233.581 24.6505 233.583 27.5033 233.583 30.3562L233.583 31.1368C238.255 29.8672 239.981 30.5214 242.32 34.4095 246.431 32.5498 248.756 33.3186 251.401 37.4428 252.668 36.6958 254.021 36.3907 255.512 36.5492 258.036 36.8156 260.439 39.1778 260.644 41.7153 260.705 42.4656 260.74 43.2193 260.74 43.973 260.747 51.847 260.752 59.721 260.74 67.5949 260.737 70.0583 260.444 72.4829 259.548 74.8013 257.058 81.2572 252.485 85.4472 245.788 87.1754 241.01 88.4079 236.343 87.7385 231.834 85.8434 228.88 84.6024 226.37 82.7174 224.117 80.4597 217.889 74.2196 211.654 67.9844 205.412 61.7561 204.041 60.3886 203.292 58.8122 203.449 56.8243 203.694 53.7219 206.516 51.0966 210.168 51.6514 211.311 51.825 212.458 52.2128 213.512 52.7018 215.946 53.8281 218.325 55.0758 220.726 56.2729 220.934 56.3758 221.145 56.4702 221.49 56.6337L221.49 55.7452C221.49 44.4754 221.495 33.2073 221.487 21.9376 221.485 19.7339 222.141 17.8134 224.013 16.5506 224.844 15.9891 225.884 15.7396 226.83 15.3484 227.3 15.3501 227.773 15.3501 228.243 15.3501ZM224.529 40.0545 224.529 58.3687C224.529 58.6048 224.539 58.8408 224.518 59.0752 224.409 60.333 223.402 60.9332 222.249 60.4072 221.5 60.0649 220.77 59.6788 220.033 59.3096 217.445 58.0146 214.869 56.6894 212.261 55.4366 211.488 55.0657 210.637 54.7959 209.792 54.6526 208.364 54.4098 207.278 54.9831 206.712 56.1094 206.135 57.2542 206.38 58.4446 207.442 59.5068 213.822 65.8937 220.19 72.294 226.597 78.6523 230.939 82.9602 236.184 85.061 242.32 84.6699 247.169 84.3613 251.103 82.1863 254.129 78.4128 256.626 75.2986 257.724 71.6972 257.712 67.7163 257.689 59.49 257.706 51.2636 257.704 43.0372 257.704 42.7775 257.761 42.4909 257.668 42.265 257.402 41.6057 257.198 40.8588 256.741 40.3513 255.912 39.4307 254.767 39.2671 253.62 39.7089 252.472 40.1506 251.755 41.0308 251.725 42.2801 251.669 44.6592 251.701 47.0416 251.686 49.4207 251.685 49.7714 251.661 50.1305 251.582 50.4694 251.437 51.0916 250.809 51.5451 250.172 51.5468 249.535 51.5468 248.906 51.0933 248.761 50.4728 248.682 50.1339 248.658 49.7748 248.656 49.4241 248.648 46.1716 248.665 42.9175 248.646 39.665 248.634 37.8053 247.388 36.4952 245.67 36.4733 243.942 36.4514 242.676 37.7935 242.639 39.6853 242.635 39.8977 242.637 40.1102 242.637 40.3209 242.637 43.4081 242.661 46.497 242.613 49.5842 242.605 50.1069 242.406 50.7038 242.097 51.1219 241.747 51.5991 241.126 51.6665 240.546 51.4187 239.815 51.1068 239.6 50.4812 239.599 49.7528 239.594 47.1361 239.599 44.5193 239.595 41.9041 239.594 40.0191 239.634 38.1307 239.562 36.249 239.487 34.3235 237.58 33.0421 235.736 33.5918 234.37 33.9981 233.59 35.1042 233.586 36.711 233.576 40.906 233.583 45.1026 233.583 49.2976 233.583 49.5101 233.593 49.7225 233.576 49.9333 233.498 50.9078 232.878 51.5586 232.047 51.5468 231.21 51.535 230.617 50.8859 230.55 49.8995 230.534 49.6888 230.544 49.4746 230.544 49.2639 230.544 40.1894 230.544 31.1132 230.543 22.0388 230.543 21.6864 230.544 21.3306 230.507 20.9799 230.339 19.4102 228.836 18.2181 227.267 18.3951 225.562 18.5873 224.535 19.7946 224.532 21.6628 224.523 27.7967 224.529 33.9256 224.529 40.0545Z" fill="#00BF60" transform="matrix(1 0 0 1.11424 439.5 336.068)"/><path d="M209.722 169.021C212.804 164.819 215.863 160.649 218.974 156.41 217.043 154.067 216.229 151.394 216.915 148.379 217.387 146.306 218.496 144.614 220.182 143.313 223.529 140.73 228.236 140.875 231.454 143.658 234.652 146.422 235.441 151.097 233.372 154.772 231.658 157.818 227.434 160.687 221.849 158.527 218.791 162.697 215.717 166.886 212.604 171.128 212.756 171.338 212.905 171.549 213.061 171.755 215.414 174.866 215.505 179.078 213.284 182.253 211.091 185.387 207.152 186.793 203.523 185.734 199.747 184.631 197.151 181.291 197.059 177.369 197.046 176.862 196.97 176.575 196.402 176.432 193.525 175.706 190.662 174.917 187.782 174.188 187.534 174.125 187.079 174.26 186.947 174.456 184.339 178.314 181.099 179.586 176.479 178.52 176.424 178.508 176.363 178.531 176.224 178.544 173.287 183.507 170.326 188.513 167.341 193.556 168.819 195.019 169.795 196.705 170.132 198.749 170.909 203.454 167.884 207.876 163.144 208.92 158.647 209.91 153.989 207.076 152.762 202.603 150.943 195.981 156.791 189.946 163.495 191.552 164.095 191.695 164.369 191.609 164.682 191.074 167.366 186.484 170.073 181.905 172.805 177.34 173.121 176.811 173.096 176.527 172.666 176.064 169.926 173.102 169.499 168.814 171.553 165.419 173.61 162.02 177.659 160.384 181.499 161.401 185.307 162.409 187.997 165.83 188.094 169.846 188.106 170.391 188.258 170.608 188.793 170.745 191.67 171.477 194.533 172.267 197.41 173.001 197.642 173.06 198.061 172.946 198.187 172.77 201.176 168.515 204.727 167.33 209.722 169.021ZM225.562 145.045C222.613 145.068 220.241 147.459 220.249 150.402 220.258 153.339 222.653 155.721 225.598 155.726 228.577 155.728 230.985 153.301 230.955 150.322 230.928 147.392 228.507 145.022 225.562 145.045ZM179.152 164.682C176.201 164.705 173.831 167.093 173.837 170.037 173.843 172.974 176.239 175.359 179.183 175.363 182.162 175.367 184.57 172.94 184.543 169.962 184.517 167.029 182.095 164.659 179.152 164.682ZM206.083 171.825C203.144 171.753 200.677 174.1 200.616 177.022 200.555 179.979 202.848 182.398 205.805 182.497 208.737 182.596 211.232 180.263 211.316 177.344 211.402 174.355 209.072 171.896 206.083 171.825ZM166.693 200.183C166.69 197.246 164.303 194.861 161.354 194.851 158.41 194.84 156.001 197.217 155.985 200.151 155.968 203.13 158.388 205.548 161.365 205.531 164.314 205.512 166.695 203.121 166.693 200.183Z" fill="#2D5AE7" transform="matrix(1 0 0 1.08552 439.843 178.226)"/><path d="M148.845 212.697 150.148 212.697C177.369 212.697 204.59 212.697 231.81 212.699 232.197 212.699 232.587 212.686 232.968 212.732 233.858 212.84 234.489 213.541 234.521 214.408 234.553 215.277 233.97 216.029 233.09 216.189 232.713 216.258 232.321 216.265 231.936 216.265 203.913 216.269 175.887 216.269 147.864 216.267 145.788 216.267 145.275 215.753 145.275 213.69L145.275 129.706C145.275 128.007 145.879 127.178 147.097 127.203 148.276 127.226 148.845 128.037 148.845 129.696L148.845 212.697Z" fill="#2D5AE7" transform="matrix(1 0 0 1.08552 439.843 178.226)"/><path d="M649.61 405.356 659.87 416.796 691.05 415.67 678.3 410.427 666.25 405.226 649.61 405.356Z" fill="#EBECF0" fill-rule="evenodd"/></g></svg>