<svg width="300" height="300" xmlns="http://www.w3.org/2000/svg" xmlns:xlink="http://www.w3.org/1999/xlink" overflow="hidden"><defs><clipPath id="clip0"><rect x="490" y="210" width="300" height="300"/></clipPath></defs><g clip-path="url(#clip0)" transform="translate(-490 -210)"><path d="M790.001 360C790.001 442.843 722.844 510 640.001 510 557.158 510 490.001 442.843 490.001 360 490.001 277.157 557.158 210 640.001 210 722.844 210 790.001 277.157 790.001 360Z" fill="#EBECF0" fill-rule="evenodd"/><path d="M359.07 231.856C359.07 299.621 304.136 354.555 236.371 354.555 168.606 354.555 113.672 299.621 113.672 231.856 113.672 164.091 168.606 109.157 236.371 109.157 304.136 109.157 359.07 164.091 359.07 231.856Z" stroke="#0E42E5" stroke-width="2.07918" stroke-linecap="round" stroke-linejoin="round" stroke-miterlimit="1.5" fill="none" fill-rule="evenodd" transform="matrix(1.00646 0 0 1 402.101 128.143)"/><path d="M667.761 288.939C670.482 290.081 671.447 292.119 671.473 295.059 671.526 301.572 676.498 306.2 683.233 306.328 687.02 306.4 688.823 308.222 688.829 311.997 688.833 313.661 688.829 315.326 688.829 316.991 688.829 318.241 688.855 319.49 688.819 320.737 688.777 322.15 687.962 323.043 686.768 323.062 685.526 323.085 684.685 322.153 684.675 320.665 684.655 317.799 684.623 314.931 684.691 312.065 684.721 310.839 684.276 310.495 683.085 310.466 675.225 310.266 669.318 305.576 667.659 298.222 667.378 296.973 667.306 295.658 667.273 294.373 667.247 293.408 666.891 293.005 665.945 293.1 665.762 293.12 665.576 293.103 665.389 293.103L601.569 293.103C599.767 293.103 599.767 293.107 599.685 294.919 599.286 304.012 592.993 310.224 583.864 310.462 582.67 310.495 582.271 310.842 582.271 312.062 582.303 330.049 581.96 348.043 582.375 366.02 582.908 389.054 593.578 406.364 613.567 417.806 618.611 420.694 623.923 423.108 629.117 425.735 632.048 427.217 634.976 427.178 637.9 425.696 642.636 423.295 647.376 420.901 652.116 418.5 652.521 418.294 652.914 418.058 653.355 417.816 652.508 416.481 651.694 415.203 650.798 413.796 650.17 414.11 649.525 414.431 648.881 414.754 644.678 416.877 640.455 418.971 636.274 421.139 634.394 422.114 632.608 422.166 630.727 421.179 624.757 418.048 618.51 415.363 612.841 411.761 597.229 401.841 588.754 387.432 587.233 368.974 587.131 367.731 587.076 366.481 587.076 365.235 587.076 363.632 587.91 362.703 589.221 362.736 590.477 362.769 591.207 363.639 591.223 365.212 591.351 377.593 595.266 388.596 603.231 398.108 607.558 403.277 612.763 407.375 618.762 410.447 623.282 412.762 627.819 415.052 632.369 417.309 632.856 417.551 633.612 417.754 634.034 417.548 639.087 415.068 644.099 412.507 648.871 410.093 648.514 406.891 647.877 403.878 647.926 400.876 647.971 397.922 648.707 394.981 649.139 392.067 639.83 396.401 630.135 396.957 620.341 393.117 612.629 390.094 606.692 384.9 602.537 377.733 594.174 363.302 596.931 345.302 609.237 333.729 621.11 322.562 639.401 321.093 653.185 330.16 666.59 338.976 674.11 357.627 665.517 375.892 667.103 375.503 668.572 375.061 670.073 374.796 671.611 374.525 673.181 374.426 675.065 374.217 675.265 371.267 675.628 368.244 675.641 365.225 675.706 350.012 675.677 334.802 675.703 319.589 675.703 318.735 675.484 318.329 674.61 318.002 667.404 315.307 662.41 310.345 659.74 303.116 659.423 302.259 659.008 302.03 658.147 302.033 641.685 302.056 625.219 302.053 608.756 302.046 608.082 302.046 607.575 302.059 607.277 302.887 604.566 310.391 599.417 315.474 591.91 318.172 591.698 318.247 591.501 318.375 591.236 318.506L591.236 320.161C591.233 331.397 591.233 342.633 591.227 353.868 591.227 354.33 591.243 354.797 591.2 355.255 591.092 356.39 590.396 357.041 589.316 357.13 588.224 357.221 587.458 356.629 587.18 355.55 587.069 355.111 587.069 354.634 587.069 354.176 587.066 342.014 587.069 329.853 587.076 317.695 587.076 315.598 587.435 315.163 589.437 314.561 596.781 312.36 601.56 307.584 603.751 300.234 604.34 298.258 604.801 297.886 606.901 297.886 624.613 297.882 642.326 297.882 660.038 297.886 662.138 297.886 662.576 298.249 663.178 300.237 665.393 307.568 670.152 312.366 677.508 314.548 679.379 315.104 679.847 315.565 679.844 317.286 679.828 334.023 679.814 350.761 679.739 367.499 679.729 369.841 679.383 372.179 679.183 374.61 680.629 374.973 682.088 375.339 683.861 375.787 684.122 372.801 684.57 369.886 684.597 366.972 684.695 355.968 684.655 344.961 684.665 333.958 684.665 333.032 684.659 332.11 684.669 331.184 684.688 329.575 685.473 328.616 686.749 328.63 688.025 328.643 688.823 329.601 688.823 331.217 688.823 342.914 688.882 354.614 688.761 366.311 688.728 369.621 688.224 372.935 687.818 376.232 687.701 377.204 687.9 377.694 688.741 378.214 696.529 383.032 700.87 390.039 701.828 399.139 701.88 399.642 701.894 400.156 701.89 400.663 701.88 402.105 701.145 402.972 699.911 403.015 698.619 403.061 697.909 402.2 697.71 400.699 697.425 398.556 697.229 396.358 696.588 394.314 693.412 384.181 683.52 377.697 672.837 378.59 662.511 379.454 653.843 387.582 652.266 397.876 650.536 409.181 657.434 420.044 668.405 423.285 679.383 426.53 691.067 421.165 695.747 410.725 696.676 408.651 697.654 408.013 698.979 408.615 700.261 409.197 700.431 410.407 699.525 412.455 692.349 428.64 671.359 433.556 657.732 422.238 657.271 421.856 656.816 421.466 656.309 421.044 650.958 423.753 645.633 426.5 640.255 429.137 638.78 429.86 637.18 430.393 635.578 430.769 633.124 431.345 630.629 431.073 628.401 429.951 621.477 426.461 614.31 423.321 607.791 419.177 591.037 408.523 581.374 393.084 578.663 373.386 578.28 370.603 578.146 367.767 578.139 364.957 578.097 347.294 578.12 329.63 578.123 311.967 578.123 308.206 579.925 306.4 583.733 306.331 590.526 306.207 595.361 301.624 595.462 294.893 595.505 291.981 596.565 290.048 599.214 288.946 622.069 288.939 644.916 288.939 667.761 288.939ZM633.425 391.501C650.745 391.547 664.941 377.423 665.007 360.083 665.075 342.652 650.977 328.427 633.586 328.374 616.168 328.322 601.985 342.433 601.942 359.858 601.896 377.279 616.001 391.455 633.425 391.501Z" fill="#2D5AE7"/><path d="M659.381 401.34C659.397 392.777 666.384 385.796 674.918 385.826 683.442 385.855 690.471 392.914 690.429 401.405 690.386 409.966 683.409 416.894 674.846 416.877 666.266 416.867 659.368 409.933 659.381 401.34ZM663.545 401.34C663.531 407.647 668.562 412.71 674.852 412.72 681.129 412.73 686.239 407.669 686.268 401.409 686.301 395.2 681.149 390.016 674.918 389.99 668.683 389.96 663.558 395.076 663.545 401.34Z" fill="#00BF60"/><path d="M623.845 355.88C618.716 347.673 619.2 340.886 625.202 336.091 630.39 331.946 637.92 332.339 642.699 336.925 647.105 341.154 648.828 349.129 643.065 355.775 643.317 355.89 643.533 356.021 643.768 356.093 649.643 357.905 653.248 362.576 653.483 368.827 653.578 371.319 653.532 373.818 653.499 376.314 653.477 378.103 652.724 378.823 650.928 378.823 639.277 378.829 627.626 378.829 615.975 378.823 614.369 378.823 613.479 378.136 613.463 376.693 613.423 373.645 613.263 370.57 613.59 367.551 614.225 361.676 617.62 357.908 623.213 356.089 623.413 356.027 623.619 355.955 623.845 355.88ZM622.441 374.633C622.441 373.677 622.422 372.856 622.445 372.032 622.487 370.541 623.184 369.713 624.404 369.661 625.693 369.605 626.517 370.456 626.589 371.973 626.628 372.833 626.596 373.697 626.596 374.57L640.344 374.57C640.344 373.596 640.304 372.716 640.353 371.842 640.432 370.449 641.295 369.615 642.529 369.661 643.706 369.706 644.449 370.524 644.494 371.882 644.524 372.784 644.501 373.69 644.501 374.583L649.293 374.583C649.293 372.428 649.427 370.348 649.267 368.293 648.881 363.351 645.165 359.864 640.203 359.779 635.722 359.701 631.237 359.714 626.756 359.776 622.805 359.831 619.491 362.16 618.206 365.719 617.159 368.62 617.689 371.623 617.633 374.629 619.269 374.633 620.744 374.633 622.441 374.633ZM642.571 346.473C642.568 341.439 638.571 337.419 633.53 337.376 628.467 337.334 624.352 341.426 624.362 346.496 624.371 351.526 628.385 355.556 633.416 355.582 638.518 355.605 642.574 351.572 642.571 346.473Z" fill="#00BF60"/><path d="M673.812 400.895C674.823 399.822 675.778 398.756 676.789 397.752 677.878 396.666 679.039 396.591 679.948 397.467 680.845 398.331 680.799 399.57 679.762 400.634 678.316 402.122 676.851 403.591 675.363 405.033 674.218 406.142 673.115 406.135 671.977 405.056 671.274 404.389 670.59 403.705 669.93 402.998 668.948 401.952 668.906 400.817 669.769 399.934 670.61 399.077 671.778 399.119 672.841 400.045 673.119 400.287 673.39 400.526 673.812 400.895Z" fill="#00BF60"/></g></svg>