<svg width="694" height="694" xmlns="http://www.w3.org/2000/svg" xmlns:xlink="http://www.w3.org/1999/xlink" xml:space="preserve" overflow="hidden"><defs><clipPath id="clip0"><rect x="783" y="428" width="694" height="694"/></clipPath><clipPath id="clip1"><rect x="807" y="452" width="647" height="646"/></clipPath><clipPath id="clip2"><rect x="807" y="452" width="647" height="646"/></clipPath><clipPath id="clip3"><rect x="807" y="452" width="647" height="646"/></clipPath></defs><g clip-path="url(#clip0)" transform="translate(-783 -428)"><g clip-path="url(#clip1)"><g clip-path="url(#clip2)"><g clip-path="url(#clip3)"><path d="M1363.25 942.99C1346.09 913.054 1319.45 892.779 1291.33 885.147 1269.11 879.08 1246.07 880.94 1226.13 892.208L1166.83 788.531C1203.53 715.318 1285.92 551.175 1300.7 525.298 1319.85 491.831 1285.58 452 1285.58 452L1129.98 724.134 974.42 452C974.42 452 940.17 491.831 959.304 525.276 974.103 551.175 1056.51 715.296 1093.17 788.509L1033.89 892.187C1013.95 880.919 990.868 879.058 968.69 885.126 940.53 892.758 913.913 913.033 896.746 942.969 865.922 996.817 877.697 1061.4 922.94 1087.3 943.003 1098.82 966.238 1100.66 988.627 1094.6 1016.72 1086.92 1043.4 1066.65 1060.55 1036.77 1068.06 1023.58 1073.02 1009.78 1075.56 996.056L1075.56 996.077C1075.58 995.971 1075.58 995.865 1075.69 995.76 1075.84 994.618 1076.05 993.476 1076.15 992.229 1088.88 906.838 1112.94 863.224 1129.96 842.04 1147.02 863.224 1171.1 906.817 1183.81 992.229 1183.93 993.476 1184.14 994.618 1184.25 995.76 1184.33 995.865 1184.33 995.971 1184.38 996.077L1184.38 996.056C1186.93 1009.76 1191.88 1023.58 1199.37 1036.77 1216.53 1066.65 1243.21 1086.92 1271.33 1094.6 1293.72 1100.66 1316.95 1098.82 1337.06 1087.3 1382.32 1061.4 1394.06 996.838 1363.25 942.99ZM1016.53 1011.57C1006.81 1028.55 991.396 1041.34 975.35 1045.72 968.204 1047.66 957.718 1048.85 948.099 1043.33 927.591 1031.59 924.23 997.113 940.784 968.149 950.678 950.982 965.667 938.487 982.01 934.026 989.092 932.103 999.578 930.94 1009.24 936.415 1029.77 948.191 1033.11 982.589 1016.53 1011.57ZM1311.88 1043.33C1302.26 1048.87 1291.82 1047.66 1284.67 1045.72 1268.6 1041.34 1253.21 1028.55 1243.47 1011.57 1226.91 982.589 1230.25 948.191 1250.78 936.415 1260.44 930.919 1270.93 932.103 1278.03 934.026 1294.33 938.487 1309.36 950.982 1319.2 968.149 1335.75 997.113 1332.41 1031.59 1311.88 1043.33Z" fill="#1930AB"/></g></g></g></g></svg>