<svg width="300" height="300" xmlns="http://www.w3.org/2000/svg" xmlns:xlink="http://www.w3.org/1999/xlink" overflow="hidden"><defs><clipPath id="clip0"><rect x="490" y="210" width="300" height="300"/></clipPath></defs><g clip-path="url(#clip0)" transform="translate(-490 -210)"><path d="M790.001 360C790.001 442.843 722.844 510 640.001 510 557.158 510 490.001 442.843 490.001 360 490.001 277.157 557.158 210 640.001 210 722.844 210 790.001 277.157 790.001 360Z" fill="#EBECF0" fill-rule="evenodd"/><path d="M359.07 231.856C359.07 299.621 304.136 354.555 236.371 354.555 168.606 354.555 113.672 299.621 113.672 231.856 113.672 164.091 168.606 109.157 236.371 109.157 304.136 109.157 359.07 164.091 359.07 231.856Z" stroke="#0E42E5" stroke-width="2.07918" stroke-linecap="round" stroke-linejoin="round" stroke-miterlimit="1.5" fill="none" fill-rule="evenodd" transform="matrix(1.00646 0 0 1 402.101 128.143)"/><path d="M61.0007 125.568C59.4511 125.076 57.9753 123.748 57.3111 122.198 56.7946 121.042 56.7208 120.427 56.6224 116.59 56.524 111.769 56.4011 111.4 54.9252 110.908 54.4087 110.761 52.8345 110.121 51.4324 109.531 49.5877 108.744 48.7022 108.473 48.2348 108.596 47.8905 108.694 46.2179 110.121 44.5207 111.769 41.9134 114.327 41.2493 114.868 40.1178 115.237 38.519 115.754 36.6742 115.631 35.2722 114.917 34.731 114.647 31.927 111.99 28.9753 109.039 23.8837 103.923 23.6378 103.603 23.2442 102.25 22.7523 100.577 22.8999 99.0523 23.6624 97.5273 23.9329 96.9862 25.9499 94.7479 28.139 92.5587 31.7794 88.9184 32.1975 88.5494 32.9847 88.5494 33.9193 88.574 34.4605 88.8938 34.8786 89.7055 35.5182 90.8615 35.2722 91.2551 31.3858 95.166 29.3197 97.2814 27.4749 99.2491 27.3273 99.5689 26.7124 100.725 27.1797 101.364 32.2959 106.456 36.7726 110.908 37.3875 111.425 38.1008 111.425 38.8142 111.425 39.3307 111.031 42.184 108.252 45.1356 105.349 45.5783 105.029 46.8574 104.66 48.7022 104.119 49.9074 104.292 52.6131 105.472 53.7692 105.989 55.3926 106.677 56.2289 106.973 58.1966 107.686 59.4511 108.768 60.1644 110.293 60.7055 111.449 60.7547 111.867 60.7547 115.557 60.7547 120.009 61.0007 121.091 62.1076 121.509 62.4765 121.657 65.6249 121.755 69.4867 121.755L76.2263 121.755 77.6037 120.575 77.7267 115.926C77.8743 110.785 78.0219 110.146 79.5223 108.67 79.9896 108.202 81.1211 107.514 82.0558 107.12 82.9905 106.751 84.7369 105.989 85.9175 105.472 88.6478 104.292 89.7793 104.119 91.5994 104.636 92.8785 105.005 93.3458 105.374 96.3221 108.252 99.1507 111.007 99.7165 111.425 100.405 111.425 101.118 111.425 101.758 110.884 106.308 106.308 110.884 101.758 111.425 101.118 111.425 100.405 111.425 99.7165 111.007 99.1507 108.252 96.3221 105.595 93.5918 105.029 92.8539 104.66 91.7716 104.095 90.0252 104.267 88.6724 105.472 85.9421 105.989 84.7369 106.751 82.9905 107.12 82.0558 107.514 81.1211 108.178 79.9896 108.645 79.5469 110.219 77.9727 110.588 77.8743 115.803 77.7267L120.575 77.6037 121.755 76.2263 121.755 69.4867C121.755 65.6249 121.657 62.4765 121.509 62.1076 121.091 61.0007 120.009 60.7547 115.532 60.7547 111.72 60.7547 111.449 60.7301 110.244 60.1152 108.645 59.3281 107.686 58.172 106.973 56.2289 106.677 55.3926 105.989 53.7692 105.472 52.6131 104.292 49.9074 104.119 48.7022 104.66 46.8574 105.029 45.5783 105.349 45.1356 108.252 42.184 111.031 39.3307 111.425 38.8142 111.425 38.1008 111.425 37.3875 110.908 36.7726 106.456 32.2959 101.364 27.1797 100.725 26.7124 99.5689 27.3273 99.2491 27.4749 97.2814 29.3197 95.166 31.3858 91.8208 34.7064 91.2551 35.1738 90.5418 35.1738 89.4349 35.1738 88.5494 34.2391 88.5494 33.0584 88.5494 32.1975 88.7954 31.8778 92.5587 28.139 97.6995 22.9982 99.0523 22.3095 102.225 23.2442 103.627 23.6378 103.898 23.8837 109.039 28.9753 111.99 31.927 114.647 34.731 114.917 35.2722 115.631 36.6742 115.754 38.519 115.237 40.1178 114.868 41.2493 114.327 41.9134 111.769 44.5207 110.121 46.2179 108.694 47.8905 108.596 48.2348 108.473 48.7022 108.744 49.5877 109.531 51.4324 110.121 52.8345 110.761 54.4087 110.908 54.9252 111.4 56.4011 111.769 56.524 116.59 56.6224 120.427 56.7208 121.042 56.7946 122.198 57.3111 123.797 57.9999 125.076 59.4511 125.568 61.0991 126.109 62.9193 126.109 75.6114 125.543 77.4561 125.076 79.0303 123.846 80.457 122.297 81.2195 121.263 81.7114 120.698 81.7852 116.516 81.9082 111.252 82.0558 111.572 81.9082 110.662 84.3433 110.392 85.1058 109.777 86.5816 109.285 87.6393 108.67 89.0413 108.473 89.7547 108.596 90.222 108.694 90.591 110.096 92.239 111.769 93.9608 115.04 97.306 115.606 98.3144 115.606 100.577 115.606 102.865 114.819 103.947 109.162 109.457 106.333 112.236 103.603 114.696 103.135 114.942 101.832 115.631 99.9132 115.754 98.3882 115.237 97.306 114.868 96.568 114.303 93.8132 111.646 91.6486 109.531 90.3696 108.473 90.0252 108.473 89.7055 108.473 88.6232 108.842 87.5901 109.285 86.557 109.752 84.9828 110.416 84.0481 110.81 83.138 111.179 82.3018 111.597 82.2034 111.769 82.105 111.917 81.982 114.081 81.9082 116.59 81.7852 120.698 81.7114 121.263 81.2195 122.297 80.457 123.846 79.0303 125.076 77.4561 125.543 75.6851 126.085 62.6979 126.085 61.0007 125.568Z" fill="#0E42E5" transform="matrix(1 0 0 -1 576.954 423.038)"/><path d="M64.8132 96.1499C60.7793 95.4858 56.3273 93.5426 52.9083 91.0091 49.4893 88.4756 48.7268 87.0244 50.055 85.7207 51.0143 84.7369 52.0966 84.8844 53.5232 86.1635 57.4095 89.5825 60.8531 91.2797 65.5758 92.116 69.3391 92.7801 73.1024 92.4603 76.8658 91.1813 87.4671 87.5655 94.0345 76.546 92.116 65.6495 91.2797 60.8777 89.5825 57.4095 86.1635 53.5232 85.3272 52.5885 85.1058 52.1458 85.1058 51.4324 85.1058 50.2764 85.9175 49.4401 87.0244 49.4401 89.2873 49.4401 94.0345 56.524 95.5842 62.2306 96.3467 65.0346 96.6418 70.3968 96.1991 73.2008 95.5842 77.1364 94.0345 81.1703 91.87 84.4909 90.6402 86.3849 86.3849 90.6402 84.4909 91.87 81.2441 93.9854 77.2102 95.5596 73.4714 96.1745 71.6758 96.4697 66.5596 96.4451 64.8132 96.1499Z" fill="#0E42E5" transform="matrix(1 0 0 -1 576.954 423.038)"/><path d="M35.6411 83.5316C34.2637 83.0397 33.1076 82.0312 32.3451 80.6292 31.7302 79.5223 31.6072 78.9811 31.5334 76.9888 31.4596 75.5868 31.2875 74.4553 31.0907 74.1355 30.6233 73.4468 27.5487 72.217 26.8108 72.4383 26.5156 72.5367 25.5071 73.3238 24.5479 74.1847 21.8668 76.6444 19.4563 77.0872 16.7014 75.6114 15.1026 74.7259 8.75655 68.2814 8.11703 66.8794 7.57589 65.6741 7.47751 63.6326 7.87106 62.1814 8.04324 61.6402 8.80575 60.5334 9.83882 59.4019 11.8312 57.2128 11.905 56.893 10.8965 54.6055 10.0848 52.7115 9.51906 52.3917 6.96097 52.3917 3.83714 52.3671 2.11535 51.457 0.8363 49.1449L0.122985 47.8413 0.122985 41.938C0.122985 35.4198 0.147582 35.2476 1.82018 33.5012 3.12383 32.0992 4.25529 31.6564 6.88718 31.5334 8.16622 31.4842 9.42067 31.3121 9.69124 31.1891 10.2324 30.8939 11.5606 28.0652 11.5606 27.1797 11.5606 26.7862 11.0441 26.0237 10.0356 24.9168 9.2239 23.9821 8.3384 22.8015 8.09243 22.2603 7.45291 20.9075 7.47751 18.4232 8.14163 16.9966 8.70736 15.7175 15.3732 8.92873 16.726 8.24001 17.2179 7.99404 18.3494 7.74807 19.3333 7.67428 21.5716 7.5267 22.6539 7.99404 24.9168 10.0356 26.0237 11.0441 26.7862 11.5606 27.1797 11.5606 28.0652 11.5606 30.8939 10.2324 31.1891 9.69124 31.3121 9.42067 31.4842 8.16622 31.5334 6.88718 31.6564 4.25529 32.0992 3.12383 33.5012 1.82018 35.2476 0.147582 35.4198 0.122985 41.938 0.122985L47.8413 0.122985 49.1449 0.8363C51.457 2.11535 52.3671 3.83714 52.3917 6.96097 52.3917 9.61745 52.7115 10.1094 54.8268 10.9457 55.9583 11.3884 56.7454 11.5606 57.1636 11.4622 57.5079 11.3884 58.4918 10.6505 59.3773 9.83882 61.2713 8.04324 62.2306 7.62509 64.2475 7.62509 66.6334 7.64968 67.4943 8.16622 71.4544 12.0526 75.6359 16.1849 76.3493 17.2917 76.3493 19.6776 76.3493 21.6946 75.7589 22.9491 73.9142 24.843 73.1762 25.5809 72.5121 26.491 72.4383 26.8354 72.2662 27.5241 73.2746 30.3036 73.9388 30.9923 74.1847 31.2629 75.0456 31.4104 76.8166 31.5088 78.9566 31.6318 79.5223 31.7548 80.6292 32.3451 82.0312 33.1076 83.0397 34.2637 83.5316 35.6411 83.753 36.2561 83.8514 38.1992 83.8514 42.061 83.876 47.1034 83.8268 47.6937 83.3594 48.7022 82.228 51.2111 80.2356 52.3917 77.1118 52.3917 76.0295 52.3917 74.8734 52.5393 74.5291 52.7115 73.7666 53.0804 72.4629 55.6139 72.4629 56.7208 72.4629 57.3603 72.7335 57.8277 73.8404 58.9591 76.2509 61.4926 76.8904 63.485 76.1279 66.0677 75.7343 67.3959 75.4392 67.7649 71.8726 71.3807 67.5681 75.7589 66.6826 76.3247 64.3459 76.3493 62.3781 76.3493 61.0745 75.7343 58.9591 73.8404 57.9507 72.9057 57.0898 72.3153 56.7454 72.3153 55.8353 72.3399 53.0313 73.865 52.7115 74.5291 52.5393 74.8734 52.3917 76.0295 52.3917 77.1118 52.3917 80.2356 51.2111 82.228 48.7022 83.3594 47.6937 83.8268 47.1034 83.876 42.061 83.8514 38.1992 83.8514 36.2561 83.753 35.6411 83.5316ZM47.5215 79.0795C48.0872 78.5138 48.161 78.2186 48.2594 76.0541 48.3824 73.3484 48.8006 72.2662 50.3256 70.7657 51.703 69.4375 54.7776 68.2568 56.8192 68.2568 58.7624 68.2814 59.6233 68.6996 61.5418 70.4952 63.1898 72.0694 63.9277 72.4137 64.887 72.0448 65.7971 71.7004 71.5282 65.9939 71.971 65.01 72.4383 63.9523 72.1432 63.2636 70.4952 61.5418 68.6996 59.6233 68.2814 58.7624 68.2568 56.8192 68.2568 53.7692 70.2492 50.1288 72.6597 48.8989 73.4222 48.4808 74.2339 48.3332 76.0541 48.2594 78.2186 48.161 78.5138 48.0872 79.0795 47.5215L79.6945 46.9066 79.6945 42.0364C79.6945 37.2891 79.6699 37.1416 79.1041 36.502 78.5876 35.8625 78.3662 35.8133 75.9311 35.6657 73.742 35.5182 73.1762 35.3952 72.1924 34.8294 70.8149 34.0177 69.8802 32.7633 68.9947 30.5741 67.6173 27.106 67.9617 25.089 70.3722 22.5309 72.1678 20.5877 72.4629 19.9236 71.9218 18.8167 71.725 18.374 70.1262 16.603 68.3798 14.9058 64.4689 11.0687 64.3213 11.0195 61.837 13.307 59.5003 15.3978 59.0329 15.6191 56.6962 15.6191 54.876 15.6191 54.5563 15.5453 52.5639 14.5615 49.2925 12.9626 48.2102 11.1917 48.2102 7.40371 48.2102 5.95249 48.1118 5.58353 47.6199 4.9932L47.0296 4.30448 41.9626 4.30448C35.6411 4.30448 35.8871 4.1569 35.6657 7.92025 35.4198 11.905 34.2637 13.4792 30.5003 14.9796 27.0568 16.3324 25.2366 15.9881 22.4571 13.4792 19.6776 10.9457 19.7022 10.9457 15.324 15.324 10.9457 19.7022 10.9457 19.6776 13.4792 22.4571 15.9881 25.2366 16.3324 27.0568 14.9796 30.5003 13.4792 34.2637 11.905 35.4198 7.92025 35.6657 4.1569 35.8871 4.30448 35.6411 4.30448 41.9626L4.30448 47.0296 4.9932 47.6199C5.58353 48.1118 5.95249 48.2102 7.40371 48.2102 11.1917 48.2102 12.9626 49.2925 14.5615 52.5639 15.5453 54.5563 15.6191 54.876 15.6191 56.6962 15.6191 59.0575 15.324 59.6479 13.2578 61.8862 12.0526 63.1898 11.8066 63.5834 11.8066 64.3459 11.8066 65.1576 12.0772 65.5266 14.9058 68.3798 16.603 70.1262 18.374 71.725 18.8167 71.9218 19.9236 72.4629 20.5877 72.1678 22.5555 70.3476 25.089 67.9617 27.1306 67.6173 30.5987 69.0193 32.7633 69.8802 34.0177 70.8395 34.8294 72.1924 35.3952 73.1762 35.5182 73.742 35.6657 75.9311 35.8133 78.3662 35.8625 78.5876 36.502 79.1041 37.1416 79.6699 37.2891 79.6945 42.0364 79.6945L46.9066 79.6945 47.5215 79.0795Z" fill="#0E42E5" transform="matrix(1 0 0 -1 576.954 423.038)"/><path d="M39.798 60.7301C32.0746 59.943 25.5809 54.1627 23.5886 46.2425 23.1458 44.5207 23.0966 43.709 23.195 41.3477 23.3426 38.0762 23.7608 36.2561 24.966 33.821 26.8354 30.0084 29.9592 26.86 33.575 25.089 36.2315 23.7608 37.9779 23.3426 41.2001 23.195 46.3409 22.9736 50.4486 24.4495 55.0482 28.139 58.5656 30.9677 60.8039 36.4282 60.7793 42.184 60.7793 47.3001 58.91 51.7276 55.2696 55.3188 51.1373 59.3773 45.6521 61.2959 39.798 60.7301ZM45.6029 56.2043C48.8498 55.3434 52.2196 52.9821 54.0889 50.2026 55.7123 47.8167 56.3765 45.7505 56.524 42.8235 56.6716 39.7242 56.3519 38.1746 55.0728 35.469 52.5885 30.279 47.0788 27.0568 41.2001 27.3765 33.3536 27.7947 27.3027 34.1407 27.3027 41.938 27.3027 48.5054 31.8532 54.4825 38.15 56.1797 39.921 56.6716 43.8074 56.6716 45.6029 56.2043Z" fill="#00BF60" transform="matrix(1 0 0 -1 576.954 423.038)"/></g></svg>