<svg width="300" height="300" xmlns="http://www.w3.org/2000/svg" xmlns:xlink="http://www.w3.org/1999/xlink" overflow="hidden"><defs><clipPath id="clip0"><rect x="490" y="210" width="300" height="300"/></clipPath></defs><g clip-path="url(#clip0)" transform="translate(-490 -210)"><path d="M790.001 360C790.001 442.843 722.844 510 640.001 510 557.158 510 490.001 442.843 490.001 360 490.001 277.157 557.158 210 640.001 210 722.844 210 790.001 277.157 790.001 360Z" fill="#EBECF0" fill-rule="evenodd"/><path d="M359.07 231.856C359.07 299.621 304.136 354.555 236.371 354.555 168.606 354.555 113.672 299.621 113.672 231.856 113.672 164.091 168.606 109.157 236.371 109.157 304.136 109.157 359.07 164.091 359.07 231.856Z" stroke="#0E42E5" stroke-width="2.07918" stroke-linecap="round" stroke-linejoin="round" stroke-miterlimit="1.5" fill="none" fill-rule="evenodd" transform="matrix(1.00646 0 0 1 402.101 128.143)"/><path d="M11.4389 131.402C9.72599 130.619 8.07112 128.79 7.60659 127.193 7.3453 126.38 7.2582 112.734 7.2582 74.1498L7.2582 22.2101 7.95499 20.7585C8.76791 19.0165 9.87115 17.9423 11.6131 17.1584 12.9196 16.5777 13.1809 16.5487 74.324 16.5487L135.728 16.5487 137.18 17.2455C138.922 18.0584 139.996 19.1616 140.78 20.9036 141.361 22.2101 141.39 22.5295 141.39 74.324 141.39 126.118 141.361 126.438 140.78 127.744 139.996 129.486 138.922 130.59 137.18 131.402L135.728 132.099 12.9196 132.099 11.4389 131.402ZM135.438 127.628C137.151 126.902 137.325 126.177 137.325 119.615L137.325 113.809 11.3228 113.809 11.3228 119.615C11.3228 126.118 11.497 126.902 13.1519 127.599 14.5745 128.209 133.957 128.238 135.438 127.628ZM137.325 66.34C137.325 18.4939 137.47 21.8907 135.438 21.0197 133.957 20.4101 14.6906 20.4101 13.2099 21.0197 11.1776 21.8907 11.3228 18.4939 11.3228 66.34L11.3228 109.454 137.325 109.454 137.325 66.34Z" fill="#0E42E5" transform="matrix(1 -2.53706e-18 2.53706e-18 -1.02072 571.386 435.864)"/><path d="M21.9198 123.418C20.0617 122.635 19.5391 120.109 20.9907 118.86 22.2101 117.815 23.8359 117.902 24.794 119.064 26.0424 120.544 25.7231 122.402 24.0972 123.244 23.1682 123.738 22.7907 123.767 21.9198 123.418Z" fill="#FF1643" transform="matrix(1 -2.53706e-18 2.53706e-18 -1.02072 571.386 435.864)"/><path d="M33.2135 123.215C31.5006 122.373 31.1522 120.37 32.4877 119.005 33.1264 118.396 33.62 118.163 34.4039 118.163 35.7103 118.163 37.162 119.47 37.162 120.631 37.162 121.822 36.4071 123.012 35.391 123.36 34.2297 123.767 34.3168 123.767 33.2135 123.215Z" fill="#FBBF2C" transform="matrix(1 -2.53706e-18 2.53706e-18 -1.02072 571.386 435.864)"/><path d="M44.8557 123.273C43.1427 122.518 42.7653 120.341 44.1008 119.005 45.146 117.989 46.5976 117.873 47.7009 118.744 49.2977 119.993 48.8622 122.693 47.0041 123.36 45.8718 123.738 45.9299 123.738 44.8557 123.273Z" fill="#00BF60" transform="matrix(1 -2.53706e-18 2.53706e-18 -1.02072 571.386 435.864)"/><path d="M73.7433 122.025C73.0175 121.096 73.1627 120.022 74.0917 119.267 74.6433 118.773 76.3853 118.744 101.47 118.744 127.077 118.744 128.296 118.773 128.935 119.267 129.748 119.935 129.806 121.386 129.051 122.228 128.528 122.809 128.209 122.809 101.441 122.809L74.353 122.809 73.7433 122.025Z" fill="#0E42E5" transform="matrix(1 -2.53706e-18 2.53706e-18 -1.02072 571.386 435.864)"/><path d="M19.7713 102.892C19.1616 102.137 19.1616 101.876 19.1616 84.6016 19.1616 67.6174 19.1907 67.0367 19.7133 66.5141 20.0326 66.1948 20.7294 65.8464 21.252 65.7593 21.7746 65.6722 35.1007 65.6432 50.8655 65.6722L79.5208 65.7593 80.8563 67.0948 80.8563 102.544 80.1596 103.095C79.4918 103.618 78.5918 103.647 49.9364 103.647L20.352 103.647 19.7713 102.892ZM76.6466 99.5825 76.6466 69.969 23.2262 69.969 23.2262 84.5725C23.2262 92.6146 23.3133 99.2922 23.4295 99.3793 23.5166 99.4954 35.5361 99.5825 50.1396 99.5825L76.6466 99.5825Z" fill="#0E42E5" transform="matrix(1 -2.53706e-18 2.53706e-18 -1.02072 571.386 435.864)"/><path d="M89.421 99.2922C88.6371 98.5083 88.6662 97.2309 89.5081 96.447L90.1759 95.8082 128.296 95.8082 128.877 96.5631C129.66 97.5502 129.66 98.4212 128.906 99.2341L128.296 99.8728 109.163 99.8728C90.3791 99.8728 90.0017 99.8728 89.421 99.2922Z" fill="#0E42E5" transform="matrix(1 -2.53706e-18 2.53706e-18 -1.02072 571.386 435.864)"/><path d="M89.4501 86.0532C88.6952 85.0661 88.6662 84.079 89.421 83.3241 90.0017 82.7435 90.3791 82.7435 109.163 82.7435 127.948 82.7435 128.325 82.7435 128.906 83.3241 129.69 84.108 129.631 85.2403 128.76 86.0823L128.064 86.8081 90.0307 86.8081 89.4501 86.0532Z" fill="#0E42E5" transform="matrix(1 -2.53706e-18 2.53706e-18 -1.02072 571.386 435.864)"/><path d="M89.5662 73.0175C88.6952 72.1755 88.6371 71.1594 89.392 70.2303L89.9436 69.5336 128.383 69.5336 128.935 70.2303C129.69 71.1594 129.631 72.1755 128.76 73.0175L128.064 73.7433 90.263 73.7433 89.5662 73.0175Z" fill="#0E42E5" transform="matrix(1 -2.53706e-18 2.53706e-18 -1.02072 571.386 435.864)"/><path d="M19.8875 59.6624 19.1616 58.9656 19.1616 27.8425 19.8875 27.1457 20.5843 26.4198 61.2882 26.4198 61.985 27.1457 62.7108 27.8425 62.7108 59.1979 61.956 59.7785C61.2011 60.3882 60.9689 60.3882 40.8782 60.3882L20.5843 60.3882 19.8875 59.6624ZM58.6463 56.0333 58.6463 30.7748 23.2262 30.7748 23.2262 56.0333 58.6463 56.0333Z" fill="#0E42E5" transform="matrix(1 -2.53706e-18 2.53706e-18 -1.02072 571.386 435.864)"/><path d="M69.8239 59.6624 69.0981 58.9656 69.0981 27.8425 69.8239 27.1457 70.5207 26.4198 128.064 26.4198 128.76 27.1457 129.486 27.8425 129.486 58.9656 128.76 59.6624 128.064 60.3882 70.5207 60.3882 69.8239 59.6624ZM125.422 56.0333 125.422 30.7748 73.1627 30.7748 73.1627 56.0333 125.422 56.0333Z" fill="#0E42E5" transform="matrix(1 -2.53706e-18 2.53706e-18 -1.02072 571.386 435.864)"/></g></svg>