<svg width="300" height="300" xmlns="http://www.w3.org/2000/svg" xmlns:xlink="http://www.w3.org/1999/xlink" overflow="hidden"><defs><clipPath id="clip0"><rect x="490" y="210" width="300" height="300"/></clipPath></defs><g clip-path="url(#clip0)" transform="translate(-490 -210)"><path d="M790.001 360C790.001 442.843 722.844 510 640.001 510 557.158 510 490.001 442.843 490.001 360 490.001 277.157 557.158 210 640.001 210 722.844 210 790.001 277.157 790.001 360Z" fill="#EBECF0" fill-rule="evenodd"/><path d="M359.07 231.856C359.07 299.621 304.136 354.555 236.371 354.555 168.606 354.555 113.672 299.621 113.672 231.856 113.672 164.091 168.606 109.157 236.371 109.157 304.136 109.157 359.07 164.091 359.07 231.856Z" stroke="#0E42E5" stroke-width="2.07918" stroke-linecap="round" stroke-linejoin="round" stroke-miterlimit="1.5" fill="none" fill-rule="evenodd" transform="matrix(1.00646 0 0 1 402.101 128.143)"/><path d="M114.094 27.489 109.64 23.0876 107.716 24.9588C104.922 27.6998 104 28.0161 102.471 26.6456 101.759 26.0131 101.601 25.6968 101.601 24.8007 101.601 23.7465 101.759 23.562 105.107 20.2412 109.982 15.339 109.139 15.1809 116.36 22.4023 119.497 25.5123 122.106 28.3324 122.185 28.675 122.607 30.2563 121.289 31.8904 119.576 31.8904 118.574 31.8904 118.337 31.7059 114.094 27.489Z" fill="#00BF60" transform="matrix(1 0 0 -1 570.848 426.879)"/><path d="M32.5493 134.493C28.9913 133.202 27.1464 130.382 27.1464 126.217L27.1464 124.425 16.5514 124.346C6.06181 124.267 5.90368 124.267 4.69131 123.661 3.10997 122.87 1.52863 121.289 0.73796 119.708L0.131778 118.469 0.131778 16.4723 0.73796 15.2336C1.52863 13.6523 3.10997 12.0709 4.69131 11.2802L5.93003 10.6741 25.3542 10.595 44.7783 10.5423 45.6481 11.3066C46.3597 11.9391 46.5178 12.2554 46.5178 13.1778 46.5178 14.1003 46.3597 14.4166 45.6481 15.0491L44.8047 15.8134 7.06333 15.8134 5.27114 17.6056 5.27114 117.336 7.06333 119.128 27.0937 119.128 27.1991 116.835C27.3836 113.119 28.7277 110.852 31.5741 109.455 32.8128 108.849 33.419 108.717 35.0531 108.717 39.718 108.717 42.6435 111.748 42.9071 116.835L43.0125 119.128 85.6033 119.128 85.7087 116.835C85.8405 114.226 86.394 112.697 87.7381 111.142 89.8993 108.717 93.9844 107.953 97.0417 109.455 99.8881 110.852 101.232 113.119 101.417 116.835L101.522 119.128 121.552 119.128 123.345 117.336 123.345 103.314 73.2688 103.314C18.7653 103.314 22.0861 103.42 21.4008 101.865 21.0055 100.995 21.0055 100.363 21.4008 99.4928 22.0861 97.9378 18.7653 98.0432 73.2688 98.0432L123.345 98.0432 123.345 45.8853 120.92 47.0449C119.576 47.6775 117.915 48.3364 117.23 48.5208L115.965 48.8108 115.965 68.683C115.965 83.4949 115.886 88.7133 115.649 89.214 114.964 90.7427 118.232 90.6636 64.3079 90.6636 10.3841 90.6636 13.6523 90.7427 12.967 89.214 12.519 88.2125 12.519 25.6441 12.967 24.6426 13.6523 23.1139 11.6492 23.193 50.0495 23.193L85.3661 23.193 85.5242 22.2179C85.7087 21.0055 86.7103 16.6041 86.8947 16.156 87.0002 15.8925 84.6545 15.8134 75.7726 15.8134 63.8071 15.8134 63.4118 15.7871 62.7266 14.522 62.3839 13.8631 62.3839 12.4926 62.7266 11.8337 63.4118 10.5686 63.7017 10.5423 77.1168 10.5423L89.6621 10.5423 92.0341 8.03849C95.5658 4.29598 99.3083 2.05574 104.105 0.764315 107.347-0.105423 113.04-0.105423 116.229 0.764315 123.45 2.71464 129.248 7.48502 132.437 14.1003 134.256 17.8428 134.783 20.2412 134.783 24.7744 134.809 27.937 134.704 28.9913 134.203 30.8362 133.439 33.7089 131.62 37.4251 129.934 39.639L128.616 41.3521 128.563 79.9105 128.484 118.469 127.878 119.708C127.061 121.342 125.585 122.844 123.977 123.635L122.686 124.267 112.117 124.346 101.522 124.425 101.417 126.718C101.232 130.408 99.8881 132.675 97.0417 134.071 95.803 134.678 95.1968 134.809 93.5627 134.809 88.8978 134.809 85.9723 131.778 85.7087 126.718L85.6033 124.399 43.0125 124.399 42.9071 126.718C42.7753 129.301 42.2218 130.83 40.8777 132.385 39.0064 134.519 35.2639 135.468 32.5493 134.493ZM36.3445 129.301C37.5832 128.642 37.6886 128.01 37.6886 121.737 37.6886 117.23 37.6096 115.781 37.3197 115.201 36.3972 113.461 33.7089 113.461 32.7865 115.201 32.2594 116.229 32.2594 127.377 32.7865 128.326 33.4717 129.565 35.0004 129.986 36.3445 129.301ZM94.8542 129.301C96.0929 128.642 96.1983 128.01 96.1983 121.737 96.1983 117.23 96.1192 115.781 95.8293 115.201 94.9069 113.461 92.2186 113.461 91.2961 115.201 90.769 116.229 90.769 127.377 91.2961 128.326 91.9814 129.565 93.51 129.986 94.8542 129.301ZM32.154 85.3925 32.154 69.8426 17.9219 69.8426 17.9219 85.3925 32.154 85.3925ZM51.9207 85.3925 51.9207 69.8426 37.4251 69.8426 37.4251 85.3925 51.9207 85.3925ZM71.4239 85.3925 71.4239 69.8426 57.1919 69.8426 57.1919 85.3925 71.4239 85.3925ZM91.1907 85.3925 91.1907 69.8426 76.6951 69.8426 76.6951 85.3925 91.1907 85.3925ZM110.694 85.3925 110.694 69.8426 96.4619 69.8426 96.4619 85.3925 110.694 85.3925ZM32.154 64.5715 32.154 49.2852 17.9219 49.2852 17.9219 64.5715 32.154 64.5715ZM51.9207 64.5715 51.9207 49.2852 37.4251 49.2852 37.4251 64.5715 51.9207 64.5715ZM71.4239 64.5715 71.4239 49.2852 57.1919 49.2852 57.1919 64.5715 71.4239 64.5715ZM91.1907 64.5715 91.1907 49.2852 76.6951 49.2852 76.6951 64.5715 91.1907 64.5715ZM110.694 64.5715 110.694 49.6278 108.533 49.4696C107.32 49.3642 104.131 49.2852 101.417 49.2852L96.4619 49.2852 96.4619 64.5715 110.694 64.5715ZM115.57 43.4869C120.63 41.9056 125.031 38.3739 127.219 34.1306 129.038 30.599 129.538 28.5959 129.538 24.7744 129.538 20.9528 129.038 18.9234 127.219 15.4181 125.69 12.4926 122.449 9.25085 119.523 7.72222 116.018 5.90368 113.988 5.40292 110.167 5.40292 107.452 5.40292 106.53 5.50834 104.896 6.03546 98.1486 8.11756 93.5364 12.7298 91.4543 19.3714 89.1613 26.7774 92.1395 35.6856 98.5176 40.3769 100.442 41.8001 103.815 43.3551 106.082 43.8559 108.665 44.4357 113.119 44.2512 115.57 43.4869ZM32.154 44.014 32.154 28.4642 17.9219 28.4642 17.9219 44.014 32.154 44.014ZM51.9207 44.014 51.9207 28.4642 37.4251 28.4642 37.4251 44.014 51.9207 44.014ZM71.4239 44.014 71.4239 28.4642 57.1919 28.4642 57.1919 44.014 71.4239 44.014ZM91.1907 42.3536C91.1907 40.825 91.1116 40.5878 90.1101 39.27 89.5303 38.4793 88.5288 36.7662 87.8963 35.4484 86.8947 33.3663 86.4994 32.1803 85.8142 29.2021L85.656 28.4642 76.6951 28.4642 76.6951 44.014 91.1907 44.014 91.1907 42.3536Z" fill="#2D5AE7" transform="matrix(1 0 0 -1 572.541 427.494)"/></g></svg>