<svg width="300" height="300" xmlns="http://www.w3.org/2000/svg" xmlns:xlink="http://www.w3.org/1999/xlink" overflow="hidden"><defs><clipPath id="clip0"><rect x="490" y="210" width="300" height="300"/></clipPath></defs><g clip-path="url(#clip0)" transform="translate(-490 -210)"><path d="M790.001 360C790.001 442.843 722.844 510 640.001 510 557.158 510 490.001 442.843 490.001 360 490.001 277.157 557.158 210 640.001 210 722.844 210 790.001 277.157 790.001 360Z" fill="#EBECF0" fill-rule="evenodd"/><path d="M359.07 231.856C359.07 299.621 304.136 354.555 236.371 354.555 168.606 354.555 113.672 299.621 113.672 231.856 113.672 164.091 168.606 109.157 236.371 109.157 304.136 109.157 359.07 164.091 359.07 231.856Z" stroke="#0E42E5" stroke-width="2.07918" stroke-linecap="round" stroke-linejoin="round" stroke-miterlimit="1.5" fill="none" fill-rule="evenodd" transform="matrix(1.00646 0 0 1 402.101 128.143)"/><path d="M64.2215 128.694 40.8453 105.318 64.3471 81.8164 64.3471 99.537 65.0509 99.4113C65.428 99.361 66.6847 99.2605 67.8661 99.1851 69.0475 99.1097 71.1337 98.7578 72.5162 98.431 87.497 94.7612 98.1294 82.2688 99.2605 66.9612 99.7129 61.0292 98.808 55.7005 96.4453 50.3215L95.4399 47.9839 99.6627 43.7359 103.911 39.4629 104.665 40.6694C105.72 42.3786 107.656 46.526 108.536 49.0396 111.451 57.3343 111.853 67.288 109.616 76.0352 106.701 87.5222 99.1599 97.7775 89.0303 104.061 82.294 108.209 75.08 110.496 67.0618 110.999L64.3471 111.175 64.2969 119.947 64.2215 128.694Z" fill="#2D5AE7" transform="matrix(1 -2.10807e-32 -2.10807e-32 -1 575.67 424.284)"/><path d="M23.6777 87.4216C17.7457 77.0155 16.0868 64.3723 19.0779 52.6591 21.9936 41.1721 29.5343 30.9168 39.664 24.6329 46.4003 20.4855 53.6142 18.1982 61.6576 17.6955L64.3471 17.5195 64.3471-0.125678 76.0855 11.6378 87.8489 23.3761 76.0855 35.1144 64.3471 46.8779 64.3471 29.1824 63.6685 29.283C63.2663 29.3332 62.0095 29.4338 60.8281 29.5092 59.6468 29.5846 57.5605 29.9365 56.1781 30.2633 47.4309 32.3998 40.3929 37.2761 35.3407 44.7162 31.8468 49.8439 29.8862 55.4491 29.4338 61.733 28.9813 67.665 29.8862 72.9938 32.249 78.3728L33.2544 80.7104 29.0065 84.9835 24.7334 89.2565 23.6777 87.4216Z" fill="#00BF60" transform="matrix(1 -2.10807e-32 -2.10807e-32 -1 575.67 424.284)"/></g></svg>