<svg width="300" height="300" xmlns="http://www.w3.org/2000/svg" xmlns:xlink="http://www.w3.org/1999/xlink" overflow="hidden"><defs><clipPath id="clip0"><rect x="490" y="210" width="300" height="300"/></clipPath></defs><g clip-path="url(#clip0)" transform="translate(-490 -210)"><path d="M790.001 360C790.001 442.843 722.844 510 640.001 510 557.158 510 490.001 442.843 490.001 360 490.001 277.157 557.158 210 640.001 210 722.844 210 790.001 277.157 790.001 360Z" fill="#EBECF0" fill-rule="evenodd"/><path d="M359.07 231.856C359.07 299.621 304.136 354.555 236.371 354.555 168.606 354.555 113.672 299.621 113.672 231.856 113.672 164.091 168.606 109.157 236.371 109.157 304.136 109.157 359.07 164.091 359.07 231.856Z" stroke="#0E42E5" stroke-width="2.07918" stroke-linecap="round" stroke-linejoin="round" stroke-miterlimit="1.5" fill="none" fill-rule="evenodd" transform="matrix(1.00646 0 0 1 402.101 128.143)"/><path d="M6.58578 107.665C3.92708 106.958 1.97573 105.275 0.756145 102.714L0.121959 101.348 0.121959 46.4664 0.829321 45.0272C1.73182 43.1735 3.29289 41.6124 5.07349 40.7831L6.46382 40.1245 40.8319 40.0513C68.0287 40.0025 75.1511 39.9294 75.0535 39.6854 74.9804 39.5391 72.5412 35.2705 69.6385 30.2458 63.8089 20.1964 63.565 19.5866 64.6626 18.1963 65.7847 16.7572 64.3699 16.8303 94.5182 16.8303 118.081 16.8303 122.349 16.8791 123.057 17.1718 124.032 17.5865 124.886 18.8305 124.886 19.8793 124.886 20.4159 121.032 27.2944 111.105 44.4906L97.3232 68.3702 97.3232 84.6639C97.3232 103.372 97.4208 102.446 95.0792 105.031 93.6889 106.519 92.2497 107.373 90.2984 107.787 89.3715 107.982 77.6147 108.056 48.4665 108.031 13.5862 108.031 7.7322 107.982 6.58578 107.665ZM86.0542 102.006C85.9567 101.738 49.1982 62.4918 49.0275 62.4674 48.9055 62.443 15.7815 97.6159 12.8545 100.884L11.6593 102.202 48.9055 102.202C69.3946 102.202 86.103 102.104 86.0542 102.006ZM26.4895 77.761C37.7097 65.7847 47.2469 55.784 47.6616 55.5645 48.564 55.0279 49.3202 55.0035 50.1983 55.4669 50.5642 55.6621 59.9794 65.5163 71.1021 77.3951L91.3472 98.9819 91.4204 83.5175 91.4692 68.0531 85.0786 56.9548 78.6635 45.8566 43.3442 45.8566C12.2447 45.8566 7.92733 45.9053 7.31754 46.2224 5.78085 47.0274 5.85403 45.5151 5.85403 73.7852 5.85403 87.9324 5.90281 99.5185 5.9516 99.5185 6.02477 99.5185 15.2693 89.713 26.4895 77.761ZM106.08 41.4904C112.007 31.2459 116.837 22.8063 116.837 22.7575 116.837 22.7331 106.787 22.6844 94.5182 22.6844 82.2491 22.6844 72.1997 22.7331 72.1997 22.8307 72.1997 22.9039 90.2008 54.2229 94.3474 61.321 94.4938 61.5893 93.9084 62.5893 106.08 41.4904Z" fill="#2D5AE7" transform="matrix(1 0 0 -1 577.499 422.433)"/><path d="M71.8271 39.9815C70.8643 39.2265 70.7888 38.7357 70.8077 33.8465 70.8077 28.8252 70.9021 28.2778 71.9026 27.6171 72.6388 27.1074 73.4127 27.0697 74.1867 27.4661 75.2627 28.0135 75.3193 28.3533 75.3193 33.9975L75.3193 39.1132 74.6775 39.755C74.1301 40.3024 73.9035 40.3968 73.1862 40.3968 72.6199 40.3968 72.1857 40.2647 71.8271 39.9815Z" fill="#FF1643" transform="matrix(1 0 0 -1 599.142 413.191)"/><path d="M72.1669 24.8233C71.374 24.4835 70.9965 23.8606 70.8455 22.6902 70.5246 19.8964 71.8082 18.2541 73.828 18.8581 74.9607 19.1979 75.3193 19.9153 75.3193 21.8596 75.3193 23.7095 75.055 24.3514 74.1112 24.8044 73.3372 25.1631 72.9597 25.1819 72.1669 24.8233Z" fill="#FF1643" transform="matrix(1 0 0 -1 599.142 413.191)"/></g></svg>