<svg width="300" height="300" xmlns="http://www.w3.org/2000/svg" xmlns:xlink="http://www.w3.org/1999/xlink" overflow="hidden"><defs><clipPath id="clip0"><rect x="490" y="210" width="300" height="300"/></clipPath></defs><g clip-path="url(#clip0)" transform="translate(-490 -210)"><path d="M790.001 360C790.001 442.843 722.844 510 640.001 510 557.158 510 490.001 442.843 490.001 360 490.001 277.157 557.158 210 640.001 210 722.844 210 790.001 277.157 790.001 360Z" fill="#EBECF0" fill-rule="evenodd"/><path d="M359.07 231.856C359.07 299.621 304.136 354.555 236.371 354.555 168.606 354.555 113.672 299.621 113.672 231.856 113.672 164.091 168.606 109.157 236.371 109.157 304.136 109.157 359.07 164.091 359.07 231.856Z" stroke="#0E42E5" stroke-width="2.07918" stroke-linecap="round" stroke-linejoin="round" stroke-miterlimit="1.5" fill="none" fill-rule="evenodd" transform="matrix(1.00646 0 0 1 402.101 128.143)"/><path d="M104.59 149.209C103.682 148.711 102.686 147.891 102.158 147.129 101.367 146.045 101.221 145.547 101.133 143.76 101.016 141.065 101.777 139.424 103.77 138.135L105.147 137.256 105.147 130.576 105.176 123.867 102.481 125.332C100.986 126.152 98.4376 127.529 96.8262 128.438 89.6485 132.451 82.9688 134.209 75.0001 134.209 70.6055 134.209 66.7676 133.711 62.8419 132.568 59.0625 131.455 56.6895 130.4 51.2696 127.412 43.0664 122.842 37.5 120.469 30.9961 118.652 29.1797 118.154 27.3633 117.539 26.9239 117.275 25.4883 116.426 25.3711 115.811 25.2539 108.34L25.1367 101.367 18.9551 101.397 12.7442 101.397 11.8652 102.774C10.5762 104.766 8.93555 105.527 6.24024 105.41 4.45313 105.322 3.95508 105.176 2.8711 104.385 1.23047 103.213 0 100.928 0 99.0235 0 97.1192 1.23047 94.8341 2.8711 93.6622 3.95508 92.8712 4.45313 92.7247 6.24024 92.6368 8.93555 92.5196 10.5762 93.2813 11.8652 95.2735L12.7442 96.6505 18.9844 96.6505 25.1953 96.6798 25.1953 84.3751 19.7754 84.3751 18.75 85.7813C17.4317 87.5684 15.6445 88.4766 13.4766 88.4766 7.88087 88.4473 4.83399 82.1192 8.43751 77.9297 11.25 74.6192 16.1719 74.795 18.75 78.3106L19.7754 79.6876 25.1074 79.6876 25.3125 74.6485C25.4297 71.8653 25.6641 68.4083 25.8106 66.9434 26.5137 60.9375 28.916 53.8477 31.9922 48.6329 34.0723 45.0879 34.5117 44.5606 35.6543 44.3555 36.416 44.209 36.7383 44.3262 37.3242 44.9121 38.3789 45.9668 38.291 46.7286 36.7969 49.1309 33.9551 53.6719 32.1387 58.0372 30.8496 63.4571L30.0293 66.9434 30.0293 113.76 33.5449 114.815C40.3418 116.895 45.8496 119.297 53.6133 123.692 58.4766 126.445 61.7579 127.822 65.7129 128.76 73.6231 130.664 82.5294 130.02 89.8829 126.973 91.2891 126.387 94.4825 124.775 96.9727 123.369 104.561 119.121 110.274 116.602 116.748 114.697 118.213 114.258 119.561 113.848 119.766 113.789 120.029 113.701 120.117 111.475 120.147 103.945 120.147 93.2813 120.264 92.3438 121.67 91.8751 122.959 91.4063 124.014 91.963 124.453 93.3106 125.01 94.9805 124.834 114.932 124.277 116.045 123.75 117.07 122.754 117.598 119.971 118.33 118.682 118.682 115.869 119.561 113.76 120.322L109.863 121.729 109.893 129.492 109.893 137.256 111.27 138.135C113.262 139.424 114.024 141.065 113.906 143.76 113.818 145.547 113.672 146.045 112.881 147.129 111.709 148.77 109.424 150 107.52 150 106.553 150 105.645 149.736 104.59 149.209ZM108.486 145.283C109.336 144.815 109.57 144.463 109.57 143.408 109.57 142.354 109.365 142.002 108.457 141.533 107.08 140.801 105.469 141.797 105.469 143.35 105.469 144.434 105.674 144.785 106.494 145.254 107.256 145.693 107.695 145.693 108.486 145.283ZM8.02735 100.606C8.70118 99.9317 8.87696 98.877 8.4668 98.086 7.99805 97.1778 7.64649 96.9727 6.5918 96.9727 5.53711 96.9727 5.18555 97.1778 4.7168 98.086 3.98438 99.4923 4.98047 101.074 6.5918 101.074 7.11915 101.074 7.79298 100.869 8.02735 100.606ZM14.9414 83.4962C16.2598 82.1778 15.2637 79.9805 13.3887 79.9805 11.5723 79.9805 10.6348 82.1485 11.8652 83.4962 12.5684 84.2579 14.1797 84.2579 14.9414 83.4962Z" fill="#2D5AE7" transform="matrix(1 0 0 -1 565 435)"/><path d="M68.1153 124.805C63.2813 123.838 57.129 121.143 55.8692 119.473 54.8731 118.125 55.7813 116.309 57.4512 116.309 57.92 116.309 59.3848 116.836 60.6739 117.481 65.6836 120 69.7266 120.996 75.0001 120.996 82.0313 120.996 84.5801 120.117 96.6798 113.525 100.43 111.504 105 109.424 109.072 107.959L111.328 107.139 111.328 88.4766C111.328 68.2618 111.27 67.1778 109.688 62.2559 107.988 56.9825 105.762 53.2032 101.514 48.545 95.2149 41.5723 87.6856 35.9473 78.4864 31.3184L75.0001 29.5899 71.5137 31.3184C62.3145 35.9473 54.7852 41.5723 48.4864 48.545 44.2383 53.2032 42.0118 56.9825 40.3125 62.2559 38.7305 67.1778 38.6719 68.2618 38.6719 88.5059L38.6719 107.168 39.7852 107.549C41.6309 108.135 46.9043 110.332 49.2774 111.445 51.0645 112.324 51.5625 112.705 51.8262 113.408 52.0606 114.111 52.0313 114.492 51.709 115.166 51.0059 116.484 50.0684 116.543 47.4903 115.43 46.2598 114.902 43.8282 113.877 42.041 113.174 35.0977 110.391 35.1563 110.42 34.6289 109.453 34.1602 108.633 34.1309 106.904 34.1309 89.2091 34.1602 68.1739 34.1895 67.6172 35.918 61.5235 36.9141 58.125 39.6973 52.5 41.9239 49.5118 45.7325 44.3262 53.584 37.1778 60.2051 32.7832 65.42 29.2969 73.4473 25.1953 75.0001 25.1953 76.5528 25.1953 84.5801 29.2969 89.795 32.7832 96.4161 37.1778 104.268 44.3262 108.076 49.5118 110.303 52.5 113.086 58.125 114.082 61.5235 115.752 67.4415 115.811 68.086 115.928 88.3302 116.074 107.842 116.016 108.984 114.873 110.127 114.58 110.42 113.379 111.035 112.178 111.475 107.197 113.32 106.025 113.818 102.393 115.576 100.313 116.572 96.5626 118.535 94.1016 119.912 86.6016 124.102 81.9434 125.42 74.7657 125.361 72.129 125.361 69.8438 125.156 68.1153 124.805Z" fill="#00BF60" transform="matrix(1 0 0 -1 565 435)"/><path d="M71.6309 98.0567C69.0528 97.2071 66.3282 94.8048 65.0977 92.2852 64.4532 90.9083 63.8965 87.8321 63.8672 85.4883 63.8672 83.9942 64.0137 84.1114 61.6114 83.6133 60.7618 83.4376 59.2676 82.1485 58.6524 81.0352 58.2129 80.2149 58.1543 79.0137 58.1543 70.0196 58.1543 61.0254 58.2129 59.8243 58.6524 59.004 59.2676 57.8614 60.7325 56.6016 61.7579 56.3086 62.7833 56.045 87.2169 56.045 88.2423 56.3086 89.2677 56.6016 90.7325 57.8614 91.3477 59.004 91.7872 59.8243 91.8458 61.0254 91.8458 70.0196 91.8458 79.0137 91.7872 80.2149 91.3477 81.0352 90.7032 82.1778 89.2384 83.4376 88.3009 83.6426 85.9571 84.1114 86.1329 83.9942 86.1329 85.4883 86.1036 87.8321 85.5469 90.9083 84.9024 92.2852 83.9942 94.1602 81.7383 96.4454 79.7755 97.4122 78.3692 98.1446 77.6954 98.2911 75.4688 98.3497 73.8282 98.4083 72.334 98.2911 71.6309 98.0567ZM77.5782 93.5743C80.2735 92.461 81.4161 90.3809 81.4454 86.6602L81.4454 84.0821 68.5547 84.0821 68.5547 86.5723C68.5547 89.3555 68.9942 90.7618 70.254 92.1095 71.9532 93.9259 75.2051 94.5704 77.5782 93.5743ZM87.3048 79.3946 87.3048 60.6446 62.6954 60.6446 62.6954 79.3946 87.3048 79.3946Z" fill="#00BF60" transform="matrix(1 0 0 -1 565 435)"/><path d="M72.0704 78.0176C71.1622 77.5196 70.1661 76.6993 69.6387 75.9376 68.8477 74.8536 68.7012 74.3555 68.6133 72.5684 68.4961 69.8731 69.2579 68.2325 71.2501 66.9434 72.4512 66.1817 72.627 65.918 72.6563 65.0391 72.6856 62.1387 73.9747 60.7325 75.879 61.5235 76.8165 61.9043 77.3145 63.1055 77.3438 65.0391 77.3731 65.918 77.5489 66.1817 78.7501 66.9434 80.7423 68.2325 81.504 69.8731 81.3868 72.5684 81.2989 74.3555 81.1524 74.8536 80.3614 75.9376 79.1895 77.5782 76.9044 78.8087 75.0001 78.8087 74.0333 78.8087 73.1251 78.545 72.0704 78.0176ZM75.9669 74.0919C76.8165 73.6231 77.0508 73.2715 77.0508 72.2169 77.0508 71.1622 76.8458 70.8106 75.9376 70.3419 74.5606 69.6094 72.9493 70.6055 72.9493 72.1583 72.9493 73.2422 73.1544 73.5938 73.9747 74.0626 74.7364 74.502 75.1758 74.502 75.9669 74.0919Z" fill="#00BF60" transform="matrix(1 0 0 -1 565 435)"/><path d="M121.729 86.4258C120.293 85.8692 120.264 85.7227 120.088 76.0547 119.912 68.4669 119.795 66.4747 119.297 64.2481 117.539 56.2207 114.346 49.8047 109.19 43.9161 100.869 34.4239 89.1212 26.0156 77.2559 21.0938L74.9708 20.1563 73.0079 20.9473C62.9004 25.1953 53.5254 31.3184 45.6446 38.877 42.8907 41.543 42.3926 41.8946 41.4844 41.8946 40.3711 41.8946 39.2578 40.8399 39.2578 39.7559 39.2578 39.0528 43.8868 34.2774 47.1387 31.6407L49.4825 29.7364 49.4825 12.7442 48.1055 11.8652C46.1133 10.5762 45.3516 8.93555 45.4688 6.24024 45.5567 4.45313 45.7032 3.95508 46.4942 2.8711 47.6661 1.23047 49.9512 0 51.8555 0 53.7598 0 56.045 1.23047 57.2168 2.8711 58.0079 3.95508 58.1543 4.45313 58.2422 6.24024 58.3594 8.93555 57.5977 10.5762 55.6055 11.8652L54.2286 12.7442 54.2286 19.4238 54.1993 26.1328 55.3125 25.459C55.8985 25.1074 56.9239 24.4336 57.5684 24.0235 62.754 20.5957 72.92 15.8203 75.0001 15.8203 75.6153 15.8203 77.5489 16.4649 79.5411 17.3145 91.5235 22.3535 102.744 30.3223 111.709 40.1368 116.455 45.3516 120 51.3282 121.904 57.3633L122.871 60.3516 130.225 60.3516 131.25 58.9747C132.568 57.1582 134.356 56.25 136.524 56.25 142.119 56.2793 145.166 62.6075 141.563 66.7969 138.75 70.1075 133.828 69.9317 131.25 66.4454L130.225 65.0391 123.867 65.0391 124.072 66.0938C124.248 67.1485 124.775 74.5313 124.805 76.4063L124.805 77.3438 131.045 77.3145 137.256 77.3145 138.135 75.9376C139.424 73.9454 141.065 73.1837 143.76 73.3008 145.547 73.3887 146.045 73.5352 147.129 74.3262 148.77 75.4981 150 77.7833 150 79.6876 150 81.5919 148.77 83.877 147.129 85.0489 146.045 85.8399 145.547 85.9864 143.76 86.0743 141.065 86.1915 139.424 85.4298 138.135 83.4376L137.256 82.0606 131.074 82.0606 124.893 82.0313 124.717 83.7012C124.483 85.9278 123.252 87.0411 121.729 86.4258ZM144.844 81.2696C145.518 80.5958 145.693 79.5411 145.283 78.7501 144.815 77.8419 144.463 77.6368 143.408 77.6368 142.354 77.6368 142.002 77.8419 141.533 78.7501 140.801 80.1563 141.797 81.7383 143.408 81.7383 143.936 81.7383 144.609 81.5333 144.844 81.2696ZM138.135 64.1602C139.365 62.8126 138.428 60.6446 136.611 60.6446 135.381 60.6446 134.473 61.5235 134.473 62.6954 134.473 64.5118 136.934 65.4786 138.135 64.1602ZM52.8223 8.4668C53.6719 7.99805 53.9063 7.64649 53.9063 6.5918 53.9063 5.53711 53.7012 5.18555 52.793 4.7168 51.4161 3.98438 49.8047 4.98047 49.8047 6.53321 49.8047 7.61719 50.0098 7.96876 50.8301 8.43751 51.5918 8.87696 52.0313 8.87696 52.8223 8.4668Z" fill="#2D5AE7" transform="matrix(1 0 0 -1 565 435)"/></g></svg>