<svg width="629" height="469" xmlns="http://www.w3.org/2000/svg" xmlns:xlink="http://www.w3.org/1999/xlink" overflow="hidden"><defs><clipPath id="clip0"><rect x="325" y="125" width="629" height="469"/></clipPath></defs><g clip-path="url(#clip0)" transform="translate(-325 -125)"><path d="M325 536.427 953.24 536.427 953.24 536.741 325 536.741Z" fill="#E5E5E4"/><path d="M742.291 544.983 864.919 544.983 864.919 545.297 742.291 545.297Z" fill="#E5E5E4"/><path d="M688.122 552.243 746.759 552.243 746.759 552.557 688.122 552.557Z" fill="#E5E5E4"/><path d="M866.177 556.651 890.291 556.651 890.291 556.966 866.177 556.966Z" fill="#E5E5E4"/><path d="M483.91 552.4 600.169 552.4 600.169 552.714 483.91 552.714Z" fill="#E5E5E4"/><path d="M447.715 552.4 472.724 552.4 472.724 552.714 447.715 552.714Z" fill="#E5E5E4"/><path d="M397.614 547.095 438.905 547.095 438.905 547.409 397.614 547.409Z" fill="#E5E5E4"/><path d="M380.178 125.312C376.396 125.312 373.32 128.389 373.32 132.17L373.32 473.217C373.32 476.999 376.396 480.075 380.178 480.075L622.803 480.075C626.583 480.075 629.66 476.999 629.66 473.217L629.66 132.17C629.66 128.389 626.583 125.312 622.803 125.312L380.178 125.312ZM622.803 480.389 380.178 480.389C376.223 480.389 373.006 477.173 373.006 473.217L373.006 132.17C373.006 128.217 376.223 124.998 380.178 124.998L622.803 124.998C626.756 124.998 629.974 128.217 629.974 132.17L629.974 473.217C629.974 477.173 626.756 480.389 622.803 480.389Z" fill="#E5E5E4"/><path d="M651.951 125.312C648.17 125.312 645.094 128.389 645.094 132.17L645.094 473.217C645.094 476.999 648.17 480.075 651.951 480.075L894.576 480.075C898.357 480.075 901.434 476.999 901.434 473.217L901.434 132.17C901.434 128.389 898.357 125.312 894.576 125.312L651.951 125.312ZM894.576 480.389 651.951 480.389C647.997 480.389 644.78 477.173 644.78 473.217L644.78 132.17C644.78 128.217 647.997 124.998 651.951 124.998L894.576 124.998C898.53 124.998 901.748 128.217 901.748 132.17L901.748 473.217C901.748 477.173 898.53 480.389 894.576 480.389Z" fill="#E5E5E4"/><path d="M816.375 524.863 436.868 524.863 414.237 267.43 793.745 267.43 816.375 524.863Z" fill="#EAEBEA"/><path d="M430.162 533.062 436.868 524.863 414.237 267.43 407.543 275.755 430.162 533.062Z" fill="#D7D9D9"/><path d="M441.884 515.088 421.037 277.953C420.818 275.454 422.786 273.304 425.294 273.304L784.472 273.304C786.687 273.304 788.535 274.996 788.73 277.204L809.576 514.341C809.795 516.839 807.827 518.989 805.318 518.989L446.142 518.989C443.925 518.989 442.077 517.295 441.884 515.088Z" fill="#F9F9F9"/><path d="M490.209 524.863 433.031 524.863 428.986 536.427 486.166 536.427 490.209 524.863Z" fill="#D7D9D9"/><path d="M490.209 524.863 866.177 524.863 862.132 536.427 486.166 536.427 490.209 524.863Z" fill="#F0F0F0"/><path d="M645.028 524.863 717.097 524.863 716.322 532.434 644.252 532.434 645.028 524.863Z" fill="#D7D9D9"/><path d="M754.235 250.535 845.292 250.535C852.837 300.488 817.941 341.591 767.988 341.591 752.006 341.591 735.666 337.384 720.617 329.392L754.235 250.535Z" fill="#E2E2F9"/><path d="M754.235 250.535 802.228 180.782C813.705 189.328 823.508 200.002 830.948 212.053 838.386 224.104 843.283 237.239 845.292 250.535L754.235 250.535Z" fill="#DDDDF6"/><path d="M754.235 250.535 740.48 159.478C751.102 159.478 761.923 161.338 772.454 164.969 782.983 168.603 793.061 173.954 802.228 180.782L754.235 250.535Z" fill="#C8C8F1"/><path d="M754.235 250.535 720.617 329.392C690.026 313.147 668.085 283.025 663.177 250.535 655.634 200.583 690.529 159.478 740.48 159.478L754.235 250.535Z" fill="#F7F7FD"/><path d="M641.827 413.03 722.6 413.03C723.667 420.088 723.803 427.117 723.006 433.936 722.208 440.754 720.484 447.303 717.88 453.415L641.827 413.03Z" fill="#DDDDF6"/><path d="M641.827 413.03 643.838 333.484C663.033 336.78 681.461 346.565 695.86 361.109 710.26 375.654 719.733 394.044 722.6 413.03L641.827 413.03Z" fill="#C8C8F1"/><path d="M641.827 413.03 570.099 440.656C565.538 431.801 562.477 422.452 561.055 413.03 554.361 368.719 585.316 332.258 629.627 332.258 634.329 332.258 639.084 332.668 643.838 333.484L641.827 413.03Z" fill="#F7F7FD"/><path d="M641.827 413.03 717.88 453.415C707.238 478.377 682.849 493.802 654.027 493.802 620.151 493.802 586.493 472.49 570.099 440.656L641.827 413.03Z" fill="#FFFFFF"/><path d="M882.737 578.947C882.737 586.805 773.667 593.174 639.12 593.174 504.573 593.174 395.501 586.805 395.501 578.947 395.501 571.089 504.573 564.718 639.12 564.718 773.667 564.718 882.737 571.089 882.737 578.947Z" fill="#F9F9F9"/><path d="M627.29 356.735 514.112 356.735C506.929 356.735 500.575 350.859 499.991 343.678L494.324 274.087C493.74 266.903 499.138 261.027 506.321 261.027L619.498 261.027C626.681 261.027 633.036 266.903 633.62 274.087L639.286 343.678C639.871 350.859 634.472 356.735 627.29 356.735Z" fill="#FFFFFF"/><path d="M506.321 261.571C503.009 261.571 499.991 262.866 497.823 265.216 495.646 267.579 494.596 270.713 494.867 274.043L500.532 343.633C501.097 350.557 507.188 356.191 514.112 356.191L627.29 356.191C630.602 356.191 633.62 354.896 635.786 352.546 637.965 350.183 639.015 347.049 638.744 343.722L633.077 274.131C632.514 267.205 626.423 261.571 619.498 261.571L506.321 261.571ZM627.29 357.28 514.112 357.28C506.635 357.28 500.056 351.198 499.448 343.722L493.783 274.131C493.486 270.494 494.637 267.068 497.024 264.478 499.399 261.903 502.701 260.484 506.321 260.484L619.498 260.484C626.976 260.484 633.553 266.565 634.163 274.043L639.828 343.633C640.124 347.268 638.973 350.694 636.587 353.284 634.211 355.861 630.91 357.28 627.29 357.28Z" fill="#FB8831"/><path d="M596.575 336.417C592.137 341.249 586.401 344.721 579.941 346.495L578.067 341.13C592.002 337.32 601.435 324.327 600.178 308.885 599.427 299.667 595.015 291.321 588.484 285.281L592.092 281.352C608.428 296.457 610.451 321.313 596.575 336.417Z" fill="#D7D9D9"/><path d="M592.092 281.352 588.484 285.281C581.952 279.241 573.301 275.509 564.084 275.509 554.866 275.509 546.825 279.252 541.288 285.292L537.027 281.352C543.734 274.05 553.315 269.948 563.632 269.948 573.959 269.948 584.196 274.05 592.092 281.352Z" fill="#070707"/><path d="M579.941 346.495C566.814 350.086 552.136 346.234 541.51 336.417 525.187 321.313 523.163 296.457 537.027 281.352L541.288 285.292C535.739 291.331 532.686 299.667 533.436 308.885 534.936 327.309 551.093 342.251 569.517 342.251 572.5 342.251 575.373 341.859 578.067 341.13L579.941 346.495Z" fill="#FB8831"/><path d="M464.051 148.539 473.125 148.539 473.125 149.627 464.051 149.627Z" fill="#FB8831"/><path d="M434.592 148.539 455.255 148.539 455.255 149.627 434.592 149.627Z" fill="#FB8831"/><path d="M551.347 248.563 438.168 248.563C430.986 248.563 424.631 242.685 424.047 235.503L418.381 165.911C417.796 158.731 423.194 152.853 430.377 152.853L543.554 152.853C550.738 152.853 557.092 158.731 557.677 165.911L563.343 235.503C563.927 242.685 558.529 248.563 551.347 248.563Z" fill="#FFFFFF"/><path d="M430.377 153.397C427.065 153.397 424.048 154.692 421.881 157.043 419.702 159.405 418.653 162.539 418.924 165.867L424.588 235.459C425.152 242.384 431.244 248.019 438.168 248.019L551.347 248.019C554.658 248.019 557.676 246.724 559.843 244.373 562.021 242.01 563.071 238.876 562.8 235.547L557.134 165.957C556.57 159.031 550.479 153.397 543.554 153.397L430.377 153.397ZM551.347 249.105 438.168 249.105C430.691 249.105 424.112 243.024 423.504 235.547L417.838 165.957C417.542 162.322 418.693 158.894 421.08 156.305 423.455 153.727 426.757 152.309 430.377 152.309L543.554 152.309C551.032 152.309 557.611 158.391 558.22 165.867L563.885 235.459C564.181 239.095 563.03 242.521 560.642 245.111 558.268 247.688 554.966 249.105 551.347 249.105Z" fill="#FB8831"/><path d="M428.617 172.822 488.592 172.822 488.11 166.898 428.134 166.898 428.617 172.822Z" fill="#D7D9D9"/><path d="M548.566 172.822 488.592 172.822 488.11 166.898 548.084 166.898 548.566 172.822Z" fill="#FB8831"/><path d="M429.872 188.246 446.982 188.246 446.5 182.321 429.391 182.321 429.872 188.246Z" fill="#D7D9D9"/><path d="M549.822 188.246 446.982 188.246 446.5 182.321 549.339 182.321 549.822 188.246Z" fill="#FB8831"/><path d="M431.128 203.67 484.514 203.67 484.031 197.744 430.646 197.744 431.128 203.67Z" fill="#D7D9D9"/><path d="M551.078 203.67 484.514 203.67 484.031 197.744 550.596 197.744 551.078 203.67Z" fill="#FB8831"/><path d="M432.383 219.094 523.495 219.094 523.012 213.169 431.901 213.169 432.383 219.094Z" fill="#D7D9D9"/><path d="M552.333 219.094 523.495 219.094 523.012 213.169 551.851 213.169 552.333 219.094Z" fill="#FB8831"/><path d="M433.639 234.518 475.779 234.518 475.297 228.593 433.157 228.593 433.639 234.518Z" fill="#D7D9D9"/><path d="M553.589 234.518 475.779 234.518 475.297 228.593 553.106 228.593 553.589 234.518Z" fill="#FB8831"/><path d="M706.066 248.563 592.889 248.563C585.707 248.563 579.351 242.685 578.766 235.503L573.102 165.911C572.516 158.731 577.914 152.853 585.096 152.853L698.275 152.853C705.457 152.853 711.812 158.731 712.396 165.911L718.062 235.503C718.647 242.685 713.249 248.563 706.066 248.563Z" fill="#FFFFFF"/><path d="M585.096 153.397C581.785 153.397 578.768 154.691 576.601 157.042 574.422 159.405 573.372 162.539 573.643 165.867L579.309 235.459C579.873 242.384 585.966 248.019 592.889 248.019L706.066 248.019C709.378 248.019 712.395 246.723 714.562 244.372 716.741 242.01 717.79 238.876 717.519 235.547L711.855 165.957C711.291 159.031 705.199 153.397 698.275 153.397L585.096 153.397ZM706.066 249.105 592.889 249.105C585.411 249.105 578.834 243.024 578.224 235.547L572.559 165.957C572.264 162.32 573.415 158.894 575.801 156.304 578.177 153.727 581.477 152.309 585.096 152.309L698.275 152.309C705.752 152.309 712.331 158.391 712.939 165.867L718.605 235.459C718.901 239.094 717.75 242.521 715.363 245.11 712.988 247.688 709.686 249.105 706.066 249.105Z" fill="#FB8831"/><path d="M649.331 234.518 647.336 234.518 641.83 166.898 643.828 166.898 649.331 234.518Z" fill="#D7D9D9"/><path d="M652.348 206.419 639.744 206.419 637.593 179.998 650.197 179.998 652.348 206.419Z" fill="#FB8831"/><path d="M624.526 234.518 622.528 234.518 617.023 166.898 619.021 166.898 624.526 234.518Z" fill="#D7D9D9"/><path d="M628.02 212.288 615.415 212.288 613.529 189.129 626.134 189.129 628.02 212.288Z" fill="#FB8831"/><path d="M599.719 234.518 597.721 234.518 592.215 166.898 594.213 166.898 599.719 234.518Z" fill="#D7D9D9"/><path d="M601.661 193.235 589.056 193.235 587.762 177.333 600.367 177.333 601.661 193.235Z" fill="#070707"/><path d="M674.14 234.518 672.142 234.518 666.638 166.898 668.636 166.898 674.14 234.518Z" fill="#D7D9D9"/><path d="M678.377 221.416 665.772 221.416 662.401 179.998 675.006 179.998 678.377 221.416Z" fill="#070707"/><path d="M698.947 234.518 696.949 234.518 691.445 166.898 693.442 166.898 698.947 234.518Z" fill="#D7D9D9"/><path d="M703.588 226.379 690.983 226.379 688.283 193.208 700.888 193.208 703.588 226.379Z" fill="#FB8831"/><path d="M584.952 464.02 471.774 464.02C464.592 464.02 458.237 458.143 457.651 450.961L451.986 381.371C451.402 374.188 456.799 368.311 463.983 368.311L577.16 368.311C584.342 368.311 590.697 374.188 591.282 381.371L596.947 450.961C597.533 458.143 592.134 464.02 584.952 464.02Z" fill="#FFFFFF"/><path d="M463.983 368.855C460.671 368.855 457.652 370.151 455.486 372.5 453.308 374.864 452.257 377.998 452.529 381.326L458.194 450.917C458.758 457.842 464.851 463.476 471.774 463.476L584.952 463.476C588.264 463.476 591.282 462.181 593.448 459.83 595.627 457.467 596.676 454.334 596.404 451.005L590.74 381.415C590.176 374.49 584.085 368.855 577.16 368.855L463.983 368.855ZM584.952 464.563 471.774 464.563C464.297 464.563 457.718 458.483 457.11 451.005L451.444 381.415C451.148 377.779 452.299 374.353 454.686 371.763 457.061 369.186 460.363 367.767 463.983 367.767L577.16 367.767C584.637 367.767 591.216 373.85 591.824 381.326L597.49 450.917C597.786 454.552 596.636 457.979 594.25 460.568 591.873 463.146 588.571 464.563 584.952 464.563Z" fill="#FB8831"/><path d="M479.294 414.505 503.687 442.688 531.66 399.54 548.96 421.837 553.181 415.325 581.456 449.216 472.856 449.173 479.294 414.505Z" fill="#FB8831"/><path d="M560.727 416.254 549.389 440.531 513.229 383.117 496.201 419.578 490.746 410.914 472.858 449.216 581.452 449.162 560.727 416.254Z" fill="#D7D9D9"/><path d="M793.516 255.807C796.542 261.488 799.144 267.101 801.593 272.948 803.98 278.8 806.188 284.743 807.911 291.023 808.352 292.582 808.733 294.188 809.099 295.802 809.243 296.35 809.599 298.099 809.596 299.21 809.654 300.444 809.559 301.556 809.405 302.619 808.724 306.797 807.262 309.998 805.669 313.024 802.413 319.013 798.489 323.977 793.923 328.663 792.553 330.069 790.303 330.099 788.897 328.73 787.749 327.612 787.519 325.908 788.219 324.553L788.307 324.384C791 319.182 793.668 313.696 795.471 308.489 796.338 305.908 797.025 303.268 797.022 301.325 797.006 300.861 796.991 300.434 796.922 300.139 796.893 299.984 796.865 299.845 796.815 299.768L796.583 299.028C796.163 297.675 795.735 296.321 795.232 294.957 793.329 289.501 790.975 284.023 788.533 278.589 786.099 273.169 783.479 267.661 780.888 262.424L780.836 262.319C779.092 258.789 780.538 254.515 784.066 252.769 787.526 251.059 791.709 252.427 793.516 255.807Z" fill="#FB8831"/><path d="M789.584 323.848 783.589 325.737 790.646 333.999C790.646 333.999 793.37 331.603 794.352 328.133 794.683 326.962 794.198 325.709 793.212 324.995L792.212 324.273C791.453 323.725 790.478 323.567 789.584 323.848Z" fill="#8B3D3E"/><path d="M775.327 330.831 782.89 336.832 790.646 333.999 783.589 325.737 775.327 330.831Z" fill="#8B3D3E"/><path d="M749.503 213.782C749.351 214.526 748.834 215.048 748.349 214.949 747.863 214.851 747.592 214.168 747.742 213.425 747.893 212.681 748.41 212.159 748.896 212.257 749.382 212.356 749.654 213.038 749.503 213.782Z" fill="#070707"/><path d="M748.903 215.062C748.903 215.062 746.34 219.006 744.06 220.698 745.125 222.192 747.475 222.087 747.475 222.087L748.903 215.062Z" fill="#6E0D0F"/><path d="M753.064 210.207 753.365 210.089C753.546 209.922 753.557 209.641 753.39 209.46 751.717 207.649 749.687 207.971 749.599 207.986 749.357 208.027 749.194 208.257 749.235 208.5 749.278 208.741 749.51 208.903 749.748 208.864 749.814 208.853 751.401 208.622 752.736 210.064 752.824 210.16 752.943 210.207 753.064 210.207Z" fill="#070707"/><path d="M770.145 227.312C768.797 234.192 767.983 243.724 772.797 248.316 772.797 248.316 770.916 255.294 758.131 255.294 744.073 255.294 751.369 249.169 751.369 249.169 757.211 247.356 757.161 240.7 755.824 235.354L770.145 227.312Z" fill="#8B3D3E"/><path d="M748.903 248.094C748.903 248.094 750.953 243.238 753.047 242.4 755.141 241.563 768.473 239.369 771.545 241.303 774.616 243.238 776.69 249.45 776.69 249.45L748.903 248.094Z" fill="#FB8831"/><path d="M761.502 568.001C761.345 568.001 761.201 568.016 761.072 568.052 760.866 568.108 760.723 568.21 760.635 568.363 760.478 568.641 760.536 568.777 760.592 568.856 761.03 569.464 763.407 569.478 765.156 569.23 764.284 568.783 762.602 568.001 761.502 568.001ZM762.994 569.824C761.786 569.824 760.621 569.659 760.231 569.116 760.094 568.926 759.985 568.603 760.249 568.142 760.396 567.884 760.634 567.708 760.954 567.622 762.52 567.196 765.807 569.068 765.946 569.15L766.054 569.377 765.878 569.561C765.279 569.681 764.118 569.824 762.994 569.824Z" fill="#FB8831"/><path d="M763.54 565.752 763.407 565.76C763.006 565.8 762.98 565.958 762.972 566.01 762.869 566.648 764.397 568.246 765.554 568.942 765.434 568.202 765.099 566.687 764.314 566.041 764.078 565.848 763.823 565.752 763.54 565.752ZM765.836 569.566 765.744 569.544C764.609 569.035 762.36 567.002 762.532 565.938 762.573 565.689 762.75 565.378 763.362 565.316 763.819 565.27 764.231 565.398 764.597 565.698 765.793 566.681 766.047 569.214 766.057 569.322L765.965 569.523 765.836 569.566Z" fill="#FB8831"/><path d="M776.175 569.342 766.772 569.342 765.836 547.562 775.24 547.562 776.175 569.342Z" fill="#8B3D3E"/><path d="M766.835 568.253 777.104 568.253C777.488 568.253 777.821 568.52 777.905 568.896L779.763 577.255C779.955 578.121 779.296 578.943 778.409 578.928 774.705 578.865 769.351 578.647 764.695 578.647 759.249 578.647 758.591 578.945 752.205 578.945 748.345 578.945 747.274 575.041 748.89 574.687 756.246 573.079 758.21 572.905 764.568 568.985 765.259 568.559 766.023 568.253 766.835 568.253Z" fill="#070707"/><path d="M789.636 248.348C798.45 250.368 804.265 274.156 804.265 274.156L789.549 285.21C789.549 285.21 781.52 280.236 778.629 268.979 775.599 257.187 780.623 246.281 789.636 248.348Z" fill="#070707"/><path d="M789.553 285.213C789.553 285.213 789.552 285.213 789.549 285.21L789.836 284.995 789.553 285.213Z" fill="#A9ACAC"/><path d="M789.549 285.21C789.453 285.15 787.658 284.01 785.488 281.662 785.691 278.045 785.969 274.337 786.339 270.574 788.658 274.721 790.088 279.66 790.335 284.611L789.836 284.995 789.549 285.21Z" fill="#021E27"/><path d="M842.541 336.838 771.142 365.372 749.921 312.272 821.321 283.738 842.541 336.838Z" fill="#3B66E9"/><path d="M801.296 353.322 841.492 337.258 801.296 353.322Z" fill="#FFFFFF"/><path d="M795.621 355.59 801.296 353.322 795.621 355.59Z" fill="#F6F7F6"/><path d="M793.278 356.526 795.621 355.59 793.278 356.526Z" fill="#FEFEFD"/><path d="M793.278 356.526C789.478 341.237 786.693 330.119 786.693 330.119L777.849 330.119 786.693 330.119C786.594 329.342 786.465 328.2 786.32 326.734L792.923 324.095 791.037 319.374 785.865 321.44C785.784 320.359 785.703 319.198 785.627 317.969L789.808 316.298 787.921 311.578 785.341 312.609C785.29 311.478 785.245 310.307 785.204 309.099L786.692 308.503 785.082 304.476C785.045 302.474 785.025 300.394 785.026 298.244L820.271 284.157 841.492 337.258 801.296 353.322 795.621 355.59 793.278 356.526ZM800.383 342.761 793.722 345.422 795.609 350.144 802.27 347.482 800.383 342.761ZM811.382 338.366 804.72 341.027 806.607 345.749 813.268 343.086 811.382 338.366ZM797.268 334.964 790.607 337.627 792.493 342.347 799.155 339.686 797.268 334.964ZM822.38 333.969 815.718 336.632 817.605 341.354 824.266 338.691 822.38 333.969ZM808.266 330.569 801.605 333.232 803.491 337.952 810.153 335.291 808.266 330.569ZM833.378 329.574 826.717 332.237 828.603 336.958 835.264 334.296 833.378 329.574ZM794.152 327.169 787.491 329.83 789.378 334.552 796.039 331.891 794.152 327.169ZM819.264 326.174 812.603 328.835 814.49 333.557 821.151 330.896 819.264 326.174ZM805.15 322.774 798.489 325.435 800.376 330.157 807.037 327.496 805.15 322.774ZM830.262 321.779 823.601 324.44 825.488 329.162 832.148 326.501 830.262 321.779ZM816.149 318.379 809.487 321.04 811.374 325.762 818.035 323.099 816.149 318.379ZM802.035 314.978 795.374 317.64 797.26 322.362 803.922 319.699 802.035 314.978ZM827.147 313.984 820.485 316.645 822.372 321.367 829.033 318.704 827.147 313.984ZM813.033 310.582 806.372 313.245 808.258 317.966 814.92 315.304 813.033 310.582ZM798.919 307.182 792.258 309.844 794.145 314.565 800.806 311.903 798.919 307.182ZM824.031 306.187 817.37 308.85 819.257 313.57 825.917 310.908 824.031 306.187ZM809.917 302.787 803.256 305.448 805.143 310.17 811.804 307.508 809.917 302.787ZM795.804 299.386 789.142 302.048 791.029 306.769 797.69 304.107 795.804 299.386ZM820.915 298.392 814.254 301.053 816.141 305.775 822.802 303.113 820.915 298.392ZM806.802 294.991 800.141 297.653 802.027 302.374 808.688 299.711 806.802 294.991ZM817.8 290.596 811.139 293.258 813.025 297.979 819.686 295.316 817.8 290.596Z" fill="#8AB3DF"/><path d="M785.204 309.099C785.154 307.612 785.113 306.069 785.082 304.476L786.692 308.503 785.204 309.099Z" fill="#6092CC"/><path d="M791.029 306.769 789.142 302.048 795.804 299.386 797.69 304.107 791.029 306.769Z" fill="#6092CC"/><path d="M802.027 302.374 800.141 297.653 806.802 294.991 808.688 299.711 802.027 302.374Z" fill="#6092CC"/><path d="M813.025 297.979 811.139 293.258 817.8 290.596 819.686 295.316 813.025 297.979Z" fill="#6092CC"/><path d="M785.627 317.969C785.523 316.307 785.425 314.516 785.341 312.609L787.921 311.578 789.808 316.298 785.627 317.969Z" fill="#6092CC"/><path d="M794.145 314.565 792.258 309.844 798.919 307.182 800.806 311.903 794.145 314.565Z" fill="#6092CC"/><path d="M805.143 310.17 803.256 305.448 809.917 302.787 811.804 307.508 805.143 310.17Z" fill="#6092CC"/><path d="M816.141 305.775 814.254 301.053 820.915 298.392 822.802 303.113 816.141 305.775Z" fill="#6092CC"/><path d="M786.32 326.734C786.177 325.276 786.02 323.498 785.865 321.44L791.037 319.374 792.923 324.095 786.32 326.734Z" fill="#6092CC"/><path d="M797.26 322.362 795.374 317.64 802.035 314.978 803.922 319.699 797.26 322.362Z" fill="#6092CC"/><path d="M808.258 317.966 806.372 313.245 813.033 310.582 814.92 315.304 808.258 317.966Z" fill="#6092CC"/><path d="M819.257 313.57 817.37 308.85 824.031 306.187 825.917 310.908 819.257 313.57Z" fill="#6092CC"/><path d="M789.378 334.552 787.491 329.83 794.152 327.169 796.039 331.891 789.378 334.552Z" fill="#6092CC"/><path d="M800.376 330.157 798.489 325.435 805.15 322.774 807.037 327.496 800.376 330.157Z" fill="#6092CC"/><path d="M811.374 325.762 809.487 321.04 816.149 318.379 818.035 323.099 811.374 325.762Z" fill="#6092CC"/><path d="M822.372 321.367 820.485 316.645 827.147 313.984 829.033 318.704 822.372 321.367Z" fill="#6092CC"/><path d="M792.493 342.347 790.607 337.627 797.268 334.964 799.155 339.686 792.493 342.347Z" fill="#6092CC"/><path d="M803.491 337.952 801.605 333.232 808.266 330.569 810.153 335.291 803.491 337.952Z" fill="#6092CC"/><path d="M814.49 333.557 812.603 328.835 819.264 326.174 821.151 330.896 814.49 333.557Z" fill="#6092CC"/><path d="M825.488 329.162 823.601 324.44 830.262 321.779 832.148 326.501 825.488 329.162Z" fill="#6092CC"/><path d="M795.609 350.144 793.722 345.422 800.383 342.761 802.27 347.482 795.609 350.144Z" fill="#6092CC"/><path d="M806.607 345.749 804.72 341.027 811.382 338.366 813.268 343.086 806.607 345.749Z" fill="#6092CC"/><path d="M817.605 341.354 815.718 336.632 822.38 333.969 824.266 338.691 817.605 341.354Z" fill="#6092CC"/><path d="M828.603 336.958 826.717 332.237 833.378 329.574 835.264 334.296 828.603 336.958Z" fill="#6092CC"/><path d="M815.416 300.59C815.008 299.567 815.504 298.407 816.527 297.999 817.549 297.59 818.708 298.088 819.117 299.111 819.525 300.132 819.029 301.292 818.006 301.699 816.984 302.109 815.825 301.611 815.416 300.59Z" fill="#FFFFFF"/><path d="M813.765 328.372C813.356 327.349 813.853 326.19 814.875 325.781 815.898 325.372 817.057 325.871 817.466 326.893 817.874 327.916 817.376 329.074 816.355 329.484 815.332 329.891 814.172 329.393 813.765 328.372Z" fill="#FFFFFF"/><path d="M788.653 329.367C788.245 328.344 788.743 327.186 789.764 326.776 790.787 326.368 791.945 326.866 792.354 327.887 792.762 328.909 792.265 330.068 791.243 330.478 790.221 330.886 789.062 330.388 788.653 329.367Z" fill="#FFFFFF"/><path d="M772.888 353.749C772.48 352.727 772.978 351.568 773.999 351.159 775.021 350.75 776.18 351.247 776.589 352.269 776.997 353.291 776.499 354.451 775.478 354.86 774.456 355.268 773.297 354.772 772.888 353.749Z" fill="#FFFFFF"/><path d="M774.738 353.748C774.601 353.748 774.461 353.71 774.337 353.628 773.995 353.408 773.897 352.95 774.118 352.608L789.883 328.226C790.014 328.025 790.234 327.898 790.474 327.889L814.918 326.92 816.528 299.806C816.553 299.398 816.913 299.094 817.31 299.112 817.717 299.136 818.027 299.486 818.003 299.894L816.352 327.676C816.33 328.055 816.023 328.354 815.645 328.369L790.916 329.349 775.359 353.411C775.218 353.628 774.98 353.748 774.738 353.748Z" fill="#FFFFFF"/><path d="M733.935 257.776C732.012 267.936 730.81 288.801 736.391 330.119L786.693 330.119C785.785 322.952 782.188 284.73 789.636 248.348 789.636 248.348 781.013 246.618 772.797 246.222 766.368 245.911 757.064 245.705 751.414 246.222 749.055 246.437 746.74 246.778 744.677 247.143 739.239 248.105 734.961 252.35 733.935 257.776Z" fill="#070707"/><path d="M732.832 295.008C732.343 286.802 732.242 280.006 732.392 274.384 732.244 280.005 732.343 286.802 732.832 295.008Z" fill="#B6B9BA"/><path d="M736.845 330.116 736.393 330.116C734.517 316.223 733.406 304.644 732.832 295.008 732.343 286.802 732.244 280.005 732.392 274.384 732.393 274.315 732.396 274.245 732.397 274.176L741.846 273.422C750.025 284.843 742.512 311.482 736.845 330.116Z" fill="#021E27"/><path d="M775.727 558.795 775.723 558.795 775.24 547.568 775.245 547.568 775.727 558.795ZM766.318 558.795 766.314 558.706 766.318 558.795Z" fill="#C3C5C5"/><path d="M775.723 558.795 766.318 558.795 766.314 558.706 765.837 547.568 775.24 547.568 775.723 558.795Z" fill="#6D2C2D"/><path d="M774.616 217.246C772.2 226.261 771.244 231.662 765.681 235.41 757.312 241.048 746.893 234.577 746.566 225.021 746.274 216.421 750.274 203.122 759.949 201.304 769.481 199.516 777.032 208.231 774.616 217.246Z" fill="#8B3D3E"/><path d="M753.508 217.305 748.622 218.575 753.169 206.782C752.677 205.881 751.381 201.783 752.752 197.685 753.113 196.605 754.104 195.873 755.242 195.852 765.372 195.655 775.958 201.34 781.295 205.64 782.323 206.468 782.575 207.927 781.887 209.053 780.719 210.966 779.206 212.43 777.3 214.369 777.199 217.671 771.806 232.591 768.822 234.268 765.838 235.942 760.133 235.261 758.613 232.54 757.096 229.817 751.965 226.205 753.508 217.305Z" fill="#070707"/><path d="M758.03 217.491C757.481 219.875 755.982 221.95 754.389 223.204 751.993 225.092 750.116 223.35 750.215 220.576 750.303 218.08 751.658 214.09 754.336 213.279 756.975 212.479 758.659 214.767 758.03 217.491Z" fill="#8B3D3E"/><path d="M845.843 565.076C845.842 564.919 845.826 564.773 845.789 564.645 845.733 564.44 845.63 564.297 845.475 564.211 845.198 564.055 845.061 564.114 844.983 564.17 844.377 564.611 844.378 566.989 844.637 568.736 845.078 567.861 845.851 566.174 845.843 565.076ZM844.029 566.579C844.021 565.371 844.18 564.204 844.72 563.811 844.909 563.671 845.231 563.563 845.694 563.823 845.953 563.968 846.13 564.204 846.219 564.525 846.654 566.088 844.803 569.386 844.724 569.527L844.495 569.636 844.312 569.461C844.187 568.862 844.035 567.702 844.029 566.579Z" fill="#FB8831"/><path d="M848.105 567.099 848.096 566.966C848.053 566.564 847.896 566.54 847.844 566.532 847.205 566.433 845.616 567.97 844.927 569.133 845.666 569.008 847.18 568.663 847.82 567.873 848.012 567.637 848.106 567.382 848.105 567.099ZM844.307 569.417 844.325 569.326C844.828 568.187 846.847 565.926 847.911 566.091 848.161 566.13 848.474 566.305 848.54 566.917 848.589 567.374 848.463 567.788 848.167 568.155 847.192 569.357 844.658 569.627 844.552 569.637L844.349 569.547 844.307 569.417Z" fill="#FB8831"/><path d="M844.449 569.48 835.271 570.13 830.116 548.175 839.293 547.526 844.449 569.48Z" fill="#8B3D3E"/><path d="M844.418 567.372 834.188 566.466C833.805 566.433 833.449 566.668 833.334 567.035L830.745 575.198C830.478 576.044 831.061 576.921 831.945 576.984 835.642 577.248 840.995 577.504 845.632 577.914 851.055 578.394 847.543 578.381 853.904 578.945 857.749 579.285 859.161 575.491 857.583 574.996 850.396 572.745 849.094 571.19 846.61 568.302 846.081 567.686 845.226 567.442 844.418 567.372Z" fill="#070707"/><path d="M841.952 558.848 840.586 553.029 840.59 553.028 841.957 558.848 841.952 558.848Z" fill="#C3C5C5"/><path d="M832.775 559.497 831.714 554.978 840.586 553.029 841.952 558.848 832.775 559.497Z" fill="#6D2C2D"/><path d="M754.235 330.119C754.235 330.119 775.867 402.358 784.076 429.173 793.064 458.538 827.264 555.957 827.264 555.957L843.846 552.312C843.846 552.312 820.42 468.611 810.706 427.659 803.244 396.203 786.693 330.119 786.693 330.119L754.235 330.119Z" fill="#3B66E9"/><path d="M824.351 550.829 825.983 557.305 845.929 555.164 845.837 549.236 824.351 550.829Z" fill="#070707"/><path d="M784.746 431.374C784.518 430.599 784.281 429.864 784.072 429.169 783.105 426.008 781.951 422.214 780.668 417.981 781.953 422.217 783.107 426.01 784.076 429.173 784.285 429.856 784.507 430.576 784.743 431.331 784.744 431.345 784.746 431.36 784.746 431.374Z" fill="#A5A7A8"/><path d="M784.743 431.331C784.507 430.576 784.285 429.856 784.076 429.173 783.107 426.01 781.953 422.217 780.668 417.981 776.009 402.608 769.645 381.44 764.328 363.733 764.697 363.61 765.099 363.551 765.528 363.551 765.751 363.551 765.981 363.567 766.218 363.598 778.179 365.175 782.948 406.843 784.743 431.331Z" fill="#0D60AE"/><path d="M736.391 330.119C736.391 330.119 743.646 400.474 746.772 429.115 750.023 458.906 762.227 556.621 762.227 556.621L778.158 556.621C778.158 556.621 776.228 460.689 775.585 431.392 774.886 399.452 769.456 330.119 769.456 330.119L736.391 330.119Z" fill="#3B66E9"/><path d="M759.748 550.275 760.646 556.889 780.028 556.889 780.552 550.986 759.748 550.275Z" fill="#070707"/><path d="M712.278 368.618C719.268 379.704 715.946 394.359 704.86 401.348 693.771 408.338 679.116 405.017 672.127 393.932 665.136 382.841 668.458 368.187 679.547 361.197 690.633 354.207 705.287 357.53 712.278 368.618ZM668.353 396.311C676.656 409.482 694.068 413.425 707.238 405.123 720.41 396.818 724.355 379.41 716.051 366.24 707.749 353.068 690.339 349.12 677.167 357.423 663.997 365.726 660.05 383.14 668.353 396.311Z" fill="#070707"/><path d="M713.555 385.403C709.028 376.614 703.061 368.382 695.86 361.109 695.366 360.61 694.868 360.118 694.365 359.63 695.244 359.72 696.127 359.863 697.011 360.063 708.497 362.667 715.781 373.92 713.555 385.403Z" fill="#C6D9F0"/><path d="M692.221 403.027C690.629 403.027 689.013 402.851 687.396 402.484 675.681 399.829 668.337 388.179 670.992 376.467 673.28 366.37 682.25 359.52 692.183 359.52 692.906 359.52 693.633 359.556 694.365 359.63 694.868 360.118 695.366 360.61 695.86 361.109 703.061 368.382 709.028 376.614 713.555 385.403 713.511 385.629 713.463 385.856 713.412 386.083 711.124 396.176 702.154 403.027 692.221 403.027Z" fill="#AEC5E2"/><path d="M716.827 362.819 719.469 367.012C719.871 367.649 719.68 368.491 719.043 368.892 718.406 369.293 717.564 369.103 717.163 368.466L714.52 364.273C714.119 363.636 714.31 362.794 714.947 362.393 715.583 361.993 716.425 362.182 716.827 362.819Z" fill="#070707"/><path d="M733.925 350.903C730.87 352.99 727.839 355.113 724.844 357.295 721.851 359.481 718.884 361.706 716.002 364.071 715.357 364.601 715.124 365.521 715.495 366.312 715.933 367.25 717.049 367.654 717.986 367.216 721.361 365.635 724.648 363.919 727.91 362.16 731.171 360.398 734.395 358.579 737.594 356.722 740.317 355.138 743.017 353.521 745.704 351.88 746.477 351.408 746.713 350.39 746.231 349.624L744.053 346.171C743.57 345.405 742.551 345.18 741.79 345.673 739.153 347.391 736.527 349.129 733.925 350.903Z" fill="#070707"/><path d="M747.936 261.296C746.398 268.838 744.747 276.355 743.034 283.853L737.824 306.289C736.138 313.602 734.693 321.019 733.371 328.541L729.417 351.163 729.408 351.214C729.07 353.144 727.233 354.435 725.303 354.098 723.62 353.803 722.424 352.368 722.369 350.726 722.098 342.873 722.218 335.106 722.658 327.291 723.125 319.497 723.847 311.637 725.13 303.816 726.353 296.128 727.73 288.529 729.203 280.936 730.671 273.347 732.268 265.788 734.007 258.264 734.892 254.428 738.721 252.038 742.556 252.924 746.328 253.795 748.7 257.525 747.936 261.296Z" fill="#FB8831"/><path d="M728.337 349.121C727.702 348.448 726.745 348.169 725.844 348.384L723.801 348.87C722.755 349.12 721.971 349.989 721.833 351.057L721.239 355.593C721.071 356.893 721.347 358.212 722.026 359.333L724.83 363.975C725.569 364.952 726.807 365.414 728.006 365.159L730.929 364.539C732.763 364.15 733.856 362.26 733.278 360.477L732.513 358.113C732.513 358.113 732.466 353.486 728.337 349.121Z" fill="#8B3D3E"/><path d="M757.724 256.935C762.296 269.066 746.481 286.363 746.481 286.363L726.47 279.745C726.47 279.745 728.001 263.194 734.946 253.862 743.527 242.338 754.243 247.702 757.724 256.935Z" fill="#070707"/></g></svg>