<svg xmlns="http://www.w3.org/2000/svg" viewBox="0 0 502 300"><defs><style>.a{fill:#e8762c;}.b{fill:#c62036;}.c,.h{fill:#5a869a;}.d{fill:#5c6691;}.e{fill:#eb9028;}.f,.i{fill:#1e457e;}.f,.h{fill-rule:evenodd;}.g{fill:#7098a4;}</style></defs><title>10</title><polygon class="a" points="80.47 146.36 68.26 146.36 68.26 133.09 63.46 133.09 63.46 146.36 51.26 146.36 51.26 151.07 63.46 151.07 63.46 164.34 68.26 164.34 68.26 151.07 80.47 151.07 80.47 146.36"/><polygon class="b" points="55.93 168.02 45 168.02 45 156.14 40.86 156.14 40.86 168.02 29.92 168.02 29.92 171.64 40.86 171.64 40.86 183.52 45 183.52 45 171.64 55.93 171.64 55.93 168.02"/><polygon class="c" points="101.8 125.53 90.87 125.53 90.87 113.6 86.73 113.6 86.73 125.53 75.8 125.53 75.8 129.15 86.73 129.15 86.73 140.97 90.87 140.97 90.87 129.15 101.8 129.15 101.8 125.53"/><polygon class="d" points="75.12 181.2 67.7 181.2 67.7 172.91 64.17 172.91 64.17 181.2 56.75 181.2 56.75 184.4 64.17 184.4 64.17 192.68 67.7 192.68 67.7 184.4 75.12 184.4 75.12 181.2"/><polygon class="e" points="55.93 125.53 44.87 125.53 44.87 113.6 40.99 113.6 40.99 125.53 29.92 125.53 29.92 129.04 40.99 129.04 40.99 140.97 44.87 140.97 44.87 129.04 55.93 129.04 55.93 125.53"/><polygon class="d" points="110.2 147.12 102.79 147.12 102.79 138.83 99.25 138.83 99.25 147.12 91.83 147.12 91.83 150.32 99.25 150.32 99.25 158.6 102.79 158.6 102.79 150.32 110.2 150.32 110.2 147.12"/><polygon class="f" points="101.8 168.02 90.87 168.02 90.87 156.14 86.73 156.14 86.73 168.02 75.8 168.02 75.8 171.64 86.73 171.64 86.73 183.52 90.87 183.52 90.87 171.64 101.8 171.64 101.8 168.02"/><polygon class="g" points="64.61 105.13 64.61 113.26 57.28 113.26 57.28 115.72 64.61 115.72 64.61 123.84 67.25 123.84 67.25 115.72 74.59 115.72 74.59 113.26 67.25 113.26 67.25 105.13 64.61 105.13"/><polygon class="g" points="38.76 147.43 31.4 147.43 31.4 139.47 28.81 139.47 28.81 147.43 21.44 147.43 21.44 150 28.81 149.95 28.81 157.97 31.4 157.97 31.4 149.94 38.76 149.89 38.76 147.43"/><path class="h" d="M150.16,194.06a5.53,5.53,0,0,0,2.91.81c2.11,0,3.31-1,3.31-2.49a2.29,2.29,0,0,0-1.1-2.1,13.3,13.3,0,0,0-2.09-.9c-.76-.28-1.13-.59-1.13-.93s.42-.68,1.23-.68a6.45,6.45,0,0,1,2.74.84v-1.72a6.54,6.54,0,0,0-2.85-.69c-1.93,0-3.17,1-3.17,2.42s1,2.22,3.15,3c.73.26,1.11.42,1.11.92s-.43.75-1.25.75a5.38,5.38,0,0,1-2.86-1.06Z"/><path class="h" d="M191.36,190.54a4.16,4.16,0,0,0,1.31,3.13,5,5,0,0,0,6.5,0,4.16,4.16,0,0,0,1.31-3.13,4.21,4.21,0,0,0-1.31-3.15,5,5,0,0,0-6.5,0,4.21,4.21,0,0,0-1.31,3.15m2.16,0a2.34,2.34,0,1,1,0,.16c0-.06,0-.11,0-.16"/><polygon class="h" points="237.7 194.73 239.8 194.73 239.8 191.28 242.92 191.28 242.92 189.71 239.8 189.71 239.8 187.89 243.13 187.89 243.13 186.34 237.7 186.34 237.7 194.73"/><polygon class="h" points="282.31 194.73 284.52 194.73 284.52 187.9 287.3 187.9 287.3 186.34 279.54 186.34 279.54 187.9 282.31 187.9 282.31 194.73"/><polygon class="h" points="324.54 194.8 325.39 194.8 327.3 189.56 329.19 194.8 330.06 194.8 333.47 186.34 331.26 186.34 329.64 190.92 328 186.34 326.6 186.34 324.95 190.9 323.32 186.34 321.14 186.34 324.54 194.8"/><path class="h" d="M365.17,194.72h2.24l.67-1.63h3.61l.6,1.63h2.23l-3.27-8.41h-2.42Zm3.51-3.06,1.3-3.2,1.18,3.2Z"/><path class="h" d="M408.56,194.72h2.1v-3.41h.24a1.4,1.4,0,0,1,1.52,1l1.07,2.42h2.37l-1.33-2.87a1.92,1.92,0,0,0-1-1.06,2.1,2.1,0,0,0,1.46-2c0-1.68-1.09-2.43-3.34-2.43h-3.09Zm3.1-5h-1v-1.95h1c.76,0,1.16.36,1.16,1s-.37,1-1.16,1"/><polygon class="h" points="450.67 194.73 456.38 194.73 456.38 193.16 452.77 193.16 452.77 191.16 456.12 191.16 456.12 189.6 452.77 189.6 452.77 187.89 456.28 187.89 456.28 186.34 450.67 186.34 450.67 194.73"/><path class="f" d="M257.58,141.88a20.33,20.33,0,0,1,7.1-1.47c8.2,0,13.74,5.76,13.74,14.79,0,9.37-5.82,14.85-16.09,14.85a33.16,33.16,0,0,1-10.71-1.93l-.18-41.44h6.14ZM263,164.4c5.73,0,9-3.28,9-9.13s-3.31-9.21-8.46-9.21a14.72,14.72,0,0,0-5.93,1.49v15.82a15.67,15.67,0,0,0,5.37,1"/><rect class="i" x="303.92" y="120.87" width="6.07" height="54.38"/><path class="f" d="M343.54,152h13.94c-.16-3.71-2.15-5.64-5.7-5.87a8.19,8.19,0,0,0-8.24,5.87m6.88,18.18c-9.36-.91-13.92-7.48-13.65-15.28.28-8.42,5.73-14.4,14-14.4,8.71,0,13.76,6.45,13.33,16h-21c.5,5.27,3.66,7.76,8,8.1,3.6.27,8.68-.54,11.44-2.27v5.8a21.76,21.76,0,0,1-12.17,2.08"/><path class="f" d="M454.19,165.38c3.85,0,6.45-2,6.45-6.36V141h6.14v18.76c0,6.26-4.86,10.08-12.59,10.08S441.6,166,441.6,159.78V141h6.14v18c0,4.39,2.61,6.36,6.45,6.36"/><path class="f" d="M211.07,170.05c-10.26,0-16.08-5.48-16.08-14.85,0-9,5.54-14.79,13.73-14.79a12.54,12.54,0,0,1,7.1,1.94v-2H222l-.17,27.84a30.17,30.17,0,0,1-10.72,1.9m-.62-5.65a22.23,22.23,0,0,0,5.26-.66l.11-15.7a10.19,10.19,0,0,0-5.92-2c-5.16,0-8.46,3.45-8.46,9.21s3.28,9.21,9,9.13"/><path class="f" d="M404.92,170.05c-10.26,0-16.08-5.48-16.08-14.85,0-9,5.54-14.79,13.73-14.79a12.53,12.53,0,0,1,7.1,1.9v-2h6.14l-.18,27.84a30.11,30.11,0,0,1-10.71,1.93m-.62-5.65a22.23,22.23,0,0,0,5.26-.66l.11-15.7a10.19,10.19,0,0,0-5.92-2c-5.16,0-8.47,3.45-8.47,9.21s3.29,9.15,9,9.13"/><polygon class="i" points="149.29 128.65 155.36 128.65 155.36 145.9 171.78 145.9 171.78 151.57 155.36 151.57 155.36 170.27 149.29 170.27 149.29 151.57 132.87 151.57 132.87 145.9 149.29 145.9 149.29 128.65"/><path class="i" d="M476.88,140.79a3.65,3.65,0,1,1-3.62,3.68v0a3.59,3.59,0,0,1,3.54-3.64Zm0,.56a3.09,3.09,0,1,0,2.91,2.91A3.09,3.09,0,0,0,476.88,141.35Zm-.68,5.2h-.65v-4.07a7.43,7.43,0,0,1,1.15-.09,2.15,2.15,0,0,1,1.26.3,1.06,1.06,0,0,1,.12,1.49,1,1,0,0,1-.54.34h0c.35.07.6.39.68,1a3.88,3.88,0,0,0,.26,1h-.68a2.86,2.86,0,0,1-.27-1,.76.76,0,0,0-.8-.72h-.53Zm0-2.25h.47c.53,0,1-.2,1-.7s-.25-.71-1-.71h-.47Z"/></svg>