<svg xmlns="http://www.w3.org/2000/svg" xmlns:xlink="http://www.w3.org/1999/xlink" viewBox="0 0 502 300"><defs><style>.a,.b,.c,.d{fill-rule:evenodd;}.a{fill:url(#a);}.b{fill:url(#b);}.c{fill:url(#c);}.d{fill:#231f20;}</style><radialGradient id="a" cx="9551.47" cy="9688.29" r="148.87" gradientTransform="translate(-952.81 -936.8) scale(0.11)" gradientUnits="userSpaceOnUse"><stop offset="0" stop-color="#efeeee"/><stop offset="1" stop-color="#b2bac1"/></radialGradient><linearGradient id="b" x1="9205.5" y1="10159.32" x2="9851.66" y2="10159.32" gradientTransform="translate(-952.81 -936.8) scale(0.11)" gradientUnits="userSpaceOnUse"><stop offset="0" stop-color="#b2bac1"/><stop offset="1" stop-color="#efeeee"/></linearGradient><radialGradient id="c" cx="9805.13" cy="10055.99" r="412.75" gradientTransform="translate(-952.81 -936.8) scale(0.11)" gradientUnits="userSpaceOnUse"><stop offset="0" stop-color="#e8352d"/><stop offset="1" stop-color="#c02727"/></radialGradient></defs><title>09</title><path class="a" d="M67.57,101.71A36.83,36.83,0,0,1,58,106.54a31.84,31.84,0,0,1-9.93-8.69C53.81,99.58,61.84,101.49,67.57,101.71Zm-18-5.07a52.36,52.36,0,0,1,13.16-6,26.11,26.11,0,0,0,4,8.21,75.16,75.16,0,0,1-17.08-2.27Zm-3.72,2.15a22.53,22.53,0,0,0,5.68,6l-5.4.37a10.93,10.93,0,0,0-4.58-1.85,7.92,7.92,0,0,1,4.3-4.53Zm-9.18,3.72c7.51-6.46,17.24-11,27.07-15.36A80.33,80.33,0,0,0,74.63,110c-3-.53-6.19-1-9.41-1.48,2.14-.13,5.13.24,7.27.11a58,58,0,0,1-4-5.47,25.16,25.16,0,0,1-8,3.92c.52.36,2.42.81,2.94,1.17-9.49-1.42-19.16-2.86-26.75-5.78Z"/><path class="b" d="M43.6,178.29a67,67,0,0,0,9.55-15.5l-11.88,5C39.82,171.26,41,176.25,43.6,178.29ZM29.07,198.46c5.47-4.93,9.51-10.24,11.66-16.07L22.16,186.6c.11,5.58,2.11,9.75,6.91,11.88Zm24.56-5.93c-4.87-3.2-8.18-6.14-10.52-9.37a72.18,72.18,0,0,1-11.66,16.45,140.13,140.13,0,0,0,22.17-7.07Zm13.5-19.68c-.83,5.38-6.08,13.26-10.73,18.12-4.5-2.36-8.39-5.26-10.8-9.56,6.79-1.27,15.61-6.13,21.52-8.55ZM66,171.66c-5.77,3.19-15.43,7.39-21.5,8,3.06-5.55,8.89-12.38,12-17.93a22.43,22.43,0,0,0,9.5,9.94ZM67.47,170c.8-4.19,2.2-9.69,1.52-13.46-3.28,1.19-7.61,3-10.89,4.21a23.5,23.5,0,0,0,9.38,9.27Zm1.33.76c4.94-2.51,10.92-6,15.86-8.51-2.33-3.35-6.76-5.64-12.13-7.46-.89,5-2.83,11-3.72,16Zm16.66-10.9a28.66,28.66,0,0,0-.76-8.05L76,154c4.08,1.13,7.35,3,9.43,5.91Zm-1.09,18c.54-4.85,1.22-8.82,1-13.77-5.1,2.63-10.89,5.26-16,7.94a28.26,28.26,0,0,0,14.95,5.82ZM58.06,192.07c6.94-2.71,18.51-8.67,25.43-11.4-3.84-.57-9.95-3.69-15.08-7.33-1.2,5.91-6.66,14.87-10.4,18.7Zm1.75.57C64.53,196.43,73,197,79,198.1a81.76,81.76,0,0,0,4.38-15.25c-7.57,3.17-16.14,6.61-23.65,9.84Zm-11,14.83c9.44-1.76,18.59-4,26.89-7.75-6-1.15-12.28-2.06-17.7-5.26a49.88,49.88,0,0,1-9.27,13Zm4.25.95a180.85,180.85,0,0,0,24.3-7.57c-1.22,3.72-2.18,7.2-4.16,10.28A107.94,107.94,0,0,1,53,208.46Zm-6.3-1.75C51,203,54.94,198,55.83,193.47c-7,2.53-15.41,5.4-23.11,6.79a38.82,38.82,0,0,0,14,6.43Zm28,6.14c10.43-23.1,14.45-42.17,11.85-64.18-17.13,5.82-33.34,10.94-48.28,19.63a18.22,18.22,0,0,0,2.76,12.12l-18.72,4.88c.61-8,7.45-11.79,15.93-17-2.16,1.26-4.28,2.59-6.38,4-35.9,24,13,39.57,42.72,40.56Z"/><path class="c" d="M53.77,149.27l7.16-4.83a6.88,6.88,0,0,0-4.25-2.73A25.93,25.93,0,0,1,53.77,149.27Zm-8.38,10.8,8.88-6.13-1.1-3.45A51.22,51.22,0,0,1,45.39,160.07Zm2.93,1.39A108.23,108.23,0,0,1,66,154c-.35-3-.41-6.51-2.29-8.61C59,150.24,53,156.57,48.32,161.47Zm22.3-9.38c4.49-5.63,9.46-11.4,13.95-17.07,4.27,2,7.72,5,11.22,9Zm-5.26-7.64,17.2-10.77c-4.71,6.37-10.29,13.33-15,19.7a23.56,23.56,0,0,0-2.19-8.92Zm-.66-1.15,7.12-15.11a22.26,22.26,0,0,1,8.59,4ZM58,138.79l11.85-11.47-6,15.16A9.6,9.6,0,0,0,58,138.85Zm.1-3.63a70.37,70.37,0,0,0-.39-11.61l10.13,2.86c-3.3,2.92-6.46,5.84-9.73,8.75Zm42,7.77A120,120,0,0,0,114,124.06a47.39,47.39,0,0,1,15.91,13.15,181.05,181.05,0,0,0-29.82,5.72ZM87.49,132.41a154,154,0,0,1,25.32-9.23c-4.48,6.85-9.85,13.52-15.1,20.37A31.48,31.48,0,0,0,87.49,132.41Zm-1.33-1c2.44-4.17,4.77-10.89,4.92-15.83a105.67,105.67,0,0,1,19.29,6A122.05,122.05,0,0,0,86.16,131.41Zm-12-6.14a61.52,61.52,0,0,1,15.77-10.1c-1.08,5.37-2.66,10.58-5.78,15.31a26.22,26.22,0,0,0-9.94-5.17Zm-2-1-1.71-12.5a69.17,69.17,0,0,1,17.1,2.58,70.12,70.12,0,0,0-15.35,10Zm-13.51-4L70,123.9l-1-12.26c-3.83,2.43-7.75,4.69-10.27,8.65Zm-5.38-11.69a78.69,78.69,0,0,1,3.08,10.52A44.67,44.67,0,0,1,67,110.94,58.33,58.33,0,0,0,53.27,108.58ZM53.5,116a24.64,24.64,0,0,0-3.23-8.48,18.19,18.19,0,0,0-6.13-1.31A45.06,45.06,0,0,1,53.5,116ZM38.27,168.26l-6.41,4c2.2-2.35,4.48-4.78,6.58-6.81,24.34-23.47,23.72-44.6,1.88-60.51-6.14-4.48-5-2.32,1.37-.88,36.93,8.55,68.57,5.54,90.06,32.1,1.54,1.9,1.41,2.35-.08,2.45C119.27,139.42,76,148.4,38.27,168.26Z"/><path class="d" d="M81.05,212.85v-3.13h.62l.74,2.22.15.46.17-.5.74-2.17H84v3.12h-.4v-2.63l-.88,2.63h-.37l-.88-2.63v2.63Zm-1.86,0v-2.76h-1v-.37h2.52v.37h-1v2.76Z"/><path class="d" d="M255.9,129.39l.34,2a8.87,8.87,0,0,1-1.7.2,3.81,3.81,0,0,1-1.91-.38,2.27,2.27,0,0,1-.94-1,7.94,7.94,0,0,1-.28-2.66v-7.7h-1.69v-1.74h1.66v-3.26l2.3-1.38v4.66H256v1.72h-2.28v7.79a4,4,0,0,0,.12,1.28.93.93,0,0,0,.38.43,1.58,1.58,0,0,0,.77.17A7.48,7.48,0,0,0,255.9,129.39Zm-11.51,2V119.9h-2v-1.75h2v-1.42a6.13,6.13,0,0,1,.24-2,2.91,2.91,0,0,1,1.16-1.43,4,4,0,0,1,2.3-.55,10,10,0,0,1,2.11.23l-.32,1.91a6.85,6.85,0,0,0-1.28-.12,1.93,1.93,0,0,0-1.46.44,2.38,2.38,0,0,0-.43,1.65v1.29h2.56v1.75h-2.55v11.51h-2.29ZM231,124.75a5.68,5.68,0,0,0,1.11,3.84,3.72,3.72,0,0,0,5.25.36h0a3.06,3.06,0,0,0,.36-.36,5.83,5.83,0,0,0,1.09-3.92,5.48,5.48,0,0,0-1.12-3.74,3.72,3.72,0,0,0-5.25-.36h0c-.12.11-.24.23-.35.35a5.68,5.68,0,0,0-1.11,3.82Zm-2.33,0a6.87,6.87,0,0,1,2.06-5.49,6.24,6.24,0,0,1,4.19-1.48,6,6,0,0,1,4.48,1.78,6.8,6.8,0,0,1,1.74,5,8.84,8.84,0,0,1-.77,4.06,5.43,5.43,0,0,1-2.25,2.23,6.46,6.46,0,0,1-3.22.82,6,6,0,0,1-4.53-1.79,7.11,7.11,0,0,1-1.72-5.15Zm-12.91,2.69,2.23-.35a3.17,3.17,0,0,0,1.05,2.06,3.65,3.65,0,0,0,2.41.71,3.51,3.51,0,0,0,2.31-.63,1.89,1.89,0,0,0,.75-1.49,1.36,1.36,0,0,0-.66-1.2,10,10,0,0,0-2.31-.77,20.5,20.5,0,0,1-3.44-1.08,3.42,3.42,0,0,1-1.64-4.54l.09-.17a3.51,3.51,0,0,1,1.11-1.28,4.77,4.77,0,0,1,1.43-.66,6.75,6.75,0,0,1,2-.27,7.57,7.57,0,0,1,2.75.46,3.68,3.68,0,0,1,1.75,1.28,4.8,4.8,0,0,1,.78,2.06l-2.21.3a2.42,2.42,0,0,0-.87-1.61,3.17,3.17,0,0,0-2-.57,3.7,3.7,0,0,0-2.23.51,1.49,1.49,0,0,0-.66,1.2,1.25,1.25,0,0,0,.28.79,2,2,0,0,0,.87.6c.23.08.89.27,2,.58a27.86,27.86,0,0,1,3.34,1,3.37,3.37,0,0,1,1.5,1.19,3.3,3.3,0,0,1,.53,1.93,3.77,3.77,0,0,1-.66,2.13,4.31,4.31,0,0,1-2,1.5,7,7,0,0,1-2.81.55,6.18,6.18,0,0,1-4-1.08,5,5,0,0,1-1.72-3.2Zm-12-2.69a5.69,5.69,0,0,0,1.12,3.84,3.72,3.72,0,0,0,5.25.36h0a3.06,3.06,0,0,0,.36-.36,5.79,5.79,0,0,0,1.11-3.9,5.49,5.49,0,0,0-1.12-3.75,3.72,3.72,0,0,0-5.25-.35h0c-.12.11-.24.23-.35.35a5.65,5.65,0,0,0-1.11,3.81Zm-2.32,0a6.87,6.87,0,0,1,2.06-5.49,6.24,6.24,0,0,1,4.19-1.48,6,6,0,0,1,4.54,1.78,6.77,6.77,0,0,1,1.75,5,8.89,8.89,0,0,1-.76,4,5.52,5.52,0,0,1-2.25,2.29,6.52,6.52,0,0,1-3.23.82,6,6,0,0,1-4.51-1.74,7.16,7.16,0,0,1-1.74-5.18Zm-7.74,6.66V118.09h2v2a5.44,5.44,0,0,1,1.53-1.81,2.47,2.47,0,0,1,1.44-.46,4.39,4.39,0,0,1,2.33.73l-.77,2.1a3.1,3.1,0,0,0-1.65-.5,2.13,2.13,0,0,0-1.28.44,2.47,2.47,0,0,0-.84,1.28,8.77,8.77,0,0,0-.37,2.64v7h-2.32Zm-4.13-4.88,2.23.29a5.76,5.76,0,0,1-1.87,3.59,5.38,5.38,0,0,1-3.7,1.28,5.7,5.7,0,0,1-4.4-1.79,7.21,7.21,0,0,1-1.6-5.11A9.17,9.17,0,0,1,181,121a5,5,0,0,1,2.19-2.43,6.32,6.32,0,0,1,3.18-.8,5.48,5.48,0,0,1,3.56,1.1,5,5,0,0,1,1.77,3.12l-2.19.33a3.65,3.65,0,0,0-1.12-2,2.9,2.9,0,0,0-1.93-.68,3.47,3.47,0,0,0-2.8,1.26,5.77,5.77,0,0,0-1.06,3.84,6,6,0,0,0,1,3.91,3.38,3.38,0,0,0,2.69,1.25,3.19,3.19,0,0,0,2.22-.82,4,4,0,0,0,1.15-2.52Zm-14.34,4.88V118.09h2.27v13.32Zm0-15.8v-2.56h2.27v2.56Zm-21.21,15.81V113h3.72l4.35,13c.4,1.22.7,2.13.88,2.73.21-.67.54-1.65,1-3l4.4-12.78h3.27v18.4h-2.41V116.09l-5.34,15.35h-2.22l-5.32-15.72v15.67H154Z"/><path class="d" d="M261.36,117.19V119h.79a1.2,1.2,0,0,0,.8-.23.82.82,0,0,0,.27-.67.8.8,0,0,0-.29-.68,1.64,1.64,0,0,0-.92-.21Zm3,4.71h-1l-.56-1.28a2.13,2.13,0,0,0-.44-.7.65.65,0,0,0-.48-.25h-.51v2.24h-.81v-5.38h1.56a2.43,2.43,0,0,1,1.46.38,1.28,1.28,0,0,1,.52,1.09,1.3,1.3,0,0,1-.36.94,1.78,1.78,0,0,1-1,.53.91.91,0,0,1,.44.31,2.79,2.79,0,0,1,.44.69Zm-5.82-2.65a3.72,3.72,0,1,0,1.09-2.65A3.62,3.62,0,0,0,258.54,119.25Zm-.52,0a4.07,4.07,0,0,1,1.28-3,4.27,4.27,0,1,1-1.28,3Z"/><path class="d" d="M478.07,154.39v1.28h.55a.93.93,0,0,0,.56-.15.61.61,0,0,0,.19-.48.53.53,0,0,0-.2-.47,1.1,1.1,0,0,0-.64-.14h-.46Zm2.06,3.26h-.68l-.4-.89a1.57,1.57,0,0,0-.31-.49.51.51,0,0,0-.34-.17h-.33v1.56h-.62v-3.74h1.08a1.7,1.7,0,0,1,1,.27.88.88,0,0,1,.36.75,1,1,0,0,1-.25.65,1.22,1.22,0,0,1-.69.36.66.66,0,0,1,.32.22,1.82,1.82,0,0,1,.31.47Zm-4.05-1.8a2.58,2.58,0,1,0,2.57-2.59,2.56,2.56,0,0,0-1.81.75,2.52,2.52,0,0,0-.74,1.85Zm-.37,0a2.88,2.88,0,0,1,.87-2.09,3,3,0,1,1-.85,2.1Z"/><path class="d" d="M472.68,158.85a6.94,6.94,0,0,0-4.05-1,6.64,6.64,0,0,0-5.65,3.2,14.46,14.46,0,0,0-2.23,8.42v16.78h-5.89V153h5.89v6.76h.08q2.57-7.34,8.72-7.34a8.61,8.61,0,0,1,3.1.45v6Zm-31.58,7.57a10.5,10.5,0,0,0-2.14-7A7.39,7.39,0,0,0,433,157a8.26,8.26,0,0,0-6.08,2.56,12.16,12.16,0,0,0-3.24,6.83H441.1Zm5.89,4.72H423.75a12,12,0,0,0,2.91,8.23,10.25,10.25,0,0,0,7.68,2.89,16.47,16.47,0,0,0,10.23-3.57V184q-4.4,3.11-11.64,3.09c-4.83,0-8.59-1.53-11.27-4.56s-4.05-7.28-4-12.68a18.26,18.26,0,0,1,4.44-12.61,14.14,14.14,0,0,1,11-5,12.79,12.79,0,0,1,10.17,4.22q3.68,4.2,3.67,11.74v3ZM414.8,153l-13.17,33.24h-6L383.1,153h6.39l8.12,23.76a21.29,21.29,0,0,1,1.18,4.78h.15a22.2,22.2,0,0,1,1.05-4.7L408.51,153h6.29Zm-35.17,5.84a6.94,6.94,0,0,0-4.05-1,6.64,6.64,0,0,0-5.65,3.2,14.46,14.46,0,0,0-2.23,8.42v16.78h-5.89V153h5.89v6.76h.13q2.57-7.34,8.72-7.34a8.61,8.61,0,0,1,3.1.45v6Zm-31.58,7.57a10.5,10.5,0,0,0-2.14-7A7.39,7.39,0,0,0,340,157a8.26,8.26,0,0,0-6.08,2.56,12.16,12.16,0,0,0-3.24,6.83h17.38Zm5.9,4.72H330.67a11.94,11.94,0,0,0,2.92,8.23,10.24,10.24,0,0,0,7.68,2.88,16.47,16.47,0,0,0,10.23-3.57v5.26q-4.38,3.1-11.64,3.09c-4.83,0-8.58-1.53-11.26-4.56s-4.05-7.28-4-12.68A18.13,18.13,0,0,1,329,157.18a14.14,14.14,0,0,1,11-5,12.76,12.76,0,0,1,10.23,4.23q3.66,4.2,3.67,11.74v3Zm-64.07,6.39a16.43,16.43,0,0,0,5.72,3.07,21.23,21.23,0,0,0,6.79,1.2q9.8,0,9.81-7a6.1,6.1,0,0,0-1.07-3.51,10,10,0,0,0-2.86-2.76,72.72,72.72,0,0,0-6.92-3.68q-7-3.48-9.23-6.49a11.09,11.09,0,0,1-2.22-6.84,10.78,10.78,0,0,1,4.65-9.19,19.42,19.42,0,0,1,11.72-3.41c4.63,0,8,.55,10.23,1.69v6.54a18.34,18.34,0,0,0-10.65-2.91,12.31,12.31,0,0,0-7,1.79,5.63,5.63,0,0,0-2.68,5,6.11,6.11,0,0,0,1.86,4.6,37.82,37.82,0,0,0,8,4.88q6.86,3.27,9.59,6.56a11.24,11.24,0,0,1,2.74,7.36,11,11,0,0,1-4.37,9.42q-4.46,3.28-12.37,3.28a32,32,0,0,1-6.39-.77,15.08,15.08,0,0,1-5.37-1.91v-6.89Zm-23.09,8.76H242.18v-46.6h6v41.25h18.59v5.33ZM195.27,163q0,8.46,4.32,13.56a14.07,14.07,0,0,0,11.27,5.11,14.72,14.72,0,0,0,11.74-4.85q4.23-4.9,4.23-13.67,0-9-4.15-13.93a14.22,14.22,0,0,0-11.41-4.94,14.48,14.48,0,0,0-11.51,5.12Q195.28,154.66,195.27,163Zm39.2,35.33a17.27,17.27,0,0,1-5.25.69,16.8,16.8,0,0,1-8.2-2.11q-3.84-2.1-10.69-9.89A19.6,19.6,0,0,1,195,180.41a24.29,24.29,0,0,1-6-16.88q0-11.33,6.12-18t16.68-6.63a20,20,0,0,1,15.48,6.53q6,6.51,5.95,17A27.62,27.62,0,0,1,229,178a19,19,0,0,1-11.88,8.15,29.81,29.81,0,0,0,6.62,5.75,13.27,13.27,0,0,0,10.8.74v5.69Zm-80.2-20.84a16.39,16.39,0,0,0,5.71,3.07,21.23,21.23,0,0,0,6.79,1.2q9.79,0,9.81-7a6,6,0,0,0-1.06-3.51,10.07,10.07,0,0,0-2.89-2.78,74.13,74.13,0,0,0-6.88-3.65q-7-3.49-9.25-6.49a11.15,11.15,0,0,1-2.18-6.82,10.78,10.78,0,0,1,4.65-9.2,19.49,19.49,0,0,1,11.77-3.4c4.62,0,8,.55,10.22,1.69v6.55a18.22,18.22,0,0,0-10.69-2.93,12.31,12.31,0,0,0-7,1.79,5.63,5.63,0,0,0-2.68,5,6.1,6.1,0,0,0,1.87,4.61,37.33,37.33,0,0,0,8,4.86q6.85,3.27,9.59,6.56a11.24,11.24,0,0,1,2.74,7.36,11,11,0,0,1-4.34,9.42q-4.45,3.28-12.37,3.28a32,32,0,0,1-6.39-.77,15.08,15.08,0,0,1-5.37-1.91v-6.89Z"/></svg>