<svg xmlns="http://www.w3.org/2000/svg" viewBox="0 0 150 150"><defs><style>.a{fill:#1930ab;}</style></defs><title>about_us_what_who_we_are_01</title><path class="a" d="M75,149a74,74,0,1,1,74-74A74.09,74.09,0,0,1,75,149ZM75,6.84A68.16,68.16,0,1,0,143.16,75,68.24,68.24,0,0,0,75,6.84Z"/><path d="M85.28,77.09c-.76,0-1.47,0-2.18,0a.92.92,0,0,0-.44.17c-.78.53-1.55,1.08-2.48,1.73.21.21.41.58.71.69a12.67,12.67,0,0,1,8.82,10.76c0,.07,0,.13,0,0a7.22,7.22,0,0,1,1.74,1.06,2.59,2.59,0,0,1,.59,1.61c0,6,0,11.94,0,17.92a2.29,2.29,0,0,1-2.46,2.43H60.46A2.3,2.3,0,0,1,57.94,111V93.56c0-1.8.56-2.5,2.17-2.85a37,37,0,0,1,1.18-3.9A12.39,12.39,0,0,1,69,79.75c.58-.2.58-.2.72-.83-.84-.59-1.66-1.18-2.49-1.75a1,1,0,0,0-.48-.08q-5.55,0-11.09,0l-.37,0a12.66,12.66,0,0,1-3.78,6.56,30.35,30.35,0,0,1-3.41,2.41,1,1,0,0,1-.83,0,13.2,13.2,0,0,1-7.54-11.84c-.08-2.05,0-4.12,0-6.33.73,0,1.43.06,2.13,0a10.17,10.17,0,0,0,5.22-2,.85.85,0,0,1,1.18,0A10.5,10.5,0,0,0,55.19,68l.45,0v6.75h9.81l-.63-2.17c-.3-.06-.65-.1-1-.17a4.54,4.54,0,0,1-3.1-6.55,2.37,2.37,0,0,0,.18-1.13,4.3,4.3,0,0,0-2.54-4,5.39,5.39,0,0,1-.79-.56A10.27,10.27,0,0,1,41.9,46.89a10.26,10.26,0,0,1,17,11.38l1.28.93c.15-.79.26-1.51.43-2.22a12.45,12.45,0,0,1,12-9.47,59.15,59.15,0,0,1,6.39.15A12.43,12.43,0,0,1,89.67,58.25c.07.59.12,1.18.19,1.87a23,23,0,0,1,2.62-1.71,3.07,3.07,0,0,0,1.91-3.52,47.27,47.27,0,0,1,0-4.91,2.29,2.29,0,0,1,2.47-2.48H101c-.86-2-2.37-2.43-4.27-2.26V43a6,6,0,0,1,5.63,2.24A6,6,0,0,1,108,43v2.22a4.2,4.2,0,0,0-3.32.89,14.36,14.36,0,0,0-1.1,1.4h4.13a2.32,2.32,0,0,1,2.61,2.63q0,4.23,0,8.46a2.3,2.3,0,0,1-2.54,2.56c-3.46,0-6.92,0-10.38,0a2.73,2.73,0,0,1-2.84-1.41l-5,3.3c-.06,0-.13.1-.14.16-.18,1.08-.8,2.18.16,3.2a12.53,12.53,0,1,1,13.06,21,12,12,0,0,1-11.32-.81A12.38,12.38,0,0,1,85.28,77.09ZM87,63.71l.34-1.63a10.18,10.18,0,0,0-8.58-12.16,48.48,48.48,0,0,0-6-.14,9.87,9.87,0,0,0-7.79,3.65C62.36,56.48,62,60,63.08,63.7l1.67-.33c.11-1.52-.23-3.12.66-4.55A4.26,4.26,0,0,1,69.3,56.7v2.11c-1.76.45-2.25,1.1-2.25,2.92,0,3.24,0,6.49,0,9.74a5.49,5.49,0,0,0,4.65,5.47,41.75,41.75,0,0,0,5.25.14,5.69,5.69,0,0,0,6-6q0-4.56,0-9.1V61.2h2.28v2.16Zm10.81,2A10.24,10.24,0,1,0,108,76,10.25,10.25,0,0,0,97.79,65.71ZM60.25,111.17H89.77v-12a1.81,1.81,0,0,0-.22.12,9.27,9.27,0,0,1-7.24,2.83c-1.27,0-2.55,0-3.89,0,0,.8,0,1.53,0,2.26a2.27,2.27,0,0,1-2.31,2.29q-1.06,0-2.13,0a2.28,2.28,0,0,1-2.38-2.37c0-.7,0-1.41,0-2.18-1.58,0-3.09,0-4.6,0a9,9,0,0,1-6.18-2.47l-.57-.53ZM78.48,99.81a49.49,49.49,0,0,0,5.17,0,6.51,6.51,0,0,0,5.77-4.59,15.12,15.12,0,0,0,.45-2.13H60.27a6.57,6.57,0,0,0,5.51,6.61,48.07,48.07,0,0,0,5.76,0c.48-1.69,1.09-2.14,3-2.14h1.14C77.38,97.57,78.07,98.11,78.48,99.81ZM53.38,70.29a1.1,1.1,0,0,0-.22-.11A12.85,12.85,0,0,1,48,68.39a.83.83,0,0,0-.63.06c-.73.33-1.42.77-2.18,1-1,.34-2,.55-3.13.84,0,1.32-.06,2.69,0,4.05a11.06,11.06,0,0,0,5.15,9.09.83.83,0,0,0,1.08,0,11.57,11.57,0,0,0,4.13-4.77C53.67,76,53.37,73.11,53.38,70.29ZM50,61.15a8,8,0,1,0-8-8A8,8,0,0,0,50,61.15ZM80.7,90.71c0-1,0-1.93,0-2.87,0-.44-.25-.51-.59-.51-3.41,0-6.82,0-10.22,0a.72.72,0,0,0-.54.44c0,1,0,1.93,0,2.92Zm-18.14,0h4.49c0-1.06,0-2.08,0-3.09a2.5,2.5,0,0,1,.72-1.93c.09-.1.23-.24.21-.34-.13-.78-.3-1.55-.48-2.42A10.62,10.62,0,0,0,62.56,90.7Zm20-7.67c-.12.54-.23,1.06-.34,1.58A1.31,1.31,0,0,0,82.45,86a2.81,2.81,0,0,1,.5,1.56c.08,1.06,0,2.12,0,3.2h4.38C87.5,88.16,84.9,84,82.51,83ZM96.68,54.36v4.46h4.47V54.36Zm6.81,4.47H108V54.36h-4.46Zm-2.34-9H96.69V52h4.46Zm2.34,0V52H108V49.8Zm-27.4,54.57V99.88H73.91v4.49ZM71.83,79.69l.08.26,2.85,1.42a.54.54,0,0,0,.39,0c1-.49,2-1,3-1.5l0-.24c-.22-.11-.45-.31-.67-.31-1.68,0-3.36,0-5,0C72.27,79.37,72.05,79.58,71.83,79.69Zm-7.09-14a2.23,2.23,0,1,0,0,4.46Zm20.54,4.48a2.24,2.24,0,0,0,2.24-2.37,2.18,2.18,0,0,0-2.24-2.08ZM69.63,81.92l.5,2.45,2.58-1.54C71.59,82.54,70.87,81.53,69.63,81.92Zm10.76,0c-1.23-.31-2,.63-3,1l2.56,1.53c.12-.59.21-1.05.31-1.51C80.26,82.58,80.31,82.3,80.39,81.88Zm-4,3.13c-1.14-1-1.64-1-2.63,0Zm8.18-10.2.77,0,.4-2.22c-.18,0-.42,0-.43,0C85,73.27,84.79,74,84.52,74.81Z"/><path d="M71.63,74.79V72.53h4.06a2.4,2.4,0,0,0,2.78-2.24h2.17a4.37,4.37,0,0,1-4,4.47C75,74.89,73.34,74.79,71.63,74.79Z"/><path d="M70.57,54.85l2-1L76,60.64l-2,1Z"/><path d="M76.25,54.84l2-1,3.41,6.81-2,1Z"/><path d="M71.59,64.55a1.13,1.13,0,1,1-1.15-1.12A1.15,1.15,0,0,1,71.59,64.55Z"/><path d="M79.58,63.43a1.14,1.14,0,1,1-1.15,1.12A1.15,1.15,0,0,1,79.58,63.43Z"/><path d="M94.35,70.26H96.6V68h2.31c0,.67,0,1.32,0,2a.8.8,0,0,0,.26.56,3.67,3.67,0,0,1,1.94,4.2h-2a5.84,5.84,0,0,0-.74-2c-.3-.34-1.08-.26-1.76-.39,0,.5,0,.84,0,1.19a1.15,1.15,0,0,0,1.14,1.2,3.42,3.42,0,0,1,3.4,3.75v3H98.91v2.27H96.63c0-.65,0-1.31,0-2,0-.2-.09-.51-.23-.58a3.72,3.72,0,0,1-2-4.21h2a5.88,5.88,0,0,0,.78,2c.3.34,1.08.24,1.72.35,0-.53,0-.9,0-1.27a1.15,1.15,0,0,0-1.18-1.1,3.41,3.41,0,0,1-3.36-3.71C94.35,72.36,94.35,71.35,94.35,70.26Z"/><path d="M53.43,49.74a2.38,2.38,0,0,1,2.24,2.65v1.42c0,1.74-.54,2.43-2.23,2.85-.4,1.67-1.1,2.22-2.85,2.22H49.24a2.37,2.37,0,0,1-2.71-2.2c-1.78-.5-2.24-1.12-2.24-3V52.56c0-1.74.54-2.43,2.22-2.85a2.41,2.41,0,0,1,2.78-2.21h1.42A2.39,2.39,0,0,1,53.43,49.74Zm-.09,4.6V52H51.1v-2.2H48.82v2.23h-2.2v2.29h2.23v2.2h2.29V54.34Z"/></svg>