<svg xmlns="http://www.w3.org/2000/svg" viewBox="0 0 150 150"><defs><style>.a{fill:#1930ab;}</style></defs><title>about_us_what_who_we_are_01</title><path class="a" d="M75,149a74,74,0,1,1,74-74A74.09,74.09,0,0,1,75,149ZM75,6.84A68.16,68.16,0,1,0,143.16,75,68.24,68.24,0,0,0,75,6.84Z"/><path d="M70,115.08a3.06,3.06,0,0,1-1.91-3.38c.08-1.06,0-2.13,0-3.33H66.42a2.64,2.64,0,0,1-2.77-2.52,22.49,22.49,0,0,1,0-3A2.64,2.64,0,0,1,65,100.73a1,1,0,0,0,.39-.74c0-1,0-2.09,0-3.13a.89.89,0,0,0-.63-1,25.58,25.58,0,0,1-9.42-7.35,26.89,26.89,0,0,1-.48-33.19,26.36,26.36,0,0,1,29.52-9.06,1.61,1.61,0,0,0,1.46-.07,1.8,1.8,0,0,1,2.16.41,14.53,14.53,0,0,1,1.11,1.11.77.77,0,0,0,1,.26.78.78,0,0,0,.53-.9,13.53,13.53,0,0,1,0-1.56,2,2,0,0,1,2.06-2c1.35,0,2.71,0,4.07,0a1.93,1.93,0,0,1,2,2,14.81,14.81,0,0,1,0,1.49.83.83,0,0,0,.55,1c.52.22.76,0,1.06-.33a13.13,13.13,0,0,1,1.06-1,1.92,1.92,0,0,1,2.81,0c1,1,2,2,3,3a2,2,0,0,1,0,2.75c-.34.37-.69.72-1,1.06s-.56.58-.33,1.13.61.53,1.06.52.94,0,1.41,0a2,2,0,0,1,2,1.91c0,1.44,0,2.87,0,4.31a2,2,0,0,1-2,1.95c-.5,0-1,0-1.49,0a.81.81,0,0,0-1,.57.76.76,0,0,0,.26,1A15.87,15.87,0,0,1,107.29,66a2,2,0,0,1,0,2.7c-1,1-2,2.08-3,3a7.12,7.12,0,0,1-1.79.84c-.06.66-.11,1.51-.21,2.36s-.6,1.28-1.33,1.19-1-.63-1-1.44c.08-1.2.15-2.4.2-3.6a4.71,4.71,0,0,0-.1-.82c-1.17.18-1.21.22-1.21,1.25,0,.47,0,.94,0,1.41a1.94,1.94,0,0,1-2,1.92c-1.38,0-2.77,0-4.15,0a2,2,0,0,1-2-1.94c0-.6,0-1.21,0-1.8a.84.84,0,0,0-1.38-.55,15.88,15.88,0,0,0-1.18,1.14,1.93,1.93,0,0,1-2.87,0c-1-1-2-2-3-3a2,2,0,0,1,0-2.7,12.7,12.7,0,0,1,1.15-1.17.84.84,0,0,0,.24-1.09c-.19-.48-.49-.51-.9-.5s-1.1,0-1.65,0a1.92,1.92,0,0,1-1.85-1.86c0-1.48,0-3,0-4.46a1.92,1.92,0,0,1,1.88-1.84q.78,0,1.56,0c.44,0,.77,0,1-.53a.84.84,0,0,0-.28-1.08,13.35,13.35,0,0,1-1-1,2,2,0,0,1,0-3,11.67,11.67,0,0,1,1.07-.91l-.09-.28c-1.28-.29-2.55-.66-3.84-.84A24.17,24.17,0,0,0,53.46,62.6a24,24,0,0,0,1.36,20.9A23.21,23.21,0,0,0,66.15,93.88a2.24,2.24,0,0,1,1.64,2.53c-.11,1.27,0,2.55,0,3.89H69.3V92l-.48-.1a1.9,1.9,0,0,1-1.68-1.85c0-1,0-2.09,0-3.13A1.92,1.92,0,0,1,69.07,85c1,0,1.93,0,2.9,0a2,2,0,0,1,2,1.94c0,1,0,2,0,3,0,1.18-.69,1.74-2.23,2v8.29h3.52v-9c0-.19,0-.37,0-.55,0-.86.47-1.37,1.18-1.36s1.15.52,1.16,1.38c0,1.26,0,2.51,0,3.76v5.82H80a3.18,3.18,0,0,0,.06-.43c0-2.72,0-5.43,0-8.14a1.81,1.81,0,0,0-.43-1.12c-2.79-2.86-5.61-5.68-8.42-8.51A.64.64,0,0,0,71,82c-1.82.85-2.14.79-3.58-.67-.46-.46-.93-.91-1.38-1.39a2,2,0,0,1,0-2.87c.65-.68,1.31-1.35,2-2a2,2,0,0,1,3,0c.54.5,1,1,1.55,1.55,1.31,1.33,1.35,2.17.13,3.63.18.19.36.4.56.6,2.59,2.61,5.17,5.24,7.79,7.82A4.22,4.22,0,0,1,82.41,92c0,2.48,0,5,0,7.44v.9H84v-13c-1.83-.37-2.26-.91-2.26-2.82,0-.7,0-1.41,0-2.11a2,2,0,0,1,2.11-2.12c.89,0,1.78,0,2.66,0a2,2,0,0,1,2.13,2.09c0,.76,0,1.52,0,2.27,0,1.76-.47,2.34-2.18,2.68v6.35c1.26-.79,2.45-1.43,3.53-2.21a23.8,23.8,0,0,0,7.34-8.51,9.84,9.84,0,0,1,.53-1,1.16,1.16,0,0,1,1.56-.46,1.12,1.12,0,0,1,.43,1.62,44,44,0,0,1-2.55,4.29,25.5,25.5,0,0,1-10.21,8.42,1,1,0,0,0-.7,1.12c.06,1,0,2,0,3a1,1,0,0,0,.4.73,2.89,2.89,0,0,1,1.4,2.55c0,.76,0,1.52,0,2.27a2.74,2.74,0,0,1-2.9,2.82H83.8c0,1.17-.06,2.27,0,3.35a3,3,0,0,1-1.94,3.36ZM93,45.89c.11,1.79.15,3.4-2,4.29s-3.19-.4-4.25-1.51l-2.6,2.39c1.39,1.16,2.48,2.33,1.63,4.42s-2.54,2-4.22,2v3.47c1.64,0,3.19-.18,4.1,1.71,1,2.15,0,3.45-1.47,4.65l2.48,2.51c1.16-1.28,2.23-2.5,4.37-1.6s2,2.56,1.93,4.26h3.5c-.13-1.83-.09-3.42,2-4.29s3.18.46,4.24,1.55l2.55-2.39c-1.29-1.19-2.49-2.3-1.61-4.41s2.5-2,4.25-2V57.42c-1.8.09-3.41.08-4.27-2s.4-3.21,1.65-4.39l-2.51-2.45c-1.12,1.22-2.19,2.49-4.33,1.61s-2-2.54-2-4.29ZM75.93,106h7.74c2.27,0,2.27,0,2.26-2.26,0-1,0-1.05-1.07-1.05H68.28c-2.39,0-2.37,0-2.34,2.43,0,.69.24.9.92.9C69.88,106,72.9,106,75.93,106Zm-5.45,5.63c-.1,1.08-.1,1.08.86,1.08h9.22c1,0,1,0,.8-1.08Zm0-2.44h11l0-.79H70.46ZM69.43,80l1.5-1.51L69.51,77.1,68,78.58Zm16.83,4.84V82.59c-.59,0-1.12,0-1.63,0a.67.67,0,0,0-.48.41c-.05.59,0,1.18,0,1.81ZM71.62,89.56V87.4H69.51v2.16Z"/><path d="M77.64,73.62V80c0,.23,0,.47,0,.7a1.18,1.18,0,0,1-1.22,1.24,1.14,1.14,0,0,1-1.11-1.26c0-2,0-4.06,0-6.09v-1c-.18-.05-.32-.1-.47-.13A2,2,0,0,1,73,71.41c0-.94,0-1.88,0-2.81a2,2,0,0,1,2.17-2.06c.91,0,1.82,0,2.73,0a1.94,1.94,0,0,1,2,1.91c0,.75,0,1.51,0,2.26C79.9,72.71,79.6,73.11,77.64,73.62Zm-.13-2.51V68.93H75.38v2.18Z"/><path d="M65.7,63.88H67A2,2,0,0,1,69.11,66q0,1.37,0,2.73A2,2,0,0,1,67,70.86c-.88,0-1.77,0-2.65,0a2,2,0,0,1-2.13-2.09c0-.91,0-1.83,0-2.74a2,2,0,0,1,2.23-2.15Zm1,2.39H64.62v2.2h2.11Z"/><path d="M71,61.85H69.57a1.94,1.94,0,0,1-2-2c0-1,0-2,0-3a1.9,1.9,0,0,1,1.87-1.91c1,0,2,0,3,0a1.94,1.94,0,0,1,2,1.93c0,1,0,2,0,3a2,2,0,0,1-2.09,2Zm1.12-4.56H70v2.17h2.1Z"/><path d="M77.63,37.75c0,.52,0,1,0,1.56a1.2,1.2,0,0,1-1.18,1.21,1.18,1.18,0,0,1-1.14-1.24q0-1.56,0-3.12a1.16,1.16,0,0,1,1.13-1.24,1.22,1.22,0,0,1,1.2,1.2.76.76,0,0,1,0,.15v1.48Z"/><path d="M43.8,70.09c-1-.13-2-.23-3-.38a1.19,1.19,0,0,1-1.15-1.3,1.2,1.2,0,0,1,1.43-1c1,.1,2,.22,3,.37A1.17,1.17,0,0,1,45.2,69,1.24,1.24,0,0,1,43.8,70.09Z"/><path d="M59.58,45.22c-.18.2-.4.66-.74.78a1.36,1.36,0,0,1-1.18-.21,24.76,24.76,0,0,1-2.11-3.25,1.31,1.31,0,0,1,.4-1.17c.3-.22,1.09-.27,1.25-.07.85,1.1,1.57,2.3,2.32,3.47C59.56,44.83,59.54,44.92,59.58,45.22Z"/><path d="M43.24,57.08c.47.16.74.24,1,.35.86.37,1.73.72,2.57,1.12a1.12,1.12,0,0,1,.65,1.54A1.08,1.08,0,0,1,46,60.7c-1-.39-2.06-.85-3.06-1.33A1,1,0,0,1,42.34,58C42.52,57.62,43,57.35,43.24,57.08Z"/><path d="M41.42,80.23c-.76,0-1.2-.3-1.33-.91A1,1,0,0,1,40.88,78c1.13-.27,2.28-.47,3.43-.63a1.15,1.15,0,0,1,.41,2.25C43.59,79.87,42.43,80.05,41.42,80.23Z"/><path d="M64.94,38c0-.85.27-1.26.85-1.41a1,1,0,0,1,1.3.58,36.73,36.73,0,0,1,1,3.58,1,1,0,0,1-.79,1.17A1,1,0,0,1,66,41.4C65.59,40.21,65.25,39,64.94,38Z"/><path d="M52.47,51.26c0,1-.94,1.67-1.68,1.15A28.55,28.55,0,0,1,48,50.06a1,1,0,0,1,0-1.43,1,1,0,0,1,1.39-.33c1,.77,2,1.65,3,2.51C52.42,50.93,52.44,51.18,52.47,51.26Z"/><path d="M44.58,90.44c-.42-.4-.91-.64-1-1a1.49,1.49,0,0,1,.33-1.29,20.27,20.27,0,0,1,3.31-1.7,1.32,1.32,0,0,1,1.18.44c.21.29.24,1.1,0,1.23C47.25,89,46,89.66,44.58,90.44Z"/><path d="M53.27,94.13c.26.21.71.4.82.72a1.38,1.38,0,0,1-.12,1.2,30.1,30.1,0,0,1-2.57,2.48,1,1,0,0,1-1.48-.12A1,1,0,0,1,49.79,97c.86-.93,1.81-1.77,2.75-2.63C52.67,94.25,52.92,94.24,53.27,94.13Z"/><path d="M86.68,59.21a8.11,8.11,0,0,1,10.43-7.83c.88.25,1.26.81,1,1.54s-.81,1-1.66.72a5.76,5.76,0,0,0-4.67.56,5.86,5.86,0,0,0-2.32,7.3,5.73,5.73,0,0,0,7.16,3.14A5.82,5.82,0,0,0,100.39,58c0-.23-.12-.46-.16-.69a1.17,1.17,0,0,1,.84-1.45,1.15,1.15,0,0,1,1.43.89A8.13,8.13,0,0,1,92,66.85,8.24,8.24,0,0,1,86.68,59.21Z"/><path d="M94.76,55.07a4.11,4.11,0,1,1-4.1,4.07A4.09,4.09,0,0,1,94.76,55.07Zm0,5.85a1.75,1.75,0,0,0,0-3.5,1.75,1.75,0,0,0,0,3.5Z"/></svg>