<svg xmlns="http://www.w3.org/2000/svg" viewBox="0 0 150 150"><defs><style>.a{fill:#1930ab;}</style></defs><title>about_us_what_who_we_are_01</title><path class="a" d="M75,149a74,74,0,1,1,74-74A74.09,74.09,0,0,1,75,149ZM75,6.84A68.16,68.16,0,1,0,143.16,75,68.24,68.24,0,0,0,75,6.84Z"/><path d="M60.81,109.55H47.16c-1.66,0-2.15-.49-2.15-2.12,0-1.2,0-2.39,0-3.59a8.68,8.68,0,0,1,4.06-7.35L49.8,96a6.21,6.21,0,0,1-1.24-5.32,6,6,0,0,1,2.19-3.42,6.08,6.08,0,0,1,7.84.28c2.37,2.13,2.62,5.2.67,8.42l2.56,2a11.74,11.74,0,0,1,7.79-6.58,9.73,9.73,0,0,1,.69-14.14,9.61,9.61,0,0,1,13,14.12A11.82,11.82,0,0,1,91.13,98l2.57-2c-2-3.26-1.71-6.37.8-8.53a6.08,6.08,0,0,1,7.84-.06c2.56,2.14,2.88,5.22.85,8.64.35.22.71.44,1,.69a8.83,8.83,0,0,1,3.72,7.15c0,1.16,0,2.33,0,3.5,0,1.64-.52,2.16-2.13,2.17H92.08v1.28c0,1.28-.55,1.81-1.86,1.84H63.44c-2.23,0-2.54-.3-2.58-2.5C60.85,110,60.83,109.82,60.81,109.55Zm28.09,0c0-2.59.1-5.09,0-7.58a8.09,8.09,0,0,0-7.37-7.61,79.94,79.94,0,0,0-9.79,0,8.12,8.12,0,0,0-7.65,7.61c-.18,2.48,0,5,0,7.48,0,0,0,.08.08.12h4.79v-1.42c0-.45,0-.9,0-1.35a1.55,1.55,0,1,1,3.1-.06,19.28,19.28,0,0,1,0,2.15c0,.61.19.76.77.76,2.5,0,5,0,7.49,0a5.8,5.8,0,0,0,.65-.07c0-.88,0-1.7,0-2.52,0-1.14.59-1.82,1.54-1.84s1.6.67,1.61,1.85c0,.84,0,1.68,0,2.54ZM70,84.62a6.45,6.45,0,1,0,6.4-6.46A6.47,6.47,0,0,0,70,84.62Zm30.26,21.76c0-.64,0-1.2,0-1.75a1.55,1.55,0,1,1,3.1,0c0,.58,0,1.15,0,1.77h.75l.6,0c.27-3,.09-5.78-2.82-7.34a6.88,6.88,0,0,0-7.41.27c-2.54,1.7-2.63,4.34-2.39,7.08h1.35c0-.54,0-1,0-1.54,0-1.13.59-1.8,1.56-1.81s1.55.66,1.58,1.8c0,.51,0,1,0,1.56Zm-39.51,0c.28-2.94.12-5.73-2.74-7.31a6.88,6.88,0,0,0-7.47.23C48,101,48,103.62,48.2,106.35h1.32c0-.6,0-1.15,0-1.7a1.57,1.57,0,1,1,3.14,0c0,.55,0,1.1,0,1.67h3.67c0-.58,0-1.1,0-1.63a1.57,1.57,0,1,1,3.14,0c0,.55,0,1.1,0,1.69ZM95.51,92.05a3,3,0,0,0,2.94,3,3,3,0,0,0,3-2.93,3,3,0,0,0-3-3A2.91,2.91,0,0,0,95.51,92.05Zm-41-2.9a2.92,2.92,0,0,0-3,2.87,3,3,0,1,0,5.91.15A2.94,2.94,0,0,0,54.54,89.15Z"/><path d="M106.69,73.24V71.16l-5-.77L99.14,70c-1.06-.17-1.43-.59-1.67-1.63-.31-1.34-.65-2.68-1-4s-.3-1.69.76-2.55L103,57.24l-1-1.79c-1.27.48-2.5,1-3.72,1.44s-2.32.92-3.48,1.36a1.68,1.68,0,0,1-2.14-.52q-1.55-1.6-3.15-3.14a1.67,1.67,0,0,1-.53-2.2c.92-2.36,1.86-4.73,2.81-7.14L90,44.2l-3.29,4.12-1.59,2a1.66,1.66,0,0,1-1.92.58l-4.68-1.25A1.62,1.62,0,0,1,77.2,48.2c-.34-2.33-.73-4.66-1-7-.07-.58-.25-.82-.83-.74a3.47,3.47,0,0,1-.72,0c-.5-.06-.67.14-.74.65-.33,2.34-.7,4.68-1.07,7-.16,1-.51,1.31-1.52,1.56-1.44.36-2.87.75-4.3,1.16a1.68,1.68,0,0,1-2.16-.65c-1.58-2-3.15-3.95-4.77-6l-1.79,1,.94,2.43c.62,1.58,1.25,3.15,1.86,4.74a1.67,1.67,0,0,1-.54,2.19c-1,1-2.09,2-3.09,3.1a1.73,1.73,0,0,1-2.27.53c-2.1-.82-4.21-1.62-6.28-2.49-.67-.28-1-.17-1.28.47a9.11,9.11,0,0,1-.57,1l4.62,3.68L53,62a1.69,1.69,0,0,1,.63,2.17c-.41,1.42-.78,2.86-1.13,4.3-.25,1-.66,1.39-1.83,1.57l-6.77,1c-.18,0-.36.08-.59.14v2l6.49,1,1.1.16A1.71,1.71,0,0,1,52.5,75.9c.36,1.44.73,2.87,1.14,4.3.31,1.06,0,1.94-.87,2.25a1.59,1.59,0,0,1-2.08-1.2c-.37-1.08-.71-2.17-1-3.27a.84.84,0,0,0-.84-.75q-3.59-.51-7.17-1.07c-1.16-.19-1.57-.7-1.58-1.9,0-1.36,0-2.71,0-4.07s.43-1.8,1.68-2c2.28-.35,4.56-.7,6.85-1,.61-.08,1-.22,1.1-1a4.56,4.56,0,0,1,.38-1.46c.3-.67.06-1-.48-1.45C47.83,61.93,46,60.47,44.23,59a1.61,1.61,0,0,1-.48-2.42c.69-1.23,1.4-2.44,2.11-3.66a1.61,1.61,0,0,1,2.33-.82c2.25.87,4.5,1.74,6.74,2.65A.78.78,0,0,0,56,54.52a2.13,2.13,0,0,1,.55-.57c1.21-.77,1.2-1.68.61-2.91-.85-1.8-1.49-3.69-2.22-5.54a1.71,1.71,0,0,1,.9-2.51l3.37-2c1.25-.72,1.81-.61,2.73.54,1.45,1.82,2.92,3.64,4.36,5.49a.78.78,0,0,0,1.05.33A5.23,5.23,0,0,1,68.75,47c.92-.07,1.19-.57,1.29-1.42.28-2.24.64-4.47,1-6.7a1.6,1.6,0,0,1,1.75-1.57c1.49,0,3,0,4.47,0A1.58,1.58,0,0,1,79,38.92c.36,2.38.74,4.77,1.07,7.16a.81.81,0,0,0,.74.83,13.81,13.81,0,0,1,1.91.52.71.71,0,0,0,.93-.31c1.47-1.88,3-3.74,4.46-5.61.84-1.06,1.43-1.18,2.61-.51l3.45,2A1.71,1.71,0,0,1,95,45.5c-.88,2.22-1.75,4.45-2.65,6.66a.71.71,0,0,0,.24,1,1.61,1.61,0,0,1,.46.44C94,55,95,55,96.42,54.28c1.73-.84,3.58-1.46,5.39-2.16a1.61,1.61,0,0,1,2.33.82c.71,1.21,1.41,2.43,2.11,3.66a1.62,1.62,0,0,1-.49,2.42c-1.82,1.47-3.64,2.93-5.49,4.36-.48.37-.71.7-.43,1.33a5.26,5.26,0,0,1,.42,1.6c.07.62.41.77.93.85,2.26.32,4.51.67,6.77,1,1.5.22,1.91.68,1.91,2.2,0,1.31,0,2.61,0,3.91a1.62,1.62,0,0,1-1.6,1.89c-2.33.37-4.67.75-7,1a1,1,0,0,0-1,.94,32.48,32.48,0,0,1-1,3.19,1.56,1.56,0,0,1-2.06,1.1,1.64,1.64,0,0,1-.88-2.18c.42-1.45.8-2.91,1.16-4.38a1.75,1.75,0,0,1,1.68-1.52C101.66,74,104.16,73.62,106.69,73.24Z"/><path d="M92.24,71.13c0,.26,0,.53,0,.79a1.55,1.55,0,0,1-3.09.08,29.88,29.88,0,0,0-.64-4.15A14.11,14.11,0,0,0,61,69.94c-.08.57-.1,1.16-.14,1.74-.07,1.14-.68,1.78-1.64,1.74a1.54,1.54,0,0,1-1.46-1.81c.27-7.06,3.58-12.28,9.9-15.34a17.24,17.24,0,0,1,24.53,13.9C92.22,70.49,92.22,70.81,92.24,71.13Z"/><path d="M104.83,37.35a6.26,6.26,0,1,1-6.27,6.27A6.22,6.22,0,0,1,104.83,37.35Zm3.14,6.3a3.15,3.15,0,1,0-3.19,3.1A3.17,3.17,0,0,0,108,43.65Z"/><path d="M49.86,45.18a4.66,4.66,0,0,1-4.71,4.69,4.71,4.71,0,1,1,4.71-4.69Zm-3.12,0a1.57,1.57,0,1,0-1.56,1.59A1.6,1.6,0,0,0,46.74,45.16Z"/><path d="M45.17,86A1.57,1.57,0,0,1,42,86a1.62,1.62,0,0,1,1.59-1.56A1.6,1.6,0,0,1,45.17,86Z"/><path d="M42,106.43a1.55,1.55,0,1,1-1.51-1.6A1.55,1.55,0,0,1,42,106.43Z"/><path d="M43.61,64a1.56,1.56,0,1,1,0-3.12,1.6,1.6,0,0,1,1.58,1.56A1.57,1.57,0,0,1,43.61,64Z"/><path d="M87.57,87.52a1.55,1.55,0,1,1,1.53,1.61A1.57,1.57,0,0,1,87.57,87.52Z"/><path d="M107.93,60.88a1.56,1.56,0,1,1-1.53,1.6A1.57,1.57,0,0,1,107.93,60.88Z"/><path d="M78.12,67.16a1.59,1.59,0,0,1-1.54-1.59,1.56,1.56,0,1,1,1.54,1.59Z"/><path d="M106.4,87.53a1.56,1.56,0,1,1,1.53,1.6A1.59,1.59,0,0,1,106.4,87.53Z"/><path d="M68.75,71.84a1.55,1.55,0,1,1,1.51-1.6A1.51,1.51,0,0,1,68.75,71.84Z"/></svg>