<svg width="878" height="720" xmlns="http://www.w3.org/2000/svg" xmlns:xlink="http://www.w3.org/1999/xlink" xml:space="preserve" overflow="hidden"><defs><clipPath id="clip0"><rect x="201" y="0" width="878" height="720"/></clipPath></defs><g clip-path="url(#clip0)" transform="translate(-201 0)"><path d="M6.58205 354.423C2.9247 358.937-0.28481 364.336 0.0201331 370.135 0.20084 373.582 1.63422 376.878 3.6544 379.675 12.513 391.928 30.2286 393.289 45.19 391.105 61.4649 388.728 77.3175 383.52 91.8306 375.782 102.339 370.175 113.281 361.126 112.765 349.224 112.666 346.986 112.115 344.708 110.79 342.899 109.72 341.44 108.209 340.37 106.681 339.403 76.2382 320.153 29.276 326.427 6.58205 354.423Z" fill="#F0F2F2" transform="matrix(1 0 0 1.00085 201 0)"/><path d="M152.144 473.765C152.144 478.308 131.853 481.986 106.822 481.986 81.7895 481.986 61.4954 478.308 61.4954 473.765 61.4954 469.223 81.7895 465.542 106.822 465.542 131.853 465.542 152.144 469.223 152.144 473.765Z" fill="#D3DFF2" transform="matrix(1 0 0 1.00085 201 0)"/><path d="M106.822 481.986C81.7895 481.986 61.4954 478.308 61.4954 473.763L61.4954 494.155C61.4954 498.695 81.7895 502.379 106.822 502.379 131.853 502.379 152.144 498.695 152.144 494.155L152.144 473.763C152.144 478.308 131.853 481.986 106.822 481.986Z" fill="#B1C4E6" transform="matrix(1 0 0 1.00085 201 0)"/><path d="M152.144 517.887C152.144 522.43 131.853 526.111 106.822 526.111 81.7895 526.111 61.4954 522.43 61.4954 517.887 61.4954 513.345 81.7895 509.664 106.822 509.664 131.853 509.664 152.144 513.345 152.144 517.887Z" fill="#D3DFF2" transform="matrix(1 0 0 1.00085 201 0)"/><path d="M106.822 526.108C81.7895 526.108 61.4954 522.427 61.4954 517.885L61.4954 538.272C61.4954 542.814 81.7895 546.496 106.822 546.496 131.853 546.496 152.144 542.814 152.144 538.272L152.144 517.885C152.144 522.427 131.853 526.108 106.822 526.108Z" fill="#B1C4E6" transform="matrix(1 0 0 1.00085 201 0)"/><path d="M152.144 562.008C152.144 566.548 131.853 570.232 106.822 570.232 81.7895 570.232 61.4954 566.548 61.4954 562.008 61.4954 557.467 81.7895 553.785 106.822 553.785 131.853 553.785 152.144 557.467 152.144 562.008Z" fill="#D3DFF2" transform="matrix(1 0 0 1.00085 201 0)"/><path d="M106.822 570.229C81.7895 570.229 61.4954 566.545 61.4954 562.005L61.4954 582.393C61.4954 586.936 81.7895 590.617 106.822 590.617 131.853 590.617 152.144 586.936 152.144 582.393L152.144 562.005C152.144 566.545 131.853 570.229 106.822 570.229Z" fill="#B1C4E6" transform="matrix(1 0 0 1.00085 201 0)"/><path d="M152.144 606.124C152.144 610.669 131.853 614.348 106.822 614.348 81.7895 614.348 61.4954 610.669 61.4954 606.124 61.4954 601.585 81.7895 597.904 106.822 597.904 131.853 597.904 152.144 601.585 152.144 606.124Z" fill="#D3DFF2" transform="matrix(1 0 0 1.00085 201 0)"/><path d="M106.822 614.35C81.7895 614.35 61.4954 610.671 61.4954 606.126L61.4954 626.519C61.4954 631.059 81.7895 634.742 106.822 634.742 131.853 634.742 152.144 631.059 152.144 626.519L152.144 606.126C152.144 610.671 131.853 614.35 106.822 614.35Z" fill="#B1C4E6" transform="matrix(1 0 0 1.00085 201 0)"/><path d="M518.855 328.865 603.085 328.865 603.085 336.961 518.855 336.961Z" fill="#1930AB" transform="matrix(1 0 0 1.00085 201 0)"/><path d="M518.855 348.858 582.228 348.858 582.228 356.952 518.855 356.952Z" fill="#01B4F0" transform="matrix(1 0 0 1.00085 201 0)"/><path d="M518.855 368.852 558.563 368.852 558.563 376.946 518.855 376.946Z" fill="#1930AB" transform="matrix(1 0 0 1.00085 201 0)"/><path d="M666.607 480.515C599.248 621.379 666.607 677.985 666.607 677.985 666.607 677.985 733.967 621.379 666.607 480.515Z" fill="#B1C4E6" transform="matrix(1 0 0 1.00085 201 0)"/><path d="M682.704 589.38C682.845 588.972 682.626 588.526 682.218 588.387 681.801 588.244 681.364 588.465 681.228 588.87L667.388 629.198 667.388 573.011 676.782 544.832C676.921 544.423 676.7 543.98 676.287 543.844 675.881 543.701 675.436 543.931 675.3 544.339L667.388 568.075 667.388 529.225C667.388 528.791 667.039 528.444 666.607 528.444 666.178 528.444 665.826 528.791 665.826 529.225L665.826 542.263 659.33 533.697C659.065 533.352 658.572 533.284 658.234 533.547 657.889 533.807 657.821 534.297 658.082 534.643L665.826 544.848 665.826 592.205 655.71 565.48C655.555 565.077 655.114 564.872 654.701 565.027 654.297 565.18 654.095 565.632 654.248 566.034L665.826 596.62 665.826 649.424 648.014 608.341C647.845 607.945 647.388 607.766 646.987 607.937 646.592 608.106 646.409 608.566 646.581 608.963L665.826 653.354 665.826 718.139C665.826 718.571 666.178 718.92 666.607 718.92 667.039 718.92 667.388 718.571 667.388 718.139L667.388 634.015 682.704 589.38Z" fill="#84A0D2" transform="matrix(1 0 0 1.00085 201 0)"/><path d="M695.471 681.594C695.471 681.594 754.377 685.993 791.343 562.355 687.888 596.472 695.471 681.594 695.471 681.594Z" fill="#84A0D2" transform="matrix(1 0 0 1.00085 201 0)"/><path d="M768.014 588.437C767.639 588.23 767.163 588.375 766.956 588.758 766.574 589.467 761.419 596.172 753.466 606.389 753.462 606.396 753.459 606.401 753.454 606.403 749.665 611.269 745.255 616.916 740.394 623.122L744.107 606.077C744.199 605.657 743.932 605.237 743.512 605.146 743.08 605.056 742.672 605.326 742.583 605.744L738.179 625.951C730.591 635.633 722.087 646.463 713.366 657.548L721.667 626.516C721.779 626.099 721.528 625.672 721.113 625.562 720.705 625.456 720.266 625.695 720.153 626.115L710.915 660.664C694.883 681.043 678.412 701.928 665.991 717.654 665.724 717.994 665.785 718.486 666.12 718.752 666.266 718.866 666.434 718.92 666.606 718.92 666.836 718.92 667.066 718.82 667.218 718.622 669.065 716.286 689.814 690.012 712.038 661.76 712.118 661.708 712.158 661.621 712.214 661.539 716.325 656.314 720.482 651.026 724.581 645.808L746.862 637.248C747.265 637.093 747.467 636.64 747.31 636.236 747.157 635.835 746.707 635.629 746.301 635.788L726.464 643.413C736.935 630.082 746.885 617.383 754.461 607.649L765.739 606.692C766.168 606.654 766.487 606.277 766.452 605.843 766.414 605.418 766.107 605.094 765.603 605.129L755.77 605.967C763.123 596.512 767.949 590.215 768.336 589.493 768.535 589.112 768.394 588.641 768.014 588.437Z" fill="#6584C2" transform="matrix(1 0 0 1.00085 201 0)"/><path d="M401.086 397.892 469.014 178.889 506.688 178.889 472.223 397.892 401.086 397.892Z" fill="#B1C4E6" transform="matrix(1 0 0 1.00085 201 0)"/><path d="M417.132 397.892 479.977 178.889 494.788 178.889 455.242 397.892 417.132 397.892Z" fill="#84A0D2" transform="matrix(1 0 0 1.00085 201 0)"/><path d="M487.449 142.792 659.047 75.1181 668.494 110.157 509.925 184.506 487.449 142.792Z" fill="#B1C4E6" transform="matrix(1 0 0 1.00085 201 0)"/><path d="M502.306 152.017 661.542 90.6491 663.719 97.8823 508.348 166.438 502.306 152.017Z" fill="#84A0D2" transform="matrix(1 0 0 1.00085 201 0)"/><path d="M524.07 174.359C524.07 194.582 507.676 210.977 487.452 210.977 467.228 210.977 450.831 194.582 450.831 174.359 450.831 154.135 467.228 137.738 487.452 137.738 507.676 137.738 524.07 154.135 524.07 174.359Z" fill="#D3DFF2" transform="matrix(1 0 0 1.00085 201 0)"/><path d="M504.816 174.359C504.816 183.95 497.043 191.725 487.45 191.725 477.859 191.725 470.084 183.95 470.084 174.359 470.084 164.768 477.859 156.993 487.45 156.993 497.043 156.993 504.816 164.768 504.816 174.359Z" fill="#FFFFFF" transform="matrix(1 0 0 1.00085 201 0)"/><path d="M716.365 84.371 696.412 83.3437 680.127 110.197 690.256 127.418 711.995 140.603 738.105 97.5538 716.365 84.371Z" fill="#7792CA" transform="matrix(1 0 0 1.00085 201 0)"/><path d="M716.365 84.371 690.256 127.418 711.995 140.603 738.105 97.5538 716.365 84.371Z" fill="#84A0D2" transform="matrix(1 0 0 1.00085 201 0)"/><path d="M738.104 97.5538 785.719 90.7547 810.534 125.395 801.579 131.507 777.42 106.359 727.401 115.199 738.104 97.5538Z" fill="#1930AB" transform="matrix(1 0 0 1.00085 201 0)"/><path d="M711.892 140.767 727.864 186.136 770.052 192.133 771.335 181.366 737.871 171.565 722.593 123.122 711.892 140.767Z" fill="#1930AB" transform="matrix(1 0 0 1.00085 201 0)"/><path d="M702.724 90.6491C702.724 104.235 691.709 115.248 678.122 115.248 664.536 115.248 653.521 104.235 653.521 90.6491 653.521 77.0607 664.536 66.0479 678.122 66.0479 691.709 66.0479 702.724 77.0607 702.724 90.6491Z" fill="#D3DFF2" transform="matrix(1 0 0 1.00085 201 0)"/><path d="M689.79 90.6491C689.79 97.0917 684.565 102.314 678.122 102.314 671.678 102.314 666.455 97.0917 666.455 90.6491 666.455 84.2045 671.678 78.9797 678.122 78.9797 684.565 78.9797 689.79 84.2045 689.79 90.6491Z" fill="#FFFFFF" transform="matrix(1 0 0 1.00085 201 0)"/><path d="M723.152 453.636 844.648 453.636 844.648 551.117 723.152 551.117Z" fill="#D3DFF2" transform="matrix(1 0 0 1.00085 201 0)"/><path d="M723.152 525.474 753.326 487.54 829.544 551.115 723.152 551.115 723.152 525.474Z" fill="#B1C4E6" transform="matrix(1 0 0 1.00085 201 0)"/><path d="M829.543 551.117 786.687 515.371 814.791 492.11 844.647 513.886 844.647 551.117 829.543 551.117Z" fill="#96B7D5" transform="matrix(1 0 0 1.00085 201 0)"/><path d="M803.203 479.934C803.203 487.887 796.756 494.334 788.802 494.334 780.849 494.334 774.399 487.887 774.399 479.934 774.399 471.98 780.849 465.533 788.802 465.533 796.756 465.533 803.203 471.98 803.203 479.934Z" fill="#FFFFFF" transform="matrix(1 0 0 1.00085 201 0)"/><path d="M634.124 275.859C614.466 275.859 598.526 259.919 598.526 240.259 598.526 220.596 614.466 204.659 634.124 204.659 653.787 204.659 669.724 220.596 669.724 240.259 669.724 259.919 653.787 275.859 634.124 275.859ZM698.035 240.259C698.035 237.748 697.873 235.278 697.591 232.84L717.806 224.455 711.115 203.857 689.837 208.952C687.393 204.614 684.462 200.586 681.112 196.952L692.538 178.286 675.015 165.556 660.797 182.183C656.342 180.135 651.617 178.575 646.683 177.592L644.956 155.789 623.295 155.789 621.568 177.592C616.632 178.575 611.909 180.135 607.454 182.183L593.238 165.556 575.715 178.286 587.138 196.952C583.786 200.586 580.858 204.614 578.416 208.952L557.136 203.857 550.443 224.455 570.659 232.84C570.378 235.278 570.216 237.748 570.216 240.259 570.216 242.769 570.378 245.239 570.659 247.675L550.443 256.06 557.136 276.661 578.416 271.563C580.858 275.903 583.786 279.929 587.138 283.566L575.715 302.229 593.238 314.961 607.454 298.332C611.909 300.383 616.632 301.943 621.568 302.926L623.295 324.728 644.956 324.728 646.683 302.926C651.617 301.943 656.342 300.383 660.797 298.332L675.015 314.961 692.538 302.229 681.112 283.566C684.462 279.929 687.393 275.903 689.837 271.563L711.115 276.661 717.806 256.06 697.591 247.675C697.873 245.239 698.035 242.769 698.035 240.259Z" fill="#D3DFF2" transform="matrix(1 0 0 1.00085 201 0)"/><path d="M634.124 204.659C653.787 204.659 669.724 220.596 669.724 240.259 669.724 259.919 653.787 275.857 634.124 275.857 614.466 275.857 598.526 259.919 598.526 240.259 598.526 220.596 614.466 204.659 634.124 204.659ZM634.124 291.332C662.334 291.332 685.199 268.466 685.199 240.259 685.199 212.051 662.334 189.186 634.124 189.186 605.919 189.186 583.051 212.051 583.051 240.259 583.051 268.466 605.919 291.332 634.124 291.332Z" fill="#B5CBE9" transform="matrix(1 0 0 1.00085 201 0)"/><path d="M763.217 254.784C756.064 254.784 750.264 248.986 750.264 241.833 750.264 234.68 756.064 228.88 763.217 228.88 770.373 228.88 776.17 234.68 776.17 241.833 776.17 248.986 770.373 254.784 763.217 254.784ZM790.275 241.833C790.275 240.77 790.207 239.724 790.087 238.692L798.646 235.142 795.812 226.421 786.805 228.58C785.77 226.741 784.529 225.037 783.11 223.498L787.948 215.594 780.529 210.205 774.509 217.244C772.625 216.377 770.624 215.716 768.533 215.301L767.804 206.069 758.633 206.069 757.901 215.301C755.813 215.716 753.812 216.377 751.925 217.244L745.907 210.205 738.489 215.594 743.324 223.498C741.905 225.037 740.666 226.741 739.632 228.58L730.622 226.421 727.788 235.142 736.347 238.692C736.227 239.724 736.162 240.77 736.162 241.833 736.162 242.896 736.227 243.942 736.347 244.972L727.788 248.524 730.622 257.245 739.632 255.086C740.666 256.923 741.905 258.629 743.324 260.165L738.489 268.07 745.907 273.459 751.925 266.42C753.812 267.289 755.813 267.948 757.901 268.365L758.633 277.595 767.804 277.595 768.533 268.365C770.624 267.948 772.625 267.289 774.509 266.42L780.529 273.459 787.948 268.07 783.11 260.165C784.529 258.629 785.77 256.923 786.805 255.086L795.812 257.245 798.646 248.524 790.087 244.972C790.207 243.942 790.275 242.896 790.275 241.833Z" fill="#C7D4ED" transform="matrix(1 0 0 1.00085 201 0)"/><path d="M763.217 228.88C770.373 228.88 776.17 234.68 776.17 241.833 776.17 248.986 770.373 254.784 763.217 254.784 756.064 254.784 750.264 248.986 750.264 241.833 750.264 234.68 756.064 228.88 763.217 228.88ZM763.217 261.737C774.211 261.737 783.122 252.825 783.122 241.833 783.122 230.839 774.211 221.929 763.217 221.929 752.223 221.929 743.312 230.839 743.312 241.833 743.312 252.825 752.223 261.737 763.217 261.737Z" fill="#B8C6DA" transform="matrix(1 0 0 1.00085 201 0)"/><path d="M737.422 396.78C719.418 396.78 704.82 382.185 704.82 364.178 704.82 346.177 719.418 331.579 737.422 331.579 755.429 331.579 770.021 346.177 770.021 364.178 770.021 382.185 755.429 396.78 737.422 396.78ZM737.422 302.605C703.417 302.605 675.848 330.174 675.848 364.178 675.848 398.185 703.417 425.752 737.422 425.752 771.429 425.752 798.996 398.185 798.996 364.178 798.996 330.174 771.429 302.605 737.422 302.605Z" fill="#1930AB" transform="matrix(1 0 0 1.00085 201 0)"/><path d="M737.422 302.605 737.422 331.579C751.196 331.579 762.948 340.131 767.725 352.206L793.818 339.509C784.304 317.796 762.65 302.605 737.422 302.605Z" fill="#01B4F0" transform="matrix(1 0 0 1.00085 201 0)"/><path d="M842.153 418.559C831.758 418.559 823.328 410.132 823.328 399.736 823.328 389.338 831.758 380.909 842.153 380.909 852.551 380.909 860.978 389.338 860.978 399.736 860.978 410.132 852.551 418.559 842.153 418.559ZM842.153 364.178C822.516 364.178 806.598 380.099 806.598 399.736 806.598 419.373 822.516 435.292 842.153 435.292 861.792 435.292 877.711 419.373 877.711 399.736 877.711 380.099 861.792 364.178 842.153 364.178Z" fill="#B1C4E6" transform="matrix(1 0 0 1.00085 201 0)"/><path d="M851.842 365.537C851.745 365.513 851.649 365.49 851.555 365.462 850.903 365.283 850.244 365.114 849.576 364.972 849.345 364.924 849.111 364.885 848.881 364.842 848.322 364.734 847.769 364.626 847.203 364.547 846.795 364.486 846.38 364.453 845.967 364.406 845.554 364.364 845.143 364.305 844.726 364.275 843.876 364.213 843.02 364.178 842.152 364.178 832.855 364.178 824.418 367.779 818.083 373.619 821.574 377.385 825.633 381.781 829.425 385.894 832.775 382.811 837.237 380.909 842.152 380.909 843.088 380.909 844.001 380.991 844.899 381.122 845.282 381.178 845.65 381.279 846.026 381.361 846.518 381.464 847.011 381.563 847.485 381.704 847.945 381.842 848.391 382.016 848.834 382.185 849.195 382.325 849.561 382.459 849.911 382.621 850.371 382.832 850.819 383.067 851.257 383.313 855.039 385.42 858.043 388.756 859.649 392.82L874.719 385.488C870.491 375.843 862.111 368.448 851.842 365.537Z" fill="#84A0D2" transform="matrix(1 0 0 1.00085 201 0)"/><path d="M355.738 257.029 401.068 257.029 401.068 258.934 355.738 258.934Z" fill="#4B5689" transform="matrix(1 0 0 1.00085 201 0)"/><path d="M352.932 276.734 401.865 276.734 401.865 278.252 352.932 278.252Z" fill="#4B5689" transform="matrix(1 0 0 1.00085 201 0)"/><path d="M352.932 266.772 401.865 266.772 401.865 268.29 352.932 268.29Z" fill="#4B5689" transform="matrix(1 0 0 1.00085 201 0)"/><path d="M353.019 226.257 401.952 226.257 401.952 227.775 353.019 227.775Z" fill="#4B5689" transform="matrix(1 0 0 1.00085 201 0)"/><path d="M359.048 233.706 395.951 233.706 395.951 235.125 359.048 235.125Z" fill="#4B5689" transform="matrix(1 0 0 1.00085 201 0)"/><path d="M359.048 346.859 395.951 346.859 395.951 348.279 359.048 348.279Z" fill="#4B5689" transform="matrix(1 0 0 1.00085 201 0)"/><path d="M352.932 353.63 401.865 353.63 401.865 355.148 352.932 355.148Z" fill="#4B5689" transform="matrix(1 0 0 1.00085 201 0)"/><path d="M355.738 304.296 401.068 304.296 401.068 306.202 355.738 306.202Z" fill="#4B5689" transform="matrix(1 0 0 1.00085 201 0)"/><path d="M358.012 323.999 394.246 323.999 394.246 325.521 358.012 325.521Z" fill="#4B5689" transform="matrix(1 0 0 1.00085 201 0)"/><path d="M352.932 314.04 401.865 314.04 401.865 315.56 352.932 315.56Z" fill="#4B5689" transform="matrix(1 0 0 1.00085 201 0)"/><path d="M402.945 362.484C401.434 362.484 400.206 361.257 400.206 359.747 400.206 350.043 388.626 344.823 376.361 339.295 363.049 333.296 349.286 327.098 349.286 313.852 349.286 300.617 363.051 294.419 376.361 288.424 388.626 282.902 400.206 277.687 400.206 267.99 400.206 258.291 388.626 253.073 376.361 247.55 363.051 241.554 349.286 235.353 349.286 222.116 349.286 220.603 350.514 219.376 352.027 219.376 353.54 219.376 354.765 220.603 354.765 222.116 354.765 231.813 366.347 237.033 378.611 242.556 391.92 248.553 405.685 254.753 405.685 267.99 405.685 281.227 391.92 287.425 378.611 293.419 366.347 298.94 354.765 304.158 354.765 313.852 354.765 323.555 366.347 328.778 378.611 334.3 391.92 340.302 405.685 346.503 405.685 359.747 405.685 361.257 404.46 362.484 402.945 362.484Z" fill="#768FC2" transform="matrix(1 0 0 1.00085 201 0)"/><path d="M352.027 362.484C350.514 362.484 349.286 361.257 349.286 359.747 349.286 346.503 363.051 340.302 376.361 334.3 388.626 328.778 400.206 323.555 400.206 313.852 400.206 304.158 388.626 298.94 376.361 293.419 363.051 287.425 349.286 281.227 349.286 267.99 349.286 254.753 363.051 248.553 376.361 242.556 388.626 237.033 400.206 231.813 400.206 222.116 400.206 220.603 401.434 219.376 402.945 219.376 404.46 219.376 405.685 220.603 405.685 222.116 405.685 235.353 391.92 241.554 378.611 247.55 366.347 253.073 354.765 258.291 354.765 267.99 354.765 277.687 366.347 282.902 378.611 288.424 391.92 294.419 405.685 300.617 405.685 313.852 405.685 327.098 391.922 333.296 378.611 339.295 366.347 344.823 354.765 350.043 354.765 359.747 354.765 361.257 353.54 362.484 352.027 362.484Z" fill="#84A0D2" transform="matrix(1 0 0 1.00085 201 0)"/><path d="M137.655 18.6069 332.88 18.6069 332.88 388.421 137.655 388.421Z" fill="#B1C4E6" transform="matrix(1 0 0 1.00085 201 0)"/><path d="M78.4086 0 310.245 0 310.245 369.814 78.4086 369.814Z" fill="#D3DFF2" transform="matrix(1 0 0 1.00085 201 0)"/><path d="M275.149 136.105C275.149 180.742 238.965 216.927 194.326 216.927 149.691 216.927 113.504 180.742 113.504 136.105 113.504 91.4706 149.691 55.284 194.326 55.284 238.965 55.284 275.149 91.4706 275.149 136.105Z" fill="#ECEDF7" transform="matrix(1 0 0 1.00085 201 0)"/><path d="M78.4086 0 310.245 0 310.245 27.9187 78.4086 27.9187Z" fill="#738AA5" transform="matrix(1 0 0 1.00085 201 0)"/><path d="M296.642 13.9596C296.642 16.5258 294.561 18.6069 291.994 18.6069 289.43 18.6069 287.349 16.5258 287.349 13.9596 287.349 11.3929 289.43 9.31181 291.994 9.31181 294.561 9.31181 296.642 11.3929 296.642 13.9596Z" fill="#1930AB" transform="matrix(1 0 0 1.00085 201 0)"/><path d="M277.125 13.9596C277.125 16.5258 275.046 18.6069 272.48 18.6069 269.913 18.6069 267.832 16.5258 267.832 13.9596 267.832 11.3929 269.913 9.31181 272.48 9.31181 275.046 9.31181 277.125 11.3929 277.125 13.9596Z" fill="#B1C4E6" transform="matrix(1 0 0 1.00085 201 0)"/><path d="M257.61 13.9596C257.61 16.5258 255.528 18.6069 252.964 18.6069 250.398 18.6069 248.317 16.5258 248.317 13.9596 248.317 11.3929 250.398 9.31181 252.964 9.31181 255.528 9.31181 257.61 11.3929 257.61 13.9596Z" fill="#FFFFFF" transform="matrix(1 0 0 1.00085 201 0)"/><path d="M135.081 321.533 253.572 321.533 253.572 324.597 135.081 324.597Z" fill="#FFFFFF" transform="matrix(1 0 0 1.00085 201 0)"/><path d="M135.081 336.452 253.572 336.452 253.572 339.518 135.081 339.518Z" fill="#B1C4E6" transform="matrix(1 0 0 1.00085 201 0)"/><path d="M135.081 351.371 253.572 351.371 253.572 354.438 135.081 354.438Z" fill="#FFFFFF" transform="matrix(1 0 0 1.00085 201 0)"/><path d="M131.98 277.827 256.674 277.827 256.674 307.618 131.98 307.618Z" fill="#1930AB" transform="matrix(1 0 0 1.00085 201 0)"/><path d="M221.907 178.889 166.747 178.889C144.321 178.889 126.14 197.069 126.14 219.496L126.14 262.319 262.513 262.319 262.513 219.496C262.513 197.069 244.335 178.889 221.907 178.889Z" fill="#D3DFF2" transform="matrix(1 0 0 1.00085 201 0)"/><path d="M238.559 183.741C237.4 185.217 229.135 198.101 232.497 262.319L262.513 262.319 262.513 222.858C262.513 205.79 252.772 191.028 238.559 183.741Z" fill="#FFFFFF" transform="matrix(1 0 0 1.00085 201 0)"/><path d="M150.094 183.741C135.884 191.028 126.14 205.79 126.14 222.858L126.14 262.319 156.159 262.319C159.519 198.101 151.253 185.217 150.094 183.741Z" fill="#FFFFFF" transform="matrix(1 0 0 1.00085 201 0)"/><path d="M220.677 247.879 167.976 247.879C166.36 247.879 165.046 246.568 165.046 244.949L165.046 213.105C165.046 211.486 166.36 210.174 167.976 210.174L220.677 210.174C222.294 210.174 223.608 211.486 223.608 213.105L223.608 244.949C223.608 246.568 222.296 247.879 220.677 247.879Z" fill="#84A0D2" transform="matrix(1 0 0 1.00085 201 0)"/><path d="M171.132 217.128 208.968 217.128 208.968 219.801 171.132 219.801Z" fill="#FFFFFF" transform="matrix(1 0 0 1.00085 201 0)"/><path d="M218.995 218.463C218.995 220.164 217.618 221.541 215.922 221.541 214.221 221.541 212.843 220.164 212.843 218.463 212.843 216.767 214.221 215.39 215.922 215.39 217.618 215.39 218.995 216.767 218.995 218.463Z" fill="#FFFFFF" transform="matrix(1 0 0 1.00085 201 0)"/><path d="M171.132 227.691 208.968 227.691 208.968 230.365 171.132 230.365Z" fill="#FFFFFF" transform="matrix(1 0 0 1.00085 201 0)"/><path d="M218.995 229.028C218.995 230.726 217.618 232.101 215.922 232.101 214.221 232.101 212.843 230.726 212.843 229.028 212.843 227.329 214.221 225.952 215.922 225.952 217.618 225.952 218.995 227.329 218.995 229.028Z" fill="#1930AB" transform="matrix(1 0 0 1.00085 201 0)"/><path d="M171.132 238.253 208.968 238.253 208.968 240.928 171.132 240.928Z" fill="#FFFFFF" transform="matrix(1 0 0 1.00085 201 0)"/><path d="M218.995 239.59C218.995 241.289 217.618 242.663 215.922 242.663 214.221 242.663 212.843 241.289 212.843 239.59 212.843 237.891 214.221 236.514 215.922 236.514 217.618 236.514 218.995 237.891 218.995 239.59Z" fill="#FFFFFF" transform="matrix(1 0 0 1.00085 201 0)"/><path d="M211.171 183.103 210.875 183.182C200.043 186.15 188.61 186.15 177.778 183.182L177.483 183.103 177.483 162.445 211.171 162.445 211.171 183.103Z" fill="#84A0D2" transform="matrix(1 0 0 1.00085 201 0)"/><path d="M153.196 149.065 165.046 150.614 165.046 113.085 153.196 114.634C148.849 115.201 145.594 118.908 145.594 123.293L145.594 140.406C145.594 144.79 148.849 148.497 153.196 149.065Z" fill="#AEC0E3" transform="matrix(1 0 0 1.00085 201 0)"/><path d="M150.357 148.166C151.227 148.612 152.177 148.931 153.196 149.065L153.665 149.126 153.665 114.573 153.196 114.634C152.177 114.768 151.227 115.086 150.357 115.53L150.357 148.166Z" fill="#D3DFF2" transform="matrix(1 0 0 1.00085 201 0)"/><path d="M228.354 80.8659 230.16 80.8659 230.16 127.192 228.354 127.192Z" fill="#D3DFF2" transform="matrix(1 0 0 1.00085 201 0)"/><path d="M232.098 78.3463C232.098 79.9157 230.824 81.19 229.257 81.19 227.687 81.19 226.415 79.9157 226.415 78.3463 226.415 76.7788 227.687 75.5051 229.257 75.5051 230.824 75.5051 232.098 76.7788 232.098 78.3463Z" fill="#FFFFFF" transform="matrix(1 0 0 1.00085 201 0)"/><path d="M235.458 149.065 223.608 150.614 223.608 113.085 235.458 114.634C239.807 115.201 243.062 118.908 243.062 123.293L243.062 140.406C243.062 144.79 239.807 148.497 235.458 149.065Z" fill="#AEC0E3" transform="matrix(1 0 0 1.00085 201 0)"/><path d="M238.299 148.166C237.428 148.612 236.476 148.931 235.46 149.065L234.988 149.126 234.988 114.573 235.46 114.634C236.476 114.768 237.428 115.086 238.299 115.53L238.299 148.166Z" fill="#D3DFF2" transform="matrix(1 0 0 1.00085 201 0)"/><path d="M232.098 129.525C232.098 150.384 215.187 172.301 194.326 172.301 173.468 172.301 156.558 150.384 156.558 129.525 156.558 108.665 173.468 91.7544 194.326 91.7544 215.187 91.7544 232.098 108.665 232.098 129.525Z" fill="#D3DFF2" transform="matrix(1 0 0 1.00085 201 0)"/><path d="M158.249 118.308C157.151 121.85 156.558 125.618 156.558 129.525 156.558 136.049 158.212 142.677 161.123 148.706 182.834 154.839 205.819 154.839 227.53 148.706 230.442 142.677 232.098 136.049 232.098 129.525 232.098 125.618 231.504 121.85 230.402 118.308 206.901 125.576 181.753 125.574 158.249 118.308Z" fill="#84A0D2" transform="matrix(1 0 0 1.00085 201 0)"/><path d="M178.919 136.607C178.919 139.136 177.525 141.187 175.81 141.187 174.092 141.187 172.701 139.136 172.701 136.607 172.701 134.078 174.092 132.028 175.81 132.028 177.525 132.028 178.919 134.078 178.919 136.607Z" fill="#FFFFFF" transform="matrix(1 0 0 1.00085 201 0)"/><path d="M215.952 136.607C215.952 139.136 214.561 141.187 212.843 141.187 211.129 141.187 209.735 139.136 209.735 136.607 209.735 134.078 211.129 132.028 212.843 132.028 214.561 132.028 215.952 134.078 215.952 136.607Z" fill="#FFFFFF" transform="matrix(1 0 0 1.00085 201 0)"/><path d="M107.691 262.319 280.965 262.319 280.965 266.063 107.691 266.063Z" fill="#FFFFFF" transform="matrix(1 0 0 1.00085 201 0)"/><path d="M118.849 56.3536C118.849 64.5885 112.171 71.2658 103.934 71.2658 95.6995 71.2658 89.0247 64.5885 89.0247 56.3536 89.0247 48.1191 95.6995 41.4418 103.934 41.4418 112.171 41.4418 118.849 48.1191 118.849 56.3536Z" fill="#B1C4E6" transform="matrix(1 0 0 1.00085 201 0)"/><path d="M288.557 65.1375C283.705 65.1375 279.774 61.2056 279.774 56.3536 279.774 51.502 283.705 47.5696 288.557 47.5696 293.409 47.5696 297.343 51.502 297.343 56.3536 297.343 61.2056 293.409 65.1375 288.557 65.1375ZM288.557 41.4418C280.322 41.4418 273.645 48.1191 273.645 56.3536 273.645 64.5885 280.322 71.2658 288.557 71.2658 296.792 71.2658 303.469 64.5885 303.469 56.3536 303.469 48.1191 296.792 41.4418 288.557 41.4418Z" fill="#B1C4E6" transform="matrix(1 0 0 1.00085 201 0)"/><path d="M103.205 56.3536 118.081 51.664C116.425 46.6666 112.209 42.8423 106.982 41.7561L103.205 56.3536Z" fill="#FFFFFF" transform="matrix(1 0 0 1.00085 201 0)"/><path d="M288.557 41.4418 288.557 47.5696C293.409 47.5696 297.343 51.502 297.343 56.3536L303.469 56.3536C303.469 48.1191 296.792 41.4418 288.557 41.4418Z" fill="#FFFFFF" transform="matrix(1 0 0 1.00085 201 0)"/><path d="M90.2425 233.439 93.8507 233.439 93.8507 247.076 90.2425 247.076Z" fill="#B1C4E6" transform="matrix(1 0 0 1.00085 201 0)"/><path d="M100.07 230.365 103.679 230.365 103.679 247.076 100.07 247.076Z" fill="#FFFFFF" transform="matrix(1 0 0 1.00085 201 0)"/><path d="M109.896 225.952 113.504 225.952 113.504 247.076 109.896 247.076Z" fill="#B1C4E6" transform="matrix(1 0 0 1.00085 201 0)"/><path d="M88.5999 230.147C88.2881 230.147 88.018 229.92 87.9714 229.605 87.9223 229.256 88.1639 228.934 88.511 228.885 88.6589 228.864 103.526 226.633 114.114 216.98 114.375 216.746 114.773 216.762 115.01 217.021 115.247 217.281 115.231 217.682 114.968 217.919 104.089 227.843 88.8415 230.119 88.6917 230.143 88.6589 230.145 88.6309 230.147 88.5999 230.147Z" fill="#FFFFFF" transform="matrix(1 0 0 1.00085 201 0)"/><path d="M271.848 251.654 269.528 250.868 273.96 236.726 282.507 244.602 288.083 226.107 296.64 234.316 302.024 225.371 304.093 226.722 297.147 238.258 289.259 230.692 283.71 249.099 275.126 241.195 271.848 251.654Z" fill="#FFFFFF" transform="matrix(1 0 0 1.00085 201 0)"/><path d="M129.871 132.485 101.844 132.485 101.844 76.2087 103.115 76.2087 103.115 131.214 129.871 131.214 129.871 132.485Z" fill="#FFFFFF" transform="matrix(1 0 0 1.00085 201 0)"/><path d="M286.809 132.485 258.783 132.485 258.783 131.214 285.54 131.214 285.54 76.2087 286.809 76.2087 286.809 132.485Z" fill="#FFFFFF" transform="matrix(1 0 0 1.00085 201 0)"/><path d="M286.809 217.45 285.54 217.45 285.54 162.443 258.783 162.443 258.783 161.173 286.809 161.173 286.809 217.45Z" fill="#FFFFFF" transform="matrix(1 0 0 1.00085 201 0)"/><path d="M103.115 217.45 101.844 217.45 101.844 161.173 129.871 161.173 129.871 162.443 103.115 162.443 103.115 217.45Z" fill="#FFFFFF" transform="matrix(1 0 0 1.00085 201 0)"/><path d="M438.636 126.352C438.636 99.351 415.912 77.6613 388.546 79.3642 364.822 80.8403 345.641 100.348 344.529 124.088 343.785 140.005 350.945 154.274 362.42 163.323 371.279 170.309 376.224 173.772 376.224 185.055L376.224 190.202 406.888 190.202 406.888 185.052C406.888 173.502 412.336 170.14 421.291 162.842 431.874 154.213 438.636 141.074 438.636 126.352Z" fill="#1930AB" transform="matrix(1 0 0 1.00085 201 0)"/><path d="M380.495 193.437 402.618 193.437 402.618 199.84 380.495 199.84Z" fill="#01B4F0" transform="matrix(1 0 0 1.00085 201 0)"/><path d="M386.299 199.84 396.814 199.84 396.814 206.245 386.299 206.245Z" fill="#1930AB" transform="matrix(1 0 0 1.00085 201 0)"/><path d="M351.041 83.6928 354.373 81.023 344.306 68.4526 340.972 71.12 351.041 83.6928ZM320.542 111.546 320.542 115.816 336.65 115.816 336.65 111.546 320.542 111.546ZM440.379 71.12 437.048 68.4526 426.978 81.023 430.312 83.6928 440.379 71.12ZM444.706 111.546 444.706 115.816 460.812 115.816 460.812 111.546 444.706 111.546ZM393.692 73.56 389.422 73.56 389.422 57.454 393.692 57.454 393.692 73.56Z" fill="#01B4F0" transform="matrix(1 0 0 1.00085 201 0)"/><path d="M391.545 139.022C391.509 139.022 391.477 139.019 391.439 139.014 391.115 138.979 390.836 138.773 390.705 138.477L385.59 127.08 379.42 136.964C379.216 137.295 378.817 137.457 378.444 137.377 378.061 137.293 377.775 136.978 377.724 136.593L373.822 106.042 368.293 136.64C368.212 137.079 367.832 137.398 367.385 137.398L359.138 137.398C358.629 137.398 358.216 136.985 358.216 136.476 358.216 135.967 358.629 135.554 359.138 135.554L366.615 135.554 373.071 99.8298C373.151 99.3814 373.536 99.0908 374.001 99.0716 374.458 99.0834 374.836 99.4261 374.892 99.8764L379.228 133.794 384.943 124.637C385.123 124.349 385.438 124.194 385.787 124.206 386.125 124.229 386.426 124.438 386.564 124.75L391.747 136.302 397.912 128.157C398.081 127.934 398.341 127.798 398.625 127.793 398.907 127.781 399.174 127.906 399.353 128.124L404.765 134.604 413.179 108.611C413.307 108.21 413.638 107.945 414.112 107.975 414.532 108.001 414.882 108.306 414.959 108.721L420.09 135.554 425.991 135.554C426.497 135.554 426.91 135.967 426.91 136.476 426.91 136.985 426.497 137.398 425.991 137.398L419.33 137.398C418.887 137.398 418.506 137.083 418.424 136.647L413.823 112.597 406.006 136.76C405.903 137.079 405.633 137.316 405.303 137.379 404.976 137.445 404.634 137.325 404.42 137.067L398.682 130.193 392.277 138.656C392.103 138.888 391.831 139.022 391.545 139.022Z" fill="#01B4F0" transform="matrix(1 0 0 1.00085 201 0)"/><path d="M373.553 658.603 438.263 658.603 438.263 701.122 373.553 701.122Z" fill="#86A4C4" transform="matrix(1 0 0 1.00085 201 0)"/><path d="M373.553 658.603 438.263 658.603 438.263 682.524 373.553 682.524Z" fill="#738AA5" transform="matrix(1 0 0 1.00085 201 0)"/><path d="M190.049 397.892 626.246 397.892 626.246 673.434 190.049 673.434Z" fill="#D3DFF2" transform="matrix(1 0 0 1.00085 201 0)"/><path d="M190.049 633.736 626.246 633.736 626.246 673.432 190.049 673.432Z" fill="#96B7D5" transform="matrix(1 0 0 1.00085 201 0)"/><path d="M312.453 701.123 503.842 701.123 503.842 717.968 312.453 717.968Z" fill="#96B7D5" transform="matrix(1 0 0 1.00085 201 0)"/><path d="M435.722 404.978 441.339 404.978 441.339 615.957 435.722 615.957Z" fill="#1930AB" transform="matrix(1 0 0 1.00085 201 0)"/><path d="M229.156 423.16 401.865 423.16 401.865 510.466 229.156 510.466Z" fill="#FFFFFF" transform="matrix(1 0 0 1.00085 201 0)"/><path d="M290.54 495.962C289.73 495.962 288.921 495.707 288.229 495.179L255.071 469.84C254.095 469.097 253.539 467.926 253.574 466.699 253.614 465.47 254.241 464.339 255.261 463.654L288.419 441.391C290.164 440.216 292.534 440.68 293.705 442.431 294.88 444.176 294.415 446.544 292.665 447.717L263.921 467.016 292.858 489.126C294.526 490.402 294.847 492.795 293.569 494.468 292.82 495.448 291.685 495.962 290.54 495.962Z" fill="#84A0D2" transform="matrix(1 0 0 1.00085 201 0)"/><path d="M344.529 495.962C343.301 495.962 342.095 495.371 341.361 494.275 340.188 492.528 340.655 490.163 342.403 488.99L371.146 469.688 342.213 447.581C340.54 446.302 340.219 443.911 341.497 442.238 342.778 440.573 345.169 440.251 346.837 441.527L379.997 466.863C380.973 467.607 381.529 468.778 381.492 470.007 381.454 471.234 380.828 472.367 379.807 473.052L346.647 495.315C345.997 495.753 345.258 495.962 344.529 495.962Z" fill="#84A0D2" transform="matrix(1 0 0 1.00085 201 0)"/><path d="M307.772 503.446C307.418 503.446 307.054 503.397 306.695 503.291 304.677 502.697 303.521 500.579 304.115 498.564L322.834 434.92C323.428 432.9 325.544 431.756 327.564 432.337 329.586 432.933 330.74 435.051 330.145 437.069L311.427 500.71C310.939 502.374 309.419 503.446 307.772 503.446Z" fill="#84A0D2" transform="matrix(1 0 0 1.00085 201 0)"/><path d="M233.168 556.189C220.56 556.189 210.303 566.444 210.303 579.052 210.303 591.66 220.56 601.915 233.168 601.915 245.774 601.915 256.028 591.66 256.028 579.052 256.028 566.444 245.774 556.189 233.168 556.189ZM233.168 609.535C216.358 609.535 202.685 595.862 202.685 579.052 202.685 562.242 216.358 548.569 233.168 548.569 249.975 548.569 263.651 562.242 263.651 579.052 263.651 595.862 249.975 609.535 233.168 609.535Z" fill="#96B7D5" transform="matrix(1 0 0 1.00085 201 0)"/><path d="M233.168 612.076C214.957 612.076 200.142 597.262 200.142 579.052 200.142 560.846 214.957 546.028 233.168 546.028 236.676 546.028 239.516 548.872 239.516 552.379 239.516 555.886 236.676 558.73 233.168 558.73 221.963 558.73 212.846 567.847 212.846 579.052 212.846 590.26 221.963 599.374 233.168 599.374 244.373 599.374 253.49 590.26 253.49 579.052 253.49 575.519 252.57 572.042 250.83 568.994 249.091 565.947 250.151 562.066 253.196 560.33 256.246 558.587 260.122 559.652 261.863 562.7 264.695 567.662 266.189 573.316 266.189 579.052 266.189 597.262 251.379 612.076 233.168 612.076Z" fill="#FFFFFF" transform="matrix(1 0 0 1.00085 201 0)"/><path d="M311.413 556.189C298.807 556.189 288.55 566.444 288.55 579.052 288.55 591.66 298.807 601.915 311.413 601.915 324.019 601.915 334.276 591.66 334.276 579.052 334.276 566.444 324.019 556.189 311.413 556.189ZM311.413 609.535C294.603 609.535 280.93 595.862 280.93 579.052 280.93 562.242 294.603 548.569 311.413 548.569 328.221 548.569 341.897 562.242 341.897 579.052 341.897 595.862 328.221 609.535 311.413 609.535Z" fill="#96B7D5" transform="matrix(1 0 0 1.00085 201 0)"/><path d="M311.413 612.076C293.202 612.076 278.389 597.262 278.389 579.052 278.389 560.846 293.202 546.028 311.413 546.028 317.419 546.028 323.301 547.659 328.425 550.746 331.428 552.555 332.397 556.457 330.588 559.464 328.777 562.468 324.873 563.434 321.87 561.627 318.726 559.734 315.111 558.73 311.413 558.73 300.206 558.73 291.091 567.847 291.091 579.052 291.091 590.26 300.206 599.374 311.413 599.374 320.131 599.374 327.869 593.832 330.665 585.581 331.789 582.259 335.4 580.488 338.717 581.605 342.039 582.733 343.82 586.339 342.694 589.661 338.149 603.069 325.579 612.076 311.413 612.076Z" fill="#1930AB" transform="matrix(1 0 0 1.00085 201 0)"/><path d="M389.656 556.189C377.05 556.189 366.796 566.444 366.796 579.052 366.796 591.66 377.05 601.915 389.656 601.915 402.262 601.915 412.519 591.66 412.519 579.052 412.519 566.444 402.262 556.189 389.656 556.189ZM389.656 609.535C372.849 609.535 359.173 595.862 359.173 579.052 359.173 562.242 372.849 548.569 389.656 548.569 406.466 548.569 420.139 562.242 420.139 579.052 420.139 595.862 406.466 609.535 389.656 609.535Z" fill="#96B7D5" transform="matrix(1 0 0 1.00085 201 0)"/><path d="M389.656 612.076C371.448 612.076 356.634 597.262 356.634 579.052 356.634 567.12 363.103 556.081 373.515 550.237 376.572 548.527 380.445 549.608 382.16 552.668 383.875 555.727 382.791 559.598 379.73 561.316 373.318 564.912 369.334 571.709 369.334 579.052 369.334 590.26 378.451 599.374 389.656 599.374 400.863 599.374 409.978 590.26 409.978 579.052 409.978 577.731 409.854 576.406 409.598 575.118 408.93 571.674 411.175 568.339 414.619 567.666 418.067 567.005 421.397 569.243 422.068 572.685 422.476 574.773 422.68 576.917 422.68 579.052 422.68 597.262 407.864 612.076 389.656 612.076Z" fill="#FFFFFF" transform="matrix(1 0 0 1.00085 201 0)"/><path d="M500.298 441.88C500.298 452.512 491.681 461.132 481.046 461.132 470.413 461.132 461.791 452.512 461.791 441.88 461.791 431.244 470.413 422.625 481.046 422.625 491.681 422.625 500.298 431.244 500.298 441.88Z" fill="#FFFFFF" transform="matrix(1 0 0 1.00085 201 0)"/><path d="M558.561 441.88C558.561 452.512 549.944 461.132 539.309 461.132 528.677 461.132 520.057 452.512 520.057 441.88 520.057 431.244 528.677 422.625 539.309 422.625 549.944 422.625 558.561 431.244 558.561 441.88Z" fill="#96B7D5" transform="matrix(1 0 0 1.00085 201 0)"/><path d="M616.824 441.88C616.824 452.512 608.207 461.132 597.572 461.132 586.94 461.132 578.32 452.512 578.32 441.88 578.32 431.244 586.94 422.625 597.572 422.625 608.207 422.625 616.824 431.244 616.824 441.88Z" fill="#FFFFFF" transform="matrix(1 0 0 1.00085 201 0)"/><path d="M463.665 468.351 498.43 468.351 498.43 472.63 463.665 472.63Z" fill="#EAF0F9" transform="matrix(1 0 0 1.00085 201 0)"/><path d="M459.387 477.709 502.706 477.709 502.706 481.986 459.387 481.986Z" fill="#EAF0F9" transform="matrix(1 0 0 1.00085 201 0)"/><path d="M521.929 468.351 556.691 468.351 556.691 472.63 521.929 472.63Z" fill="#EAF0F9" transform="matrix(1 0 0 1.00085 201 0)"/><path d="M517.652 477.709 560.97 477.709 560.97 481.986 517.652 481.986Z" fill="#EAF0F9" transform="matrix(1 0 0 1.00085 201 0)"/><path d="M580.192 468.351 614.955 468.351 614.955 472.63 580.192 472.63Z" fill="#EAF0F9" transform="matrix(1 0 0 1.00085 201 0)"/><path d="M575.915 477.709 619.234 477.709 619.234 481.986 575.915 481.986Z" fill="#EAF0F9" transform="matrix(1 0 0 1.00085 201 0)"/><path d="M459.387 502.041 610.468 502.041 610.468 610.873 459.388 610.873Z" fill="#FFFFFF" transform="matrix(1 0 0 1.00085 201 0)"/><path d="M491.852 513.542 600.308 513.542 600.308 518.356 491.852 518.356Z" fill="#96B7D5" transform="matrix(1 0 0 1.00085 201 0)"/><path d="M473.56 532.26 600.307 532.26 600.307 537.075 473.56 537.075Z" fill="#96B7D5" transform="matrix(1 0 0 1.00085 201 0)"/><path d="M473.56 550.974 600.307 550.974 600.307 555.789 473.56 555.789Z" fill="#96B7D5" transform="matrix(1 0 0 1.00085 201 0)"/><path d="M473.56 569.693 600.307 569.693 600.307 574.505 473.56 574.505Z" fill="#96B7D5" transform="matrix(1 0 0 1.00085 201 0)"/><path d="M473.56 588.01 587.054 588.01 587.054 593.223 473.56 593.223Z" fill="#96B7D5" transform="matrix(1 0 0 1.00085 201 0)"/><path d="M161.372 717.966 205.758 717.966C205.758 717.966 226.615 684.208 229.29 651.081 229.29 651.081 171.533 652.186 161.372 717.966Z" fill="#01B4F0" transform="matrix(1 0 0 1.00085 201 0)"/><path d="M146.397 583.733C116.981 648.978 133.561 717.968 133.561 717.968L173.471 717.968C189.314 659.677 146.397 583.733 146.397 583.733Z" fill="#1930AB" transform="matrix(1 0 0 1.00085 201 0)"/><path d="M150.406 710.497C150.376 710.497 150.345 710.495 150.315 710.493 149.789 710.441 149.407 709.976 149.456 709.451 152.623 676.631 147.504 621.08 147.452 620.524 147.403 619.999 147.788 619.534 148.311 619.487 148.813 619.442 149.301 619.82 149.35 620.346 149.399 620.907 154.535 676.636 151.354 709.634 151.307 710.127 150.892 710.497 150.406 710.497Z" fill="#FFFFFF" transform="matrix(1 0 0 1.00085 201 0)"/><path d="M184.901 710.497C184.774 710.497 184.643 710.472 184.521 710.415 184.038 710.207 183.817 709.643 184.028 709.163 190.813 693.589 212.897 665.581 213.833 664.398 214.164 663.984 214.765 663.918 215.173 664.244 215.588 664.567 215.657 665.168 215.33 665.579 215.103 665.867 192.463 694.575 185.772 709.923 185.619 710.284 185.267 710.497 184.901 710.497Z" fill="#FFFFFF" transform="matrix(1 0 0 1.00085 201 0)"/><path d="M87.854 460.062 85.9468 460.062 85.9468 442.565 48.9834 442.565 48.9834 440.659 87.854 440.659 87.854 460.062Z" fill="#84A0D2" transform="matrix(1 0 0 1.00085 201 0)"/><path d="M107.775 458.056 105.868 458.056 105.868 412.98 163.432 412.98 163.432 414.887 107.775 414.887 107.775 458.056Z" fill="#84A0D2" transform="matrix(1 0 0 1.00085 201 0)"/><path d="M127.295 460.062 125.39 460.062 125.39 440.659 147.12 440.659 147.12 442.565 127.295 442.565 127.295 460.062Z" fill="#84A0D2" transform="matrix(1 0 0 1.00085 201 0)"/><path d="M41.8209 441.863C41.8209 444.256 39.8758 446.198 37.4829 446.198 35.0876 446.198 33.145 444.256 33.145 441.863 33.145 439.465 35.0876 437.525 37.4829 437.525 39.8758 437.525 41.8209 439.465 41.8209 441.863Z" fill="#1930AB" transform="matrix(1 0 0 1.00085 201 0)"/><path d="M176.859 413.717C176.859 416.11 174.918 418.052 172.523 418.052 170.13 418.052 168.188 416.11 168.188 413.717 168.188 411.321 170.13 409.379 172.523 409.379 174.918 409.379 176.859 411.321 176.859 413.717Z" fill="#1930AB" transform="matrix(1 0 0 1.00085 201 0)"/><path d="M160.014 441.863C160.014 444.256 158.073 446.198 155.68 446.198 153.283 446.198 151.342 444.256 151.342 441.863 151.342 439.465 153.283 437.525 155.68 437.525 158.073 437.525 160.014 439.465 160.014 441.863Z" fill="#1930AB" transform="matrix(1 0 0 1.00085 201 0)"/></g></svg>