<svg width="610" height="720" xmlns="http://www.w3.org/2000/svg" xmlns:xlink="http://www.w3.org/1999/xlink" xml:space="preserve" overflow="hidden"><defs><clipPath id="clip0"><rect x="335" y="0" width="610" height="720"/></clipPath></defs><g clip-path="url(#clip0)" transform="translate(-335 0)"><path d="M400.744 634.078C400.744 634.078 491.581 589.348 507.203 566.017 522.824 542.688 499.86 541.366 499.86 541.366 499.86 541.366 540.396 501.992 534.693 485.416 528.99 468.842 507.992 484.043 507.992 484.043 507.992 484.043 534.056 426.096 521.767 420.272 498.875 409.422 466.762 471.769 466.762 471.769 466.762 471.769 473.664 444.684 457.901 445.564 434.128 446.893 435.11 508.159 435.11 508.159 435.11 508.159 432.425 484.667 418.097 492.298 392.39 505.99 400.744 634.078 400.744 634.078" fill="#0E2277" transform="matrix(1 0 0 1.00074 335 0)"/><path d="M412.924 482.825C424.113 476.624 435.256 494.747 435.256 494.747 435.256 494.747 434.128 446.895 457.899 445.567 473.663 444.687 466.761 471.771 466.761 471.771 466.761 471.771 498.875 409.425 521.766 420.274L400.639 633.086C399.784 618.224 390.76 495.108 412.924 482.825" fill="#1930AB" transform="matrix(1 0 0 1.00074 335 0)"/><path d="M403.092 634.632C403.092 634.632 477.384 643.848 496.62 635.636 515.856 627.425 502.07 617.28 502.07 617.28 502.07 617.28 543.373 609.172 546.56 596.519 549.747 583.865 530.694 584.873 530.694 584.873 530.694 584.873 570.298 559.259 565.003 550.639 555.14 534.582 509.743 560.437 509.743 560.437 509.743 560.437 525.066 546.345 514.877 540.497 499.509 531.679 475.195 570.291 475.195 570.291 475.195 570.291 476.705 560.774 464.662 559.718 443.057 557.826 403.092 634.632 403.092 634.632" fill="#0E2277" transform="matrix(1 0 0 1.00074 335 0)"/><path d="M464.176 552.806C476.217 553.86 475.195 570.294 475.195 570.294 475.195 570.294 499.949 524.523 515.317 533.342 525.507 539.189 513.45 558.396 513.45 558.396 513.45 558.396 555.14 534.585 565.003 550.642L402.866 634.225C408.379 624.608 443.995 551.037 464.176 552.806" fill="#1930AB" transform="matrix(1 0 0 1.00074 335 0)"/><path d="M208.894 631.742C208.894 631.742 118.058 587.012 102.436 563.681 86.8147 540.352 109.779 539.03 109.779 539.03 109.779 539.03 69.2422 499.657 74.9449 483.081 80.6483 466.505 101.93 482.344 101.93 482.344 101.93 482.344 75.5821 423.761 87.8727 417.936 110.764 407.086 142.876 469.433 142.876 469.433 142.876 469.433 135.975 442.347 151.738 443.228 175.51 444.556 174.528 505.823 174.528 505.823 174.528 505.823 177.213 482.332 191.541 489.963 217.249 503.653 208.894 631.742 208.894 631.742" fill="#0E2277" transform="matrix(1 0 0 1.00074 335 0)"/><path d="M196.714 480.487C185.526 474.287 174.382 492.41 174.382 492.41 174.382 492.41 175.51 444.556 151.738 443.23 135.974 442.349 142.876 469.434 142.876 469.434 142.876 469.434 110.764 407.087 87.8727 417.937L208.999 630.748C209.855 615.886 218.878 492.77 196.714 480.487" fill="#1930AB" transform="matrix(1 0 0 1.00074 335 0)"/><path d="M206.548 632.295C206.548 632.295 132.255 641.51 113.02 633.298 93.7839 625.085 107.569 614.941 107.569 614.941 107.569 614.941 66.266 606.834 63.0786 594.181 59.8925 581.527 79.61 582.769 79.61 582.769 79.61 582.769 39.3408 556.921 44.6366 548.301 54.4998 532.244 99.8968 558.1 99.8968 558.1 99.8968 558.1 84.5729 544.008 94.7624 538.159 110.129 529.34 134.445 567.952 134.445 567.952 134.445 567.952 132.935 558.435 144.976 557.381 166.582 555.487 206.548 632.295 206.548 632.295" fill="#0E2277" transform="matrix(1 0 0 1.00074 335 0)"/><path d="M143.709 544.492C131.667 545.546 131.855 557.228 131.855 557.228 131.855 557.228 109.69 522.183 94.3225 531.003 84.1322 536.85 96.1887 556.057 96.1887 556.057 96.1887 556.057 54.4998 532.245 44.6361 548.303L206.772 631.885C201.261 622.269 163.89 542.722 143.709 544.492" fill="#1930AB" transform="matrix(1 0 0 1.00074 335 0)"/><path d="M442.194 96.6016C441.636 99.2207 441.129 101.931 439.764 104.125 437.417 106.958 435.201 109.88 433.097 112.877 434.543 112.773 436.001 112.707 437.472 112.707 451.952 112.707 465.424 117.799 475.408 127.044 484.332 135.308 489.246 145.901 489.246 156.869 489.246 167.837 484.332 178.43 475.408 186.694 465.424 195.939 451.952 201.032 437.472 201.032 423.032 201.032 409.593 195.965 399.618 186.765 398.891 188.912 398.167 191.046 397.443 193.19 392.561 195.662 389.131 201.482 389.131 208.268 389.131 217.297 395.199 224.615 402.682 224.615 408.567 224.615 413.561 220.081 415.433 213.756 422.318 216.047 429.734 217.311 437.472 217.311 473.52 217.311 502.742 190.25 502.742 156.869 502.742 124.96 476.035 98.8448 442.194 96.6016" fill="#00A2CE" transform="matrix(1 0 0 1.00074 335 0)"/><path d="M149.483 96.6016C150.042 99.2207 150.549 101.931 151.912 104.125 154.26 106.958 156.476 109.88 158.581 112.877 157.134 112.773 155.676 112.707 154.205 112.707 139.726 112.707 126.254 117.799 116.27 127.044 107.345 135.308 102.43 145.901 102.43 156.869 102.43 167.837 107.345 178.43 116.27 186.694 126.254 195.939 139.726 201.032 154.205 201.032 168.646 201.032 182.084 195.965 192.06 186.765 192.787 188.912 193.51 191.046 194.233 193.19 199.115 195.662 202.546 201.482 202.546 208.268 202.546 217.297 196.48 224.615 188.996 224.615 183.11 224.615 178.116 220.081 176.244 213.756 169.359 216.047 161.945 217.311 154.205 217.311 118.158 217.311 88.9354 190.25 88.9354 156.869 88.9354 124.96 115.643 98.8448 149.483 96.6016" fill="#00A2CE" transform="matrix(1 0 0 1.00074 335 0)"/><path d="M451.584 89.7188 451.584 106.406C451.584 181.821 390.355 242.97 314.843 242.97 280.062 242.51 256.2 246.1 223.179 231.498 175.599 210.661 141.346 162.914 141.346 106.406L141.346 89.7188 451.584 89.7188Z" fill="#01B4F0" transform="matrix(1 0 0 1.00074 335 0)"/><path d="M223.177 231.499C223.212 231.513 223.246 231.53 223.281 231.544L272.434 89.7192 221.267 89.7192 181.868 203.416C193.768 215.188 207.775 224.753 223.177 231.499" fill="#63DBFC" transform="matrix(1 0 0 1.00074 335 0)"/><path d="M255.156 241.068 307.023 89.7188 281.319 89.7188 231.574 234.9C239.821 237.933 247.563 239.857 255.156 241.068" fill="#63DBFC" transform="matrix(1 0 0 1.00074 335 0)"/><path d="M176.883 198.22 215.672 89.719 203.453 89.719 168.358 187.89C171.035 191.475 173.88 194.923 176.883 198.22" fill="#63DBFC" transform="matrix(1 0 0 1.00074 335 0)"/><path d="M438.038 80.2603 155.67 80.2603C145.363 80.2603 136.963 85.9874 136.37 93.2052L457.336 93.2052C456.744 85.9874 448.343 80.2603 438.037 80.2603" fill="#00A2CE" transform="matrix(1 0 0 1.00074 335 0)"/><path d="M244.037 238.974 260.014 320.884 329.876 320.884 349.669 238.974 244.037 238.974Z" fill="#01B4F0" transform="matrix(1 0 0 1.00074 335 0)"/><path d="M349.674 238.981 345.207 257.464 247.65 257.464 244.04 238.981 349.674 238.981Z" fill="#03687F" transform="matrix(1 0 0 1.00074 335 0)"/><path d="M349.674 422.214 244.04 422.214 251.958 381.557 260.007 340.302 329.882 340.302 339.856 381.557 349.674 422.214Z" fill="#01B4F0" transform="matrix(1 0 0 1.00074 335 0)"/><path d="M349.674 422.214 244.04 422.214 251.958 381.557 339.856 381.557 349.674 422.214Z" fill="#03687F" transform="matrix(1 0 0 1.00074 335 0)"/><path d="M342.132 320.883 247.758 320.883C243.594 320.883 240.22 324.255 240.22 328.412L240.22 332.772C240.22 336.931 243.594 340.301 247.758 340.301L342.132 340.301C346.295 340.301 349.67 336.931 349.67 332.772L349.67 328.412C349.67 324.255 346.295 320.883 342.132 320.883" fill="#63DBFC" transform="matrix(1 0 0 1.00074 335 0)"/><path d="M357.458 416.671 232.688 416.671 232.688 395.941C232.688 392.618 235.385 389.924 238.713 389.924L351.434 389.924C354.761 389.924 357.458 392.618 357.458 395.941L357.458 416.671Z" fill="#01B4F0" transform="matrix(1 0 0 1.00074 335 0)"/><path d="M398.691 432.66 398.691 440.797 191.453 440.797 191.453 432.66C191.453 423.284 197.183 415.674 204.244 415.674L385.9 415.674C392.961 415.674 398.691 423.284 398.691 432.66" fill="#01B4F0" transform="matrix(1 0 0 1.00074 335 0)"/><path d="M240.244 415.674 233.688 440.798 225.039 440.798 231.596 415.674 240.244 415.674Z" fill="#63DBFC" transform="matrix(1 0 0 1.00074 335 0)"/><path d="M227.862 415.674 221.307 440.798 212.646 440.798 219.213 415.674 227.862 415.674Z" fill="#63DBFC" transform="matrix(1 0 0 1.00074 335 0)"/><path d="M251.254 415.674 244.698 440.798 236.038 440.798 242.606 415.674 251.254 415.674Z" fill="#63DBFC" transform="matrix(1 0 0 1.00074 335 0)"/><path d="M475.854 626.687 475.854 634.824 128.585 634.824 128.585 626.687C128.585 617.309 138.187 609.7 150.018 609.7L454.42 609.7C466.252 609.7 475.854 617.309 475.854 626.687" fill="#01B4F0" transform="matrix(1 0 0 1.00074 335 0)"/><path d="M210.346 609.698 199.359 634.822 184.866 634.822 195.853 609.698 210.346 609.698Z" fill="#63DBFC" transform="matrix(1 0 0 1.00074 335 0)"/><path d="M189.595 609.698 178.609 634.822 164.098 634.822 175.103 609.698 189.595 609.698Z" fill="#63DBFC" transform="matrix(1 0 0 1.00074 335 0)"/><path d="M228.794 609.698 217.808 634.822 203.297 634.822 214.301 609.698 228.794 609.698Z" fill="#63DBFC" transform="matrix(1 0 0 1.00074 335 0)"/><path d="M385.316 223.499 385.316 229.639C385.316 240.274 376.695 248.885 366.062 248.885L226.95 248.885C216.301 248.885 207.68 240.274 207.68 229.639L207.68 223.499 385.316 223.499Z" fill="#01B4F0" transform="matrix(1 0 0 1.00074 335 0)"/><path d="M427.669 609.698 166.34 609.698 169.526 440.802 424.165 440.802 427.67 609.698Z" fill="#00A2CE" transform="matrix(1 0 0 1.00074 335 0)"/><path d="M339.04 604.619 318.318 570.827 287.863 596.224 319.198 405.671 370.375 414.065 339.04 604.62Z" fill="#03687F" transform="matrix(1 0 0 1.00074 335 0)"/><path d="M433.706 596.131 403.193 570.804 382.55 604.643 350.774 414.16 401.931 405.65 433.706 596.131Z" fill="#03687F" transform="matrix(1 0 0 1.00074 335 0)"/><path d="M475.854 449.532C475.854 460.542 466.135 469.881 462.905 479.815 459.557 490.11 461.808 503.349 455.563 511.917 449.257 520.573 435.912 522.496 427.246 528.795 418.665 535.031 412.743 547.148 402.436 550.491 392.49 553.716 380.613 547.495 369.591 547.495 358.568 547.495 346.691 553.716 336.745 550.49 326.438 547.148 320.515 535.031 311.935 528.794 303.27 522.496 289.923 520.571 283.617 511.917 277.373 503.349 279.624 490.109 276.277 479.814 273.047 469.881 263.328 460.541 263.328 449.532 263.328 438.524 273.047 429.183 276.277 419.251 279.625 408.956 277.374 395.717 283.617 387.147 289.924 378.493 303.27 376.569 311.936 370.27 320.516 364.034 326.438 351.917 336.745 348.574 346.692 345.349 358.568 351.57 369.591 351.57 380.613 351.57 392.49 345.35 402.436 348.574 412.744 351.917 418.667 364.034 427.247 370.27 435.912 376.569 449.258 378.494 455.565 387.147 461.808 395.717 459.558 408.956 462.905 419.251 466.135 429.183 475.854 438.524 475.854 449.532" fill="#63DBFC" transform="matrix(1 0 0 1.00074 335 0)"/><path d="M396.071 543.718C392.729 543.718 388.842 542.865 384.727 541.962 379.869 540.897 374.844 539.795 369.591 539.795 364.335 539.795 359.31 540.897 354.452 541.962 350.337 542.865 346.45 543.717 343.107 543.717 341.572 543.717 340.27 543.538 339.125 543.166 334.876 541.789 331.065 537.466 327.03 532.889 323.835 529.265 320.53 525.518 316.472 522.568 312.358 519.578 307.731 517.568 303.254 515.624 297.687 513.206 292.428 510.922 289.852 507.387 287.319 503.91 286.762 498.236 286.171 492.228 285.692 487.354 285.197 482.315 283.611 477.436 282.087 472.752 279.569 468.51 277.135 464.408 274 459.128 271.039 454.139 271.039 449.533 271.039 444.928 273.999 439.94 277.135 434.659 279.569 430.557 282.087 426.316 283.611 421.63 285.198 416.752 285.692 411.712 286.172 406.838 286.762 400.83 287.319 395.155 289.852 391.681 292.429 388.145 297.687 385.861 303.254 383.443 307.731 381.5 312.359 379.488 316.473 376.498 320.532 373.549 323.836 369.801 327.032 366.177 331.066 361.601 334.878 357.279 339.127 355.9 340.27 355.53 341.572 355.35 343.108 355.35 346.451 355.35 350.338 356.202 354.453 357.105 359.312 358.171 364.335 359.273 369.591 359.273 374.844 359.273 379.869 358.171 384.728 357.105 388.843 356.202 392.73 355.35 396.071 355.35 397.608 355.35 398.91 355.53 400.054 355.9 404.303 357.279 408.115 361.602 412.15 366.178 415.346 369.802 418.65 373.55 422.707 376.498 426.821 379.488 431.451 381.5 435.926 383.443 441.494 385.861 446.752 388.145 449.328 391.681 451.862 395.157 452.419 400.831 453.009 406.839 453.488 411.712 453.983 416.752 455.568 421.63 457.092 426.316 459.61 430.558 462.046 434.66 465.18 439.94 468.142 444.928 468.142 449.533 468.142 454.14 465.179 459.128 462.045 464.409 459.609 468.51 457.092 472.752 455.569 477.436 453.983 482.315 453.488 487.354 453.009 492.228 452.419 498.236 451.862 503.91 449.328 507.387 446.751 510.923 441.493 513.206 435.926 515.624 431.45 517.568 426.821 519.578 422.707 522.568 418.649 525.518 415.345 529.265 412.15 532.889 408.115 537.466 404.303 541.789 400.054 543.166 398.91 543.538 397.607 543.718 396.071 543.718" fill="#01B4F0" transform="matrix(1 0 0 1.00074 335 0)"/><path d="M446.994 449.532C446.994 492.227 412.339 526.839 369.589 526.839 326.838 526.839 292.183 492.227 292.183 449.532 292.183 406.837 326.838 372.226 369.589 372.226 412.339 372.226 446.994 406.837 446.994 449.532" fill="#03687F" transform="matrix(1 0 0 1.00074 335 0)"/><path d="M369.591 522.987C329.035 522.987 296.04 490.034 296.04 449.531 296.04 409.027 329.035 376.076 369.591 376.076 410.147 376.076 443.141 409.027 443.141 449.531 443.141 490.034 410.147 522.987 369.591 522.987" fill="#FFFFFF" transform="matrix(1 0 0 1.00074 335 0)"/><path d="M436.271 449.532C436.271 486.311 406.418 516.128 369.591 516.128 332.763 516.128 302.91 486.311 302.91 449.532 302.91 412.753 332.763 382.938 369.591 382.938 406.418 382.938 436.271 412.753 436.271 449.532" fill="#01B4F0" transform="matrix(1 0 0 1.00074 335 0)"/><path d="M352.587 453.332 354.401 439.508 344.472 439.508 342.659 453.332 352.587 453.332ZM333.59 477.644 336.072 458.958 328.245 458.958 328.245 453.332 336.932 453.332 338.746 439.508 330.535 439.508 330.535 433.883 339.604 433.883 342.087 415.673 347.624 415.673 345.237 433.883 355.166 433.883 357.647 415.673 363.279 415.673 360.893 433.883 368.721 433.883 368.721 439.508 360.033 439.508 358.316 453.332 366.525 453.332 366.525 458.958 357.456 458.958 354.974 477.644 349.246 477.644 351.728 458.958 341.799 458.958 339.317 477.644 333.59 477.644Z" fill="#FFFFFF" transform="matrix(1 0 0 1.00074 335 0)"/><path d="M394.69 423.492 394.499 423.492 383.711 429.308 382.088 422.92 395.644 415.675 402.804 415.675 402.804 477.646 394.69 477.646 394.69 423.492Z" fill="#FFFFFF" transform="matrix(1 0 0 1.00074 335 0)"/></g></svg>