<svg width="960" height="720" xmlns="http://www.w3.org/2000/svg" xmlns:xlink="http://www.w3.org/1999/xlink" xml:space="preserve" overflow="hidden"><defs><clipPath id="clip0"><rect x="160" y="0" width="960" height="720"/></clipPath></defs><g clip-path="url(#clip0)" transform="translate(-160 0)"><path d="M217.837 451.421C225.633 469.28 237.072 482.818 249.946 489.174 249.817 490.852 249.749 492.548 249.749 494.259 249.749 527.876 274.849 555.231 306.12 556.092 314.647 583.841 339.089 603.879 367.909 603.879 403.826 603.879 432.939 572.774 432.939 534.398L432.939 134.222C432.939 104.878 412.522 81.0898 387.34 81.0898 369.205 81.0898 353.546 93.4245 346.196 111.288 341.981 110.213 337.566 109.641 333.017 109.641 303.674 109.641 279.883 133.427 279.883 162.771L279.885 162.919C249.764 165.096 225.958 191.89 225.958 224.629 225.958 236.491 229.086 247.572 234.506 256.988 218.504 266.142 207.719 283.38 207.719 303.138 207.719 317.892 213.733 331.24 223.445 340.869 213.473 354.652 207.425 375.01 207.251 397.906 207.251 397.906 206.746 421.607 217.837 451.421Z" fill="#01B4F0" transform="matrix(1 0 0 1.00019 160 0)"/><path d="M646.528 304.63 644.642 302.747 744.136 203.251 959.936 203.251 959.936 205.918 745.24 205.918 646.528 304.63Z" fill="#01B4F0" transform="matrix(1 0 0 1.00019 160 0)"/><path d="M552.851 166.341 550.965 164.456 605.279 110.144 687.887 110.144 687.887 112.809 606.385 112.809 552.851 166.341Z" fill="#01B4F0" transform="matrix(1 0 0 1.00019 160 0)"/><path d="M656.715 450.319 654.83 448.434 695.937 407.327 817.424 407.327 817.424 409.992 697.04 409.992 656.715 450.319Z" fill="#01B4F0" transform="matrix(1 0 0 1.00019 160 0)"/><path d="M859.364 577.642 696.891 577.642 617.635 498.384 619.521 496.501 697.994 574.975 859.364 574.975 859.364 577.642Z" fill="#01B4F0" transform="matrix(1 0 0 1.00019 160 0)"/><path d="M762.77 243.954 757.86 243.954 762.77 233.771 767.68 233.771 762.77 243.954Z" fill="#01B4F0" transform="matrix(1 0 0 1.00019 160 0)"/><path d="M790.411 241.348 764.973 241.348 768.625 233.771 794.062 233.771 790.411 241.348Z" fill="#01B4F0" transform="matrix(1 0 0 1.00019 160 0)"/><path d="M500.067 661.629 497.08 661.629 506.192 643.209 509.181 643.209 500.067 661.629Z" fill="#01B4F0" transform="matrix(1 0 0 1.00019 160 0)"/><path d="M766.991 244.342 871.264 244.342 871.264 246.525 766.991 246.525Z" fill="#01B4F0" transform="matrix(1 0 0 1.00019 160 0)"/><path d="M403.998 659.938 548.565 659.938 548.565 662.229 403.998 662.229Z" fill="#01B4F0" transform="matrix(1 0 0 1.00019 160 0)"/><path d="M403.998 667.369 481.226 667.369 481.226 680.629 403.998 680.629Z" fill="#01B4F0" transform="matrix(1 0 0 1.00019 160 0)"/><path d="M344.48 63.7233 344.489 59.352 342.776 59.3475 342.765 65.4342 348.845 65.4431 348.849 63.7299 344.48 63.7233ZM342.86 9.9261 342.849 16.0111 344.562 16.0133 344.571 11.6415 348.938 11.6503 348.94 9.93497 342.86 9.9261Z" fill="#FFA955" transform="matrix(1 0 0 1.00019 160 0)"/><path d="M577.104 59.4401 577.094 63.8114 572.725 63.8026 572.723 65.5185 578.808 65.529 578.819 59.4424 577.104 59.4401ZM572.818 10.0104 572.814 11.7235 577.185 11.7324 577.176 16.1015 578.892 16.1059 578.903 10.0193 572.818 10.0104Z" fill="#FFA955" transform="matrix(1 0 0 1.00019 160 0)"/><path d="M106.846 156.943 161.473 156.943 161.473 160.773 106.846 160.773Z" fill="#0182F0" transform="matrix(1 0 0 1.00019 160 0)"/><path d="M106.846 164.16 161.473 164.16 161.473 180.259 106.846 180.259Z" fill="#0182F0" transform="matrix(1 0 0 1.00019 160 0)"/><path d="M154.907 185.673 187.133 185.673 187.133 188.077 154.907 188.077Z" fill="#0182F0" transform="matrix(1 0 0 1.00019 160 0)"/><path d="M154.907 189.13 187.133 189.13 187.133 195.645 154.907 195.645Z" fill="#0182F0" transform="matrix(1 0 0 1.00019 160 0)"/><path d="M160.27 135.151 162.676 135.151 162.676 180.259 160.27 180.259Z" fill="#0182F0" transform="matrix(1 0 0 1.00019 160 0)"/><path d="M497.08 635.918 537.319 635.918 537.319 643.208 497.08 643.208Z" fill="#01B4F0" transform="matrix(1 0 0 1.00019 160 0)"/><path d="M497.08 632.513 537.319 632.513 537.319 633.884 497.08 633.884Z" fill="#01B4F0" transform="matrix(1 0 0 1.00019 160 0)"/><path d="M78.6701 330.419 149.032 330.419 149.032 339.213 78.6701 339.213Z" fill="#0182F0" transform="matrix(1 0 0 1.00019 160 0)"/><path d="M155.832 330.419 161.627 330.419 161.627 339.213 155.832 339.213Z" fill="#0182F0" transform="matrix(1 0 0 1.00019 160 0)"/><path d="M659.289 340.869C668.999 331.24 675.015 317.892 675.015 303.138 675.015 283.38 664.23 266.142 648.227 256.988 653.648 247.572 656.774 236.491 656.774 224.629 656.774 191.89 632.972 165.096 602.847 162.919L602.849 162.771C602.849 133.427 579.06 109.641 549.716 109.641 545.166 109.641 540.751 110.213 536.536 111.288 529.188 93.4245 513.526 81.0898 495.394 81.0898 470.21 81.0898 449.794 104.878 449.794 134.222L449.794 534.398C449.794 572.774 478.909 603.879 514.822 603.879 543.647 603.879 568.085 583.841 576.616 556.092 607.885 555.231 632.985 527.876 632.985 494.259 632.985 492.548 632.917 490.852 632.789 489.174 653.743 478.83 670.91 449.469 674.721 413.401 677.794 384.32 671.464 357.694 659.289 340.869Z" fill="#01B4F0" fill-rule="evenodd" transform="matrix(1 0 0 1.00019 160 0)"/><path d="M799.501 398.653 732.336 398.653C727.938 398.653 724.37 395.087 724.37 390.689L724.37 289.149C724.37 284.751 727.938 281.184 732.336 281.184L799.501 281.184C803.899 281.184 807.464 284.751 807.464 289.149L807.464 390.689C807.464 395.087 803.899 398.653 799.501 398.653Z" fill="#9CC7FF" transform="matrix(1 0 0 1.00019 160 0)"/><path d="M728.962 286.615 802.87 286.615 802.87 383.017 728.962 383.017Z" fill="#FFFFFF" transform="matrix(1 0 0 1.00019 160 0)"/><path d="M769.281 393.513C769.281 395.452 767.709 397.023 765.771 397.023 763.83 397.023 762.262 395.452 762.262 393.513 762.262 391.575 763.83 390.003 765.771 390.003 767.709 390.003 769.281 391.575 769.281 393.513Z" fill="#757575" transform="matrix(1 0 0 1.00019 160 0)"/><path d="M842.349 559.634 712.816 559.634 712.816 477.518C712.816 474.294 715.43 471.68 718.653 471.68L836.513 471.68C839.734 471.68 842.349 474.294 842.349 477.518L842.349 559.634Z" fill="#609AE8" transform="matrix(1 0 0 1.00019 160 0)"/><path d="M716.434 476.362 838.736 476.362 838.736 554.953 716.434 554.953Z" fill="#FFFFFF" transform="matrix(1 0 0 1.00019 160 0)"/><path d="M848.599 559.634 706.572 559.634 706.572 561C706.572 563.816 708.853 566.098 711.67 566.098L843.499 566.098C846.316 566.098 848.599 563.816 848.599 561L848.599 559.634Z" fill="#9CC7FF" transform="matrix(1 0 0 1.00019 160 0)"/><path d="M767.479 562.163 787.698 562.163 787.698 563.563 767.479 563.563Z" fill="#757575" transform="matrix(1 0 0 1.00019 160 0)"/><path d="M574.297 543.662 571.158 543.044 572.727 543.351 571.158 543.046C571.187 542.894 573.992 527.79 564.959 516.829 558.551 509.057 547.762 505.114 532.89 505.114 517.555 505.114 506.558 500.858 500.208 492.462 490.486 479.599 495.332 461.943 495.544 461.197L498.621 462.069C498.575 462.235 494.005 478.97 502.772 490.545 508.486 498.091 518.619 501.915 532.89 501.915 548.778 501.915 560.406 506.258 567.449 514.822 577.437 526.965 574.428 542.985 574.297 543.662Z" fill="#FFFFFF" transform="matrix(1 0 0 1.00019 160 0)"/><path d="M532.89 484.904C532.839 483.893 531.788 459.945 547.766 443.115 557.657 432.699 571.853 427.418 589.964 427.418 605.921 427.418 617.665 422.746 624.871 413.535 638.307 396.35 631.656 368.744 631.587 368.468L634.691 367.696C634.987 368.885 641.796 397.068 627.401 415.491 619.559 425.528 606.964 430.617 589.964 430.617 572.776 430.617 559.366 435.556 550.107 445.296 535.072 461.109 536.072 484.504 536.083 484.741L532.89 484.904Z" fill="#FFFFFF" transform="matrix(1 0 0 1.00019 160 0)"/><path d="M595.1 395.111C583.854 395.111 570.658 392.959 560.213 385.031 548.474 376.12 542.52 361.569 542.52 341.778 542.52 321.034 536.59 304.932 524.89 293.926 506.204 276.344 478.925 277.79 478.653 277.808L478.457 274.615C479.628 274.544 507.4 273.076 527.083 291.598 539.448 303.232 545.719 320.115 545.719 341.778 545.719 360.516 551.245 374.21 562.147 382.485 583.249 398.503 617.799 389.108 618.145 389.014L619.006 392.094C618.218 392.312 607.925 395.111 595.1 395.111Z" fill="#FFFFFF" transform="matrix(1 0 0 1.00019 160 0)"/><path d="M513.877 270.646 510.696 270.301C510.748 269.835 512.002 258.757 518.233 247.51 526.576 232.455 539.863 224.499 556.664 224.499 596.826 224.499 602.239 201.458 602.239 178.921L605.438 178.921C605.438 194.296 602.55 205.107 596.346 212.941 588.487 222.869 575.507 227.695 556.664 227.695 540.909 227.695 528.936 234.855 521.079 248.974 515.133 259.662 513.89 270.538 513.877 270.646Z" fill="#FFFFFF" transform="matrix(1 0 0 1.00019 160 0)"/><path d="M634.687 259.64 634.685 259.64 634.918 258.057 634.687 259.64ZM558.046 330.998C554.392 331 551.895 330.58 551.63 330.534L552.182 327.383C552.343 327.41 568.599 330.106 579.565 320.879 586.354 315.166 589.798 306.048 589.798 293.774 589.798 281.184 593.593 271.52 601.082 265.053 614.368 253.575 634.307 256.352 635.151 256.476L634.685 259.64C634.431 259.604 615.302 256.979 603.157 267.486 596.415 273.317 592.997 282.163 592.997 293.774 592.997 307.045 589.162 316.994 581.603 323.343 573.951 329.77 564.3 330.998 558.046 330.998Z" fill="#FFFFFF" transform="matrix(1 0 0 1.00019 160 0)"/><path d="M534.102 222.343C530.837 222.343 509.406 221.845 496.433 209.106 490.013 202.802 486.757 194.528 486.757 184.514 486.757 165.164 498.782 157.969 510.408 151.008 521.957 144.1 532.864 137.572 532.864 119.457L536.06 119.457C536.06 139.384 523.856 146.69 512.051 153.755 500.69 160.555 489.956 166.979 489.956 184.514 489.956 193.632 492.885 201.134 498.663 206.814 511.466 219.394 534.208 219.149 534.434 219.142L534.493 222.339C534.435 222.341 534.306 222.343 534.102 222.343Z" fill="#FFFFFF" transform="matrix(1 0 0 1.00019 160 0)"/><path d="M470.825 419.254 467.624 419.254C467.624 406.921 471.046 378.233 502.723 378.233 514.61 378.233 523.278 373.213 528.49 363.313 532.458 355.78 532.862 348.095 532.866 348.017L536.06 348.165C536.048 348.503 535.637 356.548 531.371 364.704 527.384 372.334 519.175 381.432 502.723 381.432 474.969 381.432 470.825 405.128 470.825 419.254Z" fill="#FFFFFF" transform="matrix(1 0 0 1.00019 160 0)"/><path d="M308.443 543.662C308.308 542.985 305.301 526.965 315.289 514.82 322.332 506.258 333.958 501.915 349.848 501.915 364.118 501.915 374.25 498.091 379.964 490.545 388.733 478.97 384.161 462.235 384.114 462.069L387.194 461.197C387.404 461.943 392.252 479.599 382.529 492.462 376.177 500.858 365.185 505.114 349.848 505.114 334.962 505.114 324.167 509.064 317.759 516.851 308.721 527.841 311.551 542.894 311.58 543.044L308.443 543.662Z" fill="#FFFFFF" transform="matrix(1 0 0 1.00019 160 0)"/><path d="M349.845 484.904 346.65 484.741C346.661 484.504 347.664 461.109 332.629 445.296 323.37 435.556 309.957 430.617 292.774 430.617 275.772 430.617 263.176 425.528 255.334 415.491 240.939 397.068 247.749 368.885 248.042 367.696L251.148 368.468C251.078 368.744 244.428 396.35 257.867 413.535 265.069 422.746 276.814 427.418 292.774 427.418 310.883 427.418 325.078 432.699 334.967 443.115 350.947 459.945 349.898 483.893 349.845 484.904Z" fill="#FFFFFF" transform="matrix(1 0 0 1.00019 160 0)"/><path d="M287.635 395.111C274.805 395.111 264.515 392.312 263.728 392.094L264.59 389.014C264.936 389.108 299.519 398.487 320.599 382.477 331.492 374.201 337.014 360.509 337.014 341.778 337.014 320.115 343.286 303.232 355.654 291.598 375.336 273.076 403.106 274.544 404.278 274.615L404.084 277.808C403.81 277.792 376.478 276.372 357.822 293.946 346.138 304.952 340.215 321.045 340.215 341.778 340.215 361.569 334.26 376.12 322.522 385.031 312.077 392.959 298.881 395.111 287.635 395.111Z" fill="#FFFFFF" transform="matrix(1 0 0 1.00019 160 0)"/><path d="M368.859 270.646C368.847 270.538 367.605 259.662 361.655 248.974 353.799 234.855 341.829 227.695 326.072 227.695 307.228 227.695 294.249 222.869 286.389 212.941 280.185 205.107 277.295 194.296 277.295 178.921L280.496 178.921C280.496 201.458 285.91 224.499 326.072 224.499 342.873 224.499 356.159 232.455 364.501 247.51 370.733 258.757 371.989 269.835 372.04 270.301L368.859 270.646Z" fill="#FFFFFF" transform="matrix(1 0 0 1.00019 160 0)"/><path d="M324.687 330.998C318.431 331 308.785 329.77 301.131 323.343 293.571 316.994 289.736 307.045 289.736 293.774 289.736 282.155 286.312 273.306 279.56 267.473 267.369 256.942 248.238 259.611 248.047 259.64L247.583 256.476C248.424 256.352 268.365 253.575 281.651 265.053 289.14 271.52 292.935 281.184 292.935 293.774 292.935 306.056 296.384 315.181 303.188 320.895 314.181 330.125 330.388 327.412 330.552 327.383L331.104 330.534C330.836 330.58 328.342 330.998 324.687 330.998Z" fill="#FFFFFF" transform="matrix(1 0 0 1.00019 160 0)"/><path d="M348.633 222.343C348.432 222.343 348.3 222.341 348.243 222.339L348.302 219.142C348.527 219.149 371.269 219.394 384.073 206.814 389.85 201.134 392.78 193.632 392.78 184.514 392.78 166.979 382.048 160.555 370.683 153.755 358.88 146.69 346.673 139.384 346.673 119.457L349.869 119.457C349.869 137.572 360.778 144.1 372.325 151.008 383.953 157.969 395.979 165.164 395.979 184.514 395.979 194.528 392.723 202.802 386.3 209.106 373.327 221.843 351.899 222.343 348.633 222.343Z" fill="#FFFFFF" transform="matrix(1 0 0 1.00019 160 0)"/><path d="M415.109 419.254 411.91 419.254C411.91 405.128 407.767 381.432 380.012 381.432 363.56 381.432 355.351 372.334 351.362 364.704 347.101 356.548 346.69 348.503 346.673 348.165L349.869 348.017 349.869 348.02C349.876 348.165 350.298 355.815 354.246 363.313 359.458 373.213 368.128 378.233 380.012 378.233 411.69 378.233 415.109 406.921 415.109 419.254Z" fill="#FFFFFF" transform="matrix(1 0 0 1.00019 160 0)"/><path d="M342.849 719.49 129.277 719.49 129.277 685.371 151.302 685.371C153.399 693.061 160.444 698.73 168.789 698.73L220.398 698.73C230.391 698.73 238.522 690.601 238.522 680.607L238.522 583.23C238.522 573.235 230.391 565.106 220.398 565.106L170.962 565.106 170.962 547.523C178.217 552.467 186.88 555.207 195.817 555.207 200.743 555.209 205.75 554.376 210.653 552.623 233.57 544.426 245.503 519.204 237.306 496.286 230.864 478.272 213.903 467.045 195.808 467.045 195.371 467.045 194.934 467.052 194.495 467.065 189.995 467.2 185.44 468.03 180.972 469.631 177.349 470.929 174 472.649 170.962 474.72L170.962 450.657 217.555 450.657C217.648 450.911 217.743 451.167 217.837 451.424 225.633 469.282 237.072 482.82 249.946 489.176 249.817 490.854 249.749 492.55 249.749 494.261 249.749 527.879 274.849 555.233 306.12 556.094 312.019 575.293 325.533 590.798 342.849 598.534L342.849 719.49ZM220.398 696.597 168.789 696.597C161.632 696.597 155.556 691.868 153.522 685.371L170.962 685.371 170.962 567.239 220.398 567.239C229.217 567.239 236.39 574.412 236.39 583.23L236.39 680.607C236.39 689.422 229.217 696.597 220.398 696.597ZM195.817 544.174C186.306 544.174 177.214 540.039 170.962 532.913L170.962 489.34C174.548 485.244 179.197 481.979 184.685 480.016 188.035 478.818 191.45 478.195 194.823 478.091 195.152 478.08 195.484 478.076 195.813 478.076 209.375 478.076 222.092 486.494 226.923 499.999 233.067 517.18 224.119 536.089 206.938 542.238 203.264 543.552 199.509 544.174 195.817 544.174ZM211.81 431.763 170.962 431.763 170.962 421.53 209.64 421.53C210.214 424.709 210.927 428.138 211.81 431.763ZM146.085 411.579 129.277 411.579 129.277 377.46 209.05 377.46C207.925 383.951 207.304 390.809 207.251 397.909 207.251 397.909 207.198 400.395 207.503 404.766L153.936 404.766C149.937 404.766 146.628 407.729 146.085 411.579Z" fill="#FFFFFF" transform="matrix(1 0 0 1.00019 160 0)"/><path d="M342.849 598.533C325.533 590.797 312.019 575.292 306.12 556.093 274.849 555.232 249.749 527.877 249.749 494.26 249.749 492.549 249.817 490.853 249.946 489.175 237.072 482.819 225.633 469.281 217.837 451.422 217.743 451.166 217.648 450.91 217.555 450.656L278.364 450.656C283.325 450.656 287.361 446.622 287.361 441.662L287.361 440.761C287.361 435.8 283.325 431.762 278.364 431.762L211.81 431.762C210.927 428.137 210.214 424.708 209.64 421.529L261.364 421.529C269.082 427.567 279.607 430.618 292.774 430.618 309.957 430.618 323.37 435.557 332.629 445.297 337.559 450.484 340.767 456.489 342.849 462.22L342.849 502.221C330.505 503.344 321.252 507.57 315.289 514.821 305.301 526.966 308.308 542.986 308.443 543.663L311.58 543.045C311.551 542.895 308.721 527.842 317.759 516.852 323.116 510.343 331.536 506.515 342.849 505.433L342.849 598.533ZM342.849 454.191C340.842 450.371 338.268 446.591 334.967 443.116 325.078 432.7 310.883 427.419 292.774 427.419 282.395 427.419 273.798 425.443 267.073 421.529L278.364 421.529C282.744 421.529 286.294 417.974 286.294 413.596L286.294 412.697C286.294 408.317 282.744 404.765 278.364 404.765L252.899 404.765C249.129 395.274 249.106 384.725 249.775 377.459L325.981 377.459C324.363 379.307 322.568 380.981 320.599 382.478 310.913 389.834 298.38 391.83 287.623 391.83 274.97 391.83 264.777 389.066 264.59 389.015L263.728 392.095C264.515 392.313 274.805 395.112 287.635 395.112 298.881 395.112 312.077 392.96 322.522 385.032 325.403 382.846 327.935 380.318 330.116 377.459L342.849 377.459 342.849 454.191ZM249.444 404.765 207.503 404.765C207.198 400.394 207.251 397.908 207.251 397.908 207.304 390.808 207.925 383.95 209.05 377.459L246.512 377.459C245.843 384.763 245.888 395.104 249.444 404.765Z" fill="#FFF8F2" transform="matrix(1 0 0 1.00019 160 0)"/><path d="M308.443 543.662C308.308 542.985 305.301 526.965 315.289 514.82 321.252 507.569 330.505 503.343 342.849 502.22L342.849 505.432C331.536 506.514 323.116 510.342 317.759 516.851 308.721 527.841 311.551 542.894 311.58 543.044L308.443 543.662Z" fill="#FFFFFF" transform="matrix(1 0 0 1.00019 160 0)"/><path d="M342.849 462.219C340.767 456.488 337.559 450.483 332.629 445.296 323.37 435.556 309.957 430.617 292.774 430.617 279.607 430.617 269.082 427.566 261.364 421.528L267.073 421.528C273.798 425.442 282.395 427.418 292.774 427.418 310.883 427.418 325.078 432.699 334.967 443.115 338.268 446.59 340.842 450.37 342.849 454.19L342.849 462.219ZM252.899 404.764 249.444 404.764C245.888 395.103 245.843 384.761 246.512 377.458L249.775 377.458C249.106 384.724 249.129 395.273 252.899 404.764Z" fill="#FFFFFF" transform="matrix(1 0 0 1.00019 160 0)"/><path d="M287.635 395.111C274.805 395.111 264.515 392.312 263.728 392.094L264.59 389.014C264.777 389.065 274.97 391.829 287.623 391.829 298.38 391.829 310.913 389.833 320.599 382.477 322.568 380.98 324.363 379.306 325.981 377.458L330.116 377.458C327.935 380.317 325.403 382.845 322.522 385.031 312.077 392.959 298.881 395.111 287.635 395.111Z" fill="#FFFFFF" transform="matrix(1 0 0 1.00019 160 0)"/><path d="M216.789 448.522 170.962 448.522 170.962 433.893 212.345 433.893C213.53 438.508 214.99 443.414 216.789 448.522Z" fill="#FFFFFF" transform="matrix(1 0 0 1.00019 160 0)"/><path d="M278.364 448.522 216.789 448.522C214.99 443.414 213.53 438.508 212.345 433.893L278.364 433.893C282.15 433.893 285.228 436.973 285.228 440.76L285.228 441.66C285.228 445.444 282.15 448.522 278.364 448.522Z" fill="#FFF8F2" transform="matrix(1 0 0 1.00019 160 0)"/><path d="M278.364 421.528 153.936 421.528C149.558 421.528 146.005 417.973 146.005 413.595L146.005 412.696C146.005 408.316 149.558 404.764 153.936 404.764L278.364 404.764C282.744 404.764 286.294 408.316 286.294 412.696L286.294 413.595C286.294 417.973 282.744 421.528 278.364 421.528Z" fill="#609AE8" transform="matrix(1 0 0 1.00019 160 0)"/><path d="M317.74 421.528 304.769 421.528C300.139 421.528 296.388 417.774 296.388 413.144 296.388 408.517 300.139 404.764 304.769 404.764L317.74 404.764C322.367 404.764 326.12 408.517 326.12 413.144 326.12 417.774 322.367 421.528 317.74 421.528Z" fill="#609AE8" transform="matrix(1 0 0 1.00019 160 0)"/><path d="M153.936 433.893C150.152 433.893 147.071 436.973 147.071 440.76L147.071 441.66C147.071 445.444 150.152 448.522 153.936 448.522L278.364 448.522C282.15 448.522 285.228 445.444 285.228 441.66L285.228 440.76C285.228 436.973 282.15 433.893 278.364 433.893L153.936 433.893ZM278.364 450.655 153.936 450.655C148.975 450.655 144.939 446.621 144.939 441.66L144.939 440.76C144.939 435.799 148.975 431.761 153.936 431.761L278.364 431.761C283.325 431.761 287.361 435.799 287.361 440.76L287.361 441.66C287.361 446.621 283.325 450.655 278.364 450.655Z" fill="#609AE8" transform="matrix(1 0 0 1.00019 160 0)"/><path d="M206.938 542.236C193.629 546.994 179.283 542.695 170.637 532.533 168.577 530.111 166.838 527.356 165.515 524.309 165.226 523.638 164.953 522.947 164.703 522.249 162.186 515.215 162.201 507.894 164.272 501.275 167.262 491.724 174.536 483.641 184.685 480.014 188.035 478.815 191.45 478.193 194.823 478.089 208.753 477.667 221.975 486.165 226.923 499.996 233.067 517.178 224.119 536.087 206.938 542.236ZM237.306 496.283C230.709 477.835 213.077 466.505 194.495 467.063 189.995 467.198 185.44 468.028 180.972 469.629 167.438 474.47 157.731 485.251 153.743 497.988 150.981 506.814 150.962 516.581 154.318 525.962 154.651 526.896 155.015 527.815 155.404 528.711 157.168 532.773 159.484 536.449 162.234 539.679 173.766 553.237 192.901 558.968 210.653 552.621 233.57 544.424 245.503 519.202 237.306 496.283Z" fill="#9CC7FF" transform="matrix(1 0 0 1.00019 160 0)"/><path d="M164.272 501.275 153.743 497.988C157.731 485.251 167.438 474.47 180.972 469.629 185.44 468.028 189.995 467.198 194.495 467.063L194.823 478.089C191.45 478.193 188.035 478.815 184.685 480.014 174.536 483.641 167.262 491.724 164.272 501.275Z" fill="#417BC4" transform="matrix(1 0 0 1.00019 160 0)"/><path d="M165.515 524.309 155.404 528.711C155.015 527.815 154.651 526.896 154.318 525.962 150.962 516.581 150.981 506.814 153.743 497.988L164.272 501.275C162.201 507.894 162.186 515.215 164.703 522.249 164.953 522.947 165.226 523.638 165.515 524.309Z" fill="#5D90D1" transform="matrix(1 0 0 1.00019 160 0)"/><path d="M162.234 539.679C159.484 536.449 157.168 532.773 155.404 528.711L165.515 524.309C166.838 527.356 168.577 530.111 170.637 532.533L162.234 539.679Z" fill="#70A1E3" transform="matrix(1 0 0 1.00019 160 0)"/><path d="M315.729 697.667 269.528 697.667C263.788 697.667 259.136 693.012 259.136 687.272L259.136 479.544C259.136 473.804 263.788 469.15 269.528 469.15L315.729 469.15C321.466 469.15 326.12 473.804 326.12 479.544L326.12 687.272C326.12 693.012 321.466 697.667 315.729 697.667Z" fill="#1930AB" transform="matrix(1 0 0 1.00019 160 0)"/><path d="M168.789 567.237C159.972 567.237 152.799 574.411 152.799 583.229L152.799 680.605C152.799 689.42 159.972 696.596 168.789 696.596L220.398 696.596C229.217 696.596 236.39 689.42 236.39 680.605L236.39 583.229C236.39 574.411 229.217 567.237 220.398 567.237L168.789 567.237ZM220.398 698.729 168.789 698.729C158.797 698.729 150.666 690.599 150.666 680.605L150.666 583.229C150.666 573.234 158.797 565.104 168.789 565.104L220.398 565.104C230.391 565.104 238.522 573.234 238.522 583.229L238.522 680.605C238.522 690.599 230.391 698.729 220.398 698.729Z" fill="#9CC7FF" transform="matrix(1 0 0 1.00019 160 0)"/><path d="M170.962 685.371 153.522 685.371C153.052 683.868 152.799 682.267 152.799 680.607L152.799 583.231C152.799 574.413 159.972 567.24 168.789 567.24L170.962 567.24 170.962 685.371Z" fill="#FFFFFF" transform="matrix(1 0 0 1.00019 160 0)"/><path d="M0 411.577 129.277 411.577 129.277 685.368 2.77567e-06 685.368Z" fill="#FEFEFE" transform="matrix(1 0 0 1.00019 160 0)"/><path d="M151.302 685.371 129.277 685.371 129.277 411.58 146.085 411.58C146.031 411.944 146.005 412.32 146.005 412.699L146.005 413.598C146.005 417.976 149.558 421.53 153.936 421.53L170.962 421.53 170.962 431.764 153.936 431.764C148.975 431.764 144.939 435.802 144.939 440.763L144.939 441.663C144.939 446.624 148.975 450.658 153.936 450.658L170.962 450.658 170.962 474.72C162.652 480.385 156.664 488.663 153.743 497.99 152.428 502.198 151.734 506.618 151.732 511.109 151.73 516.039 152.562 521.055 154.318 525.965 154.651 526.899 155.015 527.818 155.404 528.714 157.168 532.776 159.484 536.452 162.234 539.682 164.8 542.7 167.743 545.327 170.962 547.524L170.962 565.107 168.789 565.107C158.797 565.107 150.666 573.236 150.666 583.231L150.666 680.607C150.666 682.256 150.886 683.855 151.302 685.371ZM170.962 532.913C170.854 532.787 170.745 532.661 170.637 532.535 168.577 530.114 166.838 527.358 165.515 524.311 165.226 523.64 164.953 522.949 164.703 522.252 163.385 518.569 162.762 514.809 162.764 511.111 162.764 507.746 163.285 504.43 164.272 501.278 165.646 496.893 167.922 492.818 170.962 489.34L170.962 532.913Z" fill="#FFFFFF" transform="matrix(1 0 0 1.00019 160 0)"/><path d="M170.962 448.522 153.936 448.522C150.152 448.522 147.071 445.444 147.071 441.66L147.071 440.76C147.071 436.973 150.152 433.893 153.936 433.893L170.962 433.893 170.962 448.522Z" fill="#FFFFFF" transform="matrix(1 0 0 1.00019 160 0)"/><path d="M170.962 421.528 153.936 421.528C149.558 421.528 146.005 417.973 146.005 413.595L146.005 412.696C146.005 412.317 146.031 411.941 146.085 411.577L170.962 411.577 170.962 421.528Z" fill="#E9F1FC" transform="matrix(1 0 0 1.00019 160 0)"/><path d="M170.962 450.655 153.936 450.655C148.975 450.655 144.939 446.621 144.939 441.66L144.939 440.76C144.939 435.799 148.975 431.761 153.936 431.761L170.962 431.761 170.962 433.893 153.936 433.893C150.152 433.893 147.071 436.973 147.071 440.76L147.071 441.66C147.071 445.444 150.152 448.522 153.936 448.522L170.962 448.522 170.962 450.655Z" fill="#E9F1FC" transform="matrix(1 0 0 1.00019 160 0)"/><path d="M170.962 547.521C167.743 545.324 164.8 542.697 162.234 539.679L170.637 532.533C168.577 530.111 166.838 527.356 165.515 524.309L155.404 528.711 165.515 524.309C165.226 523.638 164.953 522.947 164.703 522.249 163.385 518.566 162.762 514.806 162.764 511.108 162.762 514.806 163.385 518.566 164.703 522.249 164.953 522.947 165.226 523.638 165.515 524.309 166.838 527.356 168.577 530.111 170.637 532.533 170.745 532.659 170.854 532.784 170.962 532.91L170.962 547.521Z" fill="#F2F8FF" transform="matrix(1 0 0 1.00019 160 0)"/><path d="M164.272 501.275 153.743 497.988C156.664 488.66 162.652 480.383 170.962 474.717L170.962 489.338C167.922 492.815 165.646 496.89 164.272 501.275Z" fill="#E5EDF7" transform="matrix(1 0 0 1.00019 160 0)"/><path d="M155.404 528.711C155.015 527.815 154.651 526.896 154.318 525.962 152.562 521.052 151.73 516.036 151.732 511.106 151.734 506.615 152.428 502.195 153.743 497.988L164.272 501.275C163.285 504.428 162.764 507.744 162.764 511.108 162.762 514.806 163.385 518.566 164.703 522.249 164.953 522.947 165.226 523.638 165.515 524.309L155.404 528.711Z" fill="#E9F0F9" transform="matrix(1 0 0 1.00019 160 0)"/><path d="M162.234 539.679C159.484 536.449 157.168 532.773 155.404 528.711L165.515 524.309C166.838 527.356 168.577 530.111 170.637 532.533L162.234 539.679Z" fill="#EBF2FC" transform="matrix(1 0 0 1.00019 160 0)"/><path d="M153.522 685.371 151.302 685.371C150.886 683.855 150.666 682.256 150.666 680.607L150.666 583.231C150.666 573.236 158.797 565.107 168.789 565.107L170.962 565.107 170.962 567.24 168.789 567.24C159.972 567.24 152.799 574.413 152.799 583.231L152.799 680.607C152.799 682.267 153.052 683.868 153.522 685.371Z" fill="#F2F8FF" transform="matrix(1 0 0 1.00019 160 0)"/><path d="M74.0886 509.033 29.0523 509.033C22.7577 509.033 17.6555 503.931 17.6555 497.639L17.6555 452.602C17.6555 446.31 22.7577 441.21 29.0523 441.21L74.0886 441.21C80.381 441.21 85.4833 446.31 85.4833 452.602L85.4833 497.639C85.4833 503.931 80.381 509.033 74.0886 509.033Z" fill="#1930AB" transform="matrix(1 0 0 1.00019 160 0)"/><path d="M74.0886 597.479 29.0523 597.479C22.7577 597.479 17.6555 592.378 17.6555 586.085L17.6555 541.048C17.6555 534.757 22.7577 529.654 29.0523 529.654L74.0886 529.654C80.381 529.654 85.4833 534.757 85.4833 541.048L85.4833 586.085C85.4833 592.378 80.381 597.479 74.0886 597.479Z" fill="#1930AB" transform="matrix(1 0 0 1.00019 160 0)"/><path d="M48.4964 491.097 29.445 472.05C28.4051 471.008 28.4051 469.322 29.445 468.282 30.4849 467.24 32.1764 467.24 33.2162 468.282L48.4964 483.56 71.0267 461.029C72.0666 459.987 73.7553 459.987 74.7974 461.029 75.8372 462.069 75.8372 463.76 74.7952 464.798L48.4964 491.097Z" fill="#F5F5F5" transform="matrix(1 0 0 1.00019 160 0)"/><path d="M17.6555 667.369 46.1249 638.902 59.3475 652.122 89.382 622.088 104.055 636.763 110.63 630.188 118.891 638.452 149.595 607.746 149.595 667.369 17.6555 667.369Z" fill="#01B4F0" transform="matrix(1 0 0 1.00019 160 0)"/><path d="M190.83 555.635 190.803 555.633 190.83 555.635Z" fill="#323657" transform="matrix(1 0 0 1.00019 160 0)"/><path d="M852.498 139.45 871.452 139.45 871.452 197.018 852.498 197.018Z" fill="#609AE8" transform="matrix(1 0 0 1.00019 160 0)"/><path d="M788.47 167.18 935.486 167.18C940.085 167.18 943.809 163.453 943.809 158.856L943.809 60.0496C943.809 55.4532 940.085 51.7263 935.486 51.7263L788.47 51.7263C783.873 51.7263 780.147 55.4532 780.147 60.0496L780.147 158.856C780.147 163.453 783.873 167.18 788.47 167.18Z" fill="#9CC7FF" transform="matrix(1 0 0 1.00019 160 0)"/><path d="M786.551 58.3143 937.398 58.3143 937.398 149.087 786.551 149.087Z" fill="#FFFFFF" transform="matrix(1 0 0 1.00019 160 0)"/><path d="M856.696 157.366C856.696 160.283 859.058 162.645 861.975 162.645 864.891 162.645 867.253 160.283 867.253 157.366 867.253 154.45 864.891 152.088 861.975 152.088 859.058 152.088 856.696 154.45 856.696 157.366Z" fill="#757575" transform="matrix(1 0 0 1.00019 160 0)"/><path d="M819.344 194.846 904.613 194.846 904.613 199.19 819.344 199.19Z" fill="#9CC7FF" transform="matrix(1 0 0 1.00019 160 0)"/><path d="M794.554 85.8632 843.037 85.8632 843.037 141.908 794.554 141.908Z" fill="#D7D7E6" transform="matrix(1 0 0 1.00019 160 0)"/><path d="M850.529 85.8632 900.482 85.8632 900.482 92.8488 850.529 92.8488Z" fill="#D7D7E6" transform="matrix(1 0 0 1.00019 160 0)"/><path d="M850.529 100.207 900.482 100.207 900.482 107.195 850.529 107.195Z" fill="#D7D7E6" transform="matrix(1 0 0 1.00019 160 0)"/><path d="M850.529 113.089 900.482 113.089 900.482 141.908 850.529 141.908Z" fill="#D7D7E6" transform="matrix(1 0 0 1.00019 160 0)"/><path d="M907.541 84.267 928.736 84.267 928.736 141.908 907.541 141.908Z" fill="#D7D7E6" transform="matrix(1 0 0 1.00019 160 0)"/><path d="M794.066 65.3038 928.246 65.3038 928.246 79.6966 794.066 79.6966Z" fill="#D7D7E6" transform="matrix(1 0 0 1.00019 160 0)"/><path d="M733.582 293.547 797.908 293.547 797.908 306.379 733.582 306.379Z" fill="#D7D7E6" transform="matrix(1 0 0 1.00019 160 0)"/><path d="M733.582 311.355 760.06 311.355 760.06 374.259 733.582 374.259Z" fill="#D7D7E6" transform="matrix(1 0 0 1.00019 160 0)"/><path d="M764.977 311.355 797.909 311.355 797.909 318.641 764.977 318.641Z" fill="#D7D7E6" transform="matrix(1 0 0 1.00019 160 0)"/><path d="M764.977 323.948 797.909 323.948 797.909 331.234 764.977 331.234Z" fill="#D7D7E6" transform="matrix(1 0 0 1.00019 160 0)"/><path d="M764.977 336.544 797.909 336.544 797.909 343.829 764.977 343.829Z" fill="#D7D7E6" transform="matrix(1 0 0 1.00019 160 0)"/><path d="M764.977 349.137 797.909 349.137 797.909 374.259 764.977 374.259Z" fill="#D7D7E6" transform="matrix(1 0 0 1.00019 160 0)"/><path d="M721.675 482.074 833.621 482.074 833.621 493.002 721.675 493.002Z" fill="#D7D7E6" transform="matrix(1 0 0 1.00019 160 0)"/><path d="M721.675 499.176 760.057 499.176 760.057 549.241 721.675 549.241Z" fill="#D7D7E6" transform="matrix(1 0 0 1.00019 160 0)"/><path d="M764.977 499.176 803.36 499.176 803.36 549.241 764.977 549.241Z" fill="#D7D7E6" transform="matrix(1 0 0 1.00019 160 0)"/><path d="M810.216 499.176 833.621 499.176 833.621 506.329 810.216 506.329Z" fill="#D7D7E6" transform="matrix(1 0 0 1.00019 160 0)"/><path d="M810.216 510.234 833.621 510.234 833.621 517.39 810.216 517.39Z" fill="#D7D7E6" transform="matrix(1 0 0 1.00019 160 0)"/><path d="M810.216 521.295 833.621 521.295 833.621 549.241 810.216 549.241Z" fill="#D7D7E6" transform="matrix(1 0 0 1.00019 160 0)"/><path d="M669.033 97.8335 628.107 98.006C624.678 98.0193 621.885 95.2502 621.872 91.8217L621.512 6.40721C621.499 2.97816 624.268 0.185789 627.694 0.172478L668.62-2.0011e-15C672.05-0.0155286 674.843 2.753 674.857 6.18205L675.217 91.5988C675.232 95.0272 672.464 97.818 669.033 97.8335Z" fill="#9CC7FF" transform="matrix(1 0 0 1.00019 160 0)"/><path d="M664.846 83.3176 632.177 83.4546C628.971 83.4673 626.364 80.8801 626.349 77.6763L626.077 13.1078C626.064 9.90447 628.651 7.29456 631.855 7.28125L664.523 7.14426C667.729 7.13095 670.338 9.71646 670.352 12.922L670.624 77.4888C670.637 80.6944 668.049 83.302 664.846 83.3176Z" fill="#FFFFFF" transform="matrix(1 0 0 1.00019 160 0)"/><path d="M653.82 3.24769 642.521 3.2965C642.06 3.2965 641.687 3.6714 641.689 4.13504 641.691 4.59646 642.066 4.96971 642.53 4.96749L653.827 4.92146C654.289 4.91924 654.662 4.54378 654.66 4.08014 654.657 3.61872 654.282 3.24548 653.82 3.24769Z" fill="#787878" transform="matrix(1 0 0 1.00019 160 0)"/><path d="M652.157 90.0204C652.166 92.0202 650.554 93.6452 648.556 93.6541 646.556 93.6629 644.931 92.0491 644.922 90.0509 644.913 88.0532 646.527 86.4283 648.525 86.4194 650.521 86.4105 652.151 88.0244 652.157 90.0204Z" fill="#787878" transform="matrix(1 0 0 1.00019 160 0)"/><path d="M631.226 11.942 665.167 11.942 665.167 25.6238 631.226 25.6238Z" fill="#D7D7E6" transform="matrix(1 0 0 1.00019 160 0)"/><path d="M631.226 29.1782 665.167 29.1782 665.167 34.8634 631.226 34.8634Z" fill="#D7D7E6" transform="matrix(1 0 0 1.00019 160 0)"/><path d="M631.226 38.4177 665.167 38.4177 665.167 44.1029 631.226 44.1029Z" fill="#D7D7E6" transform="matrix(1 0 0 1.00019 160 0)"/><path d="M631.226 47.6573 665.167 47.6573 665.167 78.0428 631.226 78.0428Z" fill="#D7D7E6" transform="matrix(1 0 0 1.00019 160 0)"/></g></svg>